<svg xmlns="http://www.w3.org/2000/svg" width="1537.398681640625" height="1590.6119384765625" viewBox="-752.9220581054688 -752.6072387695312 1537.398681640625 1590.6119384765625"><title>Neo4j Graph Visualization</title><desc>Created using Neo4j (http://www.neo4j.com/)</desc><g class="layer relationships"><g class="relationship" transform="translate(-203.08350552840835 462.0653087413374) rotate(375.4062085853352)"><path class="b-outline" fill="#A5ABB6" stroke="none" d="M 25 0.5 L 62.95535315880666 0.5 L 62.95535315880666 -0.5 L 25 -0.5 Z M 94.01785315880666 0.5 L 131.97320631761332 0.5 L 131.97320631761332 3.5 L 138.97320631761332 0 L 131.97320631761332 -3.5 L 131.97320631761332 -0.5 L 94.01785315880666 -0.5 Z"/><text text-anchor="middle" pointer-events="none" font-size="8px" fill="#000000" x="78.48660315880666" y="3" font-family="Helvetica Neue, Helvetica, Arial, sans-serif">similar</text></g><g class="relationship" transform="translate(59.9881858023191 331.2661923626495) rotate(481.0541329265876)"><path class="b-outline" fill="#A5ABB6" stroke="none" d="M 25 0.5 L 82.73386125073749 0.5 L 82.73386125073749 -0.5 L 25 -0.5 Z M 113.79636125073749 0.5 L 171.53022250147498 0.5 L 171.53022250147498 3.5 L 178.53022250147498 0 L 171.53022250147498 -3.5 L 171.53022250147498 -0.5 L 113.79636125073749 -0.5 Z"/><text text-anchor="middle" pointer-events="none" font-size="8px" fill="#000000" x="98.26511125073749" y="3" transform="rotate(180 98.26511125073749 0)" font-family="Helvetica Neue, Helvetica, Arial, sans-serif">similar</text></g><g class="relationship" transform="translate(180.7977668184269 586.3917410512836) rotate(468.629809431611)"><path class="b-outline" fill="#A5ABB6" stroke="none" d="M 25 0.5 L 62.077006197031764 0.5 L 62.077006197031764 -0.5 L 25 -0.5 Z M 93.13950619703176 0.5 L 130.21651239406353 0.5 L 130.21651239406353 3.5 L 137.21651239406353 0 L 130.21651239406353 -3.5 L 130.21651239406353 -0.5 L 93.13950619703176 -0.5 Z"/><text text-anchor="middle" pointer-events="none" font-size="8px" fill="#000000" x="77.60825619703176" y="3" transform="rotate(180 77.60825619703176 0)" font-family="Helvetica Neue, Helvetica, Arial, sans-serif">similar</text></g><g class="relationship" transform="translate(244.9945611736205 662.2735380038993) rotate(506.142686747492)"><path class="b-outline" fill="#A5ABB6" stroke="none" d="M 25 0.5 L 50.82266885618371 0.5 L 50.82266885618371 -0.5 L 25 -0.5 Z M 81.88516885618371 0.5 L 107.70783771236742 0.5 L 107.70783771236742 3.5 L 114.70783771236742 0 L 107.70783771236742 -3.5 L 107.70783771236742 -0.5 L 81.88516885618371 -0.5 Z"/><text text-anchor="middle" pointer-events="none" font-size="8px" fill="#000000" x="66.35391885618371" y="3" transform="rotate(180 66.35391885618371 0)" font-family="Helvetica Neue, Helvetica, Arial, sans-serif">similar</text></g><g class="relationship" transform="translate(697.7095463641992 399.7410672897199) rotate(529.2931451569024)"><path class="b-outline" fill="#A5ABB6" stroke="none" d="M 25 0.5 L 26.472446062259145 0.5 L 26.472446062259145 -0.5 L 25 -0.5 Z M 65.86697731225914 0.5 L 67.33942337451829 0.5 L 67.33942337451829 3.5 L 74.33942337451829 0 L 67.33942337451829 -3.5 L 67.33942337451829 -0.5 L 65.86697731225914 -0.5 Z"/><text text-anchor="middle" pointer-events="none" font-size="8px" fill="#000000" x="46.169711687259145" y="3" transform="rotate(180 46.169711687259145 0)" font-family="Helvetica Neue, Helvetica, Arial, sans-serif">Official…</text></g><g class="relationship" transform="translate(375.71586249738107 410.5061353915272) rotate(310.7543707191761)"><path class="b-outline" fill="#A5ABB6" stroke="none" d="M 25 0.5 L 47.87592510716303 0.5 L 47.87592510716303 -0.5 L 25 -0.5 Z M 78.93842510716303 0.5 L 101.81435021432605 0.5 L 101.81435021432605 3.5 L 108.81435021432605 0 L 101.81435021432605 -3.5 L 101.81435021432605 -0.5 L 78.93842510716303 -0.5 Z"/><text text-anchor="middle" pointer-events="none" font-size="8px" fill="#000000" x="63.40717510716303" y="3" font-family="Helvetica Neue, Helvetica, Arial, sans-serif">similar</text></g><g class="relationship" transform="translate(629.02050505803 -105.86194372137625) rotate(500.09804198123834)"><path class="b-outline" fill="#A5ABB6" stroke="none" d="M 25 0.5 L 30.713803798721067 0.5 L 30.713803798721067 -0.5 L 25 -0.5 Z M 61.77630379872107 0.5 L 67.49010759744213 0.5 L 67.49010759744213 3.5 L 74.49010759744213 0 L 67.49010759744213 -3.5 L 67.49010759744213 -0.5 L 61.77630379872107 -0.5 Z"/><text text-anchor="middle" pointer-events="none" font-size="8px" fill="#000000" x="46.24505379872107" y="3" transform="rotate(180 46.24505379872107 0)" font-family="Helvetica Neue, Helvetica, Arial, sans-serif">similar</text></g><g class="relationship" transform="translate(325.99078325084565 29.566770149115076) rotate(233.9182802097804)"><path class="b-outline" fill="#A5ABB6" stroke="none" d="M 25 0.5 L 61.9683029279755 0.5 L 61.9683029279755 -0.5 L 25 -0.5 Z M 93.0308029279755 0.5 L 129.999105855951 0.5 L 129.999105855951 3.5 L 136.999105855951 0 L 129.999105855951 -3.5 L 129.999105855951 -0.5 L 93.0308029279755 -0.5 Z"/><text text-anchor="middle" pointer-events="none" font-size="8px" fill="#000000" x="77.4995529279755" y="3" transform="rotate(180 77.4995529279755 0)" font-family="Helvetica Neue, Helvetica, Arial, sans-serif">similar</text></g><g class="relationship" transform="translate(522.8047762346541 -399.3305395303981) rotate(273.1926329387224)"><path class="b-outline" fill="#A5ABB6" stroke="none" d="M 25 0.5 L 41.31316740064293 0.5 L 41.31316740064293 -0.5 L 25 -0.5 Z M 72.37566740064293 0.5 L 88.68883480128586 0.5 L 88.68883480128586 3.5 L 95.68883480128586 0 L 88.68883480128586 -3.5 L 88.68883480128586 -0.5 L 72.37566740064293 -0.5 Z"/><text text-anchor="middle" pointer-events="none" font-size="8px" fill="#000000" x="56.84441740064293" y="3" font-family="Helvetica Neue, Helvetica, Arial, sans-serif">similar</text></g><g class="relationship" transform="translate(398.80196374460104 -347.7889042573568) rotate(307.22882869098686)"><path class="b-outline" fill="#A5ABB6" stroke="none" d="M 25 0.5 L 89.00543636884855 0.5 L 89.00543636884855 -0.5 L 25 -0.5 Z M 120.06793636884855 0.5 L 184.0733727376971 0.5 L 184.0733727376971 3.5 L 191.0733727376971 0 L 184.0733727376971 -3.5 L 184.0733727376971 -0.5 L 120.06793636884855 -0.5 Z"/><text text-anchor="middle" pointer-events="none" font-size="8px" fill="#000000" x="104.53668636884855" y="3" font-family="Helvetica Neue, Helvetica, Arial, sans-serif">similar</text></g><g class="relationship" transform="translate(127.08825077277787 -723.6072518650261) rotate(400.82666296753484)"><path class="b-outline" fill="#A5ABB6" stroke="none" d="M 25 0.5 L 65.79096643034283 0.5 L 65.79096643034283 -0.5 L 25 -0.5 Z M 96.85346643034283 0.5 L 137.64443286068567 0.5 L 137.64443286068567 3.5 L 144.64443286068567 0 L 137.64443286068567 -3.5 L 137.64443286068567 -0.5 L 96.85346643034283 -0.5 Z"/><text text-anchor="middle" pointer-events="none" font-size="8px" fill="#000000" x="81.32221643034283" y="3" font-family="Helvetica Neue, Helvetica, Arial, sans-serif">similar</text></g><g class="relationship" transform="translate(161.83827618677648 -429.3784893334088) rotate(297.05263950924854)"><path class="b-outline" fill="#A5ABB6" stroke="none" d="M 25 0.5 L 83.88930870004411 0.5 L 83.88930870004411 -0.5 L 25 -0.5 Z M 114.95180870004411 0.5 L 173.84111740008822 0.5 L 173.84111740008822 3.5 L 180.84111740008822 0 L 173.84111740008822 -3.5 L 173.84111740008822 -0.5 L 114.95180870004411 -0.5 Z"/><text text-anchor="middle" pointer-events="none" font-size="8px" fill="#000000" x="99.42055870004411" y="3" font-family="Helvetica Neue, Helvetica, Arial, sans-serif">similar</text></g><g class="relationship" transform="translate(-315.32373151216615 -474.04246049401667) rotate(374.5544879001915)"><path class="b-outline" fill="#A5ABB6" stroke="none" d="M 25 0.5 L 57.450489787240144 0.5 L 57.450489787240144 -0.5 L 25 -0.5 Z M 88.51298978724014 0.5 L 120.96347957448029 0.5 L 120.96347957448029 3.5 L 127.96347957448029 0 L 120.96347957448029 -3.5 L 120.96347957448029 -0.5 L 88.51298978724014 -0.5 Z"/><text text-anchor="middle" pointer-events="none" font-size="8px" fill="#000000" x="72.98173978724014" y="3" font-family="Helvetica Neue, Helvetica, Arial, sans-serif">similar</text></g><g class="relationship" transform="translate(-127.19275574886554 -587.7376729868051) rotate(464.7578972083969)"><path class="b-outline" fill="#A5ABB6" stroke="none" d="M 25 0.5 L 59.63127355968737 0.5 L 59.63127355968737 -0.5 L 25 -0.5 Z M 90.69377355968737 0.5 L 125.32504711937474 0.5 L 125.32504711937474 3.5 L 132.32504711937474 0 L 125.32504711937474 -3.5 L 125.32504711937474 -0.5 L 90.69377355968737 -0.5 Z"/><text text-anchor="middle" pointer-events="none" font-size="8px" fill="#000000" x="75.16252355968737" y="3" transform="rotate(180 75.16252355968737 0)" font-family="Helvetica Neue, Helvetica, Arial, sans-serif">similar</text></g><g class="relationship" transform="translate(-525.2797060277992 -256.49988321373337) rotate(533.1102433902063)"><path class="b-outline" fill="#A5ABB6" stroke="none" d="M 25 0.5 L 85.54357528101244 0.5 L 85.54357528101244 -0.5 L 25 -0.5 Z M 107.54357528101244 0.5 L 168.08715056202487 0.5 L 168.08715056202487 3.5 L 175.08715056202487 0 L 168.08715056202487 -3.5 L 168.08715056202487 -0.5 L 107.54357528101244 -0.5 Z"/><text text-anchor="middle" pointer-events="none" font-size="8px" fill="#000000" x="96.54357528101244" y="3" transform="rotate(180 96.54357528101244 0)" font-family="Helvetica Neue, Helvetica, Arial, sans-serif">造成</text></g><g class="relationship" transform="translate(-525.2797060277992 -256.49988321373337) rotate(506.9826878334074)"><path class="b-outline" fill="#A5ABB6" stroke="none" d="M 25 0.5 L 52.70183349984663 0.5 L 52.70183349984663 -0.5 L 25 -0.5 Z M 74.70183349984663 0.5 L 102.40366699969326 0.5 L 102.40366699969326 3.5 L 109.40366699969326 0 L 102.40366699969326 -3.5 L 102.40366699969326 -0.5 L 74.70183349984663 -0.5 Z"/><text text-anchor="middle" pointer-events="none" font-size="8px" fill="#000000" x="63.70183349984663" y="3" transform="rotate(180 63.70183349984663 0)" font-family="Helvetica Neue, Helvetica, Arial, sans-serif">造成</text></g><g class="relationship" transform="translate(-257.53115050688626 -76.75840376961554) rotate(418.124567492941)"><path class="b-outline" fill="#A5ABB6" stroke="none" d="M 25 0.5 L 43.91410425036423 0.5 L 43.91410425036423 -0.5 L 25 -0.5 Z M 99.76176050036423 0.5 L 118.67586475072846 0.5 L 118.67586475072846 3.5 L 125.67586475072846 0 L 118.67586475072846 -3.5 L 118.67586475072846 -0.5 L 99.76176050036423 -0.5 Z"/><text text-anchor="middle" pointer-events="none" font-size="8px" fill="#000000" x="71.83793237536423" y="3" font-family="Helvetica Neue, Helvetica, Arial, sans-serif">OfficialName</text></g><g class="relationship" transform="translate(-422.6468551919603 -83.75735211135759) rotate(486.1061408837603)"><path class="b-outline" fill="#A5ABB6" stroke="none" d="M 25 0.5 L 39.24176865350201 0.5 L 39.24176865350201 -0.5 L 25 -0.5 Z M 95.089424903502 0.5 L 109.33119355700401 0.5 L 109.33119355700401 3.5 L 116.33119355700401 0 L 109.33119355700401 -3.5 L 109.33119355700401 -0.5 L 95.089424903502 -0.5 Z"/><text text-anchor="middle" pointer-events="none" font-size="8px" fill="#000000" x="67.165596778502" y="3" transform="rotate(180 67.165596778502 0)" font-family="Helvetica Neue, Helvetica, Arial, sans-serif">OfficialName</text></g><g class="relationship" transform="translate(-351.3767925856501 198.21063990164933) rotate(205.93951697356619)"><path class="b-outline" fill="#A5ABB6" stroke="none" d="M 25 0.5 L 38.18644543124499 0.5 L 38.18644543124499 -0.5 L 25 -0.5 Z M 94.03410168124499 0.5 L 107.22054711248998 0.5 L 107.22054711248998 3.5 L 114.22054711248998 0 L 107.22054711248998 -3.5 L 107.22054711248998 -0.5 L 94.03410168124499 -0.5 Z"/><text text-anchor="middle" pointer-events="none" font-size="8px" fill="#000000" x="66.11027355624499" y="3" transform="rotate(180 66.11027355624499 0)" font-family="Helvetica Neue, Helvetica, Arial, sans-serif">OfficialName</text></g><g class="relationship" transform="translate(-525.6946161360931 459.75399445092944) rotate(204.72638654160215)"><path class="b-outline" fill="#A5ABB6" stroke="none" d="M 25 0.5 L 76.98467510683004 0.5 L 76.98467510683004 -0.5 L 25 -0.5 Z M 108.04717510683004 0.5 L 160.03185021366008 0.5 L 160.03185021366008 3.5 L 167.03185021366008 0 L 160.03185021366008 -3.5 L 160.03185021366008 -0.5 L 108.04717510683004 -0.5 Z"/><text text-anchor="middle" pointer-events="none" font-size="8px" fill="#000000" x="92.51592510683004" y="3" transform="rotate(180 92.51592510683004 0)" font-family="Helvetica Neue, Helvetica, Arial, sans-serif">similar</text></g><g class="relationship" transform="translate(-629.4867955360271 492.886540751542) rotate(238.09534282243084)"><path class="b-outline" fill="#A5ABB6" stroke="none" d="M 25 0.5 L 47.79218667106963 0.5 L 47.79218667106963 -0.5 L 25 -0.5 Z M 78.85468667106963 0.5 L 101.64687334213926 0.5 L 101.64687334213926 3.5 L 108.64687334213926 0 L 101.64687334213926 -3.5 L 101.64687334213926 -0.5 L 78.85468667106963 -0.5 Z"/><text text-anchor="middle" pointer-events="none" font-size="8px" fill="#000000" x="63.32343667106963" y="3" transform="rotate(180 63.32343667106963 0)" font-family="Helvetica Neue, Helvetica, Arial, sans-serif">similar</text></g><g class="relationship" transform="translate(-559.5805101877492 -415.0250483065408) rotate(437.79086731339225)"><path class="b-outline" fill="#A5ABB6" stroke="none" d="M 25 0.5 L 66.59681426190718 0.5 L 66.59681426190718 -0.5 L 25 -0.5 Z M 88.59681426190718 0.5 L 130.19362852381437 0.5 L 130.19362852381437 3.5 L 137.19362852381437 0 L 130.19362852381437 -3.5 L 130.19362852381437 -0.5 L 88.59681426190718 -0.5 Z"/><text text-anchor="middle" pointer-events="none" font-size="8px" fill="#000000" x="77.59681426190718" y="3" font-family="Helvetica Neue, Helvetica, Arial, sans-serif">发生</text></g><g class="relationship" transform="translate(-525.2797060277992 -256.49988321373337) rotate(208.66918853388597)"><path class="b-outline" fill="#A5ABB6" stroke="none" d="M 25 0.5 L 83.5401350363973 0.5 L 83.5401350363973 -0.5 L 25 -0.5 Z M 114.7510725363973 0.5 L 173.2912075727946 0.5 L 173.2912075727946 3.5 L 180.2912075727946 0 L 173.2912075727946 -3.5 L 173.2912075727946 -0.5 L 114.7510725363973 -0.5 Z"/><text text-anchor="middle" pointer-events="none" font-size="8px" fill="#000000" x="99.1456037863973" y="3" transform="rotate(180 99.1456037863973 0)" font-family="Helvetica Neue, Helvetica, Arial, sans-serif">source</text></g><g class="relationship" transform="translate(-525.2797060277992 -256.49988321373337) rotate(220.68223194218825)"><path class="b-outline" fill="#A5ABB6" stroke="none" d="M 25 0.5 L 25.806789062297526 0.5 L 25.806789062297526 -0.5 L 25 -0.5 Z M 78.71694531229753 0.5 L 79.52373437459505 0.5 L 79.52373437459505 3.5 L 86.52373437459505 0 L 79.52373437459505 -3.5 L 79.52373437459505 -0.5 L 78.71694531229753 -0.5 Z"/><text text-anchor="middle" pointer-events="none" font-size="8px" fill="#000000" x="52.261867187297526" y="3" transform="rotate(180 52.261867187297526 0)" font-family="Helvetica Neue, Helvetica, Arial, sans-serif">BELONGS_…</text></g><g class="relationship" transform="translate(-723.9219881053994 -232.49755851312273) rotate(319.71099933901473)"><path class="b-outline" fill="#A5ABB6" stroke="none" d="M 25 0.5 L 42.710615472671094 0.5 L 42.710615472671094 -0.5 L 25 -0.5 Z M 99.8317092226711 0.5 L 117.54232469534219 0.5 L 117.54232469534219 3.5 L 124.54232469534219 0 L 117.54232469534219 -3.5 L 117.54232469534219 -0.5 L 99.8317092226711 -0.5 Z"/><text text-anchor="middle" pointer-events="none" font-size="8px" fill="#000000" x="71.2711623476711" y="3" font-family="Helvetica Neue, Helvetica, Arial, sans-serif">BELONGS_TO</text></g><g class="relationship" transform="translate(-723.9219881053994 -232.49755851312273) rotate(278.5971897092825)"><path class="b-outline" fill="#A5ABB6" stroke="none" d="M 25 0.5 L 42.83609293515775 0.5 L 42.83609293515775 -0.5 L 25 -0.5 Z M 74.04703043515775 0.5 L 91.8831233703155 0.5 L 91.8831233703155 3.5 L 98.8831233703155 0 L 91.8831233703155 -3.5 L 91.8831233703155 -0.5 L 74.04703043515775 -0.5 Z"/><text text-anchor="middle" pointer-events="none" font-size="8px" fill="#000000" x="58.44156168515775" y="3" font-family="Helvetica Neue, Helvetica, Arial, sans-serif">source</text></g><g class="relationship" transform="translate(-637.977982475618 -183.26434410425836) rotate(280.9088364190784)"><path class="b-outline" fill="#A5ABB6" stroke="none" d="M 25 0.5 L 42.249146069901656 0.5 L 42.249146069901656 -0.5 L 25 -0.5 Z M 99.37023981990166 0.5 L 116.61938588980331 0.5 L 116.61938588980331 3.5 L 123.61938588980331 0 L 116.61938588980331 -3.5 L 116.61938588980331 -0.5 L 99.37023981990166 -0.5 Z"/><text text-anchor="middle" pointer-events="none" font-size="8px" fill="#000000" x="70.80969294490166" y="3" font-family="Helvetica Neue, Helvetica, Arial, sans-serif">BELONGS_TO</text></g><g class="relationship" transform="translate(-637.977982475618 -183.26434410425836) rotate(248.5632566659956)"><path class="b-outline" fill="#A5ABB6" stroke="none" d="M 25 0.5 L 73.13795671128726 0.5 L 73.13795671128726 -0.5 L 25 -0.5 Z M 104.34889421128726 0.5 L 152.48685092257452 0.5 L 152.48685092257452 3.5 L 159.48685092257452 0 L 152.48685092257452 -3.5 L 152.48685092257452 -0.5 L 104.34889421128726 -0.5 Z"/><text text-anchor="middle" pointer-events="none" font-size="8px" fill="#000000" x="88.74342546128726" y="3" transform="rotate(180 88.74342546128726 0)" font-family="Helvetica Neue, Helvetica, Arial, sans-serif">source</text></g><g class="relationship" transform="translate(-559.5805101877492 -415.0250483065408) rotate(517.6226330600571)"><path class="b-outline" fill="#A5ABB6" stroke="none" d="M 25 0.5 L 59.74341936345222 0.5 L 59.74341936345222 -0.5 L 25 -0.5 Z M 90.95435686345222 0.5 L 125.69777622690444 0.5 L 125.69777622690444 3.5 L 132.69777622690444 0 L 125.69777622690444 -3.5 L 125.69777622690444 -0.5 L 90.95435686345222 -0.5 Z"/><text text-anchor="middle" pointer-events="none" font-size="8px" fill="#000000" x="75.34888811345222" y="3" transform="rotate(180 75.34888811345222 0)" font-family="Helvetica Neue, Helvetica, Arial, sans-serif">source</text></g><g class="relationship" transform="translate(-167.26898874629094 -435.6026474343389) rotate(415.88058468489487)"><path class="b-outline" fill="#A5ABB6" stroke="none" d="M 25 0.5 L 50.95018594218182 0.5 L 50.95018594218182 -0.5 L 25 -0.5 Z M 82.16112344218182 0.5 L 108.11130938436364 0.5 L 108.11130938436364 3.5 L 115.11130938436364 0 L 108.11130938436364 -3.5 L 108.11130938436364 -0.5 L 82.16112344218182 -0.5 Z"/><text text-anchor="middle" pointer-events="none" font-size="8px" fill="#000000" x="66.55565469218182" y="3" font-family="Helvetica Neue, Helvetica, Arial, sans-serif">source</text></g><g class="relationship" transform="translate(-167.26898874629094 -435.6026474343389) rotate(240.09949300402565)"><path class="b-outline" fill="#A5ABB6" stroke="none" d="M 25 0.5 L 61.595918611669134 0.5 L 61.595918611669134 -0.5 L 25 -0.5 Z M 118.71701236166913 0.5 L 155.31293097333827 0.5 L 155.31293097333827 3.5 L 162.31293097333827 0 L 155.31293097333827 -3.5 L 155.31293097333827 -0.5 L 118.71701236166913 -0.5 Z"/><text text-anchor="middle" pointer-events="none" font-size="8px" fill="#000000" x="90.15646548666913" y="3" transform="rotate(180 90.15646548666913 0)" font-family="Helvetica Neue, Helvetica, Arial, sans-serif">BELONGS_TO</text></g><g class="relationship" transform="translate(-127.19275574886554 -587.7376729868051) rotate(184.39002709540802)"><path class="b-outline" fill="#A5ABB6" stroke="none" d="M 25 0.5 L 34.86123026493864 0.5 L 34.86123026493864 -0.5 L 25 -0.5 Z M 91.98232401493864 0.5 L 101.84355427987728 0.5 L 101.84355427987728 3.5 L 108.84355427987728 0 L 101.84355427987728 -3.5 L 101.84355427987728 -0.5 L 91.98232401493864 -0.5 Z"/><text text-anchor="middle" pointer-events="none" font-size="8px" fill="#000000" x="63.42177713993864" y="3" transform="rotate(180 63.42177713993864 0)" font-family="Helvetica Neue, Helvetica, Arial, sans-serif">BELONGS_TO</text></g><g class="relationship" transform="translate(-315.32373151216615 -474.04246049401667) rotate(293.80615567598755)"><path class="b-outline" fill="#A5ABB6" stroke="none" d="M 25 0.5 L 35.67260568280474 0.5 L 35.67260568280474 -0.5 L 25 -0.5 Z M 92.79369943280474 0.5 L 103.46630511560949 0.5 L 103.46630511560949 3.5 L 110.46630511560949 0 L 103.46630511560949 -3.5 L 103.46630511560949 -0.5 L 92.79369943280474 -0.5 Z"/><text text-anchor="middle" pointer-events="none" font-size="8px" fill="#000000" x="64.23315255780474" y="3" font-family="Helvetica Neue, Helvetica, Arial, sans-serif">BELONGS_TO</text></g><g class="relationship" transform="translate(161.83827618677648 -429.3784893334088) rotate(233.1631578197526)"><path class="b-outline" fill="#A5ABB6" stroke="none" d="M 25 0.5 L 71.13225798636965 0.5 L 71.13225798636965 -0.5 L 25 -0.5 Z M 102.34319548636965 0.5 L 148.4754534727393 0.5 L 148.4754534727393 3.5 L 155.4754534727393 0 L 148.4754534727393 -3.5 L 148.4754534727393 -0.5 L 102.34319548636965 -0.5 Z"/><text text-anchor="middle" pointer-events="none" font-size="8px" fill="#000000" x="86.73772673636965" y="3" transform="rotate(180 86.73772673636965 0)" font-family="Helvetica Neue, Helvetica, Arial, sans-serif">source</text></g><g class="relationship" transform="translate(161.83827618677648 -429.3784893334088) rotate(266.4519482714534)"><path class="b-outline" fill="#A5ABB6" stroke="none" d="M 25 0.5 L 46.08796674296062 0.5 L 46.08796674296062 -0.5 L 25 -0.5 Z M 103.20906049296062 0.5 L 124.29702723592123 0.5 L 124.29702723592123 3.5 L 131.29702723592123 0 L 124.29702723592123 -3.5 L 124.29702723592123 -0.5 L 103.20906049296062 -0.5 Z"/><text text-anchor="middle" pointer-events="none" font-size="8px" fill="#000000" x="74.64851361796062" y="3" transform="rotate(180 74.64851361796062 0)" font-family="Helvetica Neue, Helvetica, Arial, sans-serif">BELONGS_TO</text></g><g class="relationship" transform="translate(127.08825077277787 -723.6072518650261) rotate(476.1223765965386)"><path class="b-outline" fill="#A5ABB6" stroke="none" d="M 25 0.5 L 64.3076858371991 0.5 L 64.3076858371991 -0.5 L 25 -0.5 Z M 95.5186233371991 0.5 L 134.8263091743982 0.5 L 134.8263091743982 3.5 L 141.8263091743982 0 L 134.8263091743982 -3.5 L 134.8263091743982 -0.5 L 95.5186233371991 -0.5 Z"/><text text-anchor="middle" pointer-events="none" font-size="8px" fill="#000000" x="79.9131545871991" y="3" transform="rotate(180 79.9131545871991 0)" font-family="Helvetica Neue, Helvetica, Arial, sans-serif">source</text></g><g class="relationship" transform="translate(255.45664937520704 -612.698334996852) rotate(525.1835307667908)"><path class="b-outline" fill="#A5ABB6" stroke="none" d="M 25 0.5 L 25.25962273231241 0.5 L 25.25962273231241 -0.5 L 25 -0.5 Z M 74.58384148231241 0.5 L 74.84346421462482 0.5 L 74.84346421462482 3.5 L 81.84346421462482 0 L 74.84346421462482 -3.5 L 74.84346421462482 -0.5 L 74.58384148231241 -0.5 Z"/><text text-anchor="middle" pointer-events="none" font-size="8px" fill="#000000" x="49.92173210731241" y="3" transform="rotate(180 49.92173210731241 0)" font-family="Helvetica Neue, Helvetica, Arial, sans-serif">BELONGS…</text></g><g class="relationship" transform="translate(127.08825077277787 -723.6072518650261) rotate(439.71741487001594)"><path class="b-outline" fill="#A5ABB6" stroke="none" d="M 25 0.5 L 38.183274271752694 0.5 L 38.183274271752694 -0.5 L 25 -0.5 Z M 95.3043680217527 0.5 L 108.48764229350539 0.5 L 108.48764229350539 3.5 L 115.48764229350539 0 L 108.48764229350539 -3.5 L 108.48764229350539 -0.5 L 95.3043680217527 -0.5 Z"/><text text-anchor="middle" pointer-events="none" font-size="8px" fill="#000000" x="66.7438211467527" y="3" font-family="Helvetica Neue, Helvetica, Arial, sans-serif">BELONGS_TO</text></g><g class="relationship" transform="translate(398.80196374460104 -347.7889042573568) rotate(468.7865041043128)"><path class="b-outline" fill="#A5ABB6" stroke="none" d="M 25 0.5 L 53.92965825838266 0.5 L 53.92965825838266 -0.5 L 25 -0.5 Z M 85.14059575838266 0.5 L 114.07025401676532 0.5 L 114.07025401676532 3.5 L 121.07025401676532 0 L 114.07025401676532 -3.5 L 114.07025401676532 -0.5 L 85.14059575838266 -0.5 Z"/><text text-anchor="middle" pointer-events="none" font-size="8px" fill="#000000" x="69.53512700838266" y="3" transform="rotate(180 69.53512700838266 0)" font-family="Helvetica Neue, Helvetica, Arial, sans-serif">source</text></g><g class="relationship" transform="translate(398.80196374460104 -347.7889042573568) rotate(272.0236111800893)"><path class="b-outline" fill="#A5ABB6" stroke="none" d="M 25 0.5 L 46.768166508152476 0.5 L 46.768166508152476 -0.5 L 25 -0.5 Z M 103.88926025815248 0.5 L 125.65742676630495 0.5 L 125.65742676630495 3.5 L 132.65742676630495 0 L 125.65742676630495 -3.5 L 125.65742676630495 -0.5 L 103.88926025815248 -0.5 Z"/><text text-anchor="middle" pointer-events="none" font-size="8px" fill="#000000" x="75.32871338315248" y="3" font-family="Helvetica Neue, Helvetica, Arial, sans-serif">BELONGS_TO</text></g><g class="relationship" transform="translate(522.8047762346541 -399.3305395303981) rotate(221.8332437050691)"><path class="b-outline" fill="#A5ABB6" stroke="none" d="M 25 0.5 L 47.41700231972406 0.5 L 47.41700231972406 -0.5 L 25 -0.5 Z M 104.53809606972406 0.5 L 126.95509838944812 0.5 L 126.95509838944812 3.5 L 133.95509838944812 0 L 126.95509838944812 -3.5 L 126.95509838944812 -0.5 L 104.53809606972406 -0.5 Z"/><text text-anchor="middle" pointer-events="none" font-size="8px" fill="#000000" x="75.97754919472406" y="3" transform="rotate(180 75.97754919472406 0)" font-family="Helvetica Neue, Helvetica, Arial, sans-serif">BELONGS_TO</text></g><g class="relationship" transform="translate(529.5263146627974 -519.8320572256166) rotate(533.398708490897)"><path class="b-outline" fill="#A5ABB6" stroke="none" d="M 25 0.5 L 30.935735795604415 0.5 L 30.935735795604415 -0.5 L 25 -0.5 Z M 88.05682954560442 0.5 L 93.99256534120883 0.5 L 93.99256534120883 3.5 L 100.99256534120883 0 L 93.99256534120883 -3.5 L 93.99256534120883 -0.5 L 88.05682954560442 -0.5 Z"/><text text-anchor="middle" pointer-events="none" font-size="8px" fill="#000000" x="59.496282670604415" y="3" transform="rotate(180 59.496282670604415 0)" font-family="Helvetica Neue, Helvetica, Arial, sans-serif">BELONGS_TO</text></g><g class="relationship" transform="translate(629.02050505803 -105.86194372137625) rotate(528.8873456485169)"><path class="b-outline" fill="#A5ABB6" stroke="none" d="M 25 0.5 L 68.02266489011473 0.5 L 68.02266489011473 -0.5 L 25 -0.5 Z M 99.23360239011473 0.5 L 142.25626728022945 0.5 L 142.25626728022945 3.5 L 149.25626728022945 0 L 142.25626728022945 -3.5 L 142.25626728022945 -0.5 L 99.23360239011473 -0.5 Z"/><text text-anchor="middle" pointer-events="none" font-size="8px" fill="#000000" x="83.62813364011473" y="3" transform="rotate(180 83.62813364011473 0)" font-family="Helvetica Neue, Helvetica, Arial, sans-serif">source</text></g><g class="relationship" transform="translate(629.02050505803 -105.86194372137625) rotate(257.8224327161836)"><path class="b-outline" fill="#A5ABB6" stroke="none" d="M 25 0.5 L 27.58298569886837 0.5 L 27.58298569886837 -0.5 L 25 -0.5 Z M 84.70407944886837 0.5 L 87.28706514773674 0.5 L 87.28706514773674 3.5 L 94.28706514773674 0 L 87.28706514773674 -3.5 L 87.28706514773674 -0.5 L 84.70407944886837 -0.5 Z"/><text text-anchor="middle" pointer-events="none" font-size="8px" fill="#000000" x="56.14353257386837" y="3" transform="rotate(180 56.14353257386837 0)" font-family="Helvetica Neue, Helvetica, Arial, sans-serif">BELONGS_TO</text></g><g class="relationship" transform="translate(325.99078325084565 29.566770149115076) rotate(322.3570611932905)"><path class="b-outline" fill="#A5ABB6" stroke="none" d="M 25 0.5 L 64.27125218604823 0.5 L 64.27125218604823 -0.5 L 25 -0.5 Z M 95.48218968604823 0.5 L 134.75344187209646 0.5 L 134.75344187209646 3.5 L 141.75344187209646 0 L 134.75344187209646 -3.5 L 134.75344187209646 -0.5 L 95.48218968604823 -0.5 Z"/><text text-anchor="middle" pointer-events="none" font-size="8px" fill="#000000" x="79.87672093604823" y="3" font-family="Helvetica Neue, Helvetica, Arial, sans-serif">source</text></g><g class="relationship" transform="translate(552.6973425081287 -42.041442562799055) rotate(285.83110626909126)"><path class="b-outline" fill="#A5ABB6" stroke="none" d="M 25 0.5 L 61.70780154772231 0.5 L 61.70780154772231 -0.5 L 25 -0.5 Z M 118.82889529772231 0.5 L 155.53669684544462 0.5 L 155.53669684544462 3.5 L 162.53669684544462 0 L 155.53669684544462 -3.5 L 155.53669684544462 -0.5 L 118.82889529772231 -0.5 Z"/><text text-anchor="middle" pointer-events="none" font-size="8px" fill="#000000" x="90.26834842272231" y="3" font-family="Helvetica Neue, Helvetica, Arial, sans-serif">BELONGS_TO</text></g><g class="relationship" transform="translate(325.99078325084565 29.566770149115076) rotate(183.39595618987852)"><path class="b-outline" fill="#A5ABB6" stroke="none" d="M 25 0.5 L 46.9758488362385 0.5 L 46.9758488362385 -0.5 L 25 -0.5 Z M 104.0969425862385 0.5 L 126.072791422477 0.5 L 126.072791422477 3.5 L 133.072791422477 0 L 126.072791422477 -3.5 L 126.072791422477 -0.5 L 104.0969425862385 -0.5 Z"/><text text-anchor="middle" pointer-events="none" font-size="8px" fill="#000000" x="75.5363957112385" y="3" transform="rotate(180 75.5363957112385 0)" font-family="Helvetica Neue, Helvetica, Arial, sans-serif">BELONGS_TO</text></g><g class="relationship" transform="translate(230.58326663896074 -101.35731499980061) rotate(477.1679590769362)"><path class="b-outline" fill="#A5ABB6" stroke="none" d="M 25 0.5 L 36.257056759845966 0.5 L 36.257056759845966 -0.5 L 25 -0.5 Z M 93.37815050984597 0.5 L 104.63520726969193 0.5 L 104.63520726969193 3.5 L 111.63520726969193 0 L 104.63520726969193 -3.5 L 104.63520726969193 -0.5 L 93.37815050984597 -0.5 Z"/><text text-anchor="middle" pointer-events="none" font-size="8px" fill="#000000" x="64.81760363484597" y="3" transform="rotate(180 64.81760363484597 0)" font-family="Helvetica Neue, Helvetica, Arial, sans-serif">BELONGS_TO</text></g><g class="relationship" transform="translate(-177.9631045804844 51.195268650654704) rotate(181.14713574912543)"><path class="b-outline" fill="#A5ABB6" stroke="none" d="M 25 0.5 L 66.53525543793253 0.5 L 66.53525543793253 -0.5 L 25 -0.5 Z M 97.74619293793253 0.5 L 139.28144837586507 0.5 L 139.28144837586507 3.5 L 146.28144837586507 0 L 139.28144837586507 -3.5 L 139.28144837586507 -0.5 L 97.74619293793253 -0.5 Z"/><text text-anchor="middle" pointer-events="none" font-size="8px" fill="#000000" x="82.14072418793253" y="3" transform="rotate(180 82.14072418793253 0)" font-family="Helvetica Neue, Helvetica, Arial, sans-serif">source</text></g><g class="relationship" transform="translate(-177.9631045804844 51.195268650654704) rotate(294.6541000168877)"><path class="b-outline" fill="#A5ABB6" stroke="none" d="M 25 0.5 L 43.773706465862105 0.5 L 43.773706465862105 -0.5 L 25 -0.5 Z M 100.8948002158621 0.5 L 119.66850668172421 0.5 L 119.66850668172421 3.5 L 126.66850668172421 0 L 119.66850668172421 -3.5 L 119.66850668172421 -0.5 L 100.8948002158621 -0.5 Z"/><text text-anchor="middle" pointer-events="none" font-size="8px" fill="#000000" x="72.3342533408621" y="3" font-family="Helvetica Neue, Helvetica, Arial, sans-serif">BELONGS_TO</text></g><g class="relationship" transform="translate(-351.3767925856501 198.21063990164933) rotate(270.82506622322694)"><path class="b-outline" fill="#A5ABB6" stroke="none" d="M 25 0.5 L 56.12454044050132 0.5 L 56.12454044050132 -0.5 L 25 -0.5 Z M 87.33547794050132 0.5 L 118.46001838100264 0.5 L 118.46001838100264 3.5 L 125.46001838100264 0 L 118.46001838100264 -3.5 L 118.46001838100264 -0.5 L 87.33547794050132 -0.5 Z"/><text text-anchor="middle" pointer-events="none" font-size="8px" fill="#000000" x="71.73000919050132" y="3" font-family="Helvetica Neue, Helvetica, Arial, sans-serif">source</text></g><g class="relationship" transform="translate(-422.6468551919603 -83.75735211135759) rotate(420.8230457608208)"><path class="b-outline" fill="#A5ABB6" stroke="none" d="M 25 0.5 L 56.21283748968936 0.5 L 56.21283748968936 -0.5 L 25 -0.5 Z M 87.42377498968936 0.5 L 118.63661247937873 0.5 L 118.63661247937873 3.5 L 125.63661247937873 0 L 118.63661247937873 -3.5 L 118.63661247937873 -0.5 L 87.42377498968936 -0.5 Z"/><text text-anchor="middle" pointer-events="none" font-size="8px" fill="#000000" x="71.81830623968936" y="3" font-family="Helvetica Neue, Helvetica, Arial, sans-serif">source</text></g><g class="relationship" transform="translate(-257.53115050688626 -76.75840376961554) rotate(486.36170750091856)"><path class="b-outline" fill="#A5ABB6" stroke="none" d="M 25 0.5 L 58.21114475236314 0.5 L 58.21114475236314 -0.5 L 25 -0.5 Z M 89.42208225236314 0.5 L 122.63322700472628 0.5 L 122.63322700472628 3.5 L 129.63322700472628 0 L 122.63322700472628 -3.5 L 122.63322700472628 -0.5 L 89.42208225236314 -0.5 Z"/><text text-anchor="middle" pointer-events="none" font-size="8px" fill="#000000" x="73.81661350236314" y="3" transform="rotate(180 73.81661350236314 0)" font-family="Helvetica Neue, Helvetica, Arial, sans-serif">source</text></g><g class="relationship" transform="translate(-505.93091831424704 30.42789694512209) rotate(366.31307422785596)"><path class="b-outline" fill="#A5ABB6" stroke="none" d="M 25 0.5 L 59.732962957950335 0.5 L 59.732962957950335 -0.5 L 25 -0.5 Z M 90.94390045795033 0.5 L 125.67686341590067 0.5 L 125.67686341590067 3.5 L 132.67686341590067 0 L 125.67686341590067 -3.5 L 125.67686341590067 -0.5 L 90.94390045795033 -0.5 Z"/><text text-anchor="middle" pointer-events="none" font-size="8px" fill="#000000" x="75.33843170795033" y="3" font-family="Helvetica Neue, Helvetica, Arial, sans-serif">source</text></g><g class="relationship" transform="translate(-476.57174698117046 137.31249434528107) rotate(324.88943296248334)"><path class="b-outline" fill="#A5ABB6" stroke="none" d="M 25 0.5 L 58.73971793287298 0.5 L 58.73971793287298 -0.5 L 25 -0.5 Z M 89.95065543287298 0.5 L 123.69037336574596 0.5 L 123.69037336574596 3.5 L 130.69037336574596 0 L 123.69037336574596 -3.5 L 123.69037336574596 -0.5 L 89.95065543287298 -0.5 Z"/><text text-anchor="middle" pointer-events="none" font-size="8px" fill="#000000" x="74.34518668287298" y="3" font-family="Helvetica Neue, Helvetica, Arial, sans-serif">source</text></g><g class="relationship" transform="translate(-257.53115050688626 -76.75840376961554) rotate(356.03946347144677)"><path class="b-outline" fill="#A5ABB6" stroke="none" d="M 25 0.5 L 39.527873641571645 0.5 L 39.527873641571645 -0.5 L 25 -0.5 Z M 96.64896739157165 0.5 L 111.17684103314329 0.5 L 111.17684103314329 3.5 L 118.17684103314329 0 L 111.17684103314329 -3.5 L 111.17684103314329 -0.5 L 96.64896739157165 -0.5 Z"/><text text-anchor="middle" pointer-events="none" font-size="8px" fill="#000000" x="68.08842051657165" y="3" font-family="Helvetica Neue, Helvetica, Arial, sans-serif">BELONGS_TO</text></g><g class="relationship" transform="translate(59.9881858023191 331.2661923626495) rotate(185.65866994562896)"><path class="b-outline" fill="#A5ABB6" stroke="none" d="M 25 0.5 L 70.68305710224858 0.5 L 70.68305710224858 -0.5 L 25 -0.5 Z M 101.89399460224858 0.5 L 147.57705170449717 0.5 L 147.57705170449717 3.5 L 154.57705170449717 0 L 147.57705170449717 -3.5 L 147.57705170449717 -0.5 L 101.89399460224858 -0.5 Z"/><text text-anchor="middle" pointer-events="none" font-size="8px" fill="#000000" x="86.28852585224858" y="3" transform="rotate(180 86.28852585224858 0)" font-family="Helvetica Neue, Helvetica, Arial, sans-serif">source</text></g><g class="relationship" transform="translate(59.9881858023191 331.2661923626495) rotate(512.1620339963384)"><path class="b-outline" fill="#A5ABB6" stroke="none" d="M 25 0.5 L 44.509718408577356 0.5 L 44.509718408577356 -0.5 L 25 -0.5 Z M 101.63081215857736 0.5 L 121.14053056715471 0.5 L 121.14053056715471 3.5 L 128.1405305671547 0 L 121.14053056715471 -3.5 L 121.14053056715471 -0.5 L 101.63081215857736 -0.5 Z"/><text text-anchor="middle" pointer-events="none" font-size="8px" fill="#000000" x="73.07026528357736" y="3" transform="rotate(180 73.07026528357736 0)" font-family="Helvetica Neue, Helvetica, Arial, sans-serif">BELONGS_TO</text></g><g class="relationship" transform="translate(-203.08350552840835 462.0653087413374) rotate(299.6019576662394)"><path class="b-outline" fill="#A5ABB6" stroke="none" d="M 25 0.5 L 66.29390539445903 0.5 L 66.29390539445903 -0.5 L 25 -0.5 Z M 97.50484289445903 0.5 L 138.79874828891806 0.5 L 138.79874828891806 3.5 L 145.79874828891806 0 L 138.79874828891806 -3.5 L 138.79874828891806 -0.5 L 97.50484289445903 -0.5 Z"/><text text-anchor="middle" pointer-events="none" font-size="8px" fill="#000000" x="81.89937414445903" y="3" font-family="Helvetica Neue, Helvetica, Arial, sans-serif">source</text></g><g class="relationship" transform="translate(-203.08350552840835 462.0653087413374) rotate(335.08828505612496)"><path class="b-outline" fill="#A5ABB6" stroke="none" d="M 25 0.5 L 38.31418989184655 0.5 L 38.31418989184655 -0.5 L 25 -0.5 Z M 95.43528364184655 0.5 L 108.7494735336931 0.5 L 108.7494735336931 3.5 L 115.7494735336931 0 L 108.7494735336931 -3.5 L 108.7494735336931 -0.5 L 95.43528364184655 -0.5 Z"/><text text-anchor="middle" pointer-events="none" font-size="8px" fill="#000000" x="66.87473676684655" y="3" font-family="Helvetica Neue, Helvetica, Arial, sans-serif">BELONGS_TO</text></g><g class="relationship" transform="translate(-45.002410276701106 505.62652674656823) rotate(253.5193027487411)"><path class="b-outline" fill="#A5ABB6" stroke="none" d="M 25 0.5 L 25.465089025748384 0.5 L 25.465089025748384 -0.5 L 25 -0.5 Z M 74.78930777574838 0.5 L 75.25439680149677 0.5 L 75.25439680149677 3.5 L 82.25439680149677 0 L 75.25439680149677 -3.5 L 75.25439680149677 -0.5 L 74.78930777574838 -0.5 Z"/><text text-anchor="middle" pointer-events="none" font-size="8px" fill="#000000" x="50.127198400748384" y="3" transform="rotate(180 50.127198400748384 0)" font-family="Helvetica Neue, Helvetica, Arial, sans-serif">BELONGS…</text></g><g class="relationship" transform="translate(463.0722174513276 309.13973280939746) rotate(527.4147528230505)"><path class="b-outline" fill="#A5ABB6" stroke="none" d="M 25 0.5 L 64.60961450421979 0.5 L 64.60961450421979 -0.5 L 25 -0.5 Z M 94.60961450421979 0.5 L 134.21922900843958 0.5 L 134.21922900843958 3.5 L 141.21922900843958 0 L 134.21922900843958 -3.5 L 134.21922900843958 -0.5 L 94.60961450421979 -0.5 Z"/><text text-anchor="middle" pointer-events="none" font-size="8px" fill="#000000" x="79.60961450421979" y="3" transform="rotate(180 79.60961450421979 0)" font-family="Helvetica Neue, Helvetica, Arial, sans-serif">发生于</text></g><g class="relationship" transform="translate(463.0722174513276 309.13973280939746) rotate(485.9618718274154)"><path class="b-outline" fill="#A5ABB6" stroke="none" d="M 25 0.5 L 99.30423310390651 0.5 L 99.30423310390651 -0.5 L 25 -0.5 Z M 130.5151706039065 0.5 L 204.81940370781302 0.5 L 204.81940370781302 3.5 L 211.81940370781302 0 L 204.81940370781302 -3.5 L 204.81940370781302 -0.5 L 130.5151706039065 -0.5 Z"/><text text-anchor="middle" pointer-events="none" font-size="8px" fill="#000000" x="114.90970185390651" y="3" transform="rotate(180 114.90970185390651 0)" font-family="Helvetica Neue, Helvetica, Arial, sans-serif">source</text></g><g class="relationship" transform="translate(463.0722174513276 309.13973280939746) rotate(204.3462936161465)"><path class="b-outline" fill="#A5ABB6" stroke="none" d="M 25 0.5 L 40.28598525617578 0.5 L 40.28598525617578 -0.5 L 25 -0.5 Z M 97.40707900617578 0.5 L 112.69306426235156 0.5 L 112.69306426235156 3.5 L 119.69306426235156 0 L 112.69306426235156 -3.5 L 112.69306426235156 -0.5 L 97.40707900617578 -0.5 Z"/><text text-anchor="middle" pointer-events="none" font-size="8px" fill="#000000" x="68.84653213117578" y="3" transform="rotate(180 68.84653213117578 0)" font-family="Helvetica Neue, Helvetica, Arial, sans-serif">BELONGS_TO</text></g><g class="relationship" transform="translate(180.7977668184269 586.3917410512836) rotate(329.14030015554385)"><path class="b-outline" fill="#A5ABB6" stroke="none" d="M 25 0.5 L 64.30477345560017 0.5 L 64.30477345560017 -0.5 L 25 -0.5 Z M 95.51571095560017 0.5 L 134.82048441120034 0.5 L 134.82048441120034 3.5 L 141.82048441120034 0 L 134.82048441120034 -3.5 L 134.82048441120034 -0.5 L 95.51571095560017 -0.5 Z"/><text text-anchor="middle" pointer-events="none" font-size="8px" fill="#000000" x="79.91024220560017" y="3" font-family="Helvetica Neue, Helvetica, Arial, sans-serif">source</text></g><g class="relationship" transform="translate(244.9945611736205 662.2735380038993) rotate(296.07496621012643)"><path class="b-outline" fill="#A5ABB6" stroke="none" d="M 25 0.5 L 70.76691555881698 0.5 L 70.76691555881698 -0.5 L 25 -0.5 Z M 101.97785305881698 0.5 L 147.74476861763395 0.5 L 147.74476861763395 3.5 L 154.74476861763395 0 L 147.74476861763395 -3.5 L 147.74476861763395 -0.5 L 101.97785305881698 -0.5 Z"/><text text-anchor="middle" pointer-events="none" font-size="8px" fill="#000000" x="86.37238430881698" y="3" font-family="Helvetica Neue, Helvetica, Arial, sans-serif">source</text></g><g class="relationship" transform="translate(375.71586249738107 410.5061353915272) rotate(254.56098848585572)"><path class="b-outline" fill="#A5ABB6" stroke="none" d="M 25 0.5 L 51.46150272140801 0.5 L 51.46150272140801 -0.5 L 25 -0.5 Z M 108.58259647140801 0.5 L 135.04409919281602 0.5 L 135.04409919281602 3.5 L 142.04409919281602 0 L 135.04409919281602 -3.5 L 135.04409919281602 -0.5 L 108.58259647140801 -0.5 Z"/><text text-anchor="middle" pointer-events="none" font-size="8px" fill="#000000" x="80.02204959640801" y="3" transform="rotate(180 80.02204959640801 0)" font-family="Helvetica Neue, Helvetica, Arial, sans-serif">BELONGS_TO</text></g><g class="relationship" transform="translate(300.8467547672621 345.357564730993) rotate(441.5290089069571)"><path class="b-outline" fill="#A5ABB6" stroke="none" d="M 25 0.5 L 59.48474522118937 0.5 L 59.48474522118937 -0.5 L 25 -0.5 Z M 90.69568272118937 0.5 L 125.18042794237874 0.5 L 125.18042794237874 3.5 L 132.18042794237874 0 L 125.18042794237874 -3.5 L 125.18042794237874 -0.5 L 90.69568272118937 -0.5 Z"/><text text-anchor="middle" pointer-events="none" font-size="8px" fill="#000000" x="75.09021397118937" y="3" font-family="Helvetica Neue, Helvetica, Arial, sans-serif">source</text></g><g class="relationship" transform="translate(589.4126609261044 320.3193020193614) rotate(396.2552308410285)"><path class="b-outline" fill="#A5ABB6" stroke="none" d="M 25 0.5 L 52.649147787317006 0.5 L 52.649147787317006 -0.5 L 25 -0.5 Z M 74.649147787317 0.5 L 102.29829557463401 0.5 L 102.29829557463401 3.5 L 109.29829557463401 0 L 102.29829557463401 -3.5 L 102.29829557463401 -0.5 L 74.649147787317 -0.5 Z"/><text text-anchor="middle" pointer-events="none" font-size="8px" fill="#000000" x="63.649147787317006" y="3" font-family="Helvetica Neue, Helvetica, Arial, sans-serif">发生</text></g><g class="relationship" transform="translate(697.7095463641992 399.7410672897199) rotate(297.2961558715268)"><path class="b-outline" fill="#A5ABB6" stroke="none" d="M 25 0.5 L 43.877840155108444 0.5 L 43.877840155108444 -0.5 L 25 -0.5 Z M 75.08877765510844 0.5 L 93.96661781021689 0.5 L 93.96661781021689 3.5 L 100.96661781021689 0 L 93.96661781021689 -3.5 L 93.96661781021689 -0.5 L 75.08877765510844 -0.5 Z"/><text text-anchor="middle" pointer-events="none" font-size="8px" fill="#000000" x="59.483308905108444" y="3" font-family="Helvetica Neue, Helvetica, Arial, sans-serif">source</text></g><g class="relationship" transform="translate(697.7095463641992 399.7410672897199) rotate(481.551371819317)"><path class="b-outline" fill="#A5ABB6" stroke="none" d="M 25 0.5 L 47.59965791308315 0.5 L 47.59965791308315 -0.5 L 25 -0.5 Z M 78.81059541308315 0.5 L 101.4102533261663 0.5 L 101.4102533261663 3.5 L 108.4102533261663 0 L 101.4102533261663 -3.5 L 101.4102533261663 -0.5 L 78.81059541308315 -0.5 Z"/><text text-anchor="middle" pointer-events="none" font-size="8px" fill="#000000" x="63.20512666308315" y="3" transform="rotate(180 63.20512666308315 0)" font-family="Helvetica Neue, Helvetica, Arial, sans-serif">source</text></g><g class="relationship" transform="translate(697.7095463641992 399.7410672897199) rotate(256.487257410577)"><path class="b-outline" fill="#A5ABB6" stroke="none" d="M 25 0.5 L 43.498640739586506 0.5 L 43.498640739586506 -0.5 L 25 -0.5 Z M 100.6197344895865 0.5 L 119.11837522917301 0.5 L 119.11837522917301 3.5 L 126.11837522917301 0 L 119.11837522917301 -3.5 L 119.11837522917301 -0.5 L 100.6197344895865 -0.5 Z"/><text text-anchor="middle" pointer-events="none" font-size="8px" fill="#000000" x="72.0591876145865" y="3" transform="rotate(180 72.0591876145865 0)" font-family="Helvetica Neue, Helvetica, Arial, sans-serif">BELONGS_TO</text></g><g class="relationship" transform="translate(600.099565087903 418.19675995141336) rotate(290.64039099211413)"><path class="b-outline" fill="#A5ABB6" stroke="none" d="M 25 0.5 L 56.30706043687107 0.5 L 56.30706043687107 -0.5 L 25 -0.5 Z M 113.42815418687107 0.5 L 144.73521462374214 0.5 L 144.73521462374214 3.5 L 151.73521462374214 0 L 144.73521462374214 -3.5 L 144.73521462374214 -0.5 L 113.42815418687107 -0.5 Z"/><text text-anchor="middle" pointer-events="none" font-size="8px" fill="#000000" x="84.86760731187107" y="3" font-family="Helvetica Neue, Helvetica, Arial, sans-serif">BELONGS_TO</text></g><g class="relationship" transform="translate(600.099565087903 418.19675995141336) rotate(319.9959127751032)"><path class="b-outline" fill="#A5ABB6" stroke="none" d="M 25 0.5 L 82.31573927167018 0.5 L 82.31573927167018 -0.5 L 25 -0.5 Z M 113.52667677167018 0.5 L 170.84241604334036 0.5 L 170.84241604334036 3.5 L 177.84241604334036 0 L 170.84241604334036 -3.5 L 170.84241604334036 -0.5 L 113.52667677167018 -0.5 Z"/><text text-anchor="middle" pointer-events="none" font-size="8px" fill="#000000" x="97.92120802167018" y="3" font-family="Helvetica Neue, Helvetica, Arial, sans-serif">source</text></g><g class="relationship" transform="translate(589.4126609261044 320.3193020193614) rotate(438.7282368997013)"><path class="b-outline" fill="#A5ABB6" stroke="none" d="M 25 0.5 L 79.34868303441081 0.5 L 79.34868303441081 -0.5 L 25 -0.5 Z M 110.55962053441081 0.5 L 164.90830356882162 0.5 L 164.90830356882162 3.5 L 171.90830356882162 0 L 164.90830356882162 -3.5 L 164.90830356882162 -0.5 L 110.55962053441081 -0.5 Z"/><text text-anchor="middle" pointer-events="none" font-size="8px" fill="#000000" x="94.95415178441081" y="3" font-family="Helvetica Neue, Helvetica, Arial, sans-serif">source</text></g><g class="relationship" transform="translate(589.4126609261044 320.3193020193614) rotate(348.92067489427563)"><path class="b-outline" fill="#A5ABB6" stroke="none" d="M 25 0.5 L 65.50341991151704 0.5 L 65.50341991151704 -0.5 L 25 -0.5 Z M 96.71435741151704 0.5 L 137.21777732303408 0.5 L 137.21777732303408 3.5 L 144.21777732303408 0 L 137.21777732303408 -3.5 L 137.21777732303408 -0.5 L 96.71435741151704 -0.5 Z"/><text text-anchor="middle" pointer-events="none" font-size="8px" fill="#000000" x="81.10888866151704" y="3" font-family="Helvetica Neue, Helvetica, Arial, sans-serif">source</text></g><g class="relationship" transform="translate(-525.6946161360931 459.75399445092944) rotate(451.17424873873404)"><path class="b-outline" fill="#A5ABB6" stroke="none" d="M 25 0.5 L 53.70498058319157 0.5 L 53.70498058319157 -0.5 L 25 -0.5 Z M 84.91591808319157 0.5 L 113.62089866638314 0.5 L 113.62089866638314 3.5 L 120.62089866638314 0 L 113.62089866638314 -3.5 L 113.62089866638314 -0.5 L 84.91591808319157 -0.5 Z"/><text text-anchor="middle" pointer-events="none" font-size="8px" fill="#000000" x="69.31044933319157" y="3" transform="rotate(180 69.31044933319157 0)" font-family="Helvetica Neue, Helvetica, Arial, sans-serif">source</text></g><g class="relationship" transform="translate(-525.6946161360931 459.75399445092944) rotate(246.26069693681296)"><path class="b-outline" fill="#A5ABB6" stroke="none" d="M 25 0.5 L 37.96867485159427 0.5 L 37.96867485159427 -0.5 L 25 -0.5 Z M 95.08976860159427 0.5 L 108.05844345318854 0.5 L 108.05844345318854 3.5 L 115.05844345318854 0 L 108.05844345318854 -3.5 L 108.05844345318854 -0.5 L 95.08976860159427 -0.5 Z"/><text text-anchor="middle" pointer-events="none" font-size="8px" fill="#000000" x="66.52922172659427" y="3" transform="rotate(180 66.52922172659427 0)" font-family="Helvetica Neue, Helvetica, Arial, sans-serif">BELONGS_TO</text></g><g class="relationship" transform="translate(-629.4867955360271 492.886540751542) rotate(408.12672030580256)"><path class="b-outline" fill="#A5ABB6" stroke="none" d="M 25 0.5 L 56.40776697350147 0.5 L 56.40776697350147 -0.5 L 25 -0.5 Z M 87.61870447350147 0.5 L 119.02647144700293 0.5 L 119.02647144700293 3.5 L 126.02647144700293 0 L 119.02647144700293 -3.5 L 119.02647144700293 -0.5 L 87.61870447350147 -0.5 Z"/><text text-anchor="middle" pointer-events="none" font-size="8px" fill="#000000" x="72.01323572350147" y="3" font-family="Helvetica Neue, Helvetica, Arial, sans-serif">source</text></g><g class="relationship" transform="translate(-700.1201490670364 379.4298700657984) rotate(337.9200593977275)"><path class="b-outline" fill="#A5ABB6" stroke="none" d="M 25 0.5 L 31.6312906502573 0.5 L 31.6312906502573 -0.5 L 25 -0.5 Z M 88.7523844002573 0.5 L 95.3836750505146 0.5 L 95.3836750505146 3.5 L 102.3836750505146 0 L 95.3836750505146 -3.5 L 95.3836750505146 -0.5 L 88.7523844002573 -0.5 Z"/><text text-anchor="middle" pointer-events="none" font-size="8px" fill="#000000" x="60.1918375252573" y="3" font-family="Helvetica Neue, Helvetica, Arial, sans-serif">BELONGS_TO</text></g><g class="relationship" transform="translate(-629.4867955360271 492.886540751542) rotate(286.3748462943579)"><path class="b-outline" fill="#A5ABB6" stroke="none" d="M 25 0.5 L 52.02003164578346 0.5 L 52.02003164578346 -0.5 L 25 -0.5 Z M 109.14112539578346 0.5 L 136.16115704156692 0.5 L 136.16115704156692 3.5 L 143.16115704156692 0 L 136.16115704156692 -3.5 L 136.16115704156692 -0.5 L 109.14112539578346 -0.5 Z"/><text text-anchor="middle" pointer-events="none" font-size="8px" fill="#000000" x="80.58057852078346" y="3" font-family="Helvetica Neue, Helvetica, Arial, sans-serif">BELONGS_TO</text></g><g class="relationship" transform="translate(128.9773184275202 740.1084871196894) rotate(512.3327711150821)"><path class="b-outline" fill="#A5ABB6" stroke="none" d="M 25 0.5 L 55.08245392881645 0.5 L 55.08245392881645 -0.5 L 25 -0.5 Z M 86.29339142881645 0.5 L 116.3758453576329 0.5 L 116.3758453576329 3.5 L 123.3758453576329 0 L 116.3758453576329 -3.5 L 116.3758453576329 -0.5 L 86.29339142881645 -0.5 Z"/><text text-anchor="middle" pointer-events="none" font-size="8px" fill="#000000" x="70.68792267881645" y="3" transform="rotate(180 70.68792267881645 0)" font-family="Helvetica Neue, Helvetica, Arial, sans-serif">source</text></g><g class="relationship" transform="translate(128.9773184275202 740.1084871196894) rotate(232.41987183331423)"><path class="b-outline" fill="#A5ABB6" stroke="none" d="M 25 0.5 L 28.827128776243732 0.5 L 28.827128776243732 -0.5 L 25 -0.5 Z M 85.94822252624374 0.5 L 89.77535130248746 0.5 L 89.77535130248746 3.5 L 96.77535130248746 0 L 89.77535130248746 -3.5 L 89.77535130248746 -0.5 L 85.94822252624374 -0.5 Z"/><text text-anchor="middle" pointer-events="none" font-size="8px" fill="#000000" x="57.38767565124373" y="3" transform="rotate(180 57.38767565124373 0)" font-family="Helvetica Neue, Helvetica, Arial, sans-serif">BELONGS_TO</text></g><g class="relationship" transform="translate(244.9945611736205 662.2735380038993) rotate(185.6043584546718)"><path class="b-outline" fill="#A5ABB6" stroke="none" d="M 25 0.5 L 63.53862838295427 0.5 L 63.53862838295427 -0.5 L 25 -0.5 Z M 120.65972213295427 0.5 L 159.19835051590854 0.5 L 159.19835051590854 3.5 L 166.19835051590854 0 L 159.19835051590854 -3.5 L 159.19835051590854 -0.5 L 120.65972213295427 -0.5 Z"/><text text-anchor="middle" pointer-events="none" font-size="8px" fill="#000000" x="92.09917525795427" y="3" transform="rotate(180 92.09917525795427 0)" font-family="Helvetica Neue, Helvetica, Arial, sans-serif">BELONGS_TO</text></g><g class="relationship" transform="translate(180.7977668184269 586.3917410512836) rotate(515.5948182774267)"><path class="b-outline" fill="#A5ABB6" stroke="none" d="M 25 0.5 L 37.16919882199119 0.5 L 37.16919882199119 -0.5 L 25 -0.5 Z M 94.29029257199119 0.5 L 106.45949139398238 0.5 L 106.45949139398238 3.5 L 113.45949139398238 0 L 106.45949139398238 -3.5 L 106.45949139398238 -0.5 L 94.29029257199119 -0.5 Z"/><text text-anchor="middle" pointer-events="none" font-size="8px" fill="#000000" x="65.72974569699119" y="3" transform="rotate(180 65.72974569699119 0)" font-family="Helvetica Neue, Helvetica, Arial, sans-serif">BELONGS_TO</text></g></g><g class="layer nodes"><g class="node" aria-label="graph-node870" transform="translate(-45.002410276701106,505.62652674656823)"><circle class="b-outline" cx="0" cy="0" r="25" fill="#ECB5C9" stroke="#da7298" stroke-width="2px"/><text class="caption" text-anchor="middle" pointer-events="none" x="0" y="5" font-size="10px" fill="#2A2C34" font-family="Helvetica Neue, Helvetica, Arial, sans-serif"> 彰化一名…</text></g><g class="node" aria-label="graph-node10507" transform="translate(-203.08350552840835,462.0653087413374)"><circle class="b-outline" cx="0" cy="0" r="25" fill="#ECB5C9" stroke="#da7298" stroke-width="2px"/><text class="caption" text-anchor="middle" pointer-events="none" x="0" y="5" font-size="10px" fill="#2A2C34" font-family="Helvetica Neue, Helvetica, Arial, sans-serif"> 彰化县陈…</text></g><g class="node" aria-label="graph-node10508" transform="translate(59.9881858023191,331.2661923626495)"><circle class="b-outline" cx="0" cy="0" r="25" fill="#ECB5C9" stroke="#da7298" stroke-width="2px"/><text class="caption" text-anchor="middle" pointer-events="none" x="0" y="5" font-size="10px" fill="#2A2C34" font-family="Helvetica Neue, Helvetica, Arial, sans-serif"> 彰化县陈…</text></g><g class="node" aria-label="graph-node1365" transform="translate(128.9773184275202,740.1084871196894)"><circle class="b-outline" cx="0" cy="0" r="25" fill="#ECB5C9" stroke="#da7298" stroke-width="2px"/><text class="caption" text-anchor="middle" pointer-events="none" x="0" y="5" font-size="10px" fill="#2A2C34" font-family="Helvetica Neue, Helvetica, Arial, sans-serif"> 「飨飨」…</text></g><g class="node" aria-label="graph-node2034" transform="translate(180.7977668184269,586.3917410512836)"><circle class="b-outline" cx="0" cy="0" r="25" fill="#ECB5C9" stroke="#da7298" stroke-width="2px"/><text class="caption" text-anchor="middle" pointer-events="none" x="0" y="5" font-size="10px" fill="#2A2C34" font-family="Helvetica Neue, Helvetica, Arial, sans-serif"> 飨飨微…</text></g><g class="node" aria-label="graph-node2037" transform="translate(244.9945611736205,662.2735380038993)"><circle class="b-outline" cx="0" cy="0" r="25" fill="#ECB5C9" stroke="#da7298" stroke-width="2px"/><text class="caption" text-anchor="middle" pointer-events="none" x="0" y="5" font-size="10px" fill="#2A2C34" font-family="Helvetica Neue, Helvetica, Arial, sans-serif"> 「飨飨微…</text></g><g class="node" aria-label="graph-node1523" transform="translate(697.7095463641992,399.7410672897199)"><circle class="b-outline" cx="0" cy="0" r="25" fill="#ECB5C9" stroke="#da7298" stroke-width="2px"/><text class="caption" text-anchor="middle" pointer-events="none" x="0" y="5" font-size="10px" fill="#2A2C34" font-family="Helvetica Neue, Helvetica, Arial, sans-serif"> 葵涌石篱…</text></g><g class="node" aria-label="graph-node1539" transform="translate(600.099565087903,418.19675995141336)"><circle class="b-outline" cx="0" cy="0" r="25" fill="#ECB5C9" stroke="#da7298" stroke-width="2px"/><text class="caption" text-anchor="middle" pointer-events="none" x="0" y="-5" font-size="10px" fill="#2A2C34" font-family="Helvetica Neue, Helvetica, Arial, sans-serif"> kwai</text><text class="caption" text-anchor="middle" pointer-events="none" x="0" y="5" font-size="10px" fill="#2A2C34" font-family="Helvetica Neue, Helvetica, Arial, sans-serif"> chung</text><text class="caption" text-anchor="middle" pointer-events="none" x="0" y="15" font-size="10px" fill="#2A2C34" font-family="Helvetica Neue, Helvetica, Arial, sans-serif">le…</text></g><g class="node" aria-label="graph-node2032" transform="translate(463.0722174513276,309.13973280939746)"><circle class="b-outline" cx="0" cy="0" r="25" fill="#ECB5C9" stroke="#da7298" stroke-width="2px"/><text class="caption" text-anchor="middle" pointer-events="none" x="0" y="0" font-size="10px" fill="#2A2C34" font-family="Helvetica Neue, Helvetica, Arial, sans-serif"> 飨飨</text><text class="caption" text-anchor="middle" pointer-events="none" x="0" y="10" font-size="10px" fill="#2A2C34" font-family="Helvetica Neue, Helvetica, Arial, sans-serif"> 微风信…</text></g><g class="node" aria-label="graph-node2695" transform="translate(375.71586249738107,410.5061353915272)"><circle class="b-outline" cx="0" cy="0" r="25" fill="#ECB5C9" stroke="#da7298" stroke-width="2px"/><text class="caption" text-anchor="middle" pointer-events="none" x="0" y="5" font-size="10px" fill="#2A2C34" font-family="Helvetica Neue, Helvetica, Arial, sans-serif"> 飨飨微风…</text></g><g class="node" aria-label="graph-node5233" transform="translate(552.6973425081287,-42.041442562799055)"><circle class="b-outline" cx="0" cy="0" r="25" fill="#ECB5C9" stroke="#da7298" stroke-width="2px"/><text class="caption" text-anchor="middle" pointer-events="none" x="0" y="5" font-size="10px" fill="#2A2C34" font-family="Helvetica Neue, Helvetica, Arial, sans-serif"> 当地时间…</text></g><g class="node" aria-label="graph-node11800" transform="translate(629.02050505803,-105.86194372137625)"><circle class="b-outline" cx="0" cy="0" r="25" fill="#ECB5C9" stroke="#da7298" stroke-width="2px"/><text class="caption" text-anchor="middle" pointer-events="none" x="0" y="5" font-size="10px" fill="#2A2C34" font-family="Helvetica Neue, Helvetica, Arial, sans-serif"> 洛杉矶周…</text></g><g class="node" aria-label="graph-node5253" transform="translate(230.58326663896074,-101.35731499980061)"><circle class="b-outline" cx="0" cy="0" r="25" fill="#ECB5C9" stroke="#da7298" stroke-width="2px"/><text class="caption" text-anchor="middle" pointer-events="none" x="0" y="5" font-size="10px" fill="#2A2C34" font-family="Helvetica Neue, Helvetica, Arial, sans-serif"> 当地时间…</text></g><g class="node" aria-label="graph-node11824" transform="translate(325.99078325084565,29.566770149115076)"><circle class="b-outline" cx="0" cy="0" r="25" fill="#ECB5C9" stroke="#da7298" stroke-width="2px"/><text class="caption" text-anchor="middle" pointer-events="none" x="0" y="5" font-size="10px" fill="#2A2C34" font-family="Helvetica Neue, Helvetica, Arial, sans-serif"> 洛杉矶周…</text></g><g class="node" aria-label="graph-node5668" transform="translate(529.5263146627974,-519.8320572256166)"><circle class="b-outline" cx="0" cy="0" r="25" fill="#ECB5C9" stroke="#da7298" stroke-width="2px"/><text class="caption" text-anchor="middle" pointer-events="none" x="0" y="5" font-size="10px" fill="#2A2C34" font-family="Helvetica Neue, Helvetica, Arial, sans-serif"> 美国洛杉…</text></g><g class="node" aria-label="graph-node8531" transform="translate(522.8047762346541,-399.3305395303981)"><circle class="b-outline" cx="0" cy="0" r="25" fill="#ECB5C9" stroke="#da7298" stroke-width="2px"/><text class="caption" text-anchor="middle" pointer-events="none" x="0" y="5" font-size="10px" fill="#2A2C34" font-family="Helvetica Neue, Helvetica, Arial, sans-serif"> 洛杉矶山…</text></g><g class="node" aria-label="graph-node9772" transform="translate(398.80196374460104,-347.7889042573568)"><circle class="b-outline" cx="0" cy="0" r="25" fill="#ECB5C9" stroke="#da7298" stroke-width="2px"/><text class="caption" text-anchor="middle" pointer-events="none" x="0" y="5" font-size="10px" fill="#2A2C34" font-family="Helvetica Neue, Helvetica, Arial, sans-serif"> 美国加州…</text></g><g class="node" aria-label="graph-node6283" transform="translate(255.45664937520704,-612.698334996852)"><circle class="b-outline" cx="0" cy="0" r="25" fill="#ECB5C9" stroke="#da7298" stroke-width="2px"/><text class="caption" text-anchor="middle" pointer-events="none" x="0" y="5" font-size="10px" fill="#2A2C34" font-family="Helvetica Neue, Helvetica, Arial, sans-serif"> 期间拘捕…</text></g><g class="node" aria-label="graph-node8657" transform="translate(127.08825077277787,-723.6072518650261)"><circle class="b-outline" cx="0" cy="0" r="25" fill="#ECB5C9" stroke="#da7298" stroke-width="2px"/><text class="caption" text-anchor="middle" pointer-events="none" x="0" y="5" font-size="10px" fill="#2A2C34" font-family="Helvetica Neue, Helvetica, Arial, sans-serif"> 警方於…</text></g><g class="node" aria-label="graph-node8678" transform="translate(161.83827618677648,-429.3784893334088)"><circle class="b-outline" cx="0" cy="0" r="25" fill="#ECB5C9" stroke="#da7298" stroke-width="2px"/><text class="caption" text-anchor="middle" pointer-events="none" x="0" y="5" font-size="10px" fill="#2A2C34" font-family="Helvetica Neue, Helvetica, Arial, sans-serif"> 警方於前…</text></g><g class="node" aria-label="graph-node8366" transform="translate(-167.26898874629094,-435.6026474343389)"><circle class="b-outline" cx="0" cy="0" r="25" fill="#ECB5C9" stroke="#da7298" stroke-width="2px"/><text class="caption" text-anchor="middle" pointer-events="none" x="0" y="5" font-size="10px" fill="#2A2C34" font-family="Helvetica Neue, Helvetica, Arial, sans-serif"> 乌克兰东…</text></g><g class="node" aria-label="graph-node11149" transform="translate(-315.32373151216615,-474.04246049401667)"><circle class="b-outline" cx="0" cy="0" r="25" fill="#ECB5C9" stroke="#da7298" stroke-width="2px"/><text class="caption" text-anchor="middle" pointer-events="none" x="0" y="5" font-size="10px" fill="#2A2C34" font-family="Helvetica Neue, Helvetica, Arial, sans-serif"> 乌克兰东…</text></g><g class="node" aria-label="graph-node11154" transform="translate(-127.19275574886554,-587.7376729868051)"><circle class="b-outline" cx="0" cy="0" r="25" fill="#ECB5C9" stroke="#da7298" stroke-width="2px"/><text class="caption" text-anchor="middle" pointer-events="none" x="0" y="5" font-size="10px" fill="#2A2C34" font-family="Helvetica Neue, Helvetica, Arial, sans-serif"> 乌克兰东…</text></g><g class="node" aria-label="graph-node9856" transform="translate(-525.2797060277992,-256.49988321373337)"><circle class="b-outline" cx="0" cy="0" r="25" fill="#ECB5C9" stroke="#da7298" stroke-width="2px"/><text class="caption" text-anchor="middle" pointer-events="none" x="0" y="5" font-size="10px" fill="#2A2C34" font-family="Helvetica Neue, Helvetica, Arial, sans-serif"> 24起一氧…</text></g><g class="node" aria-label="graph-node9860" transform="translate(-723.9219881053994,-232.49755851312273)"><circle class="b-outline" cx="0" cy="0" r="25" fill="#ECB5C9" stroke="#da7298" stroke-width="2px"/><text class="caption" text-anchor="middle" pointer-events="none" x="0" y="5" font-size="10px" fill="#2A2C34" font-family="Helvetica Neue, Helvetica, Arial, sans-serif"> 4人死亡</text></g><g class="node" aria-label="graph-node9872" transform="translate(-637.977982475618,-183.26434410425836)"><circle class="b-outline" cx="0" cy="0" r="25" fill="#ECB5C9" stroke="#da7298" stroke-width="2px"/><text class="caption" text-anchor="middle" pointer-events="none" x="0" y="5" font-size="10px" fill="#2A2C34" font-family="Helvetica Neue, Helvetica, Arial, sans-serif"> 59人送医</text></g><g class="node" aria-label="graph-node10355" transform="translate(-257.53115050688626,-76.75840376961554)"><circle class="b-outline" cx="0" cy="0" r="25" fill="#ECB5C9" stroke="#da7298" stroke-width="2px"/><text class="caption" text-anchor="middle" pointer-events="none" x="0" y="5" font-size="10px" fill="#2A2C34" font-family="Helvetica Neue, Helvetica, Arial, sans-serif"> 女事主早…</text></g><g class="node" aria-label="graph-node10362" transform="translate(-177.9631045804844,51.195268650654704)"><circle class="b-outline" cx="0" cy="0" r="25" fill="#ECB5C9" stroke="#da7298" stroke-width="2px"/><text class="caption" text-anchor="middle" pointer-events="none" x="0" y="-5" font-size="10px" fill="#2A2C34" font-family="Helvetica Neue, Helvetica, Arial, sans-serif"> female</text><text class="caption" text-anchor="middle" pointer-events="none" x="0" y="5" font-size="10px" fill="#2A2C34" font-family="Helvetica Neue, Helvetica, Arial, sans-serif"> victim</text><text class="caption" text-anchor="middle" pointer-events="none" x="0" y="15" font-size="10px" fill="#2A2C34" font-family="Helvetica Neue, Helvetica, Arial, sans-serif"> previ</text></g><g class="node" aria-label="graph-node10356" transform="translate(-422.6468551919603,-83.75735211135759)"><circle class="b-outline" cx="0" cy="0" r="25" fill="#ECB5C9" stroke="#da7298" stroke-width="2px"/><text class="caption" text-anchor="middle" pointer-events="none" x="0" y="5" font-size="10px" fill="#2A2C34" font-family="Helvetica Neue, Helvetica, Arial, sans-serif"> 今日她到…</text></g><g class="node" aria-label="graph-node10373" transform="translate(-505.93091831424704,30.42789694512209)"><circle class="b-outline" cx="0" cy="0" r="25" fill="#ECB5C9" stroke="#da7298" stroke-width="2px"/><text class="caption" text-anchor="middle" pointer-events="none" x="0" y="-5" font-size="10px" fill="#2A2C34" font-family="Helvetica Neue, Helvetica, Arial, sans-serif"> today </text><text class="caption" text-anchor="middle" pointer-events="none" x="0" y="5" font-size="10px" fill="#2A2C34" font-family="Helvetica Neue, Helvetica, Arial, sans-serif"> when she</text><text class="caption" text-anchor="middle" pointer-events="none" x="0" y="15" font-size="10px" fill="#2A2C34" font-family="Helvetica Neue, Helvetica, Arial, sans-serif"> wen</text></g><g class="node" aria-label="graph-node10363" transform="translate(-351.3767925856501,198.21063990164933)"><circle class="b-outline" cx="0" cy="0" r="25" fill="#ECB5C9" stroke="#da7298" stroke-width="2px"/><text class="caption" text-anchor="middle" pointer-events="none" x="0" y="5" font-size="10px" fill="#2A2C34" font-family="Helvetica Neue, Helvetica, Arial, sans-serif"> 女事主怀…</text></g><g class="node" aria-label="graph-node10368" transform="translate(-476.57174698117046,137.31249434528107)"><circle class="b-outline" cx="0" cy="0" r="25" fill="#ECB5C9" stroke="#da7298" stroke-width="2px"/><text class="caption" text-anchor="middle" pointer-events="none" x="0" y="-5" font-size="10px" fill="#2A2C34" font-family="Helvetica Neue, Helvetica, Arial, sans-serif"> female</text><text class="caption" text-anchor="middle" pointer-events="none" x="0" y="5" font-size="10px" fill="#2A2C34" font-family="Helvetica Neue, Helvetica, Arial, sans-serif"> victim</text><text class="caption" text-anchor="middle" pointer-events="none" x="0" y="15" font-size="10px" fill="#2A2C34" font-family="Helvetica Neue, Helvetica, Arial, sans-serif"> sus…</text></g><g class="node" aria-label="graph-node10728" transform="translate(-700.1201490670364,379.4298700657984)"><circle class="b-outline" cx="0" cy="0" r="25" fill="#ECB5C9" stroke="#da7298" stroke-width="2px"/><text class="caption" text-anchor="middle" pointer-events="none" x="0" y="5" font-size="10px" fill="#2A2C34" font-family="Helvetica Neue, Helvetica, Arial, sans-serif"> 歌手邱军…</text></g><g class="node" aria-label="graph-node10789" transform="translate(-525.6946161360931,459.75399445092944)"><circle class="b-outline" cx="0" cy="0" r="25" fill="#ECB5C9" stroke="#da7298" stroke-width="2px"/><text class="caption" text-anchor="middle" pointer-events="none" x="0" y="5" font-size="10px" fill="#2A2C34" font-family="Helvetica Neue, Helvetica, Arial, sans-serif"> 男歌手邱…</text></g><g class="node" aria-label="graph-node10793" transform="translate(-629.4867955360271,492.886540751542)"><circle class="b-outline" cx="0" cy="0" r="25" fill="#ECB5C9" stroke="#da7298" stroke-width="2px"/><text class="caption" text-anchor="middle" pointer-events="none" x="0" y="5" font-size="10px" fill="#2A2C34" font-family="Helvetica Neue, Helvetica, Arial, sans-serif"> 男歌手邱…</text></g><g class="node" aria-label="graph-node9855" transform="translate(-559.5805101877492,-415.0250483065408)"><circle class="b-outline" cx="0" cy="0" r="25" fill="#C990C0" stroke="#b261a5" stroke-width="2px"/><text class="caption" text-anchor="middle" pointer-events="none" x="0" y="5" font-size="10px" fill="#FFFFFF" font-family="Helvetica Neue, Helvetica, Arial, sans-serif"> 去年全台</text></g><g class="node" aria-label="graph-node9859" transform="translate(-705.4030907295319,-354.98869572707343)"><circle class="b-outline" cx="0" cy="0" r="25" fill="#C990C0" stroke="#b261a5" stroke-width="2px"/><text class="caption" text-anchor="middle" pointer-events="none" x="0" y="5" font-size="10px" fill="#FFFFFF" font-family="Helvetica Neue, Helvetica, Arial, sans-serif"> None</text></g><g class="node" aria-label="graph-node12473" transform="translate(-609.8522269519598,-329.1981090063045)"><circle class="b-outline" cx="0" cy="0" r="25" fill="#8DCC93" stroke="#5db665" stroke-width="2px"/><text class="caption" text-anchor="middle" pointer-events="none" x="0" y="5" font-size="10px" fill="#2A2C34" font-family="Helvetica Neue, Helvetica, Arial, sans-serif"> 305</text></g><g class="node" aria-label="graph-node8386" transform="translate(-88.67781475406632,-319.60865453847924)"><circle class="b-outline" cx="0" cy="0" r="25" fill="#C990C0" stroke="#b261a5" stroke-width="2px"/><text class="caption" text-anchor="middle" pointer-events="none" x="0" y="5" font-size="10px" fill="#FFFFFF" font-family="Helvetica Neue, Helvetica, Arial, sans-serif"> None</text></g><g class="node" aria-label="graph-node12441" transform="translate(-260.64362519866137,-597.9827920863568)"><circle class="b-outline" cx="0" cy="0" r="25" fill="#8DCC93" stroke="#5db665" stroke-width="2px"/><text class="caption" text-anchor="middle" pointer-events="none" x="0" y="5" font-size="10px" fill="#2A2C34" font-family="Helvetica Neue, Helvetica, Arial, sans-serif"> 306</text></g><g class="node" aria-label="graph-node8682" transform="translate(53.63631900733627,-573.821300745848)"><circle class="b-outline" cx="0" cy="0" r="25" fill="#C990C0" stroke="#b261a5" stroke-width="2px"/><text class="caption" text-anchor="middle" pointer-events="none" x="0" y="5" font-size="10px" fill="#FFFFFF" font-family="Helvetica Neue, Helvetica, Arial, sans-serif"> None</text></g><g class="node" aria-label="graph-node12322" transform="translate(152.16573860077872,-585.3759339901524)"><circle class="b-outline" cx="0" cy="0" r="25" fill="#8DCC93" stroke="#5db665" stroke-width="2px"/><text class="caption" text-anchor="middle" pointer-events="none" x="0" y="5" font-size="10px" fill="#2A2C34" font-family="Helvetica Neue, Helvetica, Arial, sans-serif"> 150</text></g><g class="node" aria-label="graph-node9785" transform="translate(351.76110400238804,-209.50052215952553)"><circle class="b-outline" cx="0" cy="0" r="25" fill="#C990C0" stroke="#b261a5" stroke-width="2px"/><text class="caption" text-anchor="middle" pointer-events="none" x="0" y="5" font-size="10px" fill="#FFFFFF" font-family="Helvetica Neue, Helvetica, Arial, sans-serif"> None</text></g><g class="node" aria-label="graph-node12311" transform="translate(404.3690580390815,-505.3480095978263)"><circle class="b-outline" cx="0" cy="0" r="25" fill="#8DCC93" stroke="#5db665" stroke-width="2px"/><text class="caption" text-anchor="middle" pointer-events="none" x="0" y="5" font-size="10px" fill="#2A2C34" font-family="Helvetica Neue, Helvetica, Arial, sans-serif"> 304</text></g><g class="node" aria-label="graph-node11832" transform="translate(458.0315219414849,-72.27601900269956)"><circle class="b-outline" cx="0" cy="0" r="25" fill="#C990C0" stroke="#b261a5" stroke-width="2px"/><text class="caption" text-anchor="middle" pointer-events="none" x="0" y="5" font-size="10px" fill="#FFFFFF" font-family="Helvetica Neue, Helvetica, Arial, sans-serif"> None</text></g><g class="node" aria-label="graph-node12305" transform="translate(603.8578413016894,-222.46487792221757)"><circle class="b-outline" cx="0" cy="0" r="25" fill="#8DCC93" stroke="#5db665" stroke-width="2px"/><text class="caption" text-anchor="middle" pointer-events="none" x="0" y="5" font-size="10px" fill="#2A2C34" font-family="Helvetica Neue, Helvetica, Arial, sans-serif"> 133</text></g><g class="node" aria-label="graph-node12306" transform="translate(168.19556588744288,20.20318294492951)"><circle class="b-outline" cx="0" cy="0" r="25" fill="#8DCC93" stroke="#5db665" stroke-width="2px"/><text class="caption" text-anchor="middle" pointer-events="none" x="0" y="5" font-size="10px" fill="#2A2C34" font-family="Helvetica Neue, Helvetica, Arial, sans-serif"> 134</text></g><g class="node" aria-label="graph-node10375" transform="translate(-349.2102248230939,47.76622121042)"><circle class="b-outline" cx="0" cy="0" r="25" fill="#C990C0" stroke="#b261a5" stroke-width="2px"/><text class="caption" text-anchor="middle" pointer-events="none" x="0" y="5" font-size="10px" fill="#FFFFFF" font-family="Helvetica Neue, Helvetica, Arial, sans-serif"> None</text></g><g class="node" aria-label="graph-node12476" transform="translate(-114.69623586839327,-86.64753762675409)"><circle class="b-outline" cx="0" cy="0" r="25" fill="#8DCC93" stroke="#5db665" stroke-width="2px"/><text class="caption" text-anchor="middle" pointer-events="none" x="0" y="5" font-size="10px" fill="#2A2C34" font-family="Helvetica Neue, Helvetica, Arial, sans-serif"> 315</text></g><g class="node" aria-label="graph-node10525" transform="translate(-118.71377883552783,313.5595457729265)"><circle class="b-outline" cx="0" cy="0" r="25" fill="#C990C0" stroke="#b261a5" stroke-width="2px"/><text class="caption" text-anchor="middle" pointer-events="none" x="0" y="5" font-size="10px" fill="#FFFFFF" font-family="Helvetica Neue, Helvetica, Arial, sans-serif"> None</text></g><g class="node" aria-label="graph-node12198" transform="translate(-75.42965738677277,402.778637771852)"><circle class="b-outline" cx="0" cy="0" r="25" fill="#8DCC93" stroke="#5db665" stroke-width="2px"/><text class="caption" text-anchor="middle" pointer-events="none" x="0" y="5" font-size="10px" fill="#2A2C34" font-family="Helvetica Neue, Helvetica, Arial, sans-serif"> 22</text></g><g class="node" aria-label="graph-node2021" transform="translate(300.8467547672621,345.357564730993)"><circle class="b-outline" cx="0" cy="0" r="25" fill="#C990C0" stroke="#b261a5" stroke-width="2px"/><text class="caption" text-anchor="middle" pointer-events="none" x="0" y="5" font-size="10px" fill="#FFFFFF" font-family="Helvetica Neue, Helvetica, Arial, sans-serif"> 台北市</text></g><g class="node" aria-label="graph-node2033" transform="translate(324.00079181407494,500.82324421229885)"><circle class="b-outline" cx="0" cy="0" r="25" fill="#C990C0" stroke="#b261a5" stroke-width="2px"/><text class="caption" text-anchor="middle" pointer-events="none" x="0" y="5" font-size="10px" fill="#FFFFFF" font-family="Helvetica Neue, Helvetica, Arial, sans-serif"> None</text></g><g class="node" aria-label="graph-node12226" transform="translate(331.24663715364306,249.48992790772385)"><circle class="b-outline" cx="0" cy="0" r="25" fill="#8DCC93" stroke="#5db665" stroke-width="2px"/><text class="caption" text-anchor="middle" pointer-events="none" x="0" y="5" font-size="10px" fill="#2A2C34" font-family="Helvetica Neue, Helvetica, Arial, sans-serif"> 51</text></g><g class="node" aria-label="graph-node1531" transform="translate(589.4126609261044,320.3193020193614)"><circle class="b-outline" cx="0" cy="0" r="25" fill="#C990C0" stroke="#b261a5" stroke-width="2px"/><text class="caption" text-anchor="middle" pointer-events="none" x="0" y="5" font-size="10px" fill="#FFFFFF" font-family="Helvetica Neue, Helvetica, Arial, sans-serif"> 下午近1时</text></g><g class="node" aria-label="graph-node1542" transform="translate(755.4765692771973,287.8010839668946)"><circle class="b-outline" cx="0" cy="0" r="25" fill="#C990C0" stroke="#b261a5" stroke-width="2px"/><text class="caption" text-anchor="middle" pointer-events="none" x="0" y="5" font-size="10px" fill="#FFFFFF" font-family="Helvetica Neue, Helvetica, Arial, sans-serif"> None</text></g><g class="node" aria-label="graph-node10279" transform="translate(627.9009185816191,513.4294623864273)"><circle class="b-outline" cx="0" cy="0" r="25" fill="#C990C0" stroke="#b261a5" stroke-width="2px"/><text class="caption" text-anchor="middle" pointer-events="none" x="0" y="5" font-size="10px" fill="#FFFFFF" font-family="Helvetica Neue, Helvetica, Arial, sans-serif"> None</text></g><g class="node" aria-label="graph-node12225" transform="translate(662.398983010708,252.8059542378554)"><circle class="b-outline" cx="0" cy="0" r="25" fill="#8DCC93" stroke="#5db665" stroke-width="2px"/><text class="caption" text-anchor="middle" pointer-events="none" x="0" y="5" font-size="10px" fill="#2A2C34" font-family="Helvetica Neue, Helvetica, Arial, sans-serif"> 49</text></g><g class="node" aria-label="graph-node10800" transform="translate(-528.6788357056472,605.344311992879)"><circle class="b-outline" cx="0" cy="0" r="25" fill="#C990C0" stroke="#b261a5" stroke-width="2px"/><text class="caption" text-anchor="middle" pointer-events="none" x="0" y="5" font-size="10px" fill="#FFFFFF" font-family="Helvetica Neue, Helvetica, Arial, sans-serif"> None</text></g><g class="node" aria-label="graph-node12496" transform="translate(-582.0787556563632,331.54636443972953)"><circle class="b-outline" cx="0" cy="0" r="25" fill="#8DCC93" stroke="#5db665" stroke-width="2px"/><text class="caption" text-anchor="middle" pointer-events="none" x="0" y="5" font-size="10px" fill="#2A2C34" font-family="Helvetica Neue, Helvetica, Arial, sans-serif"> 337</text></g><g class="node" aria-label="graph-node1383" transform="translate(-2.4331368862004052,809.0046678544212)"><circle class="b-outline" cx="0" cy="0" r="25" fill="#C990C0" stroke="#b261a5" stroke-width="2px"/><text class="caption" text-anchor="middle" pointer-events="none" x="0" y="5" font-size="10px" fill="#FFFFFF" font-family="Helvetica Neue, Helvetica, Arial, sans-serif"> None</text></g><g class="node" aria-label="graph-node12216" transform="translate(54.71014373835706,643.6013736589006)"><circle class="b-outline" cx="0" cy="0" r="25" fill="#8DCC93" stroke="#5db665" stroke-width="2px"/><text class="caption" text-anchor="middle" pointer-events="none" x="0" y="5" font-size="10px" fill="#2A2C34" font-family="Helvetica Neue, Helvetica, Arial, sans-serif"> 52</text></g></g></svg>