<svg xmlns="http://www.w3.org/2000/svg" width="831.2838745117188" height="743.83837890625" viewBox="-585.37939453125 -326.755615234375 831.2838745117188 743.83837890625"><title>Neo4j Graph Visualization</title><desc>Created using Neo4j (http://www.neo4j.com/)</desc><g class="layer relationships"><g class="relationship" transform="translate(-286.75723805414003 133.99642246320244) rotate(357.5996011676409)"><path class="b-outline" fill="#A5ABB6" stroke="none" d="M 25 0.5 L 67.47376349568205 0.5 L 67.47376349568205 -0.5 L 25 -0.5 Z M 113.47376349568205 0.5 L 155.9475269913641 0.5 L 155.9475269913641 3.5 L 162.9475269913641 0 L 155.9475269913641 -3.5 L 155.9475269913641 -0.5 L 113.47376349568205 -0.5 Z"/><text text-anchor="middle" pointer-events="none" font-size="8px" fill="#000000" x="90.47376349568205" y="3" font-family="Helvetica Neue, Helvetica, Arial, sans-serif">为国家带来</text></g><g class="relationship" transform="translate(-189.95662549974628 153.6890010178101) rotate(361.1959641037901)"><path class="b-outline" fill="#A5ABB6" stroke="none" d="M 25 0.5 L 76.27674950421591 0.5 L 76.27674950421591 -0.5 L 25 -0.5 Z M 98.27674950421591 0.5 L 149.55349900843183 0.5 L 149.55349900843183 3.5 L 156.55349900843183 0 L 149.55349900843183 -3.5 L 149.55349900843183 -0.5 L 98.27674950421591 -0.5 Z"/><text text-anchor="middle" pointer-events="none" font-size="8px" fill="#000000" x="87.27674950421591" y="3" font-family="Helvetica Neue, Helvetica, Arial, sans-serif">取得</text></g><g class="relationship" transform="translate(-124.64719978561536 33.99697065656399) rotate(314.2372104053955)"><path class="b-outline" fill="#A5ABB6" stroke="none" d="M 25 0.5 L 37.88276782509926 0.5 L 37.88276782509926 -0.5 L 25 -0.5 Z M 69.09370532509925 0.5 L 81.97647315019852 0.5 L 81.97647315019852 3.5 L 88.97647315019852 0 L 81.97647315019852 -3.5 L 81.97647315019852 -0.5 L 69.09370532509925 -0.5 Z"/><text text-anchor="middle" pointer-events="none" font-size="8px" fill="#000000" x="53.48823657509926" y="3" font-family="Helvetica Neue, Helvetica, Arial, sans-serif">source</text></g><g class="relationship" transform="translate(-254.25110174304322 227.29966748874904) rotate(443.220114626952)"><path class="b-outline" fill="#A5ABB6" stroke="none" d="M 25 0.5 L 50.45766477947818 0.5 L 50.45766477947818 -0.5 L 25 -0.5 Z M 104.45766477947818 0.5 L 129.91532955895636 0.5 L 129.91532955895636 3.5 L 136.91532955895636 0 L 129.91532955895636 -3.5 L 129.91532955895636 -0.5 L 104.45766477947818 -0.5 Z"/><text text-anchor="middle" pointer-events="none" font-size="8px" fill="#000000" x="77.45766477947818" y="3" font-family="Helvetica Neue, Helvetica, Arial, sans-serif">去年收入增至</text></g><g class="relationship" transform="translate(-119.70259041025248 220.53541648493803) rotate(351.0226123700121)"><path class="b-outline" fill="#A5ABB6" stroke="none" d="M 25 0.5 L 89.58703166238814 0.5 L 89.58703166238814 -0.5 L 25 -0.5 Z M 111.58703166238814 0.5 L 176.17406332477628 0.5 L 176.17406332477628 3.5 L 183.17406332477628 0 L 176.17406332477628 -3.5 L 176.17406332477628 -0.5 L 111.58703166238814 -0.5 Z"/><text text-anchor="middle" pointer-events="none" font-size="8px" fill="#000000" x="100.58703166238814" y="3" font-family="Helvetica Neue, Helvetica, Arial, sans-serif">超过</text></g><g class="relationship" transform="translate(141.90336111223007 30.024331115847172) rotate(202.55577065664897)"><path class="b-outline" fill="#A5ABB6" stroke="none" d="M 25 0.5 L 82.15915229914938 0.5 L 82.15915229914938 -0.5 L 25 -0.5 Z M 113.37008979914938 0.5 L 170.52924209829877 0.5 L 170.52924209829877 3.5 L 177.52924209829877 0 L 170.52924209829877 -3.5 L 170.52924209829877 -0.5 L 113.37008979914938 -0.5 Z"/><text text-anchor="middle" pointer-events="none" font-size="8px" fill="#000000" x="97.76462104914938" y="3" transform="rotate(180 97.76462104914938 0)" font-family="Helvetica Neue, Helvetica, Arial, sans-serif">source</text></g><g class="relationship" transform="translate(216.90442508553033 -32.58116384646584) rotate(257.7933864357035)"><path class="b-outline" fill="#A5ABB6" stroke="none" d="M 25 0.5 L 38.040380627051555 0.5 L 38.040380627051555 -0.5 L 25 -0.5 Z M 60.040380627051555 0.5 L 73.08076125410311 0.5 L 73.08076125410311 3.5 L 80.08076125410311 0 L 73.08076125410311 -3.5 L 73.08076125410311 -0.5 L 60.040380627051555 -0.5 Z"/><text text-anchor="middle" pointer-events="none" font-size="8px" fill="#000000" x="49.040380627051555" y="3" transform="rotate(180 49.040380627051555 0)" font-family="Helvetica Neue, Helvetica, Arial, sans-serif">公布</text></g><g class="relationship" transform="translate(90.81922086755515 -155.87813599484602) rotate(501.4809232086433)"><path class="b-outline" fill="#A5ABB6" stroke="none" d="M 25 0.5 L 67.77643576557163 0.5 L 67.77643576557163 -0.5 L 25 -0.5 Z M 98.98737326557163 0.5 L 141.76380903114327 0.5 L 141.76380903114327 3.5 L 148.76380903114327 0 L 141.76380903114327 -3.5 L 141.76380903114327 -0.5 L 98.98737326557163 -0.5 Z"/><text text-anchor="middle" pointer-events="none" font-size="8px" fill="#000000" x="83.38190451557163" y="3" transform="rotate(180 83.38190451557163 0)" font-family="Helvetica Neue, Helvetica, Arial, sans-serif">source</text></g><g class="relationship" transform="translate(-1.9617169757781097 -178.7500520319158) rotate(343.4591336525102)"><path class="b-outline" fill="#A5ABB6" stroke="none" d="M 25 0.5 L 68.8172329808056 0.5 L 68.8172329808056 -0.5 L 25 -0.5 Z M 90.8172329808056 0.5 L 134.6344659616112 0.5 L 134.6344659616112 3.5 L 141.6344659616112 0 L 134.6344659616112 -3.5 L 134.6344659616112 -0.5 L 90.8172329808056 -0.5 Z"/><text text-anchor="middle" pointer-events="none" font-size="8px" fill="#000000" x="79.8172329808056" y="3" font-family="Helvetica Neue, Helvetica, Arial, sans-serif">召开</text></g><g class="relationship" transform="translate(125.41197037265168 -67.11447176079253) rotate(533.4930706003627)"><path class="b-outline" fill="#A5ABB6" stroke="none" d="M 25 0.5 L 66.72025736033176 0.5 L 66.72025736033176 -0.5 L 25 -0.5 Z M 97.93119486033176 0.5 L 139.65145222066351 0.5 L 139.65145222066351 3.5 L 146.65145222066351 0 L 139.65145222066351 -3.5 L 139.65145222066351 -0.5 L 97.93119486033176 -0.5 Z"/><text text-anchor="middle" pointer-events="none" font-size="8px" fill="#000000" x="82.32572611033176" y="3" transform="rotate(180 82.32572611033176 0)" font-family="Helvetica Neue, Helvetica, Arial, sans-serif">source</text></g><g class="relationship" transform="translate(63.23722387109239 -250.7047139266305) rotate(193.8806385854396)"><path class="b-outline" fill="#A5ABB6" stroke="none" d="M 25 0.5 L 87.56358478257889 0.5 L 87.56358478257889 -0.5 L 25 -0.5 Z M 101.56358478257889 0.5 L 164.12716956515777 0.5 L 164.12716956515777 3.5 L 171.12716956515777 0 L 164.12716956515777 -3.5 L 164.12716956515777 -0.5 L 101.56358478257889 -0.5 Z"/><text text-anchor="middle" pointer-events="none" font-size="8px" fill="#000000" x="94.56358478257889" y="3" transform="rotate(180 94.56358478257889 0)" font-family="Helvetica Neue, Helvetica, Arial, sans-serif">在</text></g><g class="relationship" transform="translate(-30.984324599459978 -274.7611995755175) rotate(522.7110325433043)"><path class="b-outline" fill="#A5ABB6" stroke="none" d="M 25 0.5 L 70.46587107736664 0.5 L 70.46587107736664 -0.5 L 25 -0.5 Z M 92.46587107736664 0.5 L 137.93174215473329 0.5 L 137.93174215473329 3.5 L 144.93174215473329 0 L 137.93174215473329 -3.5 L 137.93174215473329 -0.5 L 92.46587107736664 -0.5 Z"/><text text-anchor="middle" pointer-events="none" font-size="8px" fill="#000000" x="81.46587107736664" y="3" transform="rotate(180 81.46587107736664 0)" font-family="Helvetica Neue, Helvetica, Arial, sans-serif">表示</text></g><g class="relationship" transform="translate(-251.4126109248766 -144.55823666800345) rotate(338.95014379331633)"><path class="b-outline" fill="#A5ABB6" stroke="none" d="M 25 0.5 L 68.43847360651088 0.5 L 68.43847360651088 -0.5 L 25 -0.5 Z M 90.43847360651088 0.5 L 133.87694721302177 0.5 L 133.87694721302177 3.5 L 140.87694721302177 0 L 133.87694721302177 -3.5 L 133.87694721302177 -0.5 L 90.43847360651088 -0.5 Z"/><text text-anchor="middle" pointer-events="none" font-size="8px" fill="#000000" x="79.43847360651088" y="3" font-family="Helvetica Neue, Helvetica, Arial, sans-serif">表示</text></g><g class="relationship" transform="translate(50.75578706413415 -3.6816224113714187) rotate(204.63905061809123)"><path class="b-outline" fill="#A5ABB6" stroke="none" d="M 25 0.5 L 33.64181529051311 0.5 L 33.64181529051311 -0.5 L 25 -0.5 Z M 64.85275279051311 0.5 L 73.49456808102622 0.5 L 73.49456808102622 3.5 L 80.49456808102622 0 L 73.49456808102622 -3.5 L 73.49456808102622 -0.5 L 64.85275279051311 -0.5 Z"/><text text-anchor="middle" pointer-events="none" font-size="8px" fill="#000000" x="49.24728404051311" y="3" transform="rotate(180 49.24728404051311 0)" font-family="Helvetica Neue, Helvetica, Arial, sans-serif">source</text></g><g class="relationship" transform="translate(-291.74021989514404 -53.73337991649865) rotate(418.74753730267906)"><path class="b-outline" fill="#A5ABB6" stroke="none" d="M 25 0.5 L 50.363399666855315 0.5 L 50.363399666855315 -0.5 L 25 -0.5 Z M 80.36339966685532 0.5 L 105.72679933371063 0.5 L 105.72679933371063 3.5 L 112.72679933371063 0 L 105.72679933371063 -3.5 L 105.72679933371063 -0.5 L 80.36339966685532 -0.5 Z"/><text text-anchor="middle" pointer-events="none" font-size="8px" fill="#000000" x="65.36339966685532" y="3" font-family="Helvetica Neue, Helvetica, Arial, sans-serif">有信心</text></g><g class="relationship" transform="translate(-515.7664253182559 119.8153362957802) rotate(465.62529145834793)"><path class="b-outline" fill="#A5ABB6" stroke="none" d="M 25 0.5 L 35.509302484456626 0.5 L 35.509302484456626 -0.5 L 25 -0.5 Z M 108.27492748445663 0.5 L 118.78422996891325 0.5 L 118.78422996891325 3.5 L 125.78422996891325 0 L 118.78422996891325 -3.5 L 118.78422996891325 -0.5 L 108.27492748445663 -0.5 Z"/><text text-anchor="middle" pointer-events="none" font-size="8px" fill="#000000" x="71.89211498445663" y="3" transform="rotate(180 71.89211498445663 0)" font-family="Helvetica Neue, Helvetica, Arial, sans-serif">在2023年的收入为</text></g><g class="relationship" transform="translate(-156.01685519892612 -125.87853593309276) rotate(395.1988772766466)"><path class="b-outline" fill="#A5ABB6" stroke="none" d="M 25 0.5 L 48.74148991616249 0.5 L 48.74148991616249 -0.5 L 25 -0.5 Z M 79.9524274161625 0.5 L 103.69391733232499 0.5 L 103.69391733232499 3.5 L 110.69391733232499 0 L 103.69391733232499 -3.5 L 103.69391733232499 -0.5 L 79.9524274161625 -0.5 Z"/><text text-anchor="middle" pointer-events="none" font-size="8px" fill="#000000" x="64.3469586661625" y="3" font-family="Helvetica Neue, Helvetica, Arial, sans-serif">source</text></g><g class="relationship" transform="translate(-189.95662549974628 153.6890010178101) rotate(214.14862130654473)"><path class="b-outline" fill="#A5ABB6" stroke="none" d="M 25 0.5 L 88.42965501392075 0.5 L 88.42965501392075 -0.5 L 25 -0.5 Z M 118.42965501392075 0.5 L 181.8593100278415 0.5 L 181.8593100278415 3.5 L 188.8593100278415 0 L 181.8593100278415 -3.5 L 181.8593100278415 -0.5 L 118.42965501392075 -0.5 Z"/><text text-anchor="middle" pointer-events="none" font-size="8px" fill="#000000" x="103.42965501392075" y="3" transform="rotate(180 103.42965501392075 0)" font-family="Helvetica Neue, Helvetica, Arial, sans-serif">增幅为</text></g><g class="relationship" transform="translate(-195.59858025122685 -34.264450417350105) rotate(354.9116098091157)"><path class="b-outline" fill="#A5ABB6" stroke="none" d="M 25 0.5 L 56.4246159764419 0.5 L 56.4246159764419 -0.5 L 25 -0.5 Z M 87.6355534764419 0.5 L 119.0601694528838 0.5 L 119.0601694528838 3.5 L 126.0601694528838 0 L 119.0601694528838 -3.5 L 119.0601694528838 -0.5 L 87.6355534764419 -0.5 Z"/><text text-anchor="middle" pointer-events="none" font-size="8px" fill="#000000" x="72.0300847264419" y="3" font-family="Helvetica Neue, Helvetica, Arial, sans-serif">source</text></g><g class="relationship" transform="translate(-515.7664253182559 119.8153362957802) rotate(329.9274843793296)"><path class="b-outline" fill="#A5ABB6" stroke="none" d="M 25 0.5 L 67.48601318637897 0.5 L 67.48601318637897 -0.5 L 25 -0.5 Z M 97.48601318637897 0.5 L 139.97202637275794 0.5 L 139.97202637275794 3.5 L 146.97202637275794 0 L 139.97202637275794 -3.5 L 139.97202637275794 -0.5 L 97.48601318637897 -0.5 Z"/><text text-anchor="middle" pointer-events="none" font-size="8px" fill="#000000" x="82.48601318637897" y="3" font-family="Helvetica Neue, Helvetica, Arial, sans-serif">增幅为</text></g><g class="relationship" transform="translate(-286.75723805414003 133.99642246320244) rotate(231.37447410588248)"><path class="b-outline" fill="#A5ABB6" stroke="none" d="M 25 0.5 L 45.72815632070488 0.5 L 45.72815632070488 -0.5 L 25 -0.5 Z M 75.72815632070488 0.5 L 96.45631264140977 0.5 L 96.45631264140977 3.5 L 103.45631264140977 0 L 96.45631264140977 -3.5 L 96.45631264140977 -0.5 L 75.72815632070488 -0.5 Z"/><text text-anchor="middle" pointer-events="none" font-size="8px" fill="#000000" x="60.72815632070488" y="3" transform="rotate(180 60.72815632070488 0)" font-family="Helvetica Neue, Helvetica, Arial, sans-serif">增幅为</text></g><g class="relationship" transform="translate(-254.25110174304322 227.29966748874904) rotate(239.80441332188371)"><path class="b-outline" fill="#A5ABB6" stroke="none" d="M 25 0.5 L 93.53039128642287 0.5 L 93.53039128642287 -0.5 L 25 -0.5 Z M 123.53039128642287 0.5 L 192.06078257284574 0.5 L 192.06078257284574 3.5 L 199.06078257284574 0 L 192.06078257284574 -3.5 L 192.06078257284574 -0.5 L 123.53039128642287 -0.5 Z"/><text text-anchor="middle" pointer-events="none" font-size="8px" fill="#000000" x="108.53039128642287" y="3" transform="rotate(180 108.53039128642287 0)" font-family="Helvetica Neue, Helvetica, Arial, sans-serif">增幅为</text></g><g class="relationship" transform="translate(-119.70259041025248 220.53541648493803) rotate(217.0864191448353)"><path class="b-outline" fill="#A5ABB6" stroke="none" d="M 25 0.5 L 136.46571708598154 0.5 L 136.46571708598154 -0.5 L 25 -0.5 Z M 166.46571708598154 0.5 L 277.9314341719631 0.5 L 277.9314341719631 3.5 L 284.9314341719631 0 L 277.9314341719631 -3.5 L 277.9314341719631 -0.5 L 166.46571708598154 -0.5 Z"/><text text-anchor="middle" pointer-events="none" font-size="8px" fill="#000000" x="151.46571708598154" y="3" transform="rotate(180 151.46571708598154 0)" font-family="Helvetica Neue, Helvetica, Arial, sans-serif">增幅为</text></g><g class="relationship" transform="translate(-26.65632851828999 62.40429924412208) rotate(260.47034848193607)"><path class="b-outline" fill="#A5ABB6" stroke="none" d="M 25 0.5 L 36.697939681871866 0.5 L 36.697939681871866 -0.5 L 25 -0.5 Z M 67.90887718187187 0.5 L 79.60681686374373 0.5 L 79.60681686374373 3.5 L 86.60681686374373 0 L 79.60681686374373 -3.5 L 79.60681686374373 -0.5 L 67.90887718187187 -0.5 Z"/><text text-anchor="middle" pointer-events="none" font-size="8px" fill="#000000" x="52.303408431871866" y="3" transform="rotate(180 52.303408431871866 0)" font-family="Helvetica Neue, Helvetica, Arial, sans-serif">source</text></g><g class="relationship" transform="translate(66.87465716944838 92.9672835596647) rotate(231.4634548812047)"><path class="b-outline" fill="#A5ABB6" stroke="none" d="M 25 0.5 L 70.78692884528583 0.5 L 70.78692884528583 -0.5 L 25 -0.5 Z M 101.99786634528583 0.5 L 147.78479519057166 0.5 L 147.78479519057166 3.5 L 154.78479519057166 0 L 147.78479519057166 -3.5 L 147.78479519057166 -0.5 L 101.99786634528583 -0.5 Z"/><text text-anchor="middle" pointer-events="none" font-size="8px" fill="#000000" x="86.39239759528583" y="3" transform="rotate(180 86.39239759528583 0)" font-family="Helvetica Neue, Helvetica, Arial, sans-serif">source</text></g><g class="relationship" transform="translate(-286.75723805414003 133.99642246320244) rotate(323.06321246908936)"><path class="b-outline" fill="#A5ABB6" stroke="none" d="M 25 0.5 L 132.0416690118928 0.5 L 132.0416690118928 -0.5 L 25 -0.5 Z M 163.2526065118928 0.5 L 270.2942755237856 0.5 L 270.2942755237856 3.5 L 277.2942755237856 0 L 270.2942755237856 -3.5 L 270.2942755237856 -0.5 L 163.2526065118928 -0.5 Z"/><text text-anchor="middle" pointer-events="none" font-size="8px" fill="#000000" x="147.6471377618928" y="3" font-family="Helvetica Neue, Helvetica, Arial, sans-serif">source</text></g><g class="relationship" transform="translate(-98.97462776653923 126.12468976038622) rotate(287.213484305706)"><path class="b-outline" fill="#A5ABB6" stroke="none" d="M 25 0.5 L 71.86262635851449 0.5 L 71.86262635851449 -0.5 L 25 -0.5 Z M 103.07356385851449 0.5 L 149.93619021702898 0.5 L 149.93619021702898 3.5 L 156.93619021702898 0 L 149.93619021702898 -3.5 L 149.93619021702898 -0.5 L 103.07356385851449 -0.5 Z"/><text text-anchor="middle" pointer-events="none" font-size="8px" fill="#000000" x="87.46809510851449" y="3" font-family="Helvetica Neue, Helvetica, Arial, sans-serif">source</text></g><g class="relationship" transform="translate(-189.95662549974628 153.6890010178101) rotate(305.7257520479173)"><path class="b-outline" fill="#A5ABB6" stroke="none" d="M 25 0.5 L 104.9066651375598 0.5 L 104.9066651375598 -0.5 L 25 -0.5 Z M 136.1176026375598 0.5 L 216.0242677751196 0.5 L 216.0242677751196 3.5 L 223.0242677751196 0 L 216.0242677751196 -3.5 L 216.0242677751196 -0.5 L 136.1176026375598 -0.5 Z"/><text text-anchor="middle" pointer-events="none" font-size="8px" fill="#000000" x="120.5121338875598" y="3" font-family="Helvetica Neue, Helvetica, Arial, sans-serif">source</text></g><g class="relationship" transform="translate(-8.442676800559905 157.4783848508077) rotate(259.85941937772117)"><path class="b-outline" fill="#A5ABB6" stroke="none" d="M 25 0.5 L 85.0926050672922 0.5 L 85.0926050672922 -0.5 L 25 -0.5 Z M 116.3035425672922 0.5 L 176.3961476345844 0.5 L 176.3961476345844 3.5 L 183.3961476345844 0 L 176.3961476345844 -3.5 L 176.3961476345844 -0.5 L 116.3035425672922 -0.5 Z"/><text text-anchor="middle" pointer-events="none" font-size="8px" fill="#000000" x="100.6980738172922" y="3" transform="rotate(180 100.6980738172922 0)" font-family="Helvetica Neue, Helvetica, Arial, sans-serif">source</text></g><g class="relationship" transform="translate(-254.25110174304322 227.29966748874904) rotate(307.2541449237084)"><path class="b-outline" fill="#A5ABB6" stroke="none" d="M 25 0.5 L 153.61843371511836 0.5 L 153.61843371511836 -0.5 L 25 -0.5 Z M 184.82937121511836 0.5 L 313.4478049302367 0.5 L 313.4478049302367 3.5 L 320.4478049302367 0 L 313.4478049302367 -3.5 L 313.4478049302367 -0.5 L 184.82937121511836 -0.5 Z"/><text text-anchor="middle" pointer-events="none" font-size="8px" fill="#000000" x="169.22390246511836" y="3" font-family="Helvetica Neue, Helvetica, Arial, sans-serif">source</text></g><g class="relationship" transform="translate(-119.70259041025248 220.53541648493803) rotate(285.5378901402987)"><path class="b-outline" fill="#A5ABB6" stroke="none" d="M 25 0.5 L 120.080159694879 0.5 L 120.080159694879 -0.5 L 25 -0.5 Z M 151.291097194879 0.5 L 246.371256889758 0.5 L 246.371256889758 3.5 L 253.371256889758 0 L 246.371256889758 -3.5 L 246.371256889758 -0.5 L 151.291097194879 -0.5 Z"/><text text-anchor="middle" pointer-events="none" font-size="8px" fill="#000000" x="135.685628444879" y="3" font-family="Helvetica Neue, Helvetica, Arial, sans-serif">source</text></g><g class="relationship" transform="translate(85.92134108599156 188.05096732574944) rotate(240.92622525355011)"><path class="b-outline" fill="#A5ABB6" stroke="none" d="M 25 0.5 L 115.74277884015288 0.5 L 115.74277884015288 -0.5 L 25 -0.5 Z M 146.95371634015288 0.5 L 237.69649518030576 0.5 L 237.69649518030576 3.5 L 244.69649518030576 0 L 237.69649518030576 -3.5 L 237.69649518030576 -0.5 L 146.95371634015288 -0.5 Z"/><text text-anchor="middle" pointer-events="none" font-size="8px" fill="#000000" x="131.34824759015288" y="3" transform="rotate(180 131.34824759015288 0)" font-family="Helvetica Neue, Helvetica, Arial, sans-serif">source</text></g><g class="relationship" transform="translate(216.90442508553033 -32.58116384646584) rotate(183.29393297631805)"><path class="b-outline" fill="#A5ABB6" stroke="none" d="M 25 0.5 L 112.1304228790273 0.5 L 112.1304228790273 -0.5 L 25 -0.5 Z M 143.3413603790273 0.5 L 230.4717832580546 0.5 L 230.4717832580546 3.5 L 237.4717832580546 0 L 230.4717832580546 -3.5 L 230.4717832580546 -0.5 L 143.3413603790273 -0.5 Z"/><text text-anchor="middle" pointer-events="none" font-size="8px" fill="#000000" x="127.7358916290273" y="3" transform="rotate(180 127.7358916290273 0)" font-family="Helvetica Neue, Helvetica, Arial, sans-serif">source</text></g><g class="relationship" transform="translate(194.68639936801296 -135.28620617135635) rotate(519.9290493943702)"><path class="b-outline" fill="#A5ABB6" stroke="none" d="M 25 0.5 L 108.55779416705109 0.5 L 108.55779416705109 -0.5 L 25 -0.5 Z M 139.7687316670511 0.5 L 223.32652583410217 0.5 L 223.32652583410217 3.5 L 230.32652583410217 0 L 223.32652583410217 -3.5 L 223.32652583410217 -0.5 L 139.7687316670511 -0.5 Z"/><text text-anchor="middle" pointer-events="none" font-size="8px" fill="#000000" x="124.16326291705109" y="3" transform="rotate(180 124.16326291705109 0)" font-family="Helvetica Neue, Helvetica, Arial, sans-serif">source</text></g><g class="relationship" transform="translate(-1.9617169757781097 -178.7500520319158) rotate(468.2286197676808)"><path class="b-outline" fill="#A5ABB6" stroke="none" d="M 25 0.5 L 49.901430265832204 0.5 L 49.901430265832204 -0.5 L 25 -0.5 Z M 81.1123677658322 0.5 L 106.01379803166441 0.5 L 106.01379803166441 3.5 L 113.01379803166441 0 L 106.01379803166441 -3.5 L 106.01379803166441 -0.5 L 81.1123677658322 -0.5 Z"/><text text-anchor="middle" pointer-events="none" font-size="8px" fill="#000000" x="65.5068990158322" y="3" transform="rotate(180 65.5068990158322 0)" font-family="Helvetica Neue, Helvetica, Arial, sans-serif">source</text></g><g class="relationship" transform="translate(157.7769009491489 -226.19074331846377) rotate(498.65746857964996)"><path class="b-outline" fill="#A5ABB6" stroke="none" d="M 25 0.5 L 116.02882704096214 0.5 L 116.02882704096214 -0.5 L 25 -0.5 Z M 147.23976454096214 0.5 L 238.26859158192428 0.5 L 238.26859158192428 3.5 L 245.26859158192428 0 L 238.26859158192428 -3.5 L 238.26859158192428 -0.5 L 147.23976454096214 -0.5 Z"/><text text-anchor="middle" pointer-events="none" font-size="8px" fill="#000000" x="131.63429579096214" y="3" transform="rotate(180 131.63429579096214 0)" font-family="Helvetica Neue, Helvetica, Arial, sans-serif">source</text></g><g class="relationship" transform="translate(63.23722387109239 -250.7047139266305) rotate(478.0904315332645)"><path class="b-outline" fill="#A5ABB6" stroke="none" d="M 25 0.5 L 95.97109857417293 0.5 L 95.97109857417293 -0.5 L 25 -0.5 Z M 127.18203607417293 0.5 L 198.15313464834585 0.5 L 198.15313464834585 3.5 L 205.15313464834585 0 L 198.15313464834585 -3.5 L 198.15313464834585 -0.5 L 127.18203607417293 -0.5 Z"/><text text-anchor="middle" pointer-events="none" font-size="8px" fill="#000000" x="111.57656732417293" y="3" transform="rotate(180 111.57656732417293 0)" font-family="Helvetica Neue, Helvetica, Arial, sans-serif">source</text></g><g class="relationship" transform="translate(-127.1625624450813 -297.75562265744617) rotate(431.84087385661775)"><path class="b-outline" fill="#A5ABB6" stroke="none" d="M 25 0.5 L 112.49560887037538 0.5 L 112.49560887037538 -0.5 L 25 -0.5 Z M 143.70654637037538 0.5 L 231.20215524075076 0.5 L 231.20215524075076 3.5 L 238.20215524075076 0 L 231.20215524075076 -3.5 L 231.20215524075076 -0.5 L 143.70654637037538 -0.5 Z"/><text text-anchor="middle" pointer-events="none" font-size="8px" fill="#000000" x="128.10107762037538" y="3" font-family="Helvetica Neue, Helvetica, Arial, sans-serif">source</text></g><g class="relationship" transform="translate(-30.984324599459978 -274.7611995755175) rotate(453.56520799860925)"><path class="b-outline" fill="#A5ABB6" stroke="none" d="M 25 0.5 L 94.66413760659233 0.5 L 94.66413760659233 -0.5 L 25 -0.5 Z M 125.87507510659233 0.5 L 195.53921271318467 0.5 L 195.53921271318467 3.5 L 202.53921271318467 0 L 195.53921271318467 -3.5 L 195.53921271318467 -0.5 L 125.87507510659233 -0.5 Z"/><text text-anchor="middle" pointer-events="none" font-size="8px" fill="#000000" x="110.26960635659233" y="3" transform="rotate(180 110.26960635659233 0)" font-family="Helvetica Neue, Helvetica, Arial, sans-serif">source</text></g><g class="relationship" transform="translate(-193.23821801673108 -224.25901088354507) rotate(410.01479769632886)"><path class="b-outline" fill="#A5ABB6" stroke="none" d="M 25 0.5 L 96.13484544700465 0.5 L 96.13484544700465 -0.5 L 25 -0.5 Z M 127.34578294700465 0.5 L 198.4806283940093 0.5 L 198.4806283940093 3.5 L 205.4806283940093 0 L 198.4806283940093 -3.5 L 198.4806283940093 -0.5 L 127.34578294700465 -0.5 Z"/><text text-anchor="middle" pointer-events="none" font-size="8px" fill="#000000" x="111.74031419700465" y="3" font-family="Helvetica Neue, Helvetica, Arial, sans-serif">source</text></g><g class="relationship" transform="translate(-251.4126109248766 -144.55823666800345) rotate(385.1609680282073)"><path class="b-outline" fill="#A5ABB6" stroke="none" d="M 25 0.5 L 94.84604456089767 0.5 L 94.84604456089767 -0.5 L 25 -0.5 Z M 126.05698206089767 0.5 L 195.90302662179533 0.5 L 195.90302662179533 3.5 L 202.90302662179533 0 L 195.90302662179533 -3.5 L 195.90302662179533 -0.5 L 126.05698206089767 -0.5 Z"/><text text-anchor="middle" pointer-events="none" font-size="8px" fill="#000000" x="110.45151331089767" y="3" font-family="Helvetica Neue, Helvetica, Arial, sans-serif">source</text></g><g class="relationship" transform="translate(-96.60492476601162 -204.13794733237293) rotate(431.79185966983533)"><path class="b-outline" fill="#A5ABB6" stroke="none" d="M 25 0.5 L 63.25638003372276 0.5 L 63.25638003372276 -0.5 L 25 -0.5 Z M 94.46731753372276 0.5 L 132.72369756744553 0.5 L 132.72369756744553 3.5 L 139.72369756744553 0 L 132.72369756744553 -3.5 L 132.72369756744553 -0.5 L 94.46731753372276 -0.5 Z"/><text text-anchor="middle" pointer-events="none" font-size="8px" fill="#000000" x="78.86184878372276" y="3" font-family="Helvetica Neue, Helvetica, Arial, sans-serif">source</text></g><g class="relationship" transform="translate(-291.74021989514404 -53.73337991649865) rotate(361.41023931140757)"><path class="b-outline" fill="#A5ABB6" stroke="none" d="M 25 0.5 L 104.23513501964719 0.5 L 104.23513501964719 -0.5 L 25 -0.5 Z M 135.4460725196472 0.5 L 214.68120753929438 0.5 L 214.68120753929438 3.5 L 221.68120753929438 0 L 214.68120753929438 -3.5 L 214.68120753929438 -0.5 L 135.4460725196472 -0.5 Z"/><text text-anchor="middle" pointer-events="none" font-size="8px" fill="#000000" x="119.84060376964719" y="3" font-family="Helvetica Neue, Helvetica, Arial, sans-serif">source</text></g><g class="relationship" transform="translate(-220.28617862951063 64.00782460221416) rotate(327.4800499313395)"><path class="b-outline" fill="#A5ABB6" stroke="none" d="M 25 0.5 L 84.75574633418955 0.5 L 84.75574633418955 -0.5 L 25 -0.5 Z M 115.96668383418955 0.5 L 175.7224301683791 0.5 L 175.7224301683791 3.5 L 182.7224301683791 0 L 175.7224301683791 -3.5 L 175.7224301683791 -0.5 L 115.96668383418955 -0.5 Z"/><text text-anchor="middle" pointer-events="none" font-size="8px" fill="#000000" x="100.36121508418955" y="3" font-family="Helvetica Neue, Helvetica, Arial, sans-serif">source</text></g></g><g class="layer nodes"><g class="node" aria-label="graph-node280" transform="translate(-286.75723805414003,133.99642246320244)"><circle class="b-outline" cx="0" cy="0" r="25" fill="#A5ABB6" stroke="#9AA1AC" stroke-width="2px"/><text class="caption" text-anchor="middle" pointer-events="none" x="0" y="5" font-size="10px" fill="#FFFFFF" font-family="Helvetica Neue, Helvetica, Arial, sans-serif"> 关税局</text></g><g class="node" aria-label="graph-node270" transform="translate(-98.97462776653923,126.12468976038622)"><circle class="b-outline" cx="0" cy="0" r="25" fill="#ECB5C9" stroke="#da7298" stroke-width="2px"/><text class="caption" text-anchor="middle" pointer-events="none" x="0" y="0" font-size="10px" fill="#2A2C34" font-family="Helvetica Neue, Helvetica, Arial, sans-serif"> 104</text><text class="caption" text-anchor="middle" pointer-events="none" x="0" y="10" font-size="10px" fill="#2A2C34" font-family="Helvetica Neue, Helvetica, Arial, sans-serif"> 亿令吉…</text></g><g class="node" aria-label="graph-node277" transform="translate(-189.95662549974628,153.6890010178101)"><circle class="b-outline" cx="0" cy="0" r="25" fill="#A5ABB6" stroke="#9AA1AC" stroke-width="2px"/><text class="caption" text-anchor="middle" pointer-events="none" x="0" y="5" font-size="10px" fill="#FFFFFF" font-family="Helvetica Neue, Helvetica, Arial, sans-serif"> 关税局</text></g><g class="node" aria-label="graph-node275" transform="translate(-8.442676800559905,157.4783848508077)"><circle class="b-outline" cx="0" cy="0" r="25" fill="#ECB5C9" stroke="#da7298" stroke-width="2px"/><text class="caption" text-anchor="middle" pointer-events="none" x="0" y="5" font-size="10px" fill="#2A2C34" font-family="Helvetica Neue, Helvetica, Arial, sans-serif"> 655亿70…</text></g><g class="node" aria-label="graph-node283" transform="translate(-124.64719978561536,33.99697065656399)"><circle class="b-outline" cx="0" cy="0" r="25" fill="#A5ABB6" stroke="#9AA1AC" stroke-width="2px"/><text class="caption" text-anchor="middle" pointer-events="none" x="0" y="0" font-size="10px" fill="#FFFFFF" font-family="Helvetica Neue, Helvetica, Arial, sans-serif"> 104</text><text class="caption" text-anchor="middle" pointer-events="none" x="0" y="10" font-size="10px" fill="#FFFFFF" font-family="Helvetica Neue, Helvetica, Arial, sans-serif"> 亿令吉</text></g><g class="node" aria-label="graph-node276" transform="translate(-45.13373023111206,-47.662349639180576)"><circle class="b-outline" cx="0" cy="0" r="25" fill="#569480" stroke="#447666" stroke-width="2px"/><text class="caption" text-anchor="middle" pointer-events="none" x="0" y="5" font-size="10px" fill="#FFFFFF" font-family="Helvetica Neue, Helvetica, Arial, sans-serif"> None</text></g><g class="node" aria-label="graph-node289" transform="translate(-254.25110174304322,227.29966748874904)"><circle class="b-outline" cx="0" cy="0" r="25" fill="#A5ABB6" stroke="#9AA1AC" stroke-width="2px"/><text class="caption" text-anchor="middle" pointer-events="none" x="0" y="5" font-size="10px" fill="#FFFFFF" font-family="Helvetica Neue, Helvetica, Arial, sans-serif"> 关税局</text></g><g class="node" aria-label="graph-node290" transform="translate(-235.13612855482364,388.0827255085513)"><circle class="b-outline" cx="0" cy="0" r="25" fill="#A5ABB6" stroke="#9AA1AC" stroke-width="2px"/><text class="caption" text-anchor="middle" pointer-events="none" x="0" y="5" font-size="10px" fill="#FFFFFF" font-family="Helvetica Neue, Helvetica, Arial, sans-serif"> 655亿70…</text></g><g class="node" aria-label="graph-node292" transform="translate(-119.70259041025248,220.53541648493803)"><circle class="b-outline" cx="0" cy="0" r="25" fill="#A5ABB6" stroke="#9AA1AC" stroke-width="2px"/><text class="caption" text-anchor="middle" pointer-events="none" x="0" y="5" font-size="10px" fill="#FFFFFF" font-family="Helvetica Neue, Helvetica, Arial, sans-serif"> 关税局</text></g><g class="node" aria-label="graph-node269" transform="translate(85.92134108599156,188.05096732574944)"><circle class="b-outline" cx="0" cy="0" r="25" fill="#ECB5C9" stroke="#da7298" stroke-width="2px"/><text class="caption" text-anchor="middle" pointer-events="none" x="0" y="5" font-size="10px" fill="#2A2C34" font-family="Helvetica Neue, Helvetica, Arial, sans-serif"> 财政部设…</text></g><g class="node" aria-label="graph-node291" transform="translate(141.90336111223007,30.024331115847172)"><circle class="b-outline" cx="0" cy="0" r="25" fill="#A5ABB6" stroke="#9AA1AC" stroke-width="2px"/><text class="caption" text-anchor="middle" pointer-events="none" x="0" y="5" font-size="10px" fill="#FFFFFF" font-family="Helvetica Neue, Helvetica, Arial, sans-serif"> 560亿…</text></g><g class="node" aria-label="graph-node293" transform="translate(216.90442508553033,-32.58116384646584)"><circle class="b-outline" cx="0" cy="0" r="25" fill="#A5ABB6" stroke="#9AA1AC" stroke-width="2px"/><text class="caption" text-anchor="middle" pointer-events="none" x="0" y="5" font-size="10px" fill="#FFFFFF" font-family="Helvetica Neue, Helvetica, Arial, sans-serif"> 拿督阿妮…</text></g><g class="node" aria-label="graph-node271" transform="translate(194.68639936801296,-135.28620617135635)"><circle class="b-outline" cx="0" cy="0" r="25" fill="#ECB5C9" stroke="#da7298" stroke-width="2px"/><text class="caption" text-anchor="middle" pointer-events="none" x="0" y="5" font-size="10px" fill="#2A2C34" font-family="Helvetica Neue, Helvetica, Arial, sans-serif"> 关税局在…</text></g><g class="node" aria-label="graph-node279" transform="translate(90.81922086755515,-155.87813599484602)"><circle class="b-outline" cx="0" cy="0" r="25" fill="#A5ABB6" stroke="#9AA1AC" stroke-width="2px"/><text class="caption" text-anchor="middle" pointer-events="none" x="0" y="0" font-size="10px" fill="#FFFFFF" font-family="Helvetica Neue, Helvetica, Arial, sans-serif"> 104</text><text class="caption" text-anchor="middle" pointer-events="none" x="0" y="10" font-size="10px" fill="#FFFFFF" font-family="Helvetica Neue, Helvetica, Arial, sans-serif"> 亿令吉</text></g><g class="node" aria-label="graph-node294" transform="translate(-1.9617169757781097,-178.7500520319158)"><circle class="b-outline" cx="0" cy="0" r="25" fill="#A5ABB6" stroke="#9AA1AC" stroke-width="2px"/><text class="caption" text-anchor="middle" pointer-events="none" x="0" y="5" font-size="10px" fill="#FFFFFF" font-family="Helvetica Neue, Helvetica, Arial, sans-serif"> 拿督阿妮…</text></g><g class="node" aria-label="graph-node268" transform="translate(157.7769009491489,-226.19074331846377)"><circle class="b-outline" cx="0" cy="0" r="25" fill="#ECB5C9" stroke="#da7298" stroke-width="2px"/><text class="caption" text-anchor="middle" pointer-events="none" x="0" y="5" font-size="10px" fill="#2A2C34" font-family="Helvetica Neue, Helvetica, Arial, sans-serif"> 记者会</text></g><g class="node" aria-label="graph-node282" transform="translate(125.41197037265168,-67.11447176079253)"><circle class="b-outline" cx="0" cy="0" r="25" fill="#A5ABB6" stroke="#9AA1AC" stroke-width="2px"/><text class="caption" text-anchor="middle" pointer-events="none" x="0" y="5" font-size="10px" fill="#FFFFFF" font-family="Helvetica Neue, Helvetica, Arial, sans-serif"> 551亿70…</text></g><g class="node" aria-label="graph-node311" transform="translate(63.23722387109239,-250.7047139266305)"><circle class="b-outline" cx="0" cy="0" r="25" fill="#A5ABB6" stroke="#9AA1AC" stroke-width="2px"/><text class="caption" text-anchor="middle" pointer-events="none" x="0" y="5" font-size="10px" fill="#FFFFFF" font-family="Helvetica Neue, Helvetica, Arial, sans-serif"> 拿督阿妮…</text></g><g class="node" aria-label="graph-node313" transform="translate(-127.1625624450813,-297.75562265744617)"><circle class="b-outline" cx="0" cy="0" r="25" fill="#A5ABB6" stroke="#9AA1AC" stroke-width="2px"/><text class="caption" text-anchor="middle" pointer-events="none" x="0" y="5" font-size="10px" fill="#FFFFFF" font-family="Helvetica Neue, Helvetica, Arial, sans-serif"> 布城关税…</text></g><g class="node" aria-label="graph-node306" transform="translate(-30.984324599459978,-274.7611995755175)"><circle class="b-outline" cx="0" cy="0" r="25" fill="#A5ABB6" stroke="#9AA1AC" stroke-width="2px"/><text class="caption" text-anchor="middle" pointer-events="none" x="0" y="5" font-size="10px" fill="#FFFFFF" font-family="Helvetica Neue, Helvetica, Arial, sans-serif"> 拿督阿妮…</text></g><g class="node" aria-label="graph-node273" transform="translate(-193.23821801673108,-224.25901088354507)"><circle class="b-outline" cx="0" cy="0" r="25" fill="#ECB5C9" stroke="#da7298" stroke-width="2px"/><text class="caption" text-anchor="middle" pointer-events="none" x="0" y="5" font-size="10px" fill="#2A2C34" font-family="Helvetica Neue, Helvetica, Arial, sans-serif"> 关税局通…</text></g><g class="node" aria-label="graph-node318" transform="translate(-251.4126109248766,-144.55823666800345)"><circle class="b-outline" cx="0" cy="0" r="25" fill="#A5ABB6" stroke="#9AA1AC" stroke-width="2px"/><text class="caption" text-anchor="middle" pointer-events="none" x="0" y="5" font-size="10px" fill="#FFFFFF" font-family="Helvetica Neue, Helvetica, Arial, sans-serif"> 拿督阿妮…</text></g><g class="node" aria-label="graph-node272" transform="translate(-96.60492476601162,-204.13794733237293)"><circle class="b-outline" cx="0" cy="0" r="25" fill="#ECB5C9" stroke="#da7298" stroke-width="2px"/><text class="caption" text-anchor="middle" pointer-events="none" x="0" y="5" font-size="10px" fill="#2A2C34" font-family="Helvetica Neue, Helvetica, Arial, sans-serif"> 这是疫情…</text></g><g class="node" aria-label="graph-node319" transform="translate(50.75578706413415,-3.6816224113714187)"><circle class="b-outline" cx="0" cy="0" r="25" fill="#A5ABB6" stroke="#9AA1AC" stroke-width="2px"/><text class="caption" text-anchor="middle" pointer-events="none" x="0" y="5" font-size="10px" fill="#FFFFFF" font-family="Helvetica Neue, Helvetica, Arial, sans-serif"> develop…</text></g><g class="node" aria-label="graph-node320" transform="translate(-291.74021989514404,-53.73337991649865)"><circle class="b-outline" cx="0" cy="0" r="25" fill="#A5ABB6" stroke="#9AA1AC" stroke-width="2px"/><text class="caption" text-anchor="middle" pointer-events="none" x="0" y="5" font-size="10px" fill="#FFFFFF" font-family="Helvetica Neue, Helvetica, Arial, sans-serif"> 拿督阿妮…</text></g><g class="node" aria-label="graph-node274" transform="translate(-220.28617862951063,64.00782460221416)"><circle class="b-outline" cx="0" cy="0" r="25" fill="#ECB5C9" stroke="#da7298" stroke-width="2px"/><text class="caption" text-anchor="middle" pointer-events="none" x="0" y="5" font-size="10px" fill="#2A2C34" font-family="Helvetica Neue, Helvetica, Arial, sans-serif"> 今年可以…</text></g><g class="node" aria-label="graph-node278" transform="translate(-515.7664253182559,119.8153362957802)"><circle class="b-outline" cx="0" cy="0" r="25" fill="#A5ABB6" stroke="#9AA1AC" stroke-width="2px"/><text class="caption" text-anchor="middle" pointer-events="none" x="0" y="5" font-size="10px" fill="#FFFFFF" font-family="Helvetica Neue, Helvetica, Arial, sans-serif"> 关税局</text></g><g class="node" aria-label="graph-node321" transform="translate(-556.3793966330077,265.02714906700504)"><circle class="b-outline" cx="0" cy="0" r="25" fill="#A5ABB6" stroke="#9AA1AC" stroke-width="2px"/><text class="caption" text-anchor="middle" pointer-events="none" x="0" y="5" font-size="10px" fill="#FFFFFF" font-family="Helvetica Neue, Helvetica, Arial, sans-serif"> 551亿70…</text></g><g class="node" aria-label="graph-node325" transform="translate(-156.01685519892612,-125.87853593309276)"><circle class="b-outline" cx="0" cy="0" r="25" fill="#A5ABB6" stroke="#9AA1AC" stroke-width="2px"/><text class="caption" text-anchor="middle" pointer-events="none" x="0" y="5" font-size="10px" fill="#FFFFFF" font-family="Helvetica Neue, Helvetica, Arial, sans-serif"> Lumpur</text></g><g class="node" aria-label="graph-node339" transform="translate(-366.9432280154815,33.640898094350405)"><circle class="b-outline" cx="0" cy="0" r="25" fill="#A5ABB6" stroke="#9AA1AC" stroke-width="2px"/><text class="caption" text-anchor="middle" pointer-events="none" x="0" y="5" font-size="10px" fill="#FFFFFF" font-family="Helvetica Neue, Helvetica, Arial, sans-serif"> 18 85</text></g><g class="node" aria-label="graph-node344" transform="translate(-195.59858025122685,-34.264450417350105)"><circle class="b-outline" cx="0" cy="0" r="25" fill="#A5ABB6" stroke="#9AA1AC" stroke-width="2px"/><text class="caption" text-anchor="middle" pointer-events="none" x="0" y="5" font-size="10px" fill="#FFFFFF" font-family="Helvetica Neue, Helvetica, Arial, sans-serif"> 2024年</text></g><g class="node" aria-label="graph-node302" transform="translate(-26.65632851828999,62.40429924412208)"><circle class="b-outline" cx="0" cy="0" r="25" fill="#A5ABB6" stroke="#9AA1AC" stroke-width="2px"/><text class="caption" text-anchor="middle" pointer-events="none" x="0" y="5" font-size="10px" fill="#FFFFFF" font-family="Helvetica Neue, Helvetica, Arial, sans-serif"> Month</text></g><g class="node selected" aria-label="graph-node333" transform="translate(66.87465716944838,92.9672835596647)"><circle class="b-outline" cx="0" cy="0" r="25" fill="#F16667" stroke="#eb2728" stroke-width="2px"/><text class="caption" text-anchor="middle" pointer-events="none" x="0" y="5" font-size="10px" fill="#FFFFFF" font-family="Helvetica Neue, Helvetica, Arial, sans-serif"> 3k</text></g></g></svg>