<svg xmlns="http://www.w3.org/2000/svg" width="519.5913696289062" height="574.8114624023438" viewBox="-278.498291015625 -305.2453308105469 519.5913696289062 574.8114624023438"><title>Neo4j Graph Visualization</title><desc>Created using Neo4j (http://www.neo4j.com/)</desc><g class="layer relationships"><g class="relationship" transform="translate(-124.91985326452097 179.13367303162252) rotate(398.1088517086288)"><path class="b-outline" fill="#A5ABB6" stroke="none" d="M 25 0.5 L 31.27047453632742 0.5 L 31.27047453632742 -0.5 L 25 -0.5 Z M 61.27047453632742 0.5 L 67.54094907265484 0.5 L 67.54094907265484 3.5 L 74.54094907265484 0 L 67.54094907265484 -3.5 L 67.54094907265484 -0.5 L 61.27047453632742 -0.5 Z"/><text text-anchor="middle" pointer-events="none" font-size="8px" fill="#000000" x="46.27047453632742" y="3" font-family="Helvetica Neue, Helvetica, Arial, sans-serif">有一个</text></g><g class="relationship" transform="translate(-46.59708417222175 240.56611058703166) rotate(339.8932534880902)"><path class="b-outline" fill="#A5ABB6" stroke="none" d="M 25 0.5 L 27.27937583690322 0.5 L 27.27937583690322 -0.5 L 25 -0.5 Z M 65.27937583690323 0.5 L 67.55875167380644 0.5 L 67.55875167380644 3.5 L 74.55875167380644 0 L 67.55875167380644 -3.5 L 67.55875167380644 -0.5 L 65.27937583690323 -0.5 Z"/><text text-anchor="middle" pointer-events="none" font-size="8px" fill="#000000" x="46.27937583690322" y="3" font-family="Helvetica Neue, Helvetica, Arial, sans-serif">用于拘留</text></g><g class="relationship" transform="translate(138.1629558989683 167.56287751497393) rotate(310.4201145509601)"><path class="b-outline" fill="#A5ABB6" stroke="none" d="M 25 0.5 L 35.838500778837 0.5 L 35.838500778837 -0.5 L 25 -0.5 Z M 57.838500778837 0.5 L 68.677001557674 0.5 L 68.677001557674 3.5 L 75.677001557674 0 L 68.677001557674 -3.5 L 68.677001557674 -0.5 L 57.838500778837 -0.5 Z"/><text text-anchor="middle" pointer-events="none" font-size="8px" fill="#000000" x="46.838500778837" y="3" font-family="Helvetica Neue, Helvetica, Arial, sans-serif">位于</text></g><g class="relationship" transform="translate(212.09305720028564 -7.89965290670445) rotate(539.8043491168933)"><path class="b-outline" fill="#A5ABB6" stroke="none" d="M 25 0.5 L 94.63920839715969 0.5 L 94.63920839715969 -0.5 L 25 -0.5 Z M 125.85014589715969 0.5 L 195.48935429431938 0.5 L 195.48935429431938 3.5 L 202.48935429431938 0 L 195.48935429431938 -3.5 L 195.48935429431938 -0.5 L 125.85014589715969 -0.5 Z"/><text text-anchor="middle" pointer-events="none" font-size="8px" fill="#000000" x="110.24467714715969" y="3" transform="rotate(180 110.24467714715969 0)" font-family="Helvetica Neue, Helvetica, Arial, sans-serif">source</text></g><g class="relationship" transform="translate(123.43433567898543 34.18335611999338) rotate(196.56943722966076)"><path class="b-outline" fill="#A5ABB6" stroke="none" d="M 25 0.5 L 53.31651984287801 0.5 L 53.31651984287801 -0.5 L 25 -0.5 Z M 84.52745734287801 0.5 L 112.84397718575602 0.5 L 112.84397718575602 3.5 L 119.84397718575602 0 L 112.84397718575602 -3.5 L 112.84397718575602 -0.5 L 84.52745734287801 -0.5 Z"/><text text-anchor="middle" pointer-events="none" font-size="8px" fill="#000000" x="68.92198859287801" y="3" transform="rotate(180 68.92198859287801 0)" font-family="Helvetica Neue, Helvetica, Arial, sans-serif">source</text></g><g class="relationship" transform="translate(212.09305720028564 -7.89965290670445) rotate(267.3910039177111)"><path class="b-outline" fill="#A5ABB6" stroke="none" d="M 25 0.5 L 35.93509247441375 0.5 L 35.93509247441375 -0.5 L 25 -0.5 Z M 73.93509247441375 0.5 L 84.8701849488275 0.5 L 84.8701849488275 3.5 L 91.8701849488275 0 L 84.8701849488275 -3.5 L 84.8701849488275 -0.5 L 73.93509247441375 -0.5 Z"/><text text-anchor="middle" pointer-events="none" font-size="8px" fill="#000000" x="54.93509247441375" y="3" transform="rotate(180 54.93509247441375 0)" font-family="Helvetica Neue, Helvetica, Arial, sans-serif">告诉记者</text></g><g class="relationship" transform="translate(-36.831822558040194 -276.2453458052483) rotate(445.44574216193337)"><path class="b-outline" fill="#A5ABB6" stroke="none" d="M 25 0.5 L 115.88199790495776 0.5 L 115.88199790495776 -0.5 L 25 -0.5 Z M 147.09293540495776 0.5 L 237.9749333099155 0.5 L 237.9749333099155 3.5 L 244.9749333099155 0 L 237.9749333099155 -3.5 L 237.9749333099155 -0.5 L 147.09293540495776 -0.5 Z"/><text text-anchor="middle" pointer-events="none" font-size="8px" fill="#000000" x="131.48746665495776" y="3" font-family="Helvetica Neue, Helvetica, Arial, sans-serif">source</text></g><g class="relationship" transform="translate(-36.831822558040194 -276.2453458052483) rotate(397.05239044991583)"><path class="b-outline" fill="#A5ABB6" stroke="none" d="M 25 0.5 L 72.48908491897372 0.5 L 72.48908491897372 -0.5 L 25 -0.5 Z M 110.48908491897372 0.5 L 157.97816983794743 0.5 L 157.97816983794743 3.5 L 164.97816983794743 0 L 157.97816983794743 -3.5 L 157.97816983794743 -0.5 L 110.48908491897372 -0.5 Z"/><text text-anchor="middle" pointer-events="none" font-size="8px" fill="#000000" x="91.48908491897372" y="3" font-family="Helvetica Neue, Helvetica, Arial, sans-serif">被指控为</text></g><g class="relationship" transform="translate(129.82347819698384 -63.15641211857218) rotate(518.9005351973323)"><path class="b-outline" fill="#A5ABB6" stroke="none" d="M 25 0.5 L 58.72151841208992 0.5 L 58.72151841208992 -0.5 L 25 -0.5 Z M 89.93245591208992 0.5 L 123.65397432417984 0.5 L 123.65397432417984 3.5 L 130.65397432417984 0 L 123.65397432417984 -3.5 L 123.65397432417984 -0.5 L 89.93245591208992 -0.5 Z"/><text text-anchor="middle" pointer-events="none" font-size="8px" fill="#000000" x="74.32698716208992" y="3" transform="rotate(180 74.32698716208992 0)" font-family="Helvetica Neue, Helvetica, Arial, sans-serif">source</text></g><g class="relationship" transform="translate(38.155935058243486 -99.45150571256139) rotate(480.1138616023383)"><path class="b-outline" fill="#A5ABB6" stroke="none" d="M 25 0.5 L 34.26185039807697 0.5 L 34.26185039807697 -0.5 L 25 -0.5 Z M 65.47278789807697 0.5 L 74.73463829615395 0.5 L 74.73463829615395 3.5 L 81.73463829615395 0 L 74.73463829615395 -3.5 L 74.73463829615395 -0.5 L 65.47278789807697 -0.5 Z"/><text text-anchor="middle" pointer-events="none" font-size="8px" fill="#000000" x="49.86731914807697" y="3" transform="rotate(180 49.86731914807697 0)" font-family="Helvetica Neue, Helvetica, Arial, sans-serif">source</text></g><g class="relationship" transform="translate(-210.7582742119686 -229.33900060239503) rotate(344.9069440214406)"><path class="b-outline" fill="#A5ABB6" stroke="none" d="M 25 0.5 L 75.57027229504683 0.5 L 75.57027229504683 -0.5 L 25 -0.5 Z M 97.57027229504683 0.5 L 148.14054459009367 0.5 L 148.14054459009367 3.5 L 155.14054459009367 0 L 148.14054459009367 -3.5 L 148.14054459009367 -0.5 L 97.57027229504683 -0.5 Z"/><text text-anchor="middle" pointer-events="none" font-size="8px" fill="#000000" x="86.57027229504683" y="3" font-family="Helvetica Neue, Helvetica, Arial, sans-serif">关押</text></g><g class="relationship" transform="translate(56.65788162970581 -241.043619721441) rotate(457.4447008727452)"><path class="b-outline" fill="#A5ABB6" stroke="none" d="M 25 0.5 L 52.89791449411672 0.5 L 52.89791449411672 -0.5 L 25 -0.5 Z M 82.89791449411672 0.5 L 110.79582898823344 0.5 L 110.79582898823344 3.5 L 117.79582898823344 0 L 110.79582898823344 -3.5 L 110.79582898823344 -0.5 L 82.89791449411672 -0.5 Z"/><text text-anchor="middle" pointer-events="none" font-size="8px" fill="#000000" x="67.89791449411672" y="3" transform="rotate(180 67.89791449411672 0)" font-family="Helvetica Neue, Helvetica, Arial, sans-serif">可容纳</text></g><g class="relationship" transform="translate(-115.9186298193802 -201.7440357569128) rotate(422.68322614175946)"><path class="b-outline" fill="#A5ABB6" stroke="none" d="M 25 0.5 L 90.41897822629988 0.5 L 90.41897822629988 -0.5 L 25 -0.5 Z M 121.62991572629988 0.5 L 187.04889395259977 0.5 L 187.04889395259977 3.5 L 194.04889395259977 0 L 187.04889395259977 -3.5 L 187.04889395259977 -0.5 L 121.62991572629988 -0.5 Z"/><text text-anchor="middle" pointer-events="none" font-size="8px" fill="#000000" x="106.02444697629988" y="3" font-family="Helvetica Neue, Helvetica, Arial, sans-serif">source</text></g><g class="relationship" transform="translate(-210.7582742119686 -229.33900060239503) rotate(462.75110815306016)"><path class="b-outline" fill="#A5ABB6" stroke="none" d="M 25 0.5 L 65.2597280866827 0.5 L 65.2597280866827 -0.5 L 25 -0.5 Z M 103.2597280866827 0.5 L 143.5194561733654 0.5 L 143.5194561733654 3.5 L 150.5194561733654 0 L 143.5194561733654 -3.5 L 143.5194561733654 -0.5 L 103.2597280866827 -0.5 Z"/><text text-anchor="middle" pointer-events="none" font-size="8px" fill="#000000" x="84.2597280866827" y="3" transform="rotate(180 84.2597280866827 0)" font-family="Helvetica Neue, Helvetica, Arial, sans-serif">目前关押</text></g><g class="relationship" transform="translate(-115.9186298193802 -201.7440357569128) rotate(462.52736903365997)"><path class="b-outline" fill="#A5ABB6" stroke="none" d="M 25 0.5 L 67.19659415707467 0.5 L 67.19659415707467 -0.5 L 25 -0.5 Z M 97.19659415707467 0.5 L 139.39318831414934 0.5 L 139.39318831414934 3.5 L 146.39318831414934 0 L 139.39318831414934 -3.5 L 139.39318831414934 -0.5 L 97.19659415707467 -0.5 Z"/><text text-anchor="middle" pointer-events="none" font-size="8px" fill="#000000" x="82.19659415707467" y="3" transform="rotate(180 82.19659415707467 0)" font-family="Helvetica Neue, Helvetica, Arial, sans-serif">将会由</text></g><g class="relationship" transform="translate(-210.7582742119686 -229.33900060239503) rotate(433.821889328182)"><path class="b-outline" fill="#A5ABB6" stroke="none" d="M 25 0.5 L 29.82368317030553 0.5 L 29.82368317030553 -0.5 L 25 -0.5 Z M 67.82368317030553 0.5 L 72.64736634061106 0.5 L 72.64736634061106 3.5 L 79.64736634061106 0 L 72.64736634061106 -3.5 L 72.64736634061106 -0.5 L 67.82368317030553 -0.5 Z"/><text text-anchor="middle" pointer-events="none" font-size="8px" fill="#000000" x="48.82368317030553" y="3" font-family="Helvetica Neue, Helvetica, Arial, sans-serif">专门关押</text></g><g class="relationship" transform="translate(-220.71547385833296 36.10277562478513) rotate(348.1112775031411)"><path class="b-outline" fill="#A5ABB6" stroke="none" d="M 25 0.5 L 85.80516270934473 0.5 L 85.80516270934473 -0.5 L 25 -0.5 Z M 117.01610020934473 0.5 L 177.82126291868946 0.5 L 177.82126291868946 3.5 L 184.82126291868946 0 L 177.82126291868946 -3.5 L 177.82126291868946 -0.5 L 117.01610020934473 -0.5 Z"/><text text-anchor="middle" pointer-events="none" font-size="8px" fill="#000000" x="101.41063145934473" y="3" font-family="Helvetica Neue, Helvetica, Arial, sans-serif">source</text></g><g class="relationship" transform="translate(-220.71547385833296 36.10277562478513) rotate(445.2356428922491)"><path class="b-outline" fill="#A5ABB6" stroke="none" d="M 25 0.5 L 27.502762170295597 0.5 L 27.502762170295597 -0.5 L 25 -0.5 Z M 65.5027621702956 0.5 L 68.0055243405912 0.5 L 68.0055243405912 3.5 L 75.0055243405912 0 L 68.0055243405912 -3.5 L 68.0055243405912 -0.5 L 65.5027621702956 -0.5 Z"/><text text-anchor="middle" pointer-events="none" font-size="8px" fill="#000000" x="46.5027621702956" y="3" font-family="Helvetica Neue, Helvetica, Arial, sans-serif">用来关押</text></g><g class="relationship" transform="translate(-210.7582742119686 -229.33900060239503) rotate(374.43181945989625)"><path class="b-outline" fill="#A5ABB6" stroke="none" d="M 25 0.5 L 88.21246734304421 0.5 L 88.21246734304421 -0.5 L 25 -0.5 Z M 102.21246734304421 0.5 L 165.42493468608842 0.5 L 165.42493468608842 3.5 L 172.42493468608842 0 L 165.42493468608842 -3.5 L 165.42493468608842 -0.5 L 102.21246734304421 -0.5 Z"/><text text-anchor="middle" pointer-events="none" font-size="8px" fill="#000000" x="95.21246734304421" y="3" font-family="Helvetica Neue, Helvetica, Arial, sans-serif">由</text></g><g class="relationship" transform="translate(-210.7582742119686 -229.33900060239503) rotate(404.53384978331883)"><path class="b-outline" fill="#A5ABB6" stroke="none" d="M 25 0.5 L 72.59881069769155 0.5 L 72.59881069769155 -0.5 L 25 -0.5 Z M 94.59881069769155 0.5 L 142.1976213953831 0.5 L 142.1976213953831 3.5 L 149.1976213953831 0 L 142.1976213953831 -3.5 L 142.1976213953831 -0.5 L 94.59881069769155 -0.5 Z"/><text text-anchor="middle" pointer-events="none" font-size="8px" fill="#000000" x="83.59881069769155" y="3" font-family="Helvetica Neue, Helvetica, Arial, sans-serif">数字</text></g><g class="relationship" transform="translate(138.1629558989683 167.56287751497393) rotate(228.68282943845054)"><path class="b-outline" fill="#A5ABB6" stroke="none" d="M 25 0.5 L 97.18633543679873 0.5 L 97.18633543679873 -0.5 L 25 -0.5 Z M 128.39727293679874 0.5 L 200.58360837359746 0.5 L 200.58360837359746 3.5 L 207.58360837359746 0 L 200.58360837359746 -3.5 L 200.58360837359746 -0.5 L 128.39727293679874 -0.5 Z"/><text text-anchor="middle" pointer-events="none" font-size="8px" fill="#000000" x="112.79180418679873" y="3" transform="rotate(180 112.79180418679873 0)" font-family="Helvetica Neue, Helvetica, Arial, sans-serif">source</text></g><g class="relationship" transform="translate(-131.25454353997682 79.92983208325913) rotate(323.0801324819424)"><path class="b-outline" fill="#A5ABB6" stroke="none" d="M 25 0.5 L 53.354187939754894 0.5 L 53.354187939754894 -0.5 L 25 -0.5 Z M 84.5651254397549 0.5 L 112.91931337950979 0.5 L 112.91931337950979 3.5 L 119.91931337950979 0 L 112.91931337950979 -3.5 L 112.91931337950979 -0.5 L 84.5651254397549 -0.5 Z"/><text text-anchor="middle" pointer-events="none" font-size="8px" fill="#000000" x="68.9596566897549" y="3" font-family="Helvetica Neue, Helvetica, Arial, sans-serif">source</text></g><g class="relationship" transform="translate(-34.333532447881765 142.30168322011707) rotate(277.2233441692666)"><path class="b-outline" fill="#A5ABB6" stroke="none" d="M 25 0.5 L 56.20448355420102 0.5 L 56.20448355420102 -0.5 L 25 -0.5 Z M 87.41542105420102 0.5 L 118.61990460840204 0.5 L 118.61990460840204 3.5 L 125.61990460840204 0 L 118.61990460840204 -3.5 L 118.61990460840204 -0.5 L 87.41542105420102 -0.5 Z"/><text text-anchor="middle" pointer-events="none" font-size="8px" fill="#000000" x="71.80995230420102" y="3" font-family="Helvetica Neue, Helvetica, Arial, sans-serif">source</text></g><g class="relationship" transform="translate(59.78945807185751 109.02997207816415) rotate(237.08546385838667)"><path class="b-outline" fill="#A5ABB6" stroke="none" d="M 25 0.5 L 50.075765799932356 0.5 L 50.075765799932356 -0.5 L 25 -0.5 Z M 81.28670329993236 0.5 L 106.36246909986471 0.5 L 106.36246909986471 3.5 L 113.36246909986471 0 L 106.36246909986471 -3.5 L 106.36246909986471 -0.5 L 81.28670329993236 -0.5 Z"/><text text-anchor="middle" pointer-events="none" font-size="8px" fill="#000000" x="65.68123454993236" y="3" transform="rotate(180 65.68123454993236 0)" font-family="Helvetica Neue, Helvetica, Arial, sans-serif">source</text></g><g class="relationship" transform="translate(-212.40922270818814 135.76275300019543) rotate(324.0483094866264)"><path class="b-outline" fill="#A5ABB6" stroke="none" d="M 25 0.5 L 102.58153407806132 0.5 L 102.58153407806132 -0.5 L 25 -0.5 Z M 133.79247157806134 0.5 L 211.37400565612265 0.5 L 211.37400565612265 3.5 L 218.37400565612265 0 L 211.37400565612265 -3.5 L 211.37400565612265 -0.5 L 133.79247157806134 -0.5 Z"/><text text-anchor="middle" pointer-events="none" font-size="8px" fill="#000000" x="118.18700282806132" y="3" font-family="Helvetica Neue, Helvetica, Arial, sans-serif">source</text></g><g class="relationship" transform="translate(-19.56310293180135 -180.13522722114118) rotate(448.6199243265497)"><path class="b-outline" fill="#A5ABB6" stroke="none" d="M 25 0.5 L 67.42582804905544 0.5 L 67.42582804905544 -0.5 L 25 -0.5 Z M 98.63676554905544 0.5 L 141.06259359811088 0.5 L 141.06259359811088 3.5 L 148.06259359811088 0 L 141.06259359811088 -3.5 L 141.06259359811088 -0.5 L 98.63676554905544 -0.5 Z"/><text text-anchor="middle" pointer-events="none" font-size="8px" fill="#000000" x="83.03129679905544" y="3" font-family="Helvetica Neue, Helvetica, Arial, sans-serif">source</text></g><g class="relationship" transform="translate(-210.7582742119686 -229.33900060239503) rotate(408.67939583158596)"><path class="b-outline" fill="#A5ABB6" stroke="none" d="M 25 0.5 L 128.83611155613923 0.5 L 128.83611155613923 -0.5 L 25 -0.5 Z M 160.04704905613923 0.5 L 263.88316061227846 0.5 L 263.88316061227846 3.5 L 270.88316061227846 0 L 263.88316061227846 -3.5 L 263.88316061227846 -0.5 L 160.04704905613923 -0.5 Z"/><text text-anchor="middle" pointer-events="none" font-size="8px" fill="#000000" x="144.44158030613923" y="3" font-family="Helvetica Neue, Helvetica, Arial, sans-serif">source</text></g><g class="relationship" transform="translate(-86.58389773489324 -107.16889162995128) rotate(414.56580791833653)"><path class="b-outline" fill="#A5ABB6" stroke="none" d="M 25 0.5 L 42.2889056582402 0.5 L 42.2889056582402 -0.5 L 25 -0.5 Z M 73.4998431582402 0.5 L 90.7887488164804 0.5 L 90.7887488164804 3.5 L 97.7887488164804 0 L 90.7887488164804 -3.5 L 90.7887488164804 -0.5 L 73.4998431582402 -0.5 Z"/><text text-anchor="middle" pointer-events="none" font-size="8px" fill="#000000" x="57.8943744082402" y="3" font-family="Helvetica Neue, Helvetica, Arial, sans-serif">source</text></g><g class="relationship" transform="translate(206.77314540869395 -124.64869430963344) rotate(512.1213760476321)"><path class="b-outline" fill="#A5ABB6" stroke="none" d="M 25 0.5 L 106.56373942357912 0.5 L 106.56373942357912 -0.5 L 25 -0.5 Z M 137.77467692357914 0.5 L 219.33841634715824 0.5 L 219.33841634715824 3.5 L 226.33841634715824 0 L 219.33841634715824 -3.5 L 219.33841634715824 -0.5 L 137.77467692357914 -0.5 Z"/><text text-anchor="middle" pointer-events="none" font-size="8px" fill="#000000" x="122.16920817357912" y="3" transform="rotate(180 122.16920817357912 0)" font-family="Helvetica Neue, Helvetica, Arial, sans-serif">source</text></g><g class="relationship" transform="translate(-153.0948314789085 -34.43128958777141) rotate(371.21727527714063)"><path class="b-outline" fill="#A5ABB6" stroke="none" d="M 25 0.5 L 51.08534857832906 0.5 L 51.08534857832906 -0.5 L 25 -0.5 Z M 82.29628607832906 0.5 L 108.38163465665812 0.5 L 108.38163465665812 3.5 L 115.38163465665812 0 L 108.38163465665812 -3.5 L 108.38163465665812 -0.5 L 82.29628607832906 -0.5 Z"/><text text-anchor="middle" pointer-events="none" font-size="8px" fill="#000000" x="66.69081732832906" y="3" font-family="Helvetica Neue, Helvetica, Arial, sans-serif">source</text></g><g class="relationship" transform="translate(203.44063611779345 90.91639613524785) rotate(204.13257124748066)"><path class="b-outline" fill="#A5ABB6" stroke="none" d="M 25 0.5 L 100.79106332988587 0.5 L 100.79106332988587 -0.5 L 25 -0.5 Z M 132.00200082988587 0.5 L 207.79306415977175 0.5 L 207.79306415977175 3.5 L 214.79306415977175 0 L 207.79306415977175 -3.5 L 207.79306415977175 -0.5 L 132.00200082988587 -0.5 Z"/><text text-anchor="middle" pointer-events="none" font-size="8px" fill="#000000" x="116.39653207988587" y="3" transform="rotate(180 116.39653207988587 0)" font-family="Helvetica Neue, Helvetica, Arial, sans-serif">source</text></g><g class="relationship" transform="translate(46.89393792434715 206.34077169629865) rotate(253.73269855422723)"><path class="b-outline" fill="#A5ABB6" stroke="none" d="M 25 0.5 L 92.07751037486881 0.5 L 92.07751037486881 -0.5 L 25 -0.5 Z M 123.28844787486881 0.5 L 190.36595824973762 0.5 L 190.36595824973762 3.5 L 197.36595824973762 0 L 190.36595824973762 -3.5 L 190.36595824973762 -0.5 L 123.28844787486881 -0.5 Z"/><text text-anchor="middle" pointer-events="none" font-size="8px" fill="#000000" x="107.68297912486881" y="3" transform="rotate(180 107.68297912486881 0)" font-family="Helvetica Neue, Helvetica, Arial, sans-serif">source</text></g><g class="relationship" transform="translate(56.65788162970581 -241.043619721441) rotate(467.12000696326356)"><path class="b-outline" fill="#A5ABB6" stroke="none" d="M 25 0.5 L 103.27768697368305 0.5 L 103.27768697368305 -0.5 L 25 -0.5 Z M 134.48862447368305 0.5 L 212.7663114473661 0.5 L 212.7663114473661 3.5 L 219.7663114473661 0 L 212.7663114473661 -3.5 L 212.7663114473661 -0.5 L 134.48862447368305 -0.5 Z"/><text text-anchor="middle" pointer-events="none" font-size="8px" fill="#000000" x="118.88315572368305" y="3" transform="rotate(180 118.88315572368305 0)" font-family="Helvetica Neue, Helvetica, Arial, sans-serif">source</text></g><g class="relationship" transform="translate(-181.60098398945007 -128.83564887268463) rotate(396.21535180694895)"><path class="b-outline" fill="#A5ABB6" stroke="none" d="M 25 0.5 L 83.89750204631835 0.5 L 83.89750204631835 -0.5 L 25 -0.5 Z M 115.10843954631835 0.5 L 174.0059415926367 0.5 L 174.0059415926367 3.5 L 181.0059415926367 0 L 174.0059415926367 -3.5 L 174.0059415926367 -0.5 L 115.10843954631835 -0.5 Z"/><text text-anchor="middle" pointer-events="none" font-size="8px" fill="#000000" x="99.50297079631835" y="3" font-family="Helvetica Neue, Helvetica, Arial, sans-serif">source</text></g><g class="relationship" transform="translate(-46.59708417222175 240.56611058703166) rotate(277.1798994901369)"><path class="b-outline" fill="#A5ABB6" stroke="none" d="M 25 0.5 L 105.71779178449873 0.5 L 105.71779178449873 -0.5 L 25 -0.5 Z M 136.92872928449873 0.5 L 217.64652106899746 0.5 L 217.64652106899746 3.5 L 224.64652106899746 0 L 217.64652106899746 -3.5 L 217.64652106899746 -0.5 L 136.92872928449873 -0.5 Z"/><text text-anchor="middle" pointer-events="none" font-size="8px" fill="#000000" x="121.32326053449873" y="3" font-family="Helvetica Neue, Helvetica, Arial, sans-serif">source</text></g><g class="relationship" transform="translate(-249.49827898061528 -58.1481961591681) rotate(372.29593128751435)"><path class="b-outline" fill="#A5ABB6" stroke="none" d="M 25 0.5 L 100.69430840927178 0.5 L 100.69430840927178 -0.5 L 25 -0.5 Z M 131.9052459092718 0.5 L 207.59955431854357 0.5 L 207.59955431854357 3.5 L 214.59955431854357 0 L 207.59955431854357 -3.5 L 207.59955431854357 -0.5 L 131.9052459092718 -0.5 Z"/><text text-anchor="middle" pointer-events="none" font-size="8px" fill="#000000" x="116.29977715927178" y="3" font-family="Helvetica Neue, Helvetica, Arial, sans-serif">source</text></g><g class="relationship" transform="translate(114.78688329120251 -161.77494329186138) rotate(490.08974220237116)"><path class="b-outline" fill="#A5ABB6" stroke="none" d="M 25 0.5 L 81.96949084599191 0.5 L 81.96949084599191 -0.5 L 25 -0.5 Z M 113.18042834599191 0.5 L 170.14991919198383 0.5 L 170.14991919198383 3.5 L 177.14991919198383 0 L 170.14991919198383 -3.5 L 170.14991919198383 -0.5 L 113.18042834599191 -0.5 Z"/><text text-anchor="middle" pointer-events="none" font-size="8px" fill="#000000" x="97.57495959599191" y="3" transform="rotate(180 97.57495959599191 0)" font-family="Helvetica Neue, Helvetica, Arial, sans-serif">source</text></g><g class="relationship" transform="translate(-124.91985326452097 179.13367303162252) rotate(300.4569124613124)"><path class="b-outline" fill="#A5ABB6" stroke="none" d="M 25 0.5 L 88.93062075858231 0.5 L 88.93062075858231 -0.5 L 25 -0.5 Z M 120.14155825858231 0.5 L 184.07217901716461 0.5 L 184.07217901716461 3.5 L 191.07217901716461 0 L 184.07217901716461 -3.5 L 184.07217901716461 -0.5 L 120.14155825858231 -0.5 Z"/><text text-anchor="middle" pointer-events="none" font-size="8px" fill="#000000" x="104.53608950858231" y="3" font-family="Helvetica Neue, Helvetica, Arial, sans-serif">source</text></g></g><g class="layer nodes"><g class="node" aria-label="graph-node25" transform="translate(-124.91985326452097,179.13367303162252)"><circle class="b-outline" cx="0" cy="0" r="25" fill="#57C7E3" stroke="#23b3d7" stroke-width="2px"/><text class="caption" text-anchor="middle" pointer-events="none" x="0" y="5" font-size="10px" fill="#2A2C34" font-family="Helvetica Neue, Helvetica, Arial, sans-serif"> 古巴的美…</text></g><g class="node" aria-label="graph-node41" transform="translate(-46.59708417222175,240.56611058703166)"><circle class="b-outline" cx="0" cy="0" r="25" fill="#57C7E3" stroke="#23b3d7" stroke-width="2px"/><text class="caption" text-anchor="middle" pointer-events="none" x="0" y="5" font-size="10px" fill="#2A2C34" font-family="Helvetica Neue, Helvetica, Arial, sans-serif"> 关塔那摩…</text></g><g class="node" aria-label="graph-node28" transform="translate(46.89393792434715,206.34077169629865)"><circle class="b-outline" cx="0" cy="0" r="25" fill="#57C7E3" stroke="#23b3d7" stroke-width="2px"/><text class="caption" text-anchor="middle" pointer-events="none" x="0" y="5" font-size="10px" fill="#2A2C34" font-family="Helvetica Neue, Helvetica, Arial, sans-serif"> 移民</text></g><g class="node" aria-label="graph-node35" transform="translate(138.1629558989683,167.56287751497393)"><circle class="b-outline" cx="0" cy="0" r="25" fill="#57C7E3" stroke="#23b3d7" stroke-width="2px"/><text class="caption" text-anchor="middle" pointer-events="none" x="0" y="5" font-size="10px" fill="#2A2C34" font-family="Helvetica Neue, Helvetica, Arial, sans-serif"> 军事监狱</text></g><g class="node" aria-label="graph-node54" transform="translate(203.44063611779345,90.91639613524785)"><circle class="b-outline" cx="0" cy="0" r="25" fill="#C990C0" stroke="#b261a5" stroke-width="2px"/><text class="caption" text-anchor="middle" pointer-events="none" x="0" y="5" font-size="10px" fill="#FFFFFF" font-family="Helvetica Neue, Helvetica, Arial, sans-serif"> 古巴</text></g><g class="node" aria-label="graph-node47" transform="translate(212.09305720028564,-7.89965290670445)"><circle class="b-outline" cx="0" cy="0" r="25" fill="#F16667" stroke="#eb2728" stroke-width="2px"/><text class="caption" text-anchor="middle" pointer-events="none" x="0" y="5" font-size="10px" fill="#FFFFFF" font-family="Helvetica Neue, Helvetica, Arial, sans-serif"> 汤姆 霍曼</text></g><g class="node" aria-label="graph-node53" transform="translate(-15.394970771889863,-7.1228346673058756)"><circle class="b-outline" cx="0" cy="0" r="25" fill="#D9C8AE" stroke="#c0a378" stroke-width="2px"/><text class="caption" text-anchor="middle" pointer-events="none" x="0" y="5" font-size="10px" fill="#2A2C34" font-family="Helvetica Neue, Helvetica, Arial, sans-serif"> </text></g><g class="node" aria-label="graph-node40" transform="translate(123.43433567898543,34.18335611999338)"><circle class="b-outline" cx="0" cy="0" r="25" fill="#F16667" stroke="#eb2728" stroke-width="2px"/><text class="caption" text-anchor="middle" pointer-events="none" x="0" y="5" font-size="10px" fill="#FFFFFF" font-family="Helvetica Neue, Helvetica, Arial, sans-serif"> 唐纳德·…</text></g><g class="node" aria-label="graph-node20" transform="translate(206.77314540869395,-124.64869430963344)"><circle class="b-outline" cx="0" cy="0" r="25" fill="#57C7E3" stroke="#23b3d7" stroke-width="2px"/><text class="caption" text-anchor="middle" pointer-events="none" x="0" y="5" font-size="10px" fill="#2A2C34" font-family="Helvetica Neue, Helvetica, Arial, sans-serif"> 我们只是…</text></g><g class="node" aria-label="graph-node31" transform="translate(-36.831822558040194,-276.2453458052483)"><circle class="b-outline" cx="0" cy="0" r="25" fill="#F16667" stroke="#eb2728" stroke-width="2px"/><text class="caption" text-anchor="middle" pointer-events="none" x="0" y="-5" font-size="10px" fill="#FFFFFF" font-family="Helvetica Neue, Helvetica, Arial, sans-serif"> 哈立德</text><text class="caption" text-anchor="middle" pointer-events="none" x="0" y="5" font-size="10px" fill="#FFFFFF" font-family="Helvetica Neue, Helvetica, Arial, sans-serif"> 谢赫</text><text class="caption" text-anchor="middle" pointer-events="none" x="0" y="15" font-size="10px" fill="#FFFFFF" font-family="Helvetica Neue, Helvetica, Arial, sans-serif"> 穆罕…</text></g><g class="node" aria-label="graph-node36" transform="translate(114.78688329120251,-161.77494329186138)"><circle class="b-outline" cx="0" cy="0" r="25" fill="#57C7E3" stroke="#23b3d7" stroke-width="2px"/><text class="caption" text-anchor="middle" pointer-events="none" x="0" y="0" font-size="10px" fill="#2A2C34" font-family="Helvetica Neue, Helvetica, Arial, sans-serif"> 9</text><text class="caption" text-anchor="middle" pointer-events="none" x="0" y="10" font-size="10px" fill="#2A2C34" font-family="Helvetica Neue, Helvetica, Arial, sans-serif"> 11事件…</text></g><g class="node" aria-label="graph-node57" transform="translate(129.82347819698384,-63.15641211857218)"><circle class="b-outline" cx="0" cy="0" r="25" fill="#C990C0" stroke="#b261a5" stroke-width="2px"/><text class="caption" text-anchor="middle" pointer-events="none" x="0" y="5" font-size="10px" fill="#FFFFFF" font-family="Helvetica Neue, Helvetica, Arial, sans-serif"> 古巴</text></g><g class="node" aria-label="graph-node43" transform="translate(38.155935058243486,-99.45150571256139)"><circle class="b-outline" cx="0" cy="0" r="25" fill="#57C7E3" stroke="#23b3d7" stroke-width="2px"/><text class="caption" text-anchor="middle" pointer-events="none" x="0" y="5" font-size="10px" fill="#2A2C34" font-family="Helvetica Neue, Helvetica, Arial, sans-serif"> 30 000人</text></g><g class="node" aria-label="graph-node23" transform="translate(-210.7582742119686,-229.33900060239503)"><circle class="b-outline" cx="0" cy="0" r="25" fill="#57C7E3" stroke="#23b3d7" stroke-width="2px"/><text class="caption" text-anchor="middle" pointer-events="none" x="0" y="5" font-size="10px" fill="#2A2C34" font-family="Helvetica Neue, Helvetica, Arial, sans-serif"> 军事拘留…</text></g><g class="node" aria-label="graph-node38" transform="translate(56.65788162970581,-241.043619721441)"><circle class="b-outline" cx="0" cy="0" r="25" fill="#57C7E3" stroke="#23b3d7" stroke-width="2px"/><text class="caption" text-anchor="middle" pointer-events="none" x="0" y="5" font-size="10px" fill="#2A2C34" font-family="Helvetica Neue, Helvetica, Arial, sans-serif"> 关塔那摩…</text></g><g class="node" aria-label="graph-node49" transform="translate(-115.9186298193802,-201.7440357569128)"><circle class="b-outline" cx="0" cy="0" r="25" fill="#57C7E3" stroke="#23b3d7" stroke-width="2px"/><text class="caption" text-anchor="middle" pointer-events="none" x="0" y="5" font-size="10px" fill="#2A2C34" font-family="Helvetica Neue, Helvetica, Arial, sans-serif"> 移民中心</text></g><g class="node" aria-label="graph-node21" transform="translate(-249.49827898061528,-58.1481961591681)"><circle class="b-outline" cx="0" cy="0" r="25" fill="#57C7E3" stroke="#23b3d7" stroke-width="2px"/><text class="caption" text-anchor="middle" pointer-events="none" x="0" y="5" font-size="10px" fill="#2A2C34" font-family="Helvetica Neue, Helvetica, Arial, sans-serif"> 15名被拘…</text></g><g class="node" aria-label="graph-node22" transform="translate(-153.0948314789085,-34.43128958777141)"><circle class="b-outline" cx="0" cy="0" r="25" fill="#57C7E3" stroke="#23b3d7" stroke-width="2px"/><text class="caption" text-anchor="middle" pointer-events="none" x="0" y="5" font-size="10px" fill="#2A2C34" font-family="Helvetica Neue, Helvetica, Arial, sans-serif"> 移民及海…</text></g><g class="node" aria-label="graph-node30" transform="translate(-181.60098398945007,-128.83564887268463)"><circle class="b-outline" cx="0" cy="0" r="25" fill="#57C7E3" stroke="#23b3d7" stroke-width="2px"/><text class="caption" text-anchor="middle" pointer-events="none" x="0" y="0" font-size="10px" fill="#2A2C34" font-family="Helvetica Neue, Helvetica, Arial, sans-serif"> 乔治 w</text><text class="caption" text-anchor="middle" pointer-events="none" x="0" y="10" font-size="10px" fill="#2A2C34" font-family="Helvetica Neue, Helvetica, Arial, sans-serif"> 布什总…</text></g><g class="node" aria-label="graph-node42" transform="translate(-220.71547385833296,36.10277562478513)"><circle class="b-outline" cx="0" cy="0" r="25" fill="#57C7E3" stroke="#23b3d7" stroke-width="2px"/><text class="caption" text-anchor="middle" pointer-events="none" x="0" y="5" font-size="10px" fill="#2A2C34" font-family="Helvetica Neue, Helvetica, Arial, sans-serif"> 设施</text></g><g class="node" aria-label="graph-node27" transform="translate(-212.40922270818814,135.76275300019543)"><circle class="b-outline" cx="0" cy="0" r="25" fill="#57C7E3" stroke="#23b3d7" stroke-width="2px"/><text class="caption" text-anchor="middle" pointer-events="none" x="0" y="5" font-size="10px" fill="#2A2C34" font-family="Helvetica Neue, Helvetica, Arial, sans-serif"> 非法移民…</text></g><g class="node" aria-label="graph-node44" transform="translate(-19.56310293180135,-180.13522722114118)"><circle class="b-outline" cx="0" cy="0" r="25" fill="#57C7E3" stroke="#23b3d7" stroke-width="2px"/><text class="caption" text-anchor="middle" pointer-events="none" x="0" y="0" font-size="10px" fill="#2A2C34" font-family="Helvetica Neue, Helvetica, Arial, sans-serif"> 乔治 w</text><text class="caption" text-anchor="middle" pointer-events="none" x="0" y="10" font-size="10px" fill="#2A2C34" font-family="Helvetica Neue, Helvetica, Arial, sans-serif"> 布什…</text></g><g class="node" aria-label="graph-node26" transform="translate(-86.58389773489324,-107.16889162995128)"><circle class="b-outline" cx="0" cy="0" r="25" fill="#57C7E3" stroke="#23b3d7" stroke-width="2px"/><text class="caption" text-anchor="middle" pointer-events="none" x="0" y="5" font-size="10px" fill="#2A2C34" font-family="Helvetica Neue, Helvetica, Arial, sans-serif"> 较高峰期…</text></g><g class="node" aria-label="graph-node51" transform="translate(-131.25454353997682,79.92983208325913)"><circle class="b-outline" cx="0" cy="0" r="25" fill="#F16667" stroke="#eb2728" stroke-width="2px"/><text class="caption" text-anchor="middle" pointer-events="none" x="0" y="5" font-size="10px" fill="#FFFFFF" font-family="Helvetica Neue, Helvetica, Arial, sans-serif"> 哈立德·…</text></g><g class="node" aria-label="graph-node45" transform="translate(-34.333532447881765,142.30168322011707)"><circle class="b-outline" cx="0" cy="0" r="25" fill="#57C7E3" stroke="#23b3d7" stroke-width="2px"/><text class="caption" text-anchor="middle" pointer-events="none" x="0" y="5" font-size="10px" fill="#2A2C34" font-family="Helvetica Neue, Helvetica, Arial, sans-serif"> 几位民主…</text></g><g class="node" aria-label="graph-node33" transform="translate(59.78945807185751,109.02997207816415)"><circle class="b-outline" cx="0" cy="0" r="25" fill="#F16667" stroke="#eb2728" stroke-width="2px"/><text class="caption" text-anchor="middle" pointer-events="none" x="0" y="5" font-size="10px" fill="#FFFFFF" font-family="Helvetica Neue, Helvetica, Arial, sans-serif"> 汤姆·霍曼</text></g></g></svg>