<svg xmlns="http://www.w3.org/2000/svg" width="697.5604248046875" height="616.6275634765625" viewBox="-368.1627502441406 -259.98406982421875 697.5604248046875 616.6275634765625"><title>Neo4j Graph Visualization</title><desc>Created using Neo4j (http://www.neo4j.com/)</desc><g class="layer relationships"><g class="relationship" transform="translate(201.2804565707076 177.89807339702193) rotate(198.9071327813271)"><path class="b-outline" fill="#A5ABB6" stroke="none" d="M 25 0.5 L 90.35499227403527 0.5 L 90.35499227403527 -0.5 L 25 -0.5 Z M 121.56592977403527 0.5 L 186.92092204807054 0.5 L 186.92092204807054 3.5 L 193.92092204807054 0 L 186.92092204807054 -3.5 L 186.92092204807054 -0.5 L 121.56592977403527 -0.5 Z"/><text text-anchor="middle" pointer-events="none" font-size="8px" fill="#000000" x="105.96046102403527" y="3" transform="rotate(180 105.96046102403527 0)" font-family="Helvetica Neue, Helvetica, Arial, sans-serif">source</text></g><g class="relationship" transform="translate(-181.33758569573706 269.042848745017) rotate(383.06463827222524)"><path class="b-outline" fill="#A5ABB6" stroke="none" d="M 25 0.5 L 60.289604521885465 0.5 L 60.289604521885465 -0.5 L 25 -0.5 Z M 82.28960452188547 0.5 L 117.57920904377093 0.5 L 117.57920904377093 3.5 L 124.57920904377093 0 L 117.57920904377093 -3.5 L 117.57920904377093 -0.5 L 82.28960452188547 -0.5 Z"/><text text-anchor="middle" pointer-events="none" font-size="8px" fill="#000000" x="71.28960452188547" y="3" font-family="Helvetica Neue, Helvetica, Arial, sans-serif">受到</text></g><g class="relationship" transform="translate(-185.24552960496464 -22.463275168710183) rotate(272.79594640168784)"><path class="b-outline" fill="#A5ABB6" stroke="none" d="M 25 0.5 L 69.68455640081547 0.5 L 69.68455640081547 -0.5 L 25 -0.5 Z M 91.68455640081547 0.5 L 136.36911280163093 0.5 L 136.36911280163093 3.5 L 143.36911280163093 0 L 136.36911280163093 -3.5 L 136.36911280163093 -0.5 L 91.68455640081547 -0.5 Z"/><text text-anchor="middle" pointer-events="none" font-size="8px" fill="#000000" x="80.68455640081547" y="3" font-family="Helvetica Neue, Helvetica, Arial, sans-serif">下令</text></g><g class="relationship" transform="translate(-86.90929427994053 239.02645973512136) rotate(301.5473693819879)"><path class="b-outline" fill="#A5ABB6" stroke="none" d="M 25 0.5 L 58.37942103566968 0.5 L 58.37942103566968 -0.5 L 25 -0.5 Z M 89.59035853566968 0.5 L 122.96977957133936 0.5 L 122.96977957133936 3.5 L 129.96977957133936 0 L 122.96977957133936 -3.5 L 122.96977957133936 -0.5 L 89.59035853566968 -0.5 Z"/><text text-anchor="middle" pointer-events="none" font-size="8px" fill="#000000" x="73.98488978566968" y="3" font-family="Helvetica Neue, Helvetica, Arial, sans-serif">source</text></g><g class="relationship" transform="translate(148.15660713581585 94.16908712815581) rotate(305.66451782422456)"><path class="b-outline" fill="#A5ABB6" stroke="none" d="M 25 0.5 L 43.023859464315805 0.5 L 43.023859464315805 -0.5 L 25 -0.5 Z M 65.0238594643158 0.5 L 83.04771892863161 0.5 L 83.04771892863161 3.5 L 90.04771892863161 0 L 83.04771892863161 -3.5 L 83.04771892863161 -0.5 L 65.0238594643158 -0.5 Z"/><text text-anchor="middle" pointer-events="none" font-size="8px" fill="#000000" x="54.023859464315805" y="3" font-family="Helvetica Neue, Helvetica, Arial, sans-serif">建立</text></g><g class="relationship" transform="translate(12.75730440498787 247.22316547058867) rotate(324.3513806519121)"><path class="b-outline" fill="#A5ABB6" stroke="none" d="M 25 0.5 L 41.0206975798393 0.5 L 41.0206975798393 -0.5 L 25 -0.5 Z M 63.0206975798393 0.5 L 79.0413951596786 0.5 L 79.0413951596786 3.5 L 86.0413951596786 0 L 79.0413951596786 -3.5 L 79.0413951596786 -0.5 L 63.0206975798393 -0.5 Z"/><text text-anchor="middle" pointer-events="none" font-size="8px" fill="#000000" x="52.0206975798393" y="3" font-family="Helvetica Neue, Helvetica, Arial, sans-serif">表示</text></g><g class="relationship" transform="translate(136.8359365305222 -74.67601403608403) rotate(368.2048656205469)"><path class="b-outline" fill="#A5ABB6" stroke="none" d="M 25 0.5 L 72.12659031686457 0.5 L 72.12659031686457 -0.5 L 25 -0.5 Z M 86.12659031686457 0.5 L 133.25318063372913 0.5 L 133.25318063372913 3.5 L 140.25318063372913 0 L 133.25318063372913 -3.5 L 133.25318063372913 -0.5 L 86.12659031686457 -0.5 Z"/><text text-anchor="middle" pointer-events="none" font-size="8px" fill="#000000" x="79.12659031686457" y="3" font-family="Helvetica Neue, Helvetica, Arial, sans-serif">由</text></g><g class="relationship" transform="translate(-101.60476237511354 -75.79352439317401) rotate(199.2708292278379)"><path class="b-outline" fill="#A5ABB6" stroke="none" d="M 25 0.5 L 66.62617911820006 0.5 L 66.62617911820006 -0.5 L 25 -0.5 Z M 88.62617911820006 0.5 L 130.2523582364001 0.5 L 130.2523582364001 3.5 L 137.2523582364001 0 L 130.2523582364001 -3.5 L 130.2523582364001 -0.5 L 88.62617911820006 -0.5 Z"/><text text-anchor="middle" pointer-events="none" font-size="8px" fill="#000000" x="77.62617911820006" y="3" transform="rotate(180 77.62617911820006 0)" font-family="Helvetica Neue, Helvetica, Arial, sans-serif">表示</text></g><g class="relationship" transform="translate(215.23382114620927 0.6991722288401991) rotate(534.408987732234)"><path class="b-outline" fill="#A5ABB6" stroke="none" d="M 25 0.5 L 48.31101473922475 0.5 L 48.31101473922475 -0.5 L 25 -0.5 Z M 70.31101473922476 0.5 L 93.6220294784495 0.5 L 93.6220294784495 3.5 L 100.6220294784495 0 L 93.6220294784495 -3.5 L 93.6220294784495 -0.5 L 70.31101473922476 -0.5 Z"/><text text-anchor="middle" pointer-events="none" font-size="8px" fill="#000000" x="59.31101473922475" y="3" transform="rotate(180 59.31101473922475 0)" font-family="Helvetica Neue, Helvetica, Arial, sans-serif">用于</text></g><g class="relationship" transform="translate(-101.60476237511354 -75.79352439317401) rotate(370.20352831968165)"><path class="b-outline" fill="#A5ABB6" stroke="none" d="M 25 0.5 L 37.78058991792145 0.5 L 37.78058991792145 -0.5 L 25 -0.5 Z M 75.78058991792145 0.5 L 88.5611798358429 0.5 L 88.5611798358429 3.5 L 95.5611798358429 0 L 88.5611798358429 -3.5 L 88.5611798358429 -0.5 L 75.78058991792145 -0.5 Z"/><text text-anchor="middle" pointer-events="none" font-size="8px" fill="#000000" x="56.78058991792145" y="3" font-family="Helvetica Neue, Helvetica, Arial, sans-serif">告诉记者</text></g><g class="relationship" transform="translate(-181.33758569573706 269.042848745017) rotate(297.9411749373187)"><path class="b-outline" fill="#A5ABB6" stroke="none" d="M 25 0.5 L 56.00412337540759 0.5 L 56.00412337540759 -0.5 L 25 -0.5 Z M 78.00412337540759 0.5 L 109.00824675081518 0.5 L 109.00824675081518 3.5 L 116.00824675081518 0 L 109.00824675081518 -3.5 L 109.00824675081518 -0.5 L 78.00412337540759 -0.5 Z"/><text text-anchor="middle" pointer-events="none" font-size="8px" fill="#000000" x="67.00412337540759" y="3" font-family="Helvetica Neue, Helvetica, Arial, sans-serif">用来</text></g><g class="relationship" transform="translate(215.23382114620927 0.6991722288401991) rotate(296.1781063923637)"><path class="b-outline" fill="#A5ABB6" stroke="none" d="M 25 0.5 L 69.11671630067968 0.5 L 69.11671630067968 -0.5 L 25 -0.5 Z M 91.11671630067968 0.5 L 135.23343260135937 0.5 L 135.23343260135937 3.5 L 142.23343260135937 0 L 135.23343260135937 -3.5 L 135.23343260135937 -0.5 L 91.11671630067968 -0.5 Z"/><text text-anchor="middle" pointer-events="none" font-size="8px" fill="#000000" x="80.11671630067968" y="3" font-family="Helvetica Neue, Helvetica, Arial, sans-serif">关押</text></g><g class="relationship" transform="translate(-185.24552960496464 -22.463275168710183) rotate(194.08375531648716)"><path class="b-outline" fill="#A5ABB6" stroke="none" d="M 25 0.5 L 64.84358460774358 0.5 L 64.84358460774358 -0.5 L 25 -0.5 Z M 86.84358460774358 0.5 L 126.68716921548716 0.5 L 126.68716921548716 3.5 L 133.68716921548716 0 L 126.68716921548716 -3.5 L 126.68716921548716 -0.5 L 86.84358460774358 -0.5 Z"/><text text-anchor="middle" pointer-events="none" font-size="8px" fill="#000000" x="75.84358460774358" y="3" transform="rotate(180 75.84358460774358 0)" font-family="Helvetica Neue, Helvetica, Arial, sans-serif">计划</text></g><g class="relationship" transform="translate(136.8359365305222 -74.67601403608403) rotate(283.8924702201409)"><path class="b-outline" fill="#A5ABB6" stroke="none" d="M 25 0.5 L 66.00907710416338 0.5 L 66.00907710416338 -0.5 L 25 -0.5 Z M 88.00907710416338 0.5 L 129.01815420832676 0.5 L 129.01815420832676 3.5 L 136.01815420832676 0 L 129.01815420832676 -3.5 L 129.01815420832676 -0.5 L 88.00907710416338 -0.5 Z"/><text text-anchor="middle" pointer-events="none" font-size="8px" fill="#000000" x="77.00907710416338" y="3" font-family="Helvetica Neue, Helvetica, Arial, sans-serif">关押</text></g><g class="relationship" transform="translate(-208.76363832512732 174.03412402700243) rotate(388.07371407412336)"><path class="b-outline" fill="#A5ABB6" stroke="none" d="M 25 0.5 L 54.55158373180079 0.5 L 54.55158373180079 -0.5 L 25 -0.5 Z M 76.55158373180079 0.5 L 106.10316746360158 0.5 L 106.10316746360158 3.5 L 113.10316746360158 0 L 106.10316746360158 -3.5 L 106.10316746360158 -0.5 L 76.55158373180079 -0.5 Z"/><text text-anchor="middle" pointer-events="none" font-size="8px" fill="#000000" x="65.55158373180079" y="3" font-family="Helvetica Neue, Helvetica, Arial, sans-serif">关押</text></g><g class="relationship" transform="translate(102.99026361546042 182.506826643913) rotate(214.77008201255455)"><path class="b-outline" fill="#A5ABB6" stroke="none" d="M 25 0.5 L 47.13060167656478 0.5 L 47.13060167656478 -0.5 L 25 -0.5 Z M 78.34153917656478 0.5 L 100.47214085312956 0.5 L 100.47214085312956 3.5 L 107.47214085312956 0 L 100.47214085312956 -3.5 L 100.47214085312956 -0.5 L 78.34153917656478 -0.5 Z"/><text text-anchor="middle" pointer-events="none" font-size="8px" fill="#000000" x="62.73607042656478" y="3" transform="rotate(180 62.73607042656478 0)" font-family="Helvetica Neue, Helvetica, Arial, sans-serif">source</text></g><g class="relationship" transform="translate(201.2804565707076 177.89807339702193) rotate(492.73324767210374)"><path class="b-outline" fill="#A5ABB6" stroke="none" d="M 25 0.5 L 51.91049659098705 0.5 L 51.91049659098705 -0.5 L 25 -0.5 Z M 81.91049659098705 0.5 L 108.8209931819741 0.5 L 108.8209931819741 3.5 L 115.8209931819741 0 L 108.8209931819741 -3.5 L 108.8209931819741 -0.5 L 81.91049659098705 -0.5 Z"/><text text-anchor="middle" pointer-events="none" font-size="8px" fill="#000000" x="66.91049659098705" y="3" transform="rotate(180 66.91049659098705 0)" font-family="Helvetica Neue, Helvetica, Arial, sans-serif">可容纳</text></g><g class="relationship" transform="translate(148.15660713581585 94.16908712815581) rotate(535.2515818660577)"><path class="b-outline" fill="#A5ABB6" stroke="none" d="M 25 0.5 L 58.15229632221296 0.5 L 58.15229632221296 -0.5 L 25 -0.5 Z M 89.36323382221296 0.5 L 122.51553014442592 0.5 L 122.51553014442592 3.5 L 129.51553014442592 0 L 122.51553014442592 -3.5 L 122.51553014442592 -0.5 L 89.36323382221296 -0.5 Z"/><text text-anchor="middle" pointer-events="none" font-size="8px" fill="#000000" x="73.75776507221296" y="3" transform="rotate(180 73.75776507221296 0)" font-family="Helvetica Neue, Helvetica, Arial, sans-serif">source</text></g><g class="relationship" transform="translate(17.04970636395229 -54.4366722922556) rotate(458.06803905560446)"><path class="b-outline" fill="#A5ABB6" stroke="none" d="M 25 0.5 L 62.39959112480338 0.5 L 62.39959112480338 -0.5 L 25 -0.5 Z M 93.61052862480338 0.5 L 131.01011974960676 0.5 L 131.01011974960676 3.5 L 138.01011974960676 0 L 131.01011974960676 -3.5 L 131.01011974960676 -0.5 L 93.61052862480338 -0.5 Z"/><text text-anchor="middle" pointer-events="none" font-size="8px" fill="#000000" x="78.00505987480338" y="3" transform="rotate(180 78.00505987480338 0)" font-family="Helvetica Neue, Helvetica, Arial, sans-serif">source</text></g><g class="relationship" transform="translate(12.75730440498787 247.22316547058867) rotate(262.4518620904286)"><path class="b-outline" fill="#A5ABB6" stroke="none" d="M 25 0.5 L 51.639131769660565 0.5 L 51.639131769660565 -0.5 L 25 -0.5 Z M 82.85006926966057 0.5 L 109.48920103932113 0.5 L 109.48920103932113 3.5 L 116.48920103932113 0 L 109.48920103932113 -3.5 L 109.48920103932113 -0.5 L 82.85006926966057 -0.5 Z"/><text text-anchor="middle" pointer-events="none" font-size="8px" fill="#000000" x="67.24460051966057" y="3" transform="rotate(180 67.24460051966057 0)" font-family="Helvetica Neue, Helvetica, Arial, sans-serif">source</text></g><g class="relationship" transform="translate(-208.76363832512732 174.03412402700243) rotate(341.71023538700683)"><path class="b-outline" fill="#A5ABB6" stroke="none" d="M 25 0.5 L 87.76077017850452 0.5 L 87.76077017850452 -0.5 L 25 -0.5 Z M 118.97170767850452 0.5 L 181.73247785700903 0.5 L 181.73247785700903 3.5 L 188.73247785700903 0 L 181.73247785700903 -3.5 L 181.73247785700903 -0.5 L 118.97170767850452 -0.5 Z"/><text text-anchor="middle" pointer-events="none" font-size="8px" fill="#000000" x="103.36623892850452" y="3" font-family="Helvetica Neue, Helvetica, Arial, sans-serif">source</text></g><g class="relationship" transform="translate(136.8359365305222 -74.67601403608403) rotate(488.14757612938433)"><path class="b-outline" fill="#A5ABB6" stroke="none" d="M 25 0.5 L 96.3770038428863 0.5 L 96.3770038428863 -0.5 L 25 -0.5 Z M 127.5879413428863 0.5 L 198.9649451857726 0.5 L 198.9649451857726 3.5 L 205.9649451857726 0 L 198.9649451857726 -3.5 L 198.9649451857726 -0.5 L 127.5879413428863 -0.5 Z"/><text text-anchor="middle" pointer-events="none" font-size="8px" fill="#000000" x="111.9824725928863" y="3" transform="rotate(180 111.9824725928863 0)" font-family="Helvetica Neue, Helvetica, Arial, sans-serif">source</text></g><g class="relationship" transform="translate(-43.715220452707634 327.64339791543284) rotate(279.741496823156)"><path class="b-outline" fill="#A5ABB6" stroke="none" d="M 25 0.5 L 92.85050822715867 0.5 L 92.85050822715867 -0.5 L 25 -0.5 Z M 124.06144572715867 0.5 L 191.91195395431734 0.5 L 191.91195395431734 3.5 L 198.91195395431734 0 L 191.91195395431734 -3.5 L 191.91195395431734 -0.5 L 124.06144572715867 -0.5 Z"/><text text-anchor="middle" pointer-events="none" font-size="8px" fill="#000000" x="108.45597697715867" y="3" font-family="Helvetica Neue, Helvetica, Arial, sans-serif">source</text></g><g class="relationship" transform="translate(-101.60476237511354 -75.79352439317401) rotate(422.34218329324585)"><path class="b-outline" fill="#A5ABB6" stroke="none" d="M 25 0.5 L 84.05935276920827 0.5 L 84.05935276920827 -0.5 L 25 -0.5 Z M 115.27029026920827 0.5 L 174.32964303841655 0.5 L 174.32964303841655 3.5 L 181.32964303841655 0 L 174.32964303841655 -3.5 L 174.32964303841655 -0.5 L 115.27029026920827 -0.5 Z"/><text text-anchor="middle" pointer-events="none" font-size="8px" fill="#000000" x="99.66482151920827" y="3" font-family="Helvetica Neue, Helvetica, Arial, sans-serif">source</text></g><g class="relationship" transform="translate(-185.24552960496464 -22.463275168710183) rotate(395.8049761572292)"><path class="b-outline" fill="#A5ABB6" stroke="none" d="M 25 0.5 L 91.50739066640882 0.5 L 91.50739066640882 -0.5 L 25 -0.5 Z M 122.71832816640882 0.5 L 189.22571883281765 0.5 L 189.22571883281765 3.5 L 196.22571883281765 0 L 189.22571883281765 -3.5 L 189.22571883281765 -0.5 L 122.71832816640882 -0.5 Z"/><text text-anchor="middle" pointer-events="none" font-size="8px" fill="#000000" x="107.11285941640882" y="3" font-family="Helvetica Neue, Helvetica, Arial, sans-serif">source</text></g><g class="relationship" transform="translate(-187.88548027849413 77.17756035538008) rotate(369.29064274378595)"><path class="b-outline" fill="#A5ABB6" stroke="none" d="M 25 0.5 L 73.13294964414679 0.5 L 73.13294964414679 -0.5 L 25 -0.5 Z M 104.34388714414679 0.5 L 152.47683678829358 0.5 L 152.47683678829358 3.5 L 159.47683678829358 0 L 152.47683678829358 -3.5 L 152.47683678829358 -0.5 L 104.34388714414679 -0.5 Z"/><text text-anchor="middle" pointer-events="none" font-size="8px" fill="#000000" x="88.73841839414679" y="3" font-family="Helvetica Neue, Helvetica, Arial, sans-serif">source</text></g><g class="relationship" transform="translate(-181.33758569573706 269.042848745017) rotate(317.27747088589604)"><path class="b-outline" fill="#A5ABB6" stroke="none" d="M 25 0.5 L 100.34562966943238 0.5 L 100.34562966943238 -0.5 L 25 -0.5 Z M 131.55656716943238 0.5 L 206.90219683886477 0.5 L 206.90219683886477 3.5 L 213.90219683886477 0 L 206.90219683886477 -3.5 L 206.90219683886477 -0.5 L 131.55656716943238 -0.5 Z"/><text text-anchor="middle" pointer-events="none" font-size="8px" fill="#000000" x="115.95109841943238" y="3" font-family="Helvetica Neue, Helvetica, Arial, sans-serif">source</text></g><g class="relationship" transform="translate(90.20941396045431 12.938122271020427) rotate(495.6077660737442)"><path class="b-outline" fill="#A5ABB6" stroke="none" d="M 25 0.5 L 48.09462494382062 0.5 L 48.09462494382062 -0.5 L 25 -0.5 Z M 79.30556244382062 0.5 L 102.40018738764124 0.5 L 102.40018738764124 3.5 L 109.40018738764124 0 L 102.40018738764124 -3.5 L 102.40018738764124 -0.5 L 79.30556244382062 -0.5 Z"/><text text-anchor="middle" pointer-events="none" font-size="8px" fill="#000000" x="63.70009369382062" y="3" transform="rotate(180 63.70009369382062 0)" font-family="Helvetica Neue, Helvetica, Arial, sans-serif">source</text></g><g class="relationship" transform="translate(-181.33758569573706 269.042848745017) rotate(268.0453933168754)"><path class="b-outline" fill="#A5ABB6" stroke="none" d="M 25 0.5 L 81.48849385773465 0.5 L 81.48849385773465 -0.5 L 25 -0.5 Z M 103.48849385773465 0.5 L 159.9769877154693 0.5 L 159.9769877154693 3.5 L 166.9769877154693 0 L 159.9769877154693 -3.5 L 159.9769877154693 -0.5 L 103.48849385773465 -0.5 Z"/><text text-anchor="middle" pointer-events="none" font-size="8px" fill="#000000" x="92.48849385773465" y="3" transform="rotate(180 92.48849385773465 0)" font-family="Helvetica Neue, Helvetica, Arial, sans-serif">位于</text></g><g class="relationship" transform="translate(105.72130027500477 281.33404281197465) rotate(237.39229707481354)"><path class="b-outline" fill="#A5ABB6" stroke="none" d="M 25 0.5 L 84.39536340692047 0.5 L 84.39536340692047 -0.5 L 25 -0.5 Z M 115.60630090692047 0.5 L 175.00166431384093 0.5 L 175.00166431384093 3.5 L 182.00166431384093 0 L 175.00166431384093 -3.5 L 175.00166431384093 -0.5 L 115.60630090692047 -0.5 Z"/><text text-anchor="middle" pointer-events="none" font-size="8px" fill="#000000" x="100.00083215692047" y="3" transform="rotate(180 100.00083215692047 0)" font-family="Helvetica Neue, Helvetica, Arial, sans-serif">source</text></g><g class="relationship" transform="translate(-115.26608459769433 144.47205604307536) rotate(341.07974042782064)"><path class="b-outline" fill="#A5ABB6" stroke="none" d="M 25 0.5 L 38.738544929181714 0.5 L 38.738544929181714 -0.5 L 25 -0.5 Z M 69.94948242918171 0.5 L 83.68802735836343 0.5 L 83.68802735836343 3.5 L 90.68802735836343 0 L 83.68802735836343 -3.5 L 83.68802735836343 -0.5 L 69.94948242918171 -0.5 Z"/><text text-anchor="middle" pointer-events="none" font-size="8px" fill="#000000" x="54.344013679181714" y="3" font-family="Helvetica Neue, Helvetica, Arial, sans-serif">source</text></g><g class="relationship" transform="translate(215.23382114620927 0.6991722288401991) rotate(514.3272242240936)"><path class="b-outline" fill="#A5ABB6" stroke="none" d="M 25 0.5 L 103.53216038320326 0.5 L 103.53216038320326 -0.5 L 25 -0.5 Z M 134.74309788320326 0.5 L 213.27525826640652 0.5 L 213.27525826640652 3.5 L 220.27525826640652 0 L 213.27525826640652 -3.5 L 213.27525826640652 -0.5 L 134.74309788320326 -0.5 Z"/><text text-anchor="middle" pointer-events="none" font-size="8px" fill="#000000" x="119.13762913320326" y="3" transform="rotate(180 119.13762913320326 0)" font-family="Helvetica Neue, Helvetica, Arial, sans-serif">source</text></g></g><g class="layer nodes"><g class="node" aria-label="graph-node27" transform="translate(-181.33758569573706,269.042848745017)"><circle class="b-outline" cx="0" cy="0" r="25" fill="#DA7194" stroke="#cc3c6c" stroke-width="2px"/><text class="caption" text-anchor="middle" pointer-events="none" x="0" y="5" font-size="10px" fill="#FFFFFF" font-family="Helvetica Neue, Helvetica, Arial, sans-serif"> 关塔那…</text></g><g class="node" aria-label="graph-node28" transform="translate(105.72130027500477,281.33404281197465)"><circle class="b-outline" cx="0" cy="0" r="25" fill="#DA7194" stroke="#cc3c6c" stroke-width="2px"/><text class="caption" text-anchor="middle" pointer-events="none" x="0" y="5" font-size="10px" fill="#FFFFFF" font-family="Helvetica Neue, Helvetica, Arial, sans-serif"> 30 000人</text></g><g class="node" aria-label="graph-node29" transform="translate(201.2804565707076,177.89807339702193)"><circle class="b-outline" cx="0" cy="0" r="25" fill="#DA7194" stroke="#cc3c6c" stroke-width="2px"/><text class="caption" text-anchor="middle" pointer-events="none" x="0" y="5" font-size="10px" fill="#FFFFFF" font-family="Helvetica Neue, Helvetica, Arial, sans-serif"> 移民拘留…</text></g><g class="node" aria-label="graph-node30" transform="translate(-86.90929427994053,239.02645973512136)"><circle class="b-outline" cx="0" cy="0" r="25" fill="#DA7194" stroke="#cc3c6c" stroke-width="2px"/><text class="caption" text-anchor="middle" pointer-events="none" x="0" y="0" font-size="10px" fill="#FFFFFF" font-family="Helvetica Neue, Helvetica, Arial, sans-serif"> 9</text><text class="caption" text-anchor="middle" pointer-events="none" x="0" y="10" font-size="10px" fill="#FFFFFF" font-family="Helvetica Neue, Helvetica, Arial, sans-serif"> 11袭击…</text></g><g class="node" aria-label="graph-node31" transform="translate(-43.715220452707634,327.64339791543284)"><circle class="b-outline" cx="0" cy="0" r="25" fill="#DA7194" stroke="#cc3c6c" stroke-width="2px"/><text class="caption" text-anchor="middle" pointer-events="none" x="0" y="5" font-size="10px" fill="#FFFFFF" font-family="Helvetica Neue, Helvetica, Arial, sans-serif"> 人权组织…</text></g><g class="node" aria-label="graph-node32" transform="translate(300.39760463339803,-51.09223916926945)"><circle class="b-outline" cx="0" cy="0" r="25" fill="#DA7194" stroke="#cc3c6c" stroke-width="2px"/><text class="caption" text-anchor="middle" pointer-events="none" x="0" y="5" font-size="10px" fill="#FFFFFF" font-family="Helvetica Neue, Helvetica, Arial, sans-serif"> 共和党和…</text></g><g class="node" aria-label="graph-node33" transform="translate(148.15660713581585,94.16908712815581)"><circle class="b-outline" cx="0" cy="0" r="25" fill="#DA7194" stroke="#cc3c6c" stroke-width="2px"/><text class="caption" text-anchor="middle" pointer-events="none" x="0" y="0" font-size="10px" fill="#FFFFFF" font-family="Helvetica Neue, Helvetica, Arial, sans-serif"> 乔治 w</text><text class="caption" text-anchor="middle" pointer-events="none" x="0" y="10" font-size="10px" fill="#FFFFFF" font-family="Helvetica Neue, Helvetica, Arial, sans-serif"> 布什</text></g><g class="node" aria-label="graph-node34" transform="translate(102.99026361546042,182.506826643913)"><circle class="b-outline" cx="0" cy="0" r="25" fill="#DA7194" stroke="#cc3c6c" stroke-width="2px"/><text class="caption" text-anchor="middle" pointer-events="none" x="0" y="5" font-size="10px" fill="#FFFFFF" font-family="Helvetica Neue, Helvetica, Arial, sans-serif"> 把他们送…</text></g><g class="node" aria-label="graph-node35" transform="translate(90.20941396045431,12.938122271020427)"><circle class="b-outline" cx="0" cy="0" r="25" fill="#DA7194" stroke="#cc3c6c" stroke-width="2px"/><text class="caption" text-anchor="middle" pointer-events="none" x="0" y="5" font-size="10px" fill="#FFFFFF" font-family="Helvetica Neue, Helvetica, Arial, sans-serif"> 关押被拘…</text></g><g class="node" aria-label="graph-node36" transform="translate(-254.7659753957025,-129.34229262676544)"><circle class="b-outline" cx="0" cy="0" r="25" fill="#DA7194" stroke="#cc3c6c" stroke-width="2px"/><text class="caption" text-anchor="middle" pointer-events="none" x="0" y="5" font-size="10px" fill="#FFFFFF" font-family="Helvetica Neue, Helvetica, Arial, sans-serif"> 该设施将…</text></g><g class="node" aria-label="graph-node37" transform="translate(136.8359365305222,-74.67601403608403)"><circle class="b-outline" cx="0" cy="0" r="25" fill="#DA7194" stroke="#cc3c6c" stroke-width="2px"/><text class="caption" text-anchor="middle" pointer-events="none" x="0" y="5" font-size="10px" fill="#FFFFFF" font-family="Helvetica Neue, Helvetica, Arial, sans-serif"> 关塔那摩…</text></g><g class="node" aria-label="graph-node38" transform="translate(-185.24552960496464,-22.463275168710183)"><circle class="b-outline" cx="0" cy="0" r="25" fill="#DA7194" stroke="#cc3c6c" stroke-width="2px"/><text class="caption" text-anchor="middle" pointer-events="none" x="0" y="0" font-size="10px" fill="#FFFFFF" font-family="Helvetica Neue, Helvetica, Arial, sans-serif"> 唐纳德</text><text class="caption" text-anchor="middle" pointer-events="none" x="0" y="10" font-size="10px" fill="#FFFFFF" font-family="Helvetica Neue, Helvetica, Arial, sans-serif"> 特朗普</text></g><g class="node" aria-label="graph-node39" transform="translate(215.23382114620927,0.6991722288401991)"><circle class="b-outline" cx="0" cy="0" r="25" fill="#DA7194" stroke="#cc3c6c" stroke-width="2px"/><text class="caption" text-anchor="middle" pointer-events="none" x="0" y="5" font-size="10px" fill="#FFFFFF" font-family="Helvetica Neue, Helvetica, Arial, sans-serif"> 军事拘留…</text></g><g class="node" aria-label="graph-node40" transform="translate(-187.88548027849413,77.17756035538008)"><circle class="b-outline" cx="0" cy="0" r="25" fill="#DA7194" stroke="#cc3c6c" stroke-width="2px"/><text class="caption" text-anchor="middle" pointer-events="none" x="0" y="5" font-size="10px" fill="#FFFFFF" font-family="Helvetica Neue, Helvetica, Arial, sans-serif"> 古巴</text></g><g class="node" aria-label="graph-node41" transform="translate(289.01101798637455,-149.38062723144995)"><circle class="b-outline" cx="0" cy="0" r="25" fill="#DA7194" stroke="#cc3c6c" stroke-width="2px"/><text class="caption" text-anchor="middle" pointer-events="none" x="0" y="-5" font-size="10px" fill="#FFFFFF" font-family="Helvetica Neue, Helvetica, Arial, sans-serif"> 哈立德</text><text class="caption" text-anchor="middle" pointer-events="none" x="0" y="5" font-size="10px" fill="#FFFFFF" font-family="Helvetica Neue, Helvetica, Arial, sans-serif"> 谢赫</text><text class="caption" text-anchor="middle" pointer-events="none" x="0" y="15" font-size="10px" fill="#FFFFFF" font-family="Helvetica Neue, Helvetica, Arial, sans-serif"> 穆罕…</text></g><g class="node" aria-label="graph-node42" transform="translate(17.04970636395229,-54.4366722922556)"><circle class="b-outline" cx="0" cy="0" r="25" fill="#DA7194" stroke="#cc3c6c" stroke-width="2px"/><text class="caption" text-anchor="middle" pointer-events="none" x="0" y="5" font-size="10px" fill="#FFFFFF" font-family="Helvetica Neue, Helvetica, Arial, sans-serif"> 要扩大现…</text></g><g class="node" aria-label="graph-node43" transform="translate(30.515907019290864,-153.1667308571437)"><circle class="b-outline" cx="0" cy="0" r="25" fill="#DA7194" stroke="#cc3c6c" stroke-width="2px"/><text class="caption" text-anchor="middle" pointer-events="none" x="0" y="5" font-size="10px" fill="#FFFFFF" font-family="Helvetica Neue, Helvetica, Arial, sans-serif"> 特朗普计…</text></g><g class="node" aria-label="graph-node44" transform="translate(-208.76363832512732,174.03412402700243)"><circle class="b-outline" cx="0" cy="0" r="25" fill="#DA7194" stroke="#cc3c6c" stroke-width="2px"/><text class="caption" text-anchor="middle" pointer-events="none" x="0" y="5" font-size="10px" fill="#FFFFFF" font-family="Helvetica Neue, Helvetica, Arial, sans-serif"> 美国海军…</text></g><g class="node" aria-label="graph-node45" transform="translate(-101.60476237511354,-75.79352439317401)"><circle class="b-outline" cx="0" cy="0" r="25" fill="#DA7194" stroke="#cc3c6c" stroke-width="2px"/><text class="caption" text-anchor="middle" pointer-events="none" x="0" y="5" font-size="10px" fill="#FFFFFF" font-family="Helvetica Neue, Helvetica, Arial, sans-serif"> 汤姆 霍曼</text></g><g class="node" aria-label="graph-node46" transform="translate(-115.26608459769433,144.47205604307536)"><circle class="b-outline" cx="0" cy="0" r="25" fill="#DA7194" stroke="#cc3c6c" stroke-width="2px"/><text class="caption" text-anchor="middle" pointer-events="none" x="0" y="5" font-size="10px" fill="#FFFFFF" font-family="Helvetica Neue, Helvetica, Arial, sans-serif"> 关押非法…</text></g><g class="node" aria-label="graph-node47" transform="translate(175.49647093408558,-230.98407225538182)"><circle class="b-outline" cx="0" cy="0" r="25" fill="#DA7194" stroke="#cc3c6c" stroke-width="2px"/><text class="caption" text-anchor="middle" pointer-events="none" x="0" y="5" font-size="10px" fill="#FFFFFF" font-family="Helvetica Neue, Helvetica, Arial, sans-serif"> 那些试图…</text></g><g class="node" aria-label="graph-node48" transform="translate(-339.1627286296222,-61.07821422121429)"><circle class="b-outline" cx="0" cy="0" r="25" fill="#DA7194" stroke="#cc3c6c" stroke-width="2px"/><text class="caption" text-anchor="middle" pointer-events="none" x="0" y="5" font-size="10px" fill="#FFFFFF" font-family="Helvetica Neue, Helvetica, Arial, sans-serif"> 遣送无证…</text></g><g class="node" aria-label="graph-node49" transform="translate(-177.03263488859304,-190.63195984569194)"><circle class="b-outline" cx="0" cy="0" r="25" fill="#DA7194" stroke="#cc3c6c" stroke-width="2px"/><text class="caption" text-anchor="middle" pointer-events="none" x="0" y="5" font-size="10px" fill="#FFFFFF" font-family="Helvetica Neue, Helvetica, Arial, sans-serif"> 建设移民…</text></g><g class="node" aria-label="graph-node50" transform="translate(12.75730440498787,247.22316547058867)"><circle class="b-outline" cx="0" cy="0" r="25" fill="#DA7194" stroke="#cc3c6c" stroke-width="2px"/><text class="caption" text-anchor="middle" pointer-events="none" x="0" y="5" font-size="10px" fill="#FFFFFF" font-family="Helvetica Neue, Helvetica, Arial, sans-serif"> 特朗普</text></g><g class="node" aria-label="graph-node51" transform="translate(-5.828593006064356,106.95998987495602)"><circle class="b-outline" cx="0" cy="0" r="25" fill="#569480" stroke="#447666" stroke-width="2px"/><text class="caption" text-anchor="middle" pointer-events="none" x="0" y="5" font-size="10px" fill="#FFFFFF" font-family="Helvetica Neue, Helvetica, Arial, sans-serif"> ba7b8f4…</text></g></g></svg>