<svg xmlns="http://www.w3.org/2000/svg" width="732.7634887695312" height="508.678466796875" viewBox="-235.80593872070312 -264.9632873535156 732.7634887695312 508.678466796875"><title>Neo4j Graph Visualization</title><desc>Created using Neo4j (http://www.neo4j.com/)</desc><g class="layer relationships"><g class="relationship" transform="translate(-45.60370317177942 -68.85902085491855) rotate(384.0852126834797)"><path class="b-outline" fill="#A5ABB6" stroke="none" d="M 25 0.5 L 63.27971732014336 0.5 L 63.27971732014336 -0.5 L 25 -0.5 Z M 94.49065482014336 0.5 L 132.77037214028672 0.5 L 132.77037214028672 3.5 L 139.77037214028672 0 L 132.77037214028672 -3.5 L 132.77037214028672 -0.5 L 94.49065482014336 -0.5 Z"/><text text-anchor="middle" pointer-events="none" font-size="8px" fill="#000000" x="78.88518607014336" y="3" font-family="Helvetica Neue, Helvetica, Arial, sans-serif">source</text></g><g class="relationship" transform="translate(238.32723254381605 37.10704602338174) rotate(196.17513446271425)"><path class="b-outline" fill="#A5ABB6" stroke="none" d="M 25 0.5 L 50.39864912350485 0.5 L 50.39864912350485 -0.5 L 25 -0.5 Z M 81.60958662350485 0.5 L 107.0082357470097 0.5 L 107.0082357470097 3.5 L 114.0082357470097 0 L 107.0082357470097 -3.5 L 107.0082357470097 -0.5 L 81.60958662350485 -0.5 Z"/><text text-anchor="middle" pointer-events="none" font-size="8px" fill="#000000" x="66.00411787350485" y="3" transform="rotate(180 66.00411787350485 0)" font-family="Helvetica Neue, Helvetica, Arial, sans-serif">source</text></g><g class="relationship" transform="translate(-112.24557946359234 125.94210191307737) rotate(354.731567956963)"><path class="b-outline" fill="#A5ABB6" stroke="none" d="M 25 0.5 L 27.617489772074627 0.5 L 27.617489772074627 -0.5 L 25 -0.5 Z M 65.61748977207463 0.5 L 68.23497954414925 0.5 L 68.23497954414925 3.5 L 75.23497954414925 0 L 68.23497954414925 -3.5 L 68.23497954414925 -0.5 L 65.61748977207463 -0.5 Z"/><text text-anchor="middle" pointer-events="none" font-size="8px" fill="#000000" x="46.61748977207463" y="3" font-family="Helvetica Neue, Helvetica, Arial, sans-serif">主要关押</text></g><g class="relationship" transform="translate(-206.80591970215363 156.3737831081675) rotate(348.4745130446704)"><path class="b-outline" fill="#A5ABB6" stroke="none" d="M 25 0.5 L 76.68592828545677 0.5 L 76.68592828545677 -0.5 L 25 -0.5 Z M 114.68592828545677 0.5 L 166.37185657091354 0.5 L 166.37185657091354 3.5 L 173.37185657091354 0 L 166.37185657091354 -3.5 L 166.37185657091354 -0.5 L 114.68592828545677 -0.5 Z"/><text text-anchor="middle" pointer-events="none" font-size="8px" fill="#000000" x="95.68592828545677" y="3" font-family="Helvetica Neue, Helvetica, Arial, sans-serif">主要关押</text></g><g class="relationship" transform="translate(-112.24557946359234 125.94210191307737) rotate(404.8070417542258)"><path class="b-outline" fill="#A5ABB6" stroke="none" d="M 25 0.5 L 52.48449845331277 0.5 L 52.48449845331277 -0.5 L 25 -0.5 Z M 66.48449845331277 0.5 L 93.96899690662553 0.5 L 93.96899690662553 3.5 L 100.96899690662553 0 L 93.96899690662553 -3.5 L 93.96899690662553 -0.5 L 66.48449845331277 -0.5 Z"/><text text-anchor="middle" pointer-events="none" font-size="8px" fill="#000000" x="59.48449845331277" y="3" font-family="Helvetica Neue, Helvetica, Arial, sans-serif">在</text></g><g class="relationship" transform="translate(-206.80591970215363 156.3737831081675) rotate(377.59837951677116)"><path class="b-outline" fill="#A5ABB6" stroke="none" d="M 25 0.5 L 85.98211032063563 0.5 L 85.98211032063563 -0.5 L 25 -0.5 Z M 99.98211032063563 0.5 L 160.96422064127125 0.5 L 160.96422064127125 3.5 L 167.96422064127125 0 L 160.96422064127125 -3.5 L 160.96422064127125 -0.5 L 99.98211032063563 -0.5 Z"/><text text-anchor="middle" pointer-events="none" font-size="8px" fill="#000000" x="92.98211032063563" y="3" font-family="Helvetica Neue, Helvetica, Arial, sans-serif">在</text></g><g class="relationship" transform="translate(268.6873541363867 131.57578919588624) rotate(311.20117939445754)"><path class="b-outline" fill="#A5ABB6" stroke="none" d="M 25 0.5 L 36.56739660442787 0.5 L 36.56739660442787 -0.5 L 25 -0.5 Z M 58.56739660442787 0.5 L 70.13479320885574 0.5 L 70.13479320885574 3.5 L 77.13479320885574 0 L 70.13479320885574 -3.5 L 70.13479320885574 -0.5 L 58.56739660442787 -0.5 Z"/><text text-anchor="middle" pointer-events="none" font-size="8px" fill="#000000" x="47.56739660442787" y="3" font-family="Helvetica Neue, Helvetica, Arial, sans-serif">设有</text></g><g class="relationship" transform="translate(80.99651869584548 151.1170308309115) rotate(278.8661791889908)"><path class="b-outline" fill="#A5ABB6" stroke="none" d="M 25 0.5 L 58.18513053512849 0.5 L 58.18513053512849 -0.5 L 25 -0.5 Z M 89.3960680351285 0.5 L 122.58119857025699 0.5 L 122.58119857025699 3.5 L 129.581198570257 0 L 122.58119857025699 -3.5 L 122.58119857025699 -0.5 L 89.3960680351285 -0.5 Z"/><text text-anchor="middle" pointer-events="none" font-size="8px" fill="#000000" x="73.7905992851285" y="3" font-family="Helvetica Neue, Helvetica, Arial, sans-serif">source</text></g><g class="relationship" transform="translate(467.9575136810739 11.60140878547196) rotate(196.66803072340065)"><path class="b-outline" fill="#A5ABB6" stroke="none" d="M 25 0.5 L 72.12179197116056 0.5 L 72.12179197116056 -0.5 L 25 -0.5 Z M 94.12179197116056 0.5 L 141.24358394232112 0.5 L 141.24358394232112 3.5 L 148.24358394232112 0 L 141.24358394232112 -3.5 L 141.24358394232112 -0.5 L 94.12179197116056 -0.5 Z"/><text text-anchor="middle" pointer-events="none" font-size="8px" fill="#000000" x="83.12179197116056" y="3" transform="rotate(180 83.12179197116056 0)" font-family="Helvetica Neue, Helvetica, Arial, sans-serif">计划</text></g><g class="relationship" transform="translate(21.318874085709474 -235.96327684653554) rotate(383.9664795351536)"><path class="b-outline" fill="#A5ABB6" stroke="none" d="M 25 0.5 L 36.20179491750053 0.5 L 36.20179491750053 -0.5 L 25 -0.5 Z M 74.20179491750054 0.5 L 85.40358983500106 0.5 L 85.40358983500106 3.5 L 92.40358983500106 0 L 85.40358983500106 -3.5 L 85.40358983500106 -0.5 L 74.20179491750054 -0.5 Z"/><text text-anchor="middle" pointer-events="none" font-size="8px" fill="#000000" x="55.20179491750053" y="3" font-family="Helvetica Neue, Helvetica, Arial, sans-serif">将被用来</text></g><g class="relationship" transform="translate(-49.97021458090597 -168.01747011424794) rotate(353.5282935155385)"><path class="b-outline" fill="#A5ABB6" stroke="none" d="M 25 0.5 L 67.357868882447 0.5 L 67.357868882447 -0.5 L 25 -0.5 Z M 105.357868882447 0.5 L 147.715737764894 0.5 L 147.715737764894 3.5 L 154.715737764894 0 L 147.715737764894 -3.5 L 147.715737764894 -0.5 L 105.357868882447 -0.5 Z"/><text text-anchor="middle" pointer-events="none" font-size="8px" fill="#000000" x="86.357868882447" y="3" font-family="Helvetica Neue, Helvetica, Arial, sans-serif">将被用来</text></g><g class="relationship" transform="translate(335.96404777843105 54.72943289703345) rotate(249.08516739785193)"><path class="b-outline" fill="#A5ABB6" stroke="none" d="M 25 0.5 L 68.43545417168737 0.5 L 68.43545417168737 -0.5 L 25 -0.5 Z M 122.43545417168737 0.5 L 165.87090834337474 0.5 L 165.87090834337474 3.5 L 172.87090834337474 0 L 165.87090834337474 -3.5 L 165.87090834337474 -0.5 L 122.43545417168737 -0.5 Z"/><text text-anchor="middle" pointer-events="none" font-size="8px" fill="#000000" x="95.43545417168737" y="3" transform="rotate(180 95.43545417168737 0)" font-family="Helvetica Neue, Helvetica, Arial, sans-serif">高峰期的囚犯</text></g><g class="relationship" transform="translate(-112.24557946359234 125.94210191307737) rotate(298.82052806197055)"><path class="b-outline" fill="#A5ABB6" stroke="none" d="M 25 0.5 L 40.44444245423205 0.5 L 40.44444245423205 -0.5 L 25 -0.5 Z M 62.44444245423205 0.5 L 77.8888849084641 0.5 L 77.8888849084641 3.5 L 84.8888849084641 0 L 77.8888849084641 -3.5 L 77.8888849084641 -0.5 L 62.44444245423205 -0.5 Z"/><text text-anchor="middle" pointer-events="none" font-size="8px" fill="#000000" x="51.44444245423205" y="3" font-family="Helvetica Neue, Helvetica, Arial, sans-serif">关押</text></g><g class="relationship" transform="translate(-206.80591970215363 156.3737831081675) rotate(319.34252052615346)"><path class="b-outline" fill="#A5ABB6" stroke="none" d="M 25 0.5 L 82.73879447886422 0.5 L 82.73879447886422 -0.5 L 25 -0.5 Z M 104.73879447886422 0.5 L 162.47758895772844 0.5 L 162.47758895772844 3.5 L 169.47758895772844 0 L 162.47758895772844 -3.5 L 162.47758895772844 -0.5 L 104.73879447886422 -0.5 Z"/><text text-anchor="middle" pointer-events="none" font-size="8px" fill="#000000" x="93.73879447886422" y="3" font-family="Helvetica Neue, Helvetica, Arial, sans-serif">关押</text></g><g class="relationship" transform="translate(335.96404777843105 54.72943289703345) rotate(193.70001818849357)"><path class="b-outline" fill="#A5ABB6" stroke="none" d="M 25 0.5 L 99.85011346906225 0.5 L 99.85011346906225 -0.5 L 25 -0.5 Z M 131.06105096906225 0.5 L 205.9111644381245 0.5 L 205.9111644381245 3.5 L 212.9111644381245 0 L 205.9111644381245 -3.5 L 205.9111644381245 -0.5 L 131.06105096906225 -0.5 Z"/><text text-anchor="middle" pointer-events="none" font-size="8px" fill="#000000" x="115.45558221906225" y="3" transform="rotate(180 115.45558221906225 0)" font-family="Helvetica Neue, Helvetica, Arial, sans-serif">source</text></g><g class="relationship" transform="translate(21.318874085709474 -235.96327684653554) rotate(471.82531060238693)"><path class="b-outline" fill="#A5ABB6" stroke="none" d="M 25 0.5 L 75.5034217645313 0.5 L 75.5034217645313 -0.5 L 25 -0.5 Z M 97.5034217645313 0.5 L 148.0068435290626 0.5 L 148.0068435290626 3.5 L 155.0068435290626 0 L 148.0068435290626 -3.5 L 148.0068435290626 -0.5 L 97.5034217645313 -0.5 Z"/><text text-anchor="middle" pointer-events="none" font-size="8px" fill="#000000" x="86.5034217645313" y="3" transform="rotate(180 86.5034217645313 0)" font-family="Helvetica Neue, Helvetica, Arial, sans-serif">位于</text></g><g class="relationship" transform="translate(21.318874085709474 -235.96327684653554) rotate(520.6996794063803)"><path class="b-outline" fill="#A5ABB6" stroke="none" d="M 25 0.5 L 82.63782565168907 0.5 L 82.63782565168907 -0.5 L 25 -0.5 Z M 104.63782565168907 0.5 L 162.27565130337814 0.5 L 162.27565130337814 3.5 L 169.27565130337814 0 L 162.27565130337814 -3.5 L 162.27565130337814 -0.5 L 104.63782565168907 -0.5 Z"/><text text-anchor="middle" pointer-events="none" font-size="8px" fill="#000000" x="93.63782565168907" y="3" transform="rotate(180 93.63782565168907 0)" font-family="Helvetica Neue, Helvetica, Arial, sans-serif">位于</text></g><g class="relationship" transform="translate(-49.97021458090597 -168.01747011424794) rotate(447.4785693866405)"><path class="b-outline" fill="#A5ABB6" stroke="none" d="M 25 0.5 L 35.12727194144625 0.5 L 35.12727194144625 -0.5 L 25 -0.5 Z M 57.12727194144625 0.5 L 67.2545438828925 0.5 L 67.2545438828925 3.5 L 74.2545438828925 0 L 67.2545438828925 -3.5 L 67.2545438828925 -0.5 L 57.12727194144625 -0.5 Z"/><text text-anchor="middle" pointer-events="none" font-size="8px" fill="#000000" x="46.12727194144625" y="3" font-family="Helvetica Neue, Helvetica, Arial, sans-serif">位于</text></g><g class="relationship" transform="translate(43.94857296637766 -136.10228885915842) rotate(425.6466875698437)"><path class="b-outline" fill="#A5ABB6" stroke="none" d="M 25 0.5 L 54.70477285499206 0.5 L 54.70477285499206 -0.5 L 25 -0.5 Z M 85.91571035499206 0.5 L 115.62048320998412 0.5 L 115.62048320998412 3.5 L 122.62048320998412 0 L 115.62048320998412 -3.5 L 115.62048320998412 -0.5 L 85.91571035499206 -0.5 Z"/><text text-anchor="middle" pointer-events="none" font-size="8px" fill="#000000" x="70.31024160499206" y="3" font-family="Helvetica Neue, Helvetica, Arial, sans-serif">source</text></g><g class="relationship" transform="translate(-112.24557946359234 125.94210191307737) rotate(254.183051001355)"><path class="b-outline" fill="#A5ABB6" stroke="none" d="M 25 0.5 L 55.36609050927771 0.5 L 55.36609050927771 -0.5 L 25 -0.5 Z M 77.36609050927771 0.5 L 107.73218101855542 0.5 L 107.73218101855542 3.5 L 114.73218101855542 0 L 107.73218101855542 -3.5 L 107.73218101855542 -0.5 L 77.36609050927771 -0.5 Z"/><text text-anchor="middle" pointer-events="none" font-size="8px" fill="#000000" x="66.36609050927771" y="3" transform="rotate(180 66.36609050927771 0)" font-family="Helvetica Neue, Helvetica, Arial, sans-serif">称为</text></g><g class="relationship" transform="translate(-206.80591970215363 156.3737831081675) rotate(288.90794045654695)"><path class="b-outline" fill="#A5ABB6" stroke="none" d="M 25 0.5 L 72.63857737262471 0.5 L 72.63857737262471 -0.5 L 25 -0.5 Z M 94.63857737262471 0.5 L 142.27715474524942 0.5 L 142.27715474524942 3.5 L 149.27715474524942 0 L 142.27715474524942 -3.5 L 142.27715474524942 -0.5 L 94.63857737262471 -0.5 Z"/><text text-anchor="middle" pointer-events="none" font-size="8px" fill="#000000" x="83.63857737262471" y="3" font-family="Helvetica Neue, Helvetica, Arial, sans-serif">称为</text></g><g class="relationship" transform="translate(-49.97021458090597 -168.01747011424794) rotate(181.90827335016604)"><path class="b-outline" fill="#A5ABB6" stroke="none" d="M 25 0.5 L 41.565141024389554 0.5 L 41.565141024389554 -0.5 L 25 -0.5 Z M 63.565141024389554 0.5 L 80.13028204877911 0.5 L 80.13028204877911 3.5 L 87.13028204877911 0 L 80.13028204877911 -3.5 L 80.13028204877911 -0.5 L 63.565141024389554 -0.5 Z"/><text text-anchor="middle" pointer-events="none" font-size="8px" fill="#000000" x="52.565141024389554" y="3" transform="rotate(180 52.565141024389554 0)" font-family="Helvetica Neue, Helvetica, Arial, sans-serif">位于</text></g><g class="relationship" transform="translate(335.96404777843105 54.72943289703345) rotate(219.61360013381193)"><path class="b-outline" fill="#A5ABB6" stroke="none" d="M 25 0.5 L 71.38301439740691 0.5 L 71.38301439740691 -0.5 L 25 -0.5 Z M 93.38301439740691 0.5 L 139.76602879481382 0.5 L 139.76602879481382 3.5 L 146.76602879481382 0 L 139.76602879481382 -3.5 L 139.76602879481382 -0.5 L 93.38301439740691 -0.5 Z"/><text text-anchor="middle" pointer-events="none" font-size="8px" fill="#000000" x="82.38301439740691" y="3" transform="rotate(180 82.38301439740691 0)" font-family="Helvetica Neue, Helvetica, Arial, sans-serif">用于</text></g><g class="relationship" transform="translate(200.93151241238675 203.17858281011993) rotate(244.8595124475301)"><path class="b-outline" fill="#A5ABB6" stroke="none" d="M 25 0.5 L 94.00770754567242 0.5 L 94.00770754567242 -0.5 L 25 -0.5 Z M 125.21864504567242 0.5 L 194.22635259134483 0.5 L 194.22635259134483 3.5 L 201.22635259134483 0 L 194.22635259134483 -3.5 L 194.22635259134483 -0.5 L 125.21864504567242 -0.5 Z"/><text text-anchor="middle" pointer-events="none" font-size="8px" fill="#000000" x="109.61317629567242" y="3" transform="rotate(180 109.61317629567242 0)" font-family="Helvetica Neue, Helvetica, Arial, sans-serif">source</text></g><g class="relationship" transform="translate(173.5796222781444 109.90666468986672) rotate(238.34484601603702)"><path class="b-outline" fill="#A5ABB6" stroke="none" d="M 25 0.5 L 46.40254549749207 0.5 L 46.40254549749207 -0.5 L 25 -0.5 Z M 77.61348299749207 0.5 L 99.01602849498414 0.5 L 99.01602849498414 3.5 L 106.01602849498414 0 L 99.01602849498414 -3.5 L 99.01602849498414 -0.5 L 77.61348299749207 -0.5 Z"/><text text-anchor="middle" pointer-events="none" font-size="8px" fill="#000000" x="62.00801424749207" y="3" transform="rotate(180 62.00801424749207 0)" font-family="Helvetica Neue, Helvetica, Arial, sans-serif">source</text></g><g class="relationship" transform="translate(268.6873541363867 131.57578919588624) rotate(219.10481142569023)"><path class="b-outline" fill="#A5ABB6" stroke="none" d="M 25 0.5 L 86.47897423480623 0.5 L 86.47897423480623 -0.5 L 25 -0.5 Z M 117.68991173480623 0.5 L 179.16888596961246 0.5 L 179.16888596961246 3.5 L 186.16888596961246 0 L 179.16888596961246 -3.5 L 179.16888596961246 -0.5 L 117.68991173480623 -0.5 Z"/><text text-anchor="middle" pointer-events="none" font-size="8px" fill="#000000" x="102.08444298480623" y="3" transform="rotate(180 102.08444298480623 0)" font-family="Helvetica Neue, Helvetica, Arial, sans-serif">source</text></g><g class="relationship" transform="translate(203.64204046130524 -54.78976645863804) rotate(511.7164505830709)"><path class="b-outline" fill="#A5ABB6" stroke="none" d="M 25 0.5 L 37.003348815099486 0.5 L 37.003348815099486 -0.5 L 25 -0.5 Z M 68.21428631509949 0.5 L 80.21763513019897 0.5 L 80.21763513019897 3.5 L 87.21763513019897 0 L 80.21763513019897 -3.5 L 80.21763513019897 -0.5 L 68.21428631509949 -0.5 Z"/><text text-anchor="middle" pointer-events="none" font-size="8px" fill="#000000" x="52.608817565099486" y="3" transform="rotate(180 52.608817565099486 0)" font-family="Helvetica Neue, Helvetica, Arial, sans-serif">source</text></g><g class="relationship" transform="translate(467.9575136810739 11.60140878547196) rotate(182.08470023672464)"><path class="b-outline" fill="#A5ABB6" stroke="none" d="M 25 0.5 L 162.58269803655986 0.5 L 162.58269803655986 -0.5 L 25 -0.5 Z M 193.79363553655986 0.5 L 331.3763335731197 0.5 L 331.3763335731197 3.5 L 338.3763335731197 0 L 331.3763335731197 -3.5 L 331.3763335731197 -0.5 L 193.79363553655986 -0.5 Z"/><text text-anchor="middle" pointer-events="none" font-size="8px" fill="#000000" x="178.18816678655986" y="3" transform="rotate(180 178.18816678655986 0)" font-family="Helvetica Neue, Helvetica, Arial, sans-serif">source</text></g><g class="relationship" transform="translate(301.99316014350904 -38.08936230975497) rotate(529.5200295223935)"><path class="b-outline" fill="#A5ABB6" stroke="none" d="M 25 0.5 L 81.15272133881417 0.5 L 81.15272133881417 -0.5 L 25 -0.5 Z M 112.36365883881417 0.5 L 168.51638017762835 0.5 L 168.51638017762835 3.5 L 175.51638017762835 0 L 168.51638017762835 -3.5 L 168.51638017762835 -0.5 L 112.36365883881417 -0.5 Z"/><text text-anchor="middle" pointer-events="none" font-size="8px" fill="#000000" x="96.75819008881417" y="3" transform="rotate(180 96.75819008881417 0)" font-family="Helvetica Neue, Helvetica, Arial, sans-serif">source</text></g><g class="relationship" transform="translate(-12.434048605541003 116.73832920900179) rotate(314.73258313678485)"><path class="b-outline" fill="#A5ABB6" stroke="none" d="M 25 0.5 L 64.19655619256106 0.5 L 64.19655619256106 -0.5 L 25 -0.5 Z M 95.40749369256106 0.5 L 134.60404988512212 0.5 L 134.60404988512212 3.5 L 141.60404988512212 0 L 134.60404988512212 -3.5 L 134.60404988512212 -0.5 L 95.40749369256106 -0.5 Z"/><text text-anchor="middle" pointer-events="none" font-size="8px" fill="#000000" x="79.80202494256106" y="3" font-family="Helvetica Neue, Helvetica, Arial, sans-serif">source</text></g><g class="relationship" transform="translate(21.318874085709474 -235.96327684653554) rotate(430.3878756699919)"><path class="b-outline" fill="#A5ABB6" stroke="none" d="M 25 0.5 L 105.28389906364491 0.5 L 105.28389906364491 -0.5 L 25 -0.5 Z M 136.49483656364492 0.5 L 216.77873562728982 0.5 L 216.77873562728982 3.5 L 223.77873562728982 0 L 216.77873562728982 -3.5 L 216.77873562728982 -0.5 L 136.49483656364492 -0.5 Z"/><text text-anchor="middle" pointer-events="none" font-size="8px" fill="#000000" x="120.88936781364491" y="3" font-family="Helvetica Neue, Helvetica, Arial, sans-serif">source</text></g><g class="relationship" transform="translate(-49.97021458090597 -168.01747011424794) rotate(407.06987617815025)"><path class="b-outline" fill="#A5ABB6" stroke="none" d="M 25 0.5 L 94.52729676013514 0.5 L 94.52729676013514 -0.5 L 25 -0.5 Z M 125.73823426013514 0.5 L 195.2655310202703 0.5 L 195.2655310202703 3.5 L 202.2655310202703 0 L 195.2655310202703 -3.5 L 195.2655310202703 -0.5 L 125.73823426013514 -0.5 Z"/><text text-anchor="middle" pointer-events="none" font-size="8px" fill="#000000" x="110.13276551013514" y="3" font-family="Helvetica Neue, Helvetica, Arial, sans-serif">source</text></g><g class="relationship" transform="translate(-150.3316638379786 -8.499456353812235) rotate(361.54509260135785)"><path class="b-outline" fill="#A5ABB6" stroke="none" d="M 25 0.5 L 108.51760677300042 0.5 L 108.51760677300042 -0.5 L 25 -0.5 Z M 139.7285442730004 0.5 L 223.24615104600085 0.5 L 223.24615104600085 3.5 L 230.24615104600085 0 L 223.24615104600085 -3.5 L 223.24615104600085 -0.5 L 139.7285442730004 -0.5 Z"/><text text-anchor="middle" pointer-events="none" font-size="8px" fill="#000000" x="124.12307552300042" y="3" font-family="Helvetica Neue, Helvetica, Arial, sans-serif">source</text></g><g class="relationship" transform="translate(335.96404777843105 54.72943289703345) rotate(492.2903286496895)"><path class="b-outline" fill="#A5ABB6" stroke="none" d="M 25 0.5 L 89.83809809501577 0.5 L 89.83809809501577 -0.5 L 25 -0.5 Z M 103.83809809501577 0.5 L 168.67619619003153 0.5 L 168.67619619003153 3.5 L 175.67619619003153 0 L 168.67619619003153 -3.5 L 168.67619619003153 -0.5 L 103.83809809501577 -0.5 Z"/><text text-anchor="middle" pointer-events="none" font-size="8px" fill="#000000" x="96.83809809501577" y="3" transform="rotate(180 96.83809809501577 0)" font-family="Helvetica Neue, Helvetica, Arial, sans-serif">由</text></g><g class="relationship" transform="translate(-112.24557946359234 125.94210191307737) rotate(329.5594531227304)"><path class="b-outline" fill="#A5ABB6" stroke="none" d="M 25 0.5 L 106.78092975531403 0.5 L 106.78092975531403 -0.5 L 25 -0.5 Z M 137.99186725531405 0.5 L 219.77279701062807 0.5 L 219.77279701062807 3.5 L 226.77279701062807 0 L 219.77279701062807 -3.5 L 219.77279701062807 -0.5 L 137.99186725531405 -0.5 Z"/><text text-anchor="middle" pointer-events="none" font-size="8px" fill="#000000" x="122.38639850531403" y="3" font-family="Helvetica Neue, Helvetica, Arial, sans-serif">source</text></g><g class="relationship" transform="translate(335.96404777843105 54.72943289703345) rotate(190.23111869852568)"><path class="b-outline" fill="#A5ABB6" stroke="none" d="M 25 0.5 L 35.10719758332202 0.5 L 35.10719758332202 -0.5 L 25 -0.5 Z M 57.10719758332202 0.5 L 67.21439516664404 0.5 L 67.21439516664404 3.5 L 74.21439516664404 0 L 67.21439516664404 -3.5 L 67.21439516664404 -0.5 L 57.10719758332202 -0.5 Z"/><text text-anchor="middle" pointer-events="none" font-size="8px" fill="#000000" x="46.10719758332202" y="3" transform="rotate(180 46.10719758332202 0)" font-family="Helvetica Neue, Helvetica, Arial, sans-serif">关押</text></g><g class="relationship" transform="translate(128.600309082254 -188.27369086356273) rotate(457.25993959377496)"><path class="b-outline" fill="#A5ABB6" stroke="none" d="M 25 0.5 L 74.97709283700944 0.5 L 74.97709283700944 -0.5 L 25 -0.5 Z M 106.18803033700944 0.5 L 156.16512317401887 0.5 L 156.16512317401887 3.5 L 163.16512317401887 0 L 156.16512317401887 -3.5 L 156.16512317401887 -0.5 L 106.18803033700944 -0.5 Z"/><text text-anchor="middle" pointer-events="none" font-size="8px" fill="#000000" x="90.58256158700944" y="3" transform="rotate(180 90.58256158700944 0)" font-family="Helvetica Neue, Helvetica, Arial, sans-serif">source</text></g><g class="relationship" transform="translate(-59.27170753465405 29.664711424540982) rotate(349.2069732321837)"><path class="b-outline" fill="#A5ABB6" stroke="none" d="M 25 0.5 L 64.41876626293357 0.5 L 64.41876626293357 -0.5 L 25 -0.5 Z M 95.62970376293357 0.5 L 135.04847002586715 0.5 L 135.04847002586715 3.5 L 142.04847002586715 0 L 135.04847002586715 -3.5 L 135.04847002586715 -0.5 L 95.62970376293357 -0.5 Z"/><text text-anchor="middle" pointer-events="none" font-size="8px" fill="#000000" x="80.02423501293357" y="3" font-family="Helvetica Neue, Helvetica, Arial, sans-serif">source</text></g><g class="relationship" transform="translate(265.32812413857835 -130.10417514051235) rotate(501.32236019887023)"><path class="b-outline" fill="#A5ABB6" stroke="none" d="M 25 0.5 L 83.69439907489391 0.5 L 83.69439907489391 -0.5 L 25 -0.5 Z M 114.90533657489391 0.5 L 173.59973564978782 0.5 L 173.59973564978782 3.5 L 180.59973564978782 0 L 173.59973564978782 -3.5 L 173.59973564978782 -0.5 L 114.90533657489391 -0.5 Z"/><text text-anchor="middle" pointer-events="none" font-size="8px" fill="#000000" x="99.29986782489391" y="3" transform="rotate(180 99.29986782489391 0)" font-family="Helvetica Neue, Helvetica, Arial, sans-serif">source</text></g><g class="relationship" transform="translate(-22.872575240018694 214.71515130147296) rotate(300.5520459058886)"><path class="b-outline" fill="#A5ABB6" stroke="none" d="M 25 0.5 L 106.49852976003503 0.5 L 106.49852976003503 -0.5 L 25 -0.5 Z M 137.709467260035 0.5 L 219.20799702007005 0.5 L 219.20799702007005 3.5 L 226.20799702007005 0 L 219.20799702007005 -3.5 L 219.20799702007005 -0.5 L 137.709467260035 -0.5 Z"/><text text-anchor="middle" pointer-events="none" font-size="8px" fill="#000000" x="122.10399851003503" y="3" font-family="Helvetica Neue, Helvetica, Arial, sans-serif">source</text></g></g><g class="layer nodes"><g class="node" aria-label="graph-node52" transform="translate(-45.60370317177942,-68.85902085491855)"><circle class="b-outline" cx="0" cy="0" r="25" fill="#C990C0" stroke="#b261a5" stroke-width="2px"/><text class="caption" text-anchor="middle" pointer-events="none" x="0" y="5" font-size="10px" fill="#FFFFFF" font-family="Helvetica Neue, Helvetica, Arial, sans-serif"> 古巴</text></g><g class="node" aria-label="graph-node4" transform="translate(104.82168321809388,-1.6170795927427828)"><circle class="b-outline" cx="0" cy="0" r="25" fill="#D9C8AE" stroke="#c0a378" stroke-width="2px"/><text class="caption" text-anchor="middle" pointer-events="none" x="0" y="5" font-size="10px" fill="#2A2C34" font-family="Helvetica Neue, Helvetica, Arial, sans-serif"> 特朗普计…</text></g><g class="node" aria-label="graph-node38" transform="translate(238.32723254381605,37.10704602338174)"><circle class="b-outline" cx="0" cy="0" r="25" fill="#57C7E3" stroke="#23b3d7" stroke-width="2px"/><text class="caption" text-anchor="middle" pointer-events="none" x="0" y="0" font-size="10px" fill="#2A2C34" font-family="Helvetica Neue, Helvetica, Arial, sans-serif"> 被指控为9</text><text class="caption" text-anchor="middle" pointer-events="none" x="0" y="10" font-size="10px" fill="#2A2C34" font-family="Helvetica Neue, Helvetica, Arial, sans-serif"> 11事件…</text></g><g class="node" aria-label="graph-node54" transform="translate(-112.24557946359234,125.94210191307737)"><circle class="b-outline" cx="0" cy="0" r="25" fill="#C990C0" stroke="#b261a5" stroke-width="2px"/><text class="caption" text-anchor="middle" pointer-events="none" x="0" y="5" font-size="10px" fill="#FFFFFF" font-family="Helvetica Neue, Helvetica, Arial, sans-serif"> 关塔那摩…</text></g><g class="node" aria-label="graph-node26" transform="translate(-12.434048605541003,116.73832920900179)"><circle class="b-outline" cx="0" cy="0" r="25" fill="#57C7E3" stroke="#23b3d7" stroke-width="2px"/><text class="caption" text-anchor="middle" pointer-events="none" x="0" y="5" font-size="10px" fill="#2A2C34" font-family="Helvetica Neue, Helvetica, Arial, sans-serif"> 大部分人…</text></g><g class="node" aria-label="graph-node56" transform="translate(-206.80591970215363,156.3737831081675)"><circle class="b-outline" cx="0" cy="0" r="25" fill="#C990C0" stroke="#b261a5" stroke-width="2px"/><text class="caption" text-anchor="middle" pointer-events="none" x="0" y="5" font-size="10px" fill="#FFFFFF" font-family="Helvetica Neue, Helvetica, Arial, sans-serif"> 关塔那摩…</text></g><g class="node" aria-label="graph-node20" transform="translate(-22.872575240018694,214.71515130147296)"><circle class="b-outline" cx="0" cy="0" r="25" fill="#57C7E3" stroke="#23b3d7" stroke-width="2px"/><text class="caption" text-anchor="middle" pointer-events="none" x="0" y="5" font-size="10px" fill="#2A2C34" font-family="Helvetica Neue, Helvetica, Arial, sans-serif"> 不同的共…</text></g><g class="node" aria-label="graph-node39" transform="translate(268.6873541363867,131.57578919588624)"><circle class="b-outline" cx="0" cy="0" r="25" fill="#57C7E3" stroke="#23b3d7" stroke-width="2px"/><text class="caption" text-anchor="middle" pointer-events="none" x="0" y="5" font-size="10px" fill="#2A2C34" font-family="Helvetica Neue, Helvetica, Arial, sans-serif"> 古巴的美…</text></g><g class="node selected" aria-label="graph-node34" transform="translate(335.96404777843105,54.72943289703345)"><circle class="b-outline" cx="0" cy="0" r="25" fill="#57C7E3" stroke="#23b3d7" stroke-width="2px"/><text class="caption" text-anchor="middle" pointer-events="none" x="0" y="5" font-size="10px" fill="#2A2C34" font-family="Helvetica Neue, Helvetica, Arial, sans-serif"> 军事拘留…</text></g><g class="node" aria-label="graph-node6" transform="translate(80.99651869584548,151.1170308309115)"><circle class="b-outline" cx="0" cy="0" r="25" fill="#F16667" stroke="#eb2728" stroke-width="2px"/><text class="caption" text-anchor="middle" pointer-events="none" x="0" y="5" font-size="10px" fill="#FFFFFF" font-family="Helvetica Neue, Helvetica, Arial, sans-serif"> 乔治·W·…</text></g><g class="node" aria-label="graph-node11" transform="translate(467.9575136810739,11.60140878547196)"><circle class="b-outline" cx="0" cy="0" r="25" fill="#F16667" stroke="#eb2728" stroke-width="2px"/><text class="caption" text-anchor="middle" pointer-events="none" x="0" y="0" font-size="10px" fill="#FFFFFF" font-family="Helvetica Neue, Helvetica, Arial, sans-serif"> 唐纳德</text><text class="caption" text-anchor="middle" pointer-events="none" x="0" y="10" font-size="10px" fill="#FFFFFF" font-family="Helvetica Neue, Helvetica, Arial, sans-serif"> 特朗普</text></g><g class="node" aria-label="graph-node32" transform="translate(301.99316014350904,-38.08936230975497)"><circle class="b-outline" cx="0" cy="0" r="25" fill="#57C7E3" stroke="#23b3d7" stroke-width="2px"/><text class="caption" text-anchor="middle" pointer-events="none" x="0" y="5" font-size="10px" fill="#2A2C34" font-family="Helvetica Neue, Helvetica, Arial, sans-serif"> 遣送无证…</text></g><g class="node" aria-label="graph-node17" transform="translate(21.318874085709474,-235.96327684653554)"><circle class="b-outline" cx="0" cy="0" r="25" fill="#C990C0" stroke="#b261a5" stroke-width="2px"/><text class="caption" text-anchor="middle" pointer-events="none" x="0" y="5" font-size="10px" fill="#FFFFFF" font-family="Helvetica Neue, Helvetica, Arial, sans-serif"> 关塔那…</text></g><g class="node" aria-label="graph-node40" transform="translate(128.600309082254,-188.27369086356273)"><circle class="b-outline" cx="0" cy="0" r="25" fill="#57C7E3" stroke="#23b3d7" stroke-width="2px"/><text class="caption" text-anchor="middle" pointer-events="none" x="0" y="0" font-size="10px" fill="#2A2C34" font-family="Helvetica Neue, Helvetica, Arial, sans-serif"> 关押</text><text class="caption" text-anchor="middle" pointer-events="none" x="0" y="10" font-size="10px" fill="#2A2C34" font-family="Helvetica Neue, Helvetica, Arial, sans-serif"> 威胁美…</text></g><g class="node" aria-label="graph-node50" transform="translate(-49.97021458090597,-168.01747011424794)"><circle class="b-outline" cx="0" cy="0" r="25" fill="#C990C0" stroke="#b261a5" stroke-width="2px"/><text class="caption" text-anchor="middle" pointer-events="none" x="0" y="5" font-size="10px" fill="#FFFFFF" font-family="Helvetica Neue, Helvetica, Arial, sans-serif"> 关塔那…</text></g><g class="node" aria-label="graph-node15" transform="translate(265.32812413857835,-130.10417514051235)"><circle class="b-outline" cx="0" cy="0" r="25" fill="#57C7E3" stroke="#23b3d7" stroke-width="2px"/><text class="caption" text-anchor="middle" pointer-events="none" x="0" y="5" font-size="10px" fill="#2A2C34" font-family="Helvetica Neue, Helvetica, Arial, sans-serif"> 近800名</text></g><g class="node" aria-label="graph-node28" transform="translate(-59.27170753465405,29.664711424540982)"><circle class="b-outline" cx="0" cy="0" r="25" fill="#57C7E3" stroke="#23b3d7" stroke-width="2px"/><text class="caption" text-anchor="middle" pointer-events="none" x="0" y="5" font-size="10px" fill="#2A2C34" font-family="Helvetica Neue, Helvetica, Arial, sans-serif"> 试图非法…</text></g><g class="node" aria-label="graph-node58" transform="translate(-162.0383111944229,-171.75135197662541)"><circle class="b-outline" cx="0" cy="0" r="25" fill="#C990C0" stroke="#b261a5" stroke-width="2px"/><text class="caption" text-anchor="middle" pointer-events="none" x="0" y="5" font-size="10px" fill="#FFFFFF" font-family="Helvetica Neue, Helvetica, Arial, sans-serif"> 古巴</text></g><g class="node" aria-label="graph-node14" transform="translate(43.94857296637766,-136.10228885915842)"><circle class="b-outline" cx="0" cy="0" r="25" fill="#F16667" stroke="#eb2728" stroke-width="2px"/><text class="caption" text-anchor="middle" pointer-events="none" x="0" y="-5" font-size="10px" fill="#FFFFFF" font-family="Helvetica Neue, Helvetica, Arial, sans-serif"> 哈立德</text><text class="caption" text-anchor="middle" pointer-events="none" x="0" y="5" font-size="10px" fill="#FFFFFF" font-family="Helvetica Neue, Helvetica, Arial, sans-serif"> 谢赫</text><text class="caption" text-anchor="middle" pointer-events="none" x="0" y="15" font-size="10px" fill="#FFFFFF" font-family="Helvetica Neue, Helvetica, Arial, sans-serif"> 穆罕…</text></g><g class="node" aria-label="graph-node16" transform="translate(-150.3316638379786,-8.499456353812235)"><circle class="b-outline" cx="0" cy="0" r="25" fill="#57C7E3" stroke="#23b3d7" stroke-width="2px"/><text class="caption" text-anchor="middle" pointer-events="none" x="0" y="0" font-size="10px" fill="#2A2C34" font-family="Helvetica Neue, Helvetica, Arial, sans-serif"> 小型</text><text class="caption" text-anchor="middle" pointer-events="none" x="0" y="10" font-size="10px" fill="#2A2C34" font-family="Helvetica Neue, Helvetica, Arial, sans-serif"> 独立的…</text></g><g class="node" aria-label="graph-node13" transform="translate(203.64204046130524,-54.78976645863804)"><circle class="b-outline" cx="0" cy="0" r="25" fill="#57C7E3" stroke="#23b3d7" stroke-width="2px"/><text class="caption" text-anchor="middle" pointer-events="none" x="0" y="0" font-size="10px" fill="#2A2C34" font-family="Helvetica Neue, Helvetica, Arial, sans-serif"> 乔治 w</text><text class="caption" text-anchor="middle" pointer-events="none" x="0" y="10" font-size="10px" fill="#2A2C34" font-family="Helvetica Neue, Helvetica, Arial, sans-serif"> 布什总…</text></g><g class="node" aria-label="graph-node9" transform="translate(200.93151241238675,203.17858281011993)"><circle class="b-outline" cx="0" cy="0" r="25" fill="#57C7E3" stroke="#23b3d7" stroke-width="2px"/><text class="caption" text-anchor="middle" pointer-events="none" x="0" y="5" font-size="10px" fill="#2A2C34" font-family="Helvetica Neue, Helvetica, Arial, sans-serif"> 布什于20…</text></g><g class="node" aria-label="graph-node10" transform="translate(173.5796222781444,109.90666468986672)"><circle class="b-outline" cx="0" cy="0" r="25" fill="#57C7E3" stroke="#23b3d7" stroke-width="2px"/><text class="caption" text-anchor="middle" pointer-events="none" x="0" y="5" font-size="10px" fill="#2A2C34" font-family="Helvetica Neue, Helvetica, Arial, sans-serif"> 关闭该…</text></g></g></svg>