<svg xmlns="http://www.w3.org/2000/svg" width="837.4781494140625" height="1029.57080078125" viewBox="-301.7813720703125 -481.9817199707031 837.4781494140625 1029.57080078125"><title>Neo4j Graph Visualization</title><desc>Created using Neo4j (http://www.neo4j.com/)</desc><g class="layer relationships"><g class="relationship" transform="translate(12.060390293704122 172.81355576162414) rotate(251.07805457848332)"><path class="b-outline" fill="#A5ABB6" stroke="none" d="M 25 0.5 L 95.00049712152081 0.5 L 95.00049712152081 -0.5 L 25 -0.5 Z M 126.21143462152081 0.5 L 196.21193174304162 0.5 L 196.21193174304162 3.5 L 203.21193174304162 0 L 196.21193174304162 -3.5 L 196.21193174304162 -0.5 L 126.21143462152081 -0.5 Z"/><text text-anchor="middle" pointer-events="none" font-size="8px" fill="#000000" x="110.60596587152081" y="3" transform="rotate(180 110.60596587152081 0)" font-family="Helvetica Neue, Helvetica, Arial, sans-serif">source</text></g><g class="relationship" transform="translate(87.7486237957496 518.5891031780344) rotate(340.9292193351612)"><path class="b-outline" fill="#A5ABB6" stroke="none" d="M 25 0.5 L 40.82020214608167 0.5 L 40.82020214608167 -0.5 L 25 -0.5 Z M 96.66785839608167 0.5 L 112.48806054216334 0.5 L 112.48806054216334 3.5 L 119.48806054216334 0 L 112.48806054216334 -3.5 L 112.48806054216334 -0.5 L 96.66785839608167 -0.5 Z"/><text text-anchor="middle" pointer-events="none" font-size="8px" fill="#000000" x="68.74403027108167" y="3" font-family="Helvetica Neue, Helvetica, Arial, sans-serif">OfficialName</text></g><g class="relationship" transform="translate(126.50439445735333 31.649820821016842) rotate(201.62729248239293)"><path class="b-outline" fill="#A5ABB6" stroke="none" d="M 25 0.5 L 82.25442120146069 0.5 L 82.25442120146069 -0.5 L 25 -0.5 Z M 113.46535870146069 0.5 L 170.71977990292137 0.5 L 170.71977990292137 3.5 L 177.71977990292137 0 L 170.71977990292137 -3.5 L 170.71977990292137 -0.5 L 113.46535870146069 -0.5 Z"/><text text-anchor="middle" pointer-events="none" font-size="8px" fill="#000000" x="97.85988995146069" y="3" transform="rotate(180 97.85988995146069 0)" font-family="Helvetica Neue, Helvetica, Arial, sans-serif">source</text></g><g class="relationship" transform="translate(478.7736779682669 172.51552406629486) rotate(281.1914072153847)"><path class="b-outline" fill="#A5ABB6" stroke="none" d="M 25 0.5 L 40.51045581468655 0.5 L 40.51045581468655 -0.5 L 25 -0.5 Z M 96.35811206468655 0.5 L 111.8685678793731 0.5 L 111.8685678793731 3.5 L 118.8685678793731 0 L 111.8685678793731 -3.5 L 111.8685678793731 -0.5 L 96.35811206468655 -0.5 Z"/><text text-anchor="middle" pointer-events="none" font-size="8px" fill="#000000" x="68.43428393968655" y="3" font-family="Helvetica Neue, Helvetica, Arial, sans-serif">OfficialName</text></g><g class="relationship" transform="translate(389.2003351069809 -356.8156646961594) rotate(221.76051060666828)"><path class="b-outline" fill="#A5ABB6" stroke="none" d="M 25 0.5 L 40.77087717238226 0.5 L 40.77087717238226 -0.5 L 25 -0.5 Z M 96.61853342238226 0.5 L 112.38941059476451 0.5 L 112.38941059476451 3.5 L 119.38941059476451 0 L 112.38941059476451 -3.5 L 112.38941059476451 -0.5 L 96.61853342238226 -0.5 Z"/><text text-anchor="middle" pointer-events="none" font-size="8px" fill="#000000" x="68.69470529738226" y="3" transform="rotate(180 68.69470529738226 0)" font-family="Helvetica Neue, Helvetica, Arial, sans-serif">OfficialName</text></g><g class="relationship" transform="translate(156.44014380143074 -61.28122799553932) rotate(535.2320704054532)"><path class="b-outline" fill="#A5ABB6" stroke="none" d="M 25 0.5 L 90.46583072256499 0.5 L 90.46583072256499 -0.5 L 25 -0.5 Z M 121.67676822256499 0.5 L 187.14259894512998 0.5 L 187.14259894512998 3.5 L 194.14259894512998 0 L 187.14259894512998 -3.5 L 187.14259894512998 -0.5 L 121.67676822256499 -0.5 Z"/><text text-anchor="middle" pointer-events="none" font-size="8px" fill="#000000" x="106.07129947256499" y="3" transform="rotate(180 106.07129947256499 0)" font-family="Helvetica Neue, Helvetica, Arial, sans-serif">source</text></g><g class="relationship" transform="translate(12.060390293704122 172.81355576162414) rotate(309.0323100473654)"><path class="b-outline" fill="#A5ABB6" stroke="none" d="M 25 0.5 L 59.439572305799686 0.5 L 59.439572305799686 -0.5 L 25 -0.5 Z M 115.28722855579969 0.5 L 149.72680086159937 0.5 L 149.72680086159937 3.5 L 156.72680086159937 0 L 149.72680086159937 -3.5 L 149.72680086159937 -0.5 L 115.28722855579969 -0.5 Z"/><text text-anchor="middle" pointer-events="none" font-size="8px" fill="#000000" x="87.36340043079969" y="3" font-family="Helvetica Neue, Helvetica, Arial, sans-serif">OfficialName</text></g><g class="relationship" transform="translate(38.470695747680594 78.48062667547548) rotate(230.43846437155776)"><path class="b-outline" fill="#A5ABB6" stroke="none" d="M 25 0.5 L 59.72462999693255 0.5 L 59.72462999693255 -0.5 L 25 -0.5 Z M 90.93556749693255 0.5 L 125.6601974938651 0.5 L 125.6601974938651 3.5 L 132.6601974938651 0 L 125.6601974938651 -3.5 L 125.6601974938651 -0.5 L 90.93556749693255 -0.5 Z"/><text text-anchor="middle" pointer-events="none" font-size="8px" fill="#000000" x="75.33009874693255" y="3" transform="rotate(180 75.33009874693255 0)" font-family="Helvetica Neue, Helvetica, Arial, sans-serif">source</text></g><g class="relationship" transform="translate(44.10522407101927 -19.064646355560605) rotate(192.75252812855257)"><path class="b-outline" fill="#A5ABB6" stroke="none" d="M 25 0.5 L 35.260266148958614 0.5 L 35.260266148958614 -0.5 L 25 -0.5 Z M 66.4712036489586 0.5 L 76.73146979791723 0.5 L 76.73146979791723 3.5 L 83.73146979791723 0 L 76.73146979791723 -3.5 L 76.73146979791723 -0.5 L 66.4712036489586 -0.5 Z"/><text text-anchor="middle" pointer-events="none" font-size="8px" fill="#000000" x="50.865734898958614" y="3" transform="rotate(180 50.865734898958614 0)" font-family="Helvetica Neue, Helvetica, Arial, sans-serif">source</text></g><g class="relationship" transform="translate(73.85886500775055 -114.77913031418154) rotate(512.1629532326858)"><path class="b-outline" fill="#A5ABB6" stroke="none" d="M 25 0.5 L 57.68192001250986 0.5 L 57.68192001250986 -0.5 L 25 -0.5 Z M 88.89285751250986 0.5 L 121.57477752501973 0.5 L 121.57477752501973 3.5 L 128.57477752501973 0 L 121.57477752501973 -3.5 L 121.57477752501973 -0.5 L 88.89285751250986 -0.5 Z"/><text text-anchor="middle" pointer-events="none" font-size="8px" fill="#000000" x="73.28738876250986" y="3" transform="rotate(180 73.28738876250986 0)" font-family="Helvetica Neue, Helvetica, Arial, sans-serif">source</text></g><g class="relationship" transform="translate(8.956821929032131 -189.2051095066907) rotate(475.8808483930954)"><path class="b-outline" fill="#A5ABB6" stroke="none" d="M 25 0.5 L 62.10961454049985 0.5 L 62.10961454049985 -0.5 L 25 -0.5 Z M 93.32055204049985 0.5 L 130.4301665809997 0.5 L 130.4301665809997 3.5 L 137.4301665809997 0 L 130.4301665809997 -3.5 L 130.4301665809997 -0.5 L 93.32055204049985 -0.5 Z"/><text text-anchor="middle" pointer-events="none" font-size="8px" fill="#000000" x="77.71508329049985" y="3" transform="rotate(180 77.71508329049985 0)" font-family="Helvetica Neue, Helvetica, Arial, sans-serif">source</text></g><g class="relationship" transform="translate(-58.3020251841336 -262.3983704348471) rotate(450.9513307260832)"><path class="b-outline" fill="#A5ABB6" stroke="none" d="M 25 0.5 L 90.57579391703608 0.5 L 90.57579391703608 -0.5 L 25 -0.5 Z M 121.78673141703608 0.5 L 187.36252533407216 0.5 L 187.36252533407216 3.5 L 194.36252533407216 0 L 187.36252533407216 -3.5 L 187.36252533407216 -0.5 L 121.78673141703608 -0.5 Z"/><text text-anchor="middle" pointer-events="none" font-size="8px" fill="#000000" x="106.18126266703608" y="3" transform="rotate(180 106.18126266703608 0)" font-family="Helvetica Neue, Helvetica, Arial, sans-serif">source</text></g><g class="relationship" transform="translate(-154.27689322662104 -240.82264994532005) rotate(424.97207442111045)"><path class="b-outline" fill="#A5ABB6" stroke="none" d="M 25 0.5 L 90.01946068888527 0.5 L 90.01946068888527 -0.5 L 25 -0.5 Z M 121.23039818888527 0.5 L 186.24985887777055 0.5 L 186.24985887777055 3.5 L 193.24985887777055 0 L 186.24985887777055 -3.5 L 186.24985887777055 -0.5 L 121.23039818888527 -0.5 Z"/><text text-anchor="middle" pointer-events="none" font-size="8px" fill="#000000" x="105.62492943888527" y="3" font-family="Helvetica Neue, Helvetica, Arial, sans-serif">source</text></g><g class="relationship" transform="translate(-58.3020251841336 -262.3983704348471) rotate(519.6754533060475)"><path class="b-outline" fill="#A5ABB6" stroke="none" d="M 25 0.5 L 65.6912241733213 0.5 L 65.6912241733213 -0.5 L 25 -0.5 Z M 121.5388804233213 0.5 L 162.2301045966426 0.5 L 162.2301045966426 3.5 L 169.2301045966426 0 L 162.2301045966426 -3.5 L 162.2301045966426 -0.5 L 121.5388804233213 -0.5 Z"/><text text-anchor="middle" pointer-events="none" font-size="8px" fill="#000000" x="93.6150522983213" y="3" transform="rotate(180 93.6150522983213 0)" font-family="Helvetica Neue, Helvetica, Arial, sans-serif">OfficialName</text></g><g class="relationship" transform="translate(-88.48763066708402 -168.86873953926272) rotate(438.0857272700618)"><path class="b-outline" fill="#A5ABB6" stroke="none" d="M 25 0.5 L 45.18073990721487 0.5 L 45.18073990721487 -0.5 L 25 -0.5 Z M 76.39167740721487 0.5 L 96.57241731442974 0.5 L 96.57241731442974 3.5 L 103.57241731442974 0 L 96.57241731442974 -3.5 L 96.57241731442974 -0.5 L 76.39167740721487 -0.5 Z"/><text text-anchor="middle" pointer-events="none" font-size="8px" fill="#000000" x="60.78620865721487" y="3" font-family="Helvetica Neue, Helvetica, Arial, sans-serif">source</text></g><g class="relationship" transform="translate(-175.96149616746445 -121.02475564511701) rotate(394.3621263415157)"><path class="b-outline" fill="#A5ABB6" stroke="none" d="M 25 0.5 L 49.955223021440545 0.5 L 49.955223021440545 -0.5 L 25 -0.5 Z M 81.16616052144055 0.5 L 106.12138354288109 0.5 L 106.12138354288109 3.5 L 113.12138354288109 0 L 106.12138354288109 -3.5 L 106.12138354288109 -0.5 L 81.16616052144055 -0.5 Z"/><text text-anchor="middle" pointer-events="none" font-size="8px" fill="#000000" x="65.56069177144055" y="3" font-family="Helvetica Neue, Helvetica, Arial, sans-serif">source</text></g><g class="relationship" transform="translate(-208.7157316323235 -27.14750318138213) rotate(353.8100007723598)"><path class="b-outline" fill="#A5ABB6" stroke="none" d="M 25 0.5 L 54.710699583977515 0.5 L 54.710699583977515 -0.5 L 25 -0.5 Z M 85.92163708397752 0.5 L 115.63233666795503 0.5 L 115.63233666795503 3.5 L 122.63233666795503 0 L 115.63233666795503 -3.5 L 115.63233666795503 -0.5 L 85.92163708397752 -0.5 Z"/><text text-anchor="middle" pointer-events="none" font-size="8px" fill="#000000" x="70.31616833397752" y="3" font-family="Helvetica Neue, Helvetica, Arial, sans-serif">source</text></g><g class="relationship" transform="translate(-272.7813709647499 -101.33255405842512) rotate(375.4485408394001)"><path class="b-outline" fill="#A5ABB6" stroke="none" d="M 25 0.5 L 90.26469136215302 0.5 L 90.26469136215302 -0.5 L 25 -0.5 Z M 121.47562886215302 0.5 L 186.74032022430603 0.5 L 186.74032022430603 3.5 L 193.74032022430603 0 L 186.74032022430603 -3.5 L 186.74032022430603 -0.5 L 121.47562886215302 -0.5 Z"/><text text-anchor="middle" pointer-events="none" font-size="8px" fill="#000000" x="105.87016011215302" y="3" font-family="Helvetica Neue, Helvetica, Arial, sans-serif">source</text></g><g class="relationship" transform="translate(-154.27689322662104 -240.82264994532005) rotate(490.3497239019881)"><path class="b-outline" fill="#A5ABB6" stroke="none" d="M 25 0.5 L 60.092288071167644 0.5 L 60.092288071167644 -0.5 L 25 -0.5 Z M 115.93994432116764 0.5 L 151.0322323923353 0.5 L 151.0322323923353 3.5 L 158.0322323923353 0 L 151.0322323923353 -3.5 L 151.0322323923353 -0.5 L 115.93994432116764 -0.5 Z"/><text text-anchor="middle" pointer-events="none" font-size="8px" fill="#000000" x="88.01611619616764" y="3" transform="rotate(180 88.01611619616764 0)" font-family="Helvetica Neue, Helvetica, Arial, sans-serif">OfficialName</text></g><g class="relationship" transform="translate(-226.15665046089399 69.62713971418778) rotate(325.5395753923965)"><path class="b-outline" fill="#A5ABB6" stroke="none" d="M 25 0.5 L 80.47554987499815 0.5 L 80.47554987499815 -0.5 L 25 -0.5 Z M 111.68648737499815 0.5 L 167.1620372499963 0.5 L 167.1620372499963 3.5 L 174.1620372499963 0 L 167.1620372499963 -3.5 L 167.1620372499963 -0.5 L 111.68648737499815 -0.5 Z"/><text text-anchor="middle" pointer-events="none" font-size="8px" fill="#000000" x="96.08101862499815" y="3" font-family="Helvetica Neue, Helvetica, Arial, sans-serif">source</text></g><g class="relationship" transform="translate(-134.4830260230033 38.179159237471055) rotate(311.7597153436966)"><path class="b-outline" fill="#A5ABB6" stroke="none" d="M 25 0.5 L 35.352501262968275 0.5 L 35.352501262968275 -0.5 L 25 -0.5 Z M 66.56343876296827 0.5 L 76.91594002593655 0.5 L 76.91594002593655 3.5 L 83.91594002593655 0 L 76.91594002593655 -3.5 L 76.91594002593655 -0.5 L 66.56343876296827 -0.5 Z"/><text text-anchor="middle" pointer-events="none" font-size="8px" fill="#000000" x="50.957970012968275" y="3" font-family="Helvetica Neue, Helvetica, Arial, sans-serif">source</text></g><g class="relationship" transform="translate(-240.4394050637417 -194.93498494157333) rotate(400.3920890403584)"><path class="b-outline" fill="#A5ABB6" stroke="none" d="M 25 0.5 L 98.07465971802065 0.5 L 98.07465971802065 -0.5 L 25 -0.5 Z M 129.28559721802065 0.5 L 202.3602569360413 0.5 L 202.3602569360413 3.5 L 209.3602569360413 0 L 202.3602569360413 -3.5 L 202.3602569360413 -0.5 L 129.28559721802065 -0.5 Z"/><text text-anchor="middle" pointer-events="none" font-size="8px" fill="#000000" x="113.68012846802065" y="3" font-family="Helvetica Neue, Helvetica, Arial, sans-serif">source</text></g><g class="relationship" transform="translate(-150.26049939116345 133.9060517774357) rotate(296.5210841545888)"><path class="b-outline" fill="#A5ABB6" stroke="none" d="M 25 0.5 L 79.78704725872747 0.5 L 79.78704725872747 -0.5 L 25 -0.5 Z M 110.99798475872747 0.5 L 165.78503201745494 0.5 L 165.78503201745494 3.5 L 172.78503201745494 0 L 165.78503201745494 -3.5 L 165.78503201745494 -0.5 L 110.99798475872747 -0.5 Z"/><text text-anchor="middle" pointer-events="none" font-size="8px" fill="#000000" x="95.39251600872747" y="3" font-family="Helvetica Neue, Helvetica, Arial, sans-serif">source</text></g><g class="relationship" transform="translate(-57.05199003147581 102.60466418062937) rotate(268.0765310786881)"><path class="b-outline" fill="#A5ABB6" stroke="none" d="M 25 0.5 L 53.77096656948149 0.5 L 53.77096656948149 -0.5 L 25 -0.5 Z M 84.98190406948149 0.5 L 113.75287063896297 0.5 L 113.75287063896297 3.5 L 120.75287063896297 0 L 113.75287063896297 -3.5 L 113.75287063896297 -0.5 L 84.98190406948149 -0.5 Z"/><text text-anchor="middle" pointer-events="none" font-size="8px" fill="#000000" x="69.37643531948149" y="3" transform="rotate(180 69.37643531948149 0)" font-family="Helvetica Neue, Helvetica, Arial, sans-serif">source</text></g><g class="relationship" transform="translate(138.4742425786075 127.08733401291772) rotate(220.33096219854883)"><path class="b-outline" fill="#A5ABB6" stroke="none" d="M 25 0.5 L 112.34766504007206 0.5 L 112.34766504007206 -0.5 L 25 -0.5 Z M 143.55860254007206 0.5 L 230.90626758014412 0.5 L 230.90626758014412 3.5 L 237.90626758014412 0 L 230.90626758014412 -3.5 L 230.90626758014412 -0.5 L 143.55860254007206 -0.5 Z"/><text text-anchor="middle" pointer-events="none" font-size="8px" fill="#000000" x="127.95313379007206" y="3" transform="rotate(180 127.95313379007206 0)" font-family="Helvetica Neue, Helvetica, Arial, sans-serif">source</text></g><g class="relationship" transform="translate(156.44014380143074 -61.28122799553932) rotate(455.44818072959396)"><path class="b-outline" fill="#A5ABB6" stroke="none" d="M 25 0.5 L 63.18786348851329 0.5 L 63.18786348851329 -0.5 L 25 -0.5 Z M 119.03551973851329 0.5 L 157.22338322702657 0.5 L 157.22338322702657 3.5 L 164.22338322702657 0 L 157.22338322702657 -3.5 L 157.22338322702657 -0.5 L 119.03551973851329 -0.5 Z"/><text text-anchor="middle" pointer-events="none" font-size="8px" fill="#000000" x="91.11169161351329" y="3" transform="rotate(180 91.11169161351329 0)" font-family="Helvetica Neue, Helvetica, Arial, sans-serif">OfficialName</text></g></g><g class="layer nodes"><g class="node" aria-label="graph-node61" transform="translate(12.060390293704122,172.81355576162414)"><circle class="b-outline" cx="0" cy="0" r="25" fill="#F16667" stroke="#eb2728" stroke-width="2px"/><text class="caption" text-anchor="middle" pointer-events="none" x="0" y="5" font-size="10px" fill="#FFFFFF" font-family="Helvetica Neue, Helvetica, Arial, sans-serif"> 奥巴马</text></g><g class="node" aria-label="graph-node80" transform="translate(-61.94412105385134,-43.06608220847302)"><circle class="b-outline" cx="0" cy="0" r="25" fill="#D9C8AE" stroke="#c0a378" stroke-width="2px"/><text class="caption" text-anchor="middle" pointer-events="none" x="0" y="5" font-size="10px" fill="#2A2C34" font-family="Helvetica Neue, Helvetica, Arial, sans-serif"> 特朗普计…</text></g><g class="node" aria-label="graph-node0" transform="translate(87.7486237957496,518.5891031780344)"><circle class="b-outline" cx="0" cy="0" r="25" fill="#C990C0" stroke="#b261a5" stroke-width="2px"/><text class="caption" text-anchor="middle" pointer-events="none" x="0" y="5" font-size="10px" fill="#FFFFFF" font-family="Helvetica Neue, Helvetica, Arial, sans-serif"> 关塔那…</text></g><g class="node" aria-label="graph-node2" transform="translate(224.30655275199356,471.3796583770491)"><circle class="b-outline" cx="0" cy="0" r="25" fill="#C990C0" stroke="#b261a5" stroke-width="2px"/><text class="caption" text-anchor="middle" pointer-events="none" x="0" y="5" font-size="10px" fill="#FFFFFF" font-family="Helvetica Neue, Helvetica, Arial, sans-serif"> guantan…</text></g><g class="node" aria-label="graph-node75" transform="translate(126.50439445735333,31.649820821016842)"><circle class="b-outline" cx="0" cy="0" r="25" fill="#F16667" stroke="#eb2728" stroke-width="2px"/><text class="caption" text-anchor="middle" pointer-events="none" x="0" y="0" font-size="10px" fill="#FFFFFF" font-family="Helvetica Neue, Helvetica, Arial, sans-serif"> barack</text><text class="caption" text-anchor="middle" pointer-events="none" x="0" y="10" font-size="10px" fill="#FFFFFF" font-family="Helvetica Neue, Helvetica, Arial, sans-serif"> obama</text></g><g class="node" aria-label="graph-node6" transform="translate(478.7736779682669,172.51552406629486)"><circle class="b-outline" cx="0" cy="0" r="25" fill="#C990C0" stroke="#b261a5" stroke-width="2px"/><text class="caption" text-anchor="middle" pointer-events="none" x="0" y="5" font-size="10px" fill="#FFFFFF" font-family="Helvetica Neue, Helvetica, Arial, sans-serif"> 古巴</text></g><g class="node" aria-label="graph-node7" transform="translate(506.69673020256806,31.38272143847811)"><circle class="b-outline" cx="0" cy="0" r="25" fill="#C990C0" stroke="#b261a5" stroke-width="2px"/><text class="caption" text-anchor="middle" pointer-events="none" x="0" y="5" font-size="10px" fill="#FFFFFF" font-family="Helvetica Neue, Helvetica, Arial, sans-serif"> cuba</text></g><g class="node" aria-label="graph-node4" transform="translate(389.2003351069809,-356.8156646961594)"><circle class="b-outline" cx="0" cy="0" r="25" fill="#C990C0" stroke="#b261a5" stroke-width="2px"/><text class="caption" text-anchor="middle" pointer-events="none" x="0" y="5" font-size="10px" fill="#FFFFFF" font-family="Helvetica Neue, Helvetica, Arial, sans-serif"> 关塔那摩…</text></g><g class="node" aria-label="graph-node10" transform="translate(281.49518978574605,-452.9816855311465)"><circle class="b-outline" cx="0" cy="0" r="25" fill="#C990C0" stroke="#b261a5" stroke-width="2px"/><text class="caption" text-anchor="middle" pointer-events="none" x="0" y="5" font-size="10px" fill="#FFFFFF" font-family="Helvetica Neue, Helvetica, Arial, sans-serif"> guantan…</text></g><g class="node" aria-label="graph-node60" transform="translate(156.44014380143074,-61.28122799553932)"><circle class="b-outline" cx="0" cy="0" r="25" fill="#F16667" stroke="#eb2728" stroke-width="2px"/><text class="caption" text-anchor="middle" pointer-events="none" x="0" y="5" font-size="10px" fill="#FFFFFF" font-family="Helvetica Neue, Helvetica, Arial, sans-serif"> 汤姆 霍曼</text></g><g class="node" aria-label="graph-node12" transform="translate(38.470695747680594,78.48062667547548)"><circle class="b-outline" cx="0" cy="0" r="25" fill="#C990C0" stroke="#b261a5" stroke-width="2px"/><text class="caption" text-anchor="middle" pointer-events="none" x="0" y="5" font-size="10px" fill="#FFFFFF" font-family="Helvetica Neue, Helvetica, Arial, sans-serif"> guantan…</text></g><g class="node" aria-label="graph-node69" transform="translate(44.10522407101927,-19.064646355560605)"><circle class="b-outline" cx="0" cy="0" r="25" fill="#F16667" stroke="#eb2728" stroke-width="2px"/><text class="caption" text-anchor="middle" pointer-events="none" x="0" y="5" font-size="10px" fill="#FFFFFF" font-family="Helvetica Neue, Helvetica, Arial, sans-serif"> 哈立德·…</text></g><g class="node" aria-label="graph-node76" transform="translate(73.85886500775055,-114.77913031418154)"><circle class="b-outline" cx="0" cy="0" r="25" fill="#F16667" stroke="#eb2728" stroke-width="2px"/><text class="caption" text-anchor="middle" pointer-events="none" x="0" y="5" font-size="10px" fill="#FFFFFF" font-family="Helvetica Neue, Helvetica, Arial, sans-serif"> 汤姆·霍曼</text></g><g class="node" aria-label="graph-node77" transform="translate(8.956821929032131,-189.2051095066907)"><circle class="b-outline" cx="0" cy="0" r="25" fill="#F16667" stroke="#eb2728" stroke-width="2px"/><text class="caption" text-anchor="middle" pointer-events="none" x="0" y="5" font-size="10px" fill="#FFFFFF" font-family="Helvetica Neue, Helvetica, Arial, sans-serif"> 唐纳德·…</text></g><g class="node" aria-label="graph-node66" transform="translate(-58.3020251841336,-262.3983704348471)"><circle class="b-outline" cx="0" cy="0" r="25" fill="#F16667" stroke="#eb2728" stroke-width="2px"/><text class="caption" text-anchor="middle" pointer-events="none" x="0" y="0" font-size="10px" fill="#FFFFFF" font-family="Helvetica Neue, Helvetica, Arial, sans-serif"> 乔治 w</text><text class="caption" text-anchor="middle" pointer-events="none" x="0" y="10" font-size="10px" fill="#FFFFFF" font-family="Helvetica Neue, Helvetica, Arial, sans-serif"> 布什</text></g><g class="node" aria-label="graph-node64" transform="translate(-154.27689322662104,-240.82264994532005)"><circle class="b-outline" cx="0" cy="0" r="25" fill="#F16667" stroke="#eb2728" stroke-width="2px"/><text class="caption" text-anchor="middle" pointer-events="none" x="0" y="0" font-size="10px" fill="#FFFFFF" font-family="Helvetica Neue, Helvetica, Arial, sans-serif"> 唐纳德</text><text class="caption" text-anchor="middle" pointer-events="none" x="0" y="10" font-size="10px" fill="#FFFFFF" font-family="Helvetica Neue, Helvetica, Arial, sans-serif"> 特朗普</text></g><g class="node" aria-label="graph-node63" transform="translate(-240.4394050637417,-194.93498494157333)"><circle class="b-outline" cx="0" cy="0" r="25" fill="#F16667" stroke="#eb2728" stroke-width="2px"/><text class="caption" text-anchor="middle" pointer-events="none" x="0" y="0" font-size="10px" fill="#FFFFFF" font-family="Helvetica Neue, Helvetica, Arial, sans-serif"> george w</text><text class="caption" text-anchor="middle" pointer-events="none" x="0" y="10" font-size="10px" fill="#FFFFFF" font-family="Helvetica Neue, Helvetica, Arial, sans-serif">  bush</text></g><g class="node" aria-label="graph-node1" transform="translate(-88.48763066708402,-168.86873953926272)"><circle class="b-outline" cx="0" cy="0" r="25" fill="#C990C0" stroke="#b261a5" stroke-width="2px"/><text class="caption" text-anchor="middle" pointer-events="none" x="0" y="5" font-size="10px" fill="#FFFFFF" font-family="Helvetica Neue, Helvetica, Arial, sans-serif"> 古巴</text></g><g class="node" aria-label="graph-node72" transform="translate(-175.96149616746445,-121.02475564511701)"><circle class="b-outline" cx="0" cy="0" r="25" fill="#F16667" stroke="#eb2728" stroke-width="2px"/><text class="caption" text-anchor="middle" pointer-events="none" x="0" y="-5" font-size="10px" fill="#FFFFFF" font-family="Helvetica Neue, Helvetica, Arial, sans-serif"> 哈立德</text><text class="caption" text-anchor="middle" pointer-events="none" x="0" y="5" font-size="10px" fill="#FFFFFF" font-family="Helvetica Neue, Helvetica, Arial, sans-serif"> 谢赫</text><text class="caption" text-anchor="middle" pointer-events="none" x="0" y="15" font-size="10px" fill="#FFFFFF" font-family="Helvetica Neue, Helvetica, Arial, sans-serif"> 穆罕…</text></g><g class="node" aria-label="graph-node11" transform="translate(-208.7157316323235,-27.14750318138213)"><circle class="b-outline" cx="0" cy="0" r="25" fill="#C990C0" stroke="#b261a5" stroke-width="2px"/><text class="caption" text-anchor="middle" pointer-events="none" x="0" y="5" font-size="10px" fill="#FFFFFF" font-family="Helvetica Neue, Helvetica, Arial, sans-serif"> 关塔那摩…</text></g><g class="node" aria-label="graph-node62" transform="translate(-272.7813709647499,-101.33255405842512)"><circle class="b-outline" cx="0" cy="0" r="25" fill="#F16667" stroke="#eb2728" stroke-width="2px"/><text class="caption" text-anchor="middle" pointer-events="none" x="0" y="0" font-size="10px" fill="#FFFFFF" font-family="Helvetica Neue, Helvetica, Arial, sans-serif"> donald</text><text class="caption" text-anchor="middle" pointer-events="none" x="0" y="10" font-size="10px" fill="#FFFFFF" font-family="Helvetica Neue, Helvetica, Arial, sans-serif"> trump</text></g><g class="node" aria-label="graph-node3" transform="translate(-226.15665046089399,69.62713971418778)"><circle class="b-outline" cx="0" cy="0" r="25" fill="#C990C0" stroke="#b261a5" stroke-width="2px"/><text class="caption" text-anchor="middle" pointer-events="none" x="0" y="5" font-size="10px" fill="#FFFFFF" font-family="Helvetica Neue, Helvetica, Arial, sans-serif"> cuba</text></g><g class="node" aria-label="graph-node5" transform="translate(-134.4830260230033,38.179159237471055)"><circle class="b-outline" cx="0" cy="0" r="25" fill="#C990C0" stroke="#b261a5" stroke-width="2px"/><text class="caption" text-anchor="middle" pointer-events="none" x="0" y="5" font-size="10px" fill="#FFFFFF" font-family="Helvetica Neue, Helvetica, Arial, sans-serif"> 关塔那摩…</text></g><g class="node" aria-label="graph-node82" transform="translate(-150.26049939116345,133.9060517774357)"><circle class="b-outline" cx="0" cy="0" r="25" fill="#C990C0" stroke="#b261a5" stroke-width="2px"/><text class="caption" text-anchor="middle" pointer-events="none" x="0" y="5" font-size="10px" fill="#FFFFFF" font-family="Helvetica Neue, Helvetica, Arial, sans-serif"> 关塔那…</text></g><g class="node" aria-label="graph-node8" transform="translate(-57.05199003147581,102.60466418062937)"><circle class="b-outline" cx="0" cy="0" r="25" fill="#C990C0" stroke="#b261a5" stroke-width="2px"/><text class="caption" text-anchor="middle" pointer-events="none" x="0" y="5" font-size="10px" fill="#FFFFFF" font-family="Helvetica Neue, Helvetica, Arial, sans-serif"> 关塔那…</text></g><g class="node" aria-label="graph-node70" transform="translate(138.4742425786075,127.08733401291772)"><circle class="b-outline" cx="0" cy="0" r="25" fill="#F16667" stroke="#eb2728" stroke-width="2px"/><text class="caption" text-anchor="middle" pointer-events="none" x="0" y="0" font-size="10px" fill="#FFFFFF" font-family="Helvetica Neue, Helvetica, Arial, sans-serif"> tom</text><text class="caption" text-anchor="middle" pointer-events="none" x="0" y="10" font-size="10px" fill="#FFFFFF" font-family="Helvetica Neue, Helvetica, Arial, sans-serif"> homan</text></g></g></svg>