<svg xmlns="http://www.w3.org/2000/svg" width="510.17449951171875" height="474.21978759765625" viewBox="-326.224609375 -212.84068298339844 510.17449951171875 474.21978759765625"><title>Neo4j Graph Visualization</title><desc>Created using Neo4j (http://www.neo4j.com/)</desc><g class="layer relationships"><g class="relationship" transform="translate(142.57780974972187 98.46296774989267) rotate(498.1946000300361)"><path class="b-outline" fill="#A5ABB6" stroke="none" d="M 25 0.5 L 30.16051231911748 0.5 L 30.16051231911748 -0.5 L 25 -0.5 Z M 86.00816856911749 0.5 L 91.16868088823496 0.5 L 91.16868088823496 3.5 L 98.16868088823496 0 L 91.16868088823496 -3.5 L 91.16868088823496 -0.5 L 86.00816856911749 -0.5 Z"/><text text-anchor="middle" pointer-events="none" font-size="8px" fill="#000000" x="58.08434044411748" y="3" transform="rotate(180 58.08434044411748 0)" font-family="Helvetica Neue, Helvetica, Arial, sans-serif">OfficialName</text></g><g class="relationship" transform="translate(45.71012497512165 81.86325986393935) rotate(197.9851125691506)"><path class="b-outline" fill="#A5ABB6" stroke="none" d="M 25 0.5 L 54.13143426374923 0.5 L 54.13143426374923 -0.5 L 25 -0.5 Z M 85.34237176374923 0.5 L 114.47380602749845 0.5 L 114.47380602749845 3.5 L 121.47380602749845 0 L 114.47380602749845 -3.5 L 114.47380602749845 -0.5 L 85.34237176374923 -0.5 Z"/><text text-anchor="middle" pointer-events="none" font-size="8px" fill="#000000" x="69.73690301374923" y="3" transform="rotate(180 69.73690301374923 0)" font-family="Helvetica Neue, Helvetica, Arial, sans-serif">source</text></g><g class="relationship" transform="translate(154.9498522776035 -91.27387741727772) rotate(512.769040562649)"><path class="b-outline" fill="#A5ABB6" stroke="none" d="M 25 0.5 L 120.66339428735009 0.5 L 120.66339428735009 -0.5 L 25 -0.5 Z M 151.8743317873501 0.5 L 247.53772607470017 0.5 L 247.53772607470017 3.5 L 254.53772607470017 0 L 247.53772607470017 -3.5 L 247.53772607470017 -0.5 L 151.8743317873501 -0.5 Z"/><text text-anchor="middle" pointer-events="none" font-size="8px" fill="#000000" x="136.2688630373501" y="3" transform="rotate(180 136.2688630373501 0)" font-family="Helvetica Neue, Helvetica, Arial, sans-serif">source</text></g><g class="relationship" transform="translate(45.71012497512165 81.86325986393935) rotate(313.23623261614)"><path class="b-outline" fill="#A5ABB6" stroke="none" d="M 25 0.5 L 26.14972503242003 0.5 L 26.14972503242003 -0.5 L 25 -0.5 Z M 76.47003753242004 0.5 L 77.61976256484006 0.5 L 77.61976256484006 3.5 L 84.61976256484006 0 L 77.61976256484006 -3.5 L 77.61976256484006 -0.5 L 76.47003753242004 -0.5 Z"/><text text-anchor="middle" pointer-events="none" font-size="8px" fill="#000000" x="51.30988128242003" y="3" font-family="Helvetica Neue, Helvetica, Arial, sans-serif">OfficialNa…</text></g><g class="relationship" transform="translate(-213.19117725089816 223.26642097408208) rotate(227.83196354075983)"><path class="b-outline" fill="#A5ABB6" stroke="none" d="M 25 0.5 L 31.165576855148345 0.5 L 31.165576855148345 -0.5 L 25 -0.5 Z M 87.01323310514834 0.5 L 93.17880996029669 0.5 L 93.17880996029669 3.5 L 100.17880996029669 0 L 93.17880996029669 -3.5 L 93.17880996029669 -0.5 L 87.01323310514834 -0.5 Z"/><text text-anchor="middle" pointer-events="none" font-size="8px" fill="#000000" x="59.089404980148345" y="3" transform="rotate(180 59.089404980148345 0)" font-family="Helvetica Neue, Helvetica, Arial, sans-serif">OfficialName</text></g><g class="relationship" transform="translate(57.08589868997256 -108.16076362982518) rotate(229.44972195023564)"><path class="b-outline" fill="#A5ABB6" stroke="none" d="M 25 0.5 L 26.60291289009318 0.5 L 26.60291289009318 -0.5 L 25 -0.5 Z M 65.99744414009318 0.5 L 67.60035703018636 0.5 L 67.60035703018636 3.5 L 74.60035703018636 0 L 67.60035703018636 -3.5 L 67.60035703018636 -0.5 L 65.99744414009318 -0.5 Z"/><text text-anchor="middle" pointer-events="none" font-size="8px" fill="#000000" x="46.30017851509318" y="3" transform="rotate(180 46.30017851509318 0)" font-family="Helvetica Neue, Helvetica, Arial, sans-serif">Official…</text></g><g class="relationship" transform="translate(120.80053414583048 2.0013615935661435) rotate(530.8237397594633)"><path class="b-outline" fill="#A5ABB6" stroke="none" d="M 25 0.5 L 89.48777798053429 0.5 L 89.48777798053429 -0.5 L 25 -0.5 Z M 120.69871548053429 0.5 L 185.18649346106858 0.5 L 185.18649346106858 3.5 L 192.18649346106858 0 L 185.18649346106858 -3.5 L 185.18649346106858 -0.5 L 120.69871548053429 -0.5 Z"/><text text-anchor="middle" pointer-events="none" font-size="8px" fill="#000000" x="105.09324673053429" y="3" transform="rotate(180 105.09324673053429 0)" font-family="Helvetica Neue, Helvetica, Arial, sans-serif">source</text></g><g class="relationship" transform="translate(-198.14492297774916 125.89395072528887) rotate(319.5085134819615)"><path class="b-outline" fill="#A5ABB6" stroke="none" d="M 25 0.5 L 49.6243710120376 0.5 L 49.6243710120376 -0.5 L 25 -0.5 Z M 80.8353085120376 0.5 L 105.4596795240752 0.5 L 105.4596795240752 3.5 L 112.4596795240752 0 L 105.4596795240752 -3.5 L 105.4596795240752 -0.5 L 80.8353085120376 -0.5 Z"/><text text-anchor="middle" pointer-events="none" font-size="8px" fill="#000000" x="65.2298397620376" y="3" font-family="Helvetica Neue, Helvetica, Arial, sans-serif">source</text></g><g class="relationship" transform="translate(-106.21870752519403 -179.56230706954216) rotate(525.4494130174754)"><path class="b-outline" fill="#A5ABB6" stroke="none" d="M 25 0.5 L 25.543513795833846 0.5 L 25.543513795833846 -0.5 L 25 -0.5 Z M 81.39117004583385 0.5 L 81.93468384166769 0.5 L 81.93468384166769 3.5 L 88.93468384166769 0 L 81.93468384166769 -3.5 L 81.93468384166769 -0.5 L 81.39117004583385 -0.5 Z"/><text text-anchor="middle" pointer-events="none" font-size="8px" fill="#000000" x="53.467341920833846" y="3" transform="rotate(180 53.467341920833846 0)" font-family="Helvetica Neue, Helvetica, Arial, sans-serif">OfficialName</text></g><g class="relationship" transform="translate(-121.46860225180181 187.5177808254507) rotate(280.462519741616)"><path class="b-outline" fill="#A5ABB6" stroke="none" d="M 25 0.5 L 57.610629458725455 0.5 L 57.610629458725455 -0.5 L 25 -0.5 Z M 88.82156695872546 0.5 L 121.43219641745091 0.5 L 121.43219641745091 3.5 L 128.4321964174509 0 L 121.43219641745091 -3.5 L 121.43219641745091 -0.5 L 88.82156695872546 -0.5 Z"/><text text-anchor="middle" pointer-events="none" font-size="8px" fill="#000000" x="73.21609820872546" y="3" font-family="Helvetica Neue, Helvetica, Arial, sans-serif">source</text></g><g class="relationship" transform="translate(50.76625195834982 180.56754623166435) rotate(224.91220591865795)"><path class="b-outline" fill="#A5ABB6" stroke="none" d="M 25 0.5 L 82.82541385015851 0.5 L 82.82541385015851 -0.5 L 25 -0.5 Z M 114.03635135015851 0.5 L 171.86176520031702 0.5 L 171.86176520031702 3.5 L 178.86176520031702 0 L 171.86176520031702 -3.5 L 171.86176520031702 -0.5 L 114.03635135015851 -0.5 Z"/><text text-anchor="middle" pointer-events="none" font-size="8px" fill="#000000" x="98.43088260015851" y="3" transform="rotate(180 98.43088260015851 0)" font-family="Helvetica Neue, Helvetica, Arial, sans-serif">source</text></g><g class="relationship" transform="translate(-233.49824869853933 -54.56083231494363) rotate(393.100893954531)"><path class="b-outline" fill="#A5ABB6" stroke="none" d="M 25 0.5 L 64.39103785024889 0.5 L 64.39103785024889 -0.5 L 25 -0.5 Z M 95.60197535024889 0.5 L 134.99301320049778 0.5 L 134.99301320049778 3.5 L 141.99301320049778 0 L 134.99301320049778 -3.5 L 134.99301320049778 -0.5 L 95.60197535024889 -0.5 Z"/><text text-anchor="middle" pointer-events="none" font-size="8px" fill="#000000" x="79.99650660024889" y="3" font-family="Helvetica Neue, Helvetica, Arial, sans-serif">source</text></g><g class="relationship" transform="translate(-7.665794168081389 -183.84067769265192) rotate(471.2955380611485)"><path class="b-outline" fill="#A5ABB6" stroke="none" d="M 25 0.5 L 99.21192018405546 0.5 L 99.21192018405546 -0.5 L 25 -0.5 Z M 130.42285768405546 0.5 L 204.63477786811092 0.5 L 204.63477786811092 3.5 L 211.63477786811092 0 L 204.63477786811092 -3.5 L 204.63477786811092 -0.5 L 130.42285768405546 -0.5 Z"/><text text-anchor="middle" pointer-events="none" font-size="8px" fill="#000000" x="114.81738893405546" y="3" transform="rotate(180 114.81738893405546 0)" font-family="Helvetica Neue, Helvetica, Arial, sans-serif">source</text></g><g class="relationship" transform="translate(-40.83205282496774 -91.29057914608569) rotate(472.4178699113469)"><path class="b-outline" fill="#A5ABB6" stroke="none" d="M 25 0.5 L 50.087189249245654 0.5 L 50.087189249245654 -0.5 L 25 -0.5 Z M 81.29812674924565 0.5 L 106.38531599849131 0.5 L 106.38531599849131 3.5 L 113.38531599849131 0 L 106.38531599849131 -3.5 L 106.38531599849131 -0.5 L 81.29812674924565 -0.5 Z"/><text text-anchor="middle" pointer-events="none" font-size="8px" fill="#000000" x="65.69265799924565" y="3" transform="rotate(180 65.69265799924565 0)" font-family="Helvetica Neue, Helvetica, Arial, sans-serif">source</text></g><g class="relationship" transform="translate(-37.04218603705856 136.2662654271275) rotate(240.41445224838304)"><path class="b-outline" fill="#A5ABB6" stroke="none" d="M 25 0.5 L 38.17803504001219 0.5 L 38.17803504001219 -0.5 L 25 -0.5 Z M 69.38897254001219 0.5 L 82.56700758002438 0.5 L 82.56700758002438 3.5 L 89.56700758002438 0 L 82.56700758002438 -3.5 L 82.56700758002438 -0.5 L 69.38897254001219 -0.5 Z"/><text text-anchor="middle" pointer-events="none" font-size="8px" fill="#000000" x="53.78350379001219" y="3" transform="rotate(180 53.78350379001219 0)" font-family="Helvetica Neue, Helvetica, Arial, sans-serif">source</text></g><g class="relationship" transform="translate(142.57780974972187 98.46296774989267) rotate(194.6692669020988)"><path class="b-outline" fill="#A5ABB6" stroke="none" d="M 25 0.5 L 102.96575231594663 0.5 L 102.96575231594663 -0.5 L 25 -0.5 Z M 134.17668981594665 0.5 L 212.14244213189326 0.5 L 212.14244213189326 3.5 L 219.14244213189326 0 L 212.14244213189326 -3.5 L 212.14244213189326 -0.5 L 134.17668981594665 -0.5 Z"/><text text-anchor="middle" pointer-events="none" font-size="8px" fill="#000000" x="118.57122106594663" y="3" transform="rotate(180 118.57122106594663 0)" font-family="Helvetica Neue, Helvetica, Arial, sans-serif">source</text></g><g class="relationship" transform="translate(-106.21870752519403 -179.56230706954216) rotate(446.66136889289857)"><path class="b-outline" fill="#A5ABB6" stroke="none" d="M 25 0.5 L 89.17774663740228 0.5 L 89.17774663740228 -0.5 L 25 -0.5 Z M 120.38868413740228 0.5 L 184.56643077480456 0.5 L 184.56643077480456 3.5 L 191.56643077480456 0 L 184.56643077480456 -3.5 L 184.56643077480456 -0.5 L 120.38868413740228 -0.5 Z"/><text text-anchor="middle" pointer-events="none" font-size="8px" fill="#000000" x="104.78321538740228" y="3" font-family="Helvetica Neue, Helvetica, Arial, sans-serif">source</text></g><g class="relationship" transform="translate(57.08589868997256 -108.16076362982518) rotate(496.142909197439)"><path class="b-outline" fill="#A5ABB6" stroke="none" d="M 25 0.5 L 85.38671312534159 0.5 L 85.38671312534159 -0.5 L 25 -0.5 Z M 116.59765062534159 0.5 L 176.98436375068317 0.5 L 176.98436375068317 3.5 L 183.98436375068317 0 L 176.98436375068317 -3.5 L 176.98436375068317 -0.5 L 116.59765062534159 -0.5 Z"/><text text-anchor="middle" pointer-events="none" font-size="8px" fill="#000000" x="100.99218187534159" y="3" transform="rotate(180 100.99218187534159 0)" font-family="Helvetica Neue, Helvetica, Arial, sans-serif">source</text></g><g class="relationship" transform="translate(-251.45842506056368 42.079592763647234) rotate(358.02511654151965)"><path class="b-outline" fill="#A5ABB6" stroke="none" d="M 25 0.5 L 59.86740187454505 0.5 L 59.86740187454505 -0.5 L 25 -0.5 Z M 91.07833937454505 0.5 L 125.9457412490901 0.5 L 125.9457412490901 3.5 L 132.9457412490901 0 L 125.9457412490901 -3.5 L 125.9457412490901 -0.5 L 91.07833937454505 -0.5 Z"/><text text-anchor="middle" pointer-events="none" font-size="8px" fill="#000000" x="75.47287062454505" y="3" font-family="Helvetica Neue, Helvetica, Arial, sans-serif">source</text></g><g class="relationship" transform="translate(-213.19117725089816 223.26642097408208) rotate(302.65006527578464)"><path class="b-outline" fill="#A5ABB6" stroke="none" d="M 25 0.5 L 91.72232496225116 0.5 L 91.72232496225116 -0.5 L 25 -0.5 Z M 122.93326246225116 0.5 L 189.65558742450233 0.5 L 189.65558742450233 3.5 L 196.65558742450233 0 L 189.65558742450233 -3.5 L 189.65558742450233 -0.5 L 122.93326246225116 -0.5 Z"/><text text-anchor="middle" pointer-events="none" font-size="8px" fill="#000000" x="107.32779371225116" y="3" font-family="Helvetica Neue, Helvetica, Arial, sans-serif">source</text></g><g class="relationship" transform="translate(-297.22461527691627 130.48648911054033) rotate(335.2544815331204)"><path class="b-outline" fill="#A5ABB6" stroke="none" d="M 25 0.5 L 92.99732568472267 0.5 L 92.99732568472267 -0.5 L 25 -0.5 Z M 124.20826318472267 0.5 L 192.20558886944534 0.5 L 192.20558886944534 3.5 L 199.20558886944534 0 L 192.20558886944534 -3.5 L 192.20558886944534 -0.5 L 124.20826318472267 -0.5 Z"/><text text-anchor="middle" pointer-events="none" font-size="8px" fill="#000000" x="108.60279443472267" y="3" font-family="Helvetica Neue, Helvetica, Arial, sans-serif">source</text></g><g class="relationship" transform="translate(24.28401747188254 -15.737623246301919) rotate(516.0462775926655)"><path class="b-outline" fill="#A5ABB6" stroke="none" d="M 25 0.5 L 45.39497535954342 0.5 L 45.39497535954342 -0.5 L 25 -0.5 Z M 76.60591285954342 0.5 L 97.00088821908685 0.5 L 97.00088821908685 3.5 L 104.00088821908685 0 L 97.00088821908685 -3.5 L 97.00088821908685 -0.5 L 76.60591285954342 -0.5 Z"/><text text-anchor="middle" pointer-events="none" font-size="8px" fill="#000000" x="61.00044410954342" y="3" transform="rotate(180 61.00044410954342 0)" font-family="Helvetica Neue, Helvetica, Arial, sans-serif">source</text></g><g class="relationship" transform="translate(-216.49907312672715 -150.9379617513875) rotate(416.7685196335708)"><path class="b-outline" fill="#A5ABB6" stroke="none" d="M 25 0.5 L 93.01810915710091 0.5 L 93.01810915710091 -0.5 L 25 -0.5 Z M 124.22904665710091 0.5 L 192.24715581420182 0.5 L 192.24715581420182 3.5 L 199.24715581420182 0 L 192.24715581420182 -3.5 L 192.24715581420182 -0.5 L 124.22904665710091 -0.5 Z"/><text text-anchor="middle" pointer-events="none" font-size="8px" fill="#000000" x="108.62357790710091" y="3" font-family="Helvetica Neue, Helvetica, Arial, sans-serif">source</text></g><g class="relationship" transform="translate(-34.30573220545436 232.37906308788357) rotate(253.14566093784413)"><path class="b-outline" fill="#A5ABB6" stroke="none" d="M 25 0.5 L 83.15853705051688 0.5 L 83.15853705051688 -0.5 L 25 -0.5 Z M 114.36947455051688 0.5 L 172.52801160103377 0.5 L 172.52801160103377 3.5 L 179.52801160103377 0 L 172.52801160103377 -3.5 L 172.52801160103377 -0.5 L 114.36947455051688 -0.5 Z"/><text text-anchor="middle" pointer-events="none" font-size="8px" fill="#000000" x="98.76400580051688" y="3" transform="rotate(180 98.76400580051688 0)" font-family="Helvetica Neue, Helvetica, Arial, sans-serif">source</text></g><g class="relationship" transform="translate(-140.38868192376103 -87.42083133659962) rotate(429.3384840904105)"><path class="b-outline" fill="#A5ABB6" stroke="none" d="M 25 0.5 L 47.18708282014262 0.5 L 47.18708282014262 -0.5 L 25 -0.5 Z M 78.39802032014262 0.5 L 100.58510314028524 0.5 L 100.58510314028524 3.5 L 107.58510314028524 0 L 100.58510314028524 -3.5 L 100.58510314028524 -0.5 L 78.39802032014262 -0.5 Z"/><text text-anchor="middle" pointer-events="none" font-size="8px" fill="#000000" x="62.79255157014262" y="3" font-family="Helvetica Neue, Helvetica, Arial, sans-serif">source</text></g></g><g class="layer nodes"><g class="node selected" aria-label="graph-node8" transform="translate(-93.60649888139461,36.636562334679)"><circle class="b-outline" cx="0" cy="0" r="25" fill="#569480" stroke="#447666" stroke-width="2px"/><text class="caption" text-anchor="middle" pointer-events="none" x="0" y="5" font-size="10px" fill="#FFFFFF" font-family="Helvetica Neue, Helvetica, Arial, sans-serif"> ba7b8f4…</text></g><g class="node" aria-label="graph-node9" transform="translate(-121.46860225180181,187.5177808254507)"><circle class="b-outline" cx="0" cy="0" r="25" fill="#C990C0" stroke="#b261a5" stroke-width="2px"/><text class="caption" text-anchor="middle" pointer-events="none" x="0" y="5" font-size="10px" fill="#FFFFFF" font-family="Helvetica Neue, Helvetica, Arial, sans-serif"> 乔治·W·…</text></g><g class="node" aria-label="graph-node10" transform="translate(-34.30573220545436,232.37906308788357)"><circle class="b-outline" cx="0" cy="0" r="25" fill="#C990C0" stroke="#b261a5" stroke-width="2px"/><text class="caption" text-anchor="middle" pointer-events="none" x="0" y="5" font-size="10px" fill="#FFFFFF" font-family="Helvetica Neue, Helvetica, Arial, sans-serif"> 汤姆·霍曼</text></g><g class="node" aria-label="graph-node11" transform="translate(-37.04218603705856,136.2662654271275)"><circle class="b-outline" cx="0" cy="0" r="25" fill="#C990C0" stroke="#b261a5" stroke-width="2px"/><text class="caption" text-anchor="middle" pointer-events="none" x="0" y="0" font-size="10px" fill="#FFFFFF" font-family="Helvetica Neue, Helvetica, Arial, sans-serif"> 唐纳德</text><text class="caption" text-anchor="middle" pointer-events="none" x="0" y="10" font-size="10px" fill="#FFFFFF" font-family="Helvetica Neue, Helvetica, Arial, sans-serif"> 特朗普</text></g><g class="node" aria-label="graph-node12" transform="translate(57.08589868997256,-108.16076362982518)"><circle class="b-outline" cx="0" cy="0" r="25" fill="#C990C0" stroke="#b261a5" stroke-width="2px"/><text class="caption" text-anchor="middle" pointer-events="none" x="0" y="5" font-size="10px" fill="#FFFFFF" font-family="Helvetica Neue, Helvetica, Arial, sans-serif"> 奥巴马</text></g><g class="node" aria-label="graph-node13" transform="translate(50.76625195834982,180.56754623166435)"><circle class="b-outline" cx="0" cy="0" r="25" fill="#C990C0" stroke="#b261a5" stroke-width="2px"/><text class="caption" text-anchor="middle" pointer-events="none" x="0" y="0" font-size="10px" fill="#FFFFFF" font-family="Helvetica Neue, Helvetica, Arial, sans-serif"> 托马斯</text><text class="caption" text-anchor="middle" pointer-events="none" x="0" y="10" font-size="10px" fill="#FFFFFF" font-family="Helvetica Neue, Helvetica, Arial, sans-serif"> 霍曼</text></g><g class="node" aria-label="graph-node14" transform="translate(45.71012497512165,81.86325986393935)"><circle class="b-outline" cx="0" cy="0" r="25" fill="#C990C0" stroke="#b261a5" stroke-width="2px"/><text class="caption" text-anchor="middle" pointer-events="none" x="0" y="0" font-size="10px" fill="#FFFFFF" font-family="Helvetica Neue, Helvetica, Arial, sans-serif"> 乔治 w</text><text class="caption" text-anchor="middle" pointer-events="none" x="0" y="10" font-size="10px" fill="#FFFFFF" font-family="Helvetica Neue, Helvetica, Arial, sans-serif"> 布什</text></g><g class="node" aria-label="graph-node15" transform="translate(120.80053414583048,2.0013615935661435)"><circle class="b-outline" cx="0" cy="0" r="25" fill="#C990C0" stroke="#b261a5" stroke-width="2px"/><text class="caption" text-anchor="middle" pointer-events="none" x="0" y="0" font-size="10px" fill="#FFFFFF" font-family="Helvetica Neue, Helvetica, Arial, sans-serif"> 乔治 沃克</text><text class="caption" text-anchor="middle" pointer-events="none" x="0" y="10" font-size="10px" fill="#FFFFFF" font-family="Helvetica Neue, Helvetica, Arial, sans-serif"> 布什</text></g><g class="node" aria-label="graph-node16" transform="translate(142.57780974972187,98.46296774989267)"><circle class="b-outline" cx="0" cy="0" r="25" fill="#C990C0" stroke="#b261a5" stroke-width="2px"/><text class="caption" text-anchor="middle" pointer-events="none" x="0" y="5" font-size="10px" fill="#FFFFFF" font-family="Helvetica Neue, Helvetica, Arial, sans-serif"> 汤姆 霍曼</text></g><g class="node" aria-label="graph-node17" transform="translate(24.28401747188254,-15.737623246301919)"><circle class="b-outline" cx="0" cy="0" r="25" fill="#C990C0" stroke="#b261a5" stroke-width="2px"/><text class="caption" text-anchor="middle" pointer-events="none" x="0" y="-5" font-size="10px" fill="#FFFFFF" font-family="Helvetica Neue, Helvetica, Arial, sans-serif"> 哈立德</text><text class="caption" text-anchor="middle" pointer-events="none" x="0" y="5" font-size="10px" fill="#FFFFFF" font-family="Helvetica Neue, Helvetica, Arial, sans-serif"> 谢赫</text><text class="caption" text-anchor="middle" pointer-events="none" x="0" y="15" font-size="10px" fill="#FFFFFF" font-family="Helvetica Neue, Helvetica, Arial, sans-serif"> 穆罕…</text></g><g class="node" aria-label="graph-node18" transform="translate(-7.665794168081389,-183.84067769265192)"><circle class="b-outline" cx="0" cy="0" r="25" fill="#C990C0" stroke="#b261a5" stroke-width="2px"/><text class="caption" text-anchor="middle" pointer-events="none" x="0" y="-5" font-size="10px" fill="#FFFFFF" font-family="Helvetica Neue, Helvetica, Arial, sans-serif"> 贝拉克</text><text class="caption" text-anchor="middle" pointer-events="none" x="0" y="5" font-size="10px" fill="#FFFFFF" font-family="Helvetica Neue, Helvetica, Arial, sans-serif"> 侯赛因</text><text class="caption" text-anchor="middle" pointer-events="none" x="0" y="15" font-size="10px" fill="#FFFFFF" font-family="Helvetica Neue, Helvetica, Arial, sans-serif"> 奥…</text></g><g class="node" aria-label="graph-node19" transform="translate(154.9498522776035,-91.27387741727772)"><circle class="b-outline" cx="0" cy="0" r="25" fill="#C990C0" stroke="#b261a5" stroke-width="2px"/><text class="caption" text-anchor="middle" pointer-events="none" x="0" y="5" font-size="10px" fill="#FFFFFF" font-family="Helvetica Neue, Helvetica, Arial, sans-serif"> 哈立德·…</text></g><g class="node" aria-label="graph-node20" transform="translate(-40.83205282496774,-91.29057914608569)"><circle class="b-outline" cx="0" cy="0" r="25" fill="#C990C0" stroke="#b261a5" stroke-width="2px"/><text class="caption" text-anchor="middle" pointer-events="none" x="0" y="5" font-size="10px" fill="#FFFFFF" font-family="Helvetica Neue, Helvetica, Arial, sans-serif"> 唐纳德·…</text></g><g class="node" aria-label="graph-node21" transform="translate(-140.38868192376103,-87.42083133659962)"><circle class="b-outline" cx="0" cy="0" r="25" fill="#57C7E3" stroke="#23b3d7" stroke-width="2px"/><text class="caption" text-anchor="middle" pointer-events="none" x="0" y="5" font-size="10px" fill="#2A2C34" font-family="Helvetica Neue, Helvetica, Arial, sans-serif"> 2001年9…</text></g><g class="node" aria-label="graph-node22" transform="translate(-106.21870752519403,-179.56230706954216)"><circle class="b-outline" cx="0" cy="0" r="25" fill="#4C8EDA" stroke="#2870c2" stroke-width="2px"/><text class="caption" text-anchor="middle" pointer-events="none" x="0" y="5" font-size="10px" fill="#FFFFFF" font-family="Helvetica Neue, Helvetica, Arial, sans-serif"> 移民及海…</text></g><g class="node" aria-label="graph-node23" transform="translate(-216.49907312672715,-150.9379617513875)"><circle class="b-outline" cx="0" cy="0" r="25" fill="#4C8EDA" stroke="#2870c2" stroke-width="2px"/><text class="caption" text-anchor="middle" pointer-events="none" x="0" y="5" font-size="10px" fill="#FFFFFF" font-family="Helvetica Neue, Helvetica, Arial, sans-serif"> 美国移民…</text></g><g class="node" aria-label="graph-node24" transform="translate(-233.49824869853933,-54.56083231494363)"><circle class="b-outline" cx="0" cy="0" r="25" fill="#57C7E3" stroke="#23b3d7" stroke-width="2px"/><text class="caption" text-anchor="middle" pointer-events="none" x="0" y="5" font-size="10px" fill="#2A2C34" font-family="Helvetica Neue, Helvetica, Arial, sans-serif"> 古巴</text></g><g class="node" aria-label="graph-node25" transform="translate(-297.22461527691627,130.48648911054033)"><circle class="b-outline" cx="0" cy="0" r="25" fill="#57C7E3" stroke="#23b3d7" stroke-width="2px"/><text class="caption" text-anchor="middle" pointer-events="none" x="0" y="0" font-size="10px" fill="#2A2C34" font-family="Helvetica Neue, Helvetica, Arial, sans-serif"> 9</text><text class="caption" text-anchor="middle" pointer-events="none" x="0" y="10" font-size="10px" fill="#2A2C34" font-family="Helvetica Neue, Helvetica, Arial, sans-serif"> 11恐怖…</text></g><g class="node" aria-label="graph-node26" transform="translate(-251.45842506056368,42.079592763647234)"><circle class="b-outline" cx="0" cy="0" r="25" fill="#57C7E3" stroke="#23b3d7" stroke-width="2px"/><text class="caption" text-anchor="middle" pointer-events="none" x="0" y="5" font-size="10px" fill="#2A2C34" font-family="Helvetica Neue, Helvetica, Arial, sans-serif"> 关塔那…</text></g><g class="node" aria-label="graph-node27" transform="translate(-198.14492297774916,125.89395072528887)"><circle class="b-outline" cx="0" cy="0" r="25" fill="#4C8EDA" stroke="#2870c2" stroke-width="2px"/><text class="caption" text-anchor="middle" pointer-events="none" x="0" y="5" font-size="10px" fill="#FFFFFF" font-family="Helvetica Neue, Helvetica, Arial, sans-serif"> 关塔那摩…</text></g><g class="node" aria-label="graph-node28" transform="translate(-213.19117725089816,223.26642097408208)"><circle class="b-outline" cx="0" cy="0" r="25" fill="#57C7E3" stroke="#23b3d7" stroke-width="2px"/><text class="caption" text-anchor="middle" pointer-events="none" x="0" y="0" font-size="10px" fill="#2A2C34" font-family="Helvetica Neue, Helvetica, Arial, sans-serif"> 2001年9</text><text class="caption" text-anchor="middle" pointer-events="none" x="0" y="10" font-size="10px" fill="#2A2C34" font-family="Helvetica Neue, Helvetica, Arial, sans-serif"> 11袭击…</text></g></g></svg>