<svg xmlns="http://www.w3.org/2000/svg" width="604.1370849609375" height="522.7446899414062" viewBox="-209.3901824951172 -282.02557373046875 604.1370849609375 522.7446899414062"><title>Neo4j Graph Visualization</title><desc>Created using Neo4j (http://www.neo4j.com/)</desc><g class="layer relationships"><g class="relationship" transform="translate(222.38753057184823 -253.02559349060368) rotate(507.90341190667306)"><path class="b-outline" fill="#A5ABB6" stroke="none" d="M 25 0.5 L 79.93757680771868 0.5 L 79.93757680771868 -0.5 L 25 -0.5 Z M 109.93757680771868 0.5 L 164.87515361543737 0.5 L 164.87515361543737 3.5 L 171.87515361543737 0 L 164.87515361543737 -3.5 L 164.87515361543737 -0.5 L 109.93757680771868 -0.5 Z"/><text text-anchor="middle" pointer-events="none" font-size="8px" fill="#000000" x="94.93757680771868" y="3" transform="rotate(180 94.93757680771868 0)" font-family="Helvetica Neue, Helvetica, Arial, sans-serif">关押着</text></g><g class="relationship" transform="translate(-45.7814878168874 -225.84530230204058) rotate(446.1763936440879)"><path class="b-outline" fill="#A5ABB6" stroke="none" d="M 25 0.5 L 40.39562775193289 0.5 L 40.39562775193289 -0.5 L 25 -0.5 Z M 62.39562775193289 0.5 L 77.79125550386578 0.5 L 77.79125550386578 3.5 L 84.79125550386578 0 L 77.79125550386578 -3.5 L 77.79125550386578 -0.5 L 62.39562775193289 -0.5 Z"/><text text-anchor="middle" pointer-events="none" font-size="8px" fill="#000000" x="51.39562775193289" y="3" font-family="Helvetica Neue, Helvetica, Arial, sans-serif">受到</text></g><g class="relationship" transform="translate(-115.25897043944612 207.58699850865773) rotate(272.4090090377887)"><path class="b-outline" fill="#A5ABB6" stroke="none" d="M 25 0.5 L 47.391557866473384 0.5 L 47.391557866473384 -0.5 L 25 -0.5 Z M 61.391557866473384 0.5 L 83.78311573294677 0.5 L 83.78311573294677 3.5 L 90.78311573294677 0 L 83.78311573294677 -3.5 L 83.78311573294677 -0.5 L 61.391557866473384 -0.5 Z"/><text text-anchor="middle" pointer-events="none" font-size="8px" fill="#000000" x="54.391557866473384" y="3" font-family="Helvetica Neue, Helvetica, Arial, sans-serif">称</text></g><g class="relationship" transform="translate(156.0094265990357 -4.575264947145352) rotate(184.58072233966976)"><path class="b-outline" fill="#A5ABB6" stroke="none" d="M 25 0.5 L 31.392546557387142 0.5 L 31.392546557387142 -0.5 L 25 -0.5 Z M 62.60348405738714 0.5 L 68.99603061477428 0.5 L 68.99603061477428 3.5 L 75.99603061477428 0 L 68.99603061477428 -3.5 L 68.99603061477428 -0.5 L 62.60348405738714 -0.5 Z"/><text text-anchor="middle" pointer-events="none" font-size="8px" fill="#000000" x="46.99801530738714" y="3" transform="rotate(180 46.99801530738714 0)" font-family="Helvetica Neue, Helvetica, Arial, sans-serif">source</text></g><g class="relationship" transform="translate(300.08136346329337 165.03842429791905) rotate(302.77512776689684)"><path class="b-outline" fill="#A5ABB6" stroke="none" d="M 6.953439040707552 24.018736134675446 L 17.306200844808384 62.65576918623819 A 17.916697508022974 17.916697508022974 0 1 1 -17.306200844808384 62.65576918623819 L -8.765172356425198 30.780216918698923 L -4.901469051268926 31.815493099109005 L -6.4704761275630185 24.148145657226706 L -11.662949835292403 30.00375978339136 L -7.79924653013613 31.039035963801442 L -16.340275018519314 62.91458823134071 A 16.916697508022974 16.916697508022974 0 1 0 16.340275018519314 62.91458823134071 L 5.987513214418485 24.277555179777966 Z"/><text text-anchor="middle" pointer-events="none" font-size="8px" fill="#000000" x="0" y="94.20964923467838" font-family="Helvetica Neue, Helvetica, Arial, sans-serif">被称为</text></g><g class="relationship" transform="translate(-45.7814878168874 -225.84530230204058) rotate(498.308516780883)"><path class="b-outline" fill="#A5ABB6" stroke="none" d="M 25 0.5 L 39.12408251968544 0.5 L 39.12408251968544 -0.5 L 25 -0.5 Z M 69.12408251968543 0.5 L 83.24816503937087 0.5 L 83.24816503937087 3.5 L 90.24816503937087 0 L 83.24816503937087 -3.5 L 83.24816503937087 -0.5 L 69.12408251968543 -0.5 Z"/><text text-anchor="middle" pointer-events="none" font-size="8px" fill="#000000" x="54.12408251968544" y="3" transform="rotate(180 54.12408251968544 0)" font-family="Helvetica Neue, Helvetica, Arial, sans-serif">被用来</text></g><g class="relationship" transform="translate(222.38753057184823 -253.02559349060368) rotate(537.9430827316062)"><path class="b-outline" fill="#A5ABB6" stroke="none" d="M 25 0.5 L 67.10749434322506 0.5 L 67.10749434322506 -0.5 L 25 -0.5 Z M 97.10749434322506 0.5 L 139.2149886864501 0.5 L 139.2149886864501 3.5 L 146.2149886864501 0 L 139.2149886864501 -3.5 L 139.2149886864501 -0.5 L 97.10749434322506 -0.5 Z"/><text text-anchor="middle" pointer-events="none" font-size="8px" fill="#000000" x="82.10749434322506" y="3" transform="rotate(180 82.10749434322506 0)" font-family="Helvetica Neue, Helvetica, Arial, sans-serif">设立于</text></g><g class="relationship" transform="translate(300.08136346329337 165.03842429791905) rotate(203.83431391993514)"><path class="b-outline" fill="#A5ABB6" stroke="none" d="M 25 0.5 L 65.6135545847835 0.5 L 65.6135545847835 -0.5 L 25 -0.5 Z M 103.6135545847835 0.5 L 144.227109169567 0.5 L 144.227109169567 3.5 L 151.227109169567 0 L 144.227109169567 -3.5 L 144.227109169567 -0.5 L 103.6135545847835 -0.5 Z"/><text text-anchor="middle" pointer-events="none" font-size="8px" fill="#000000" x="84.6135545847835" y="3" transform="rotate(180 84.6135545847835 0)" font-family="Helvetica Neue, Helvetica, Arial, sans-serif">主要关押</text></g><g class="relationship" transform="translate(-114.26017818910516 -52.6088495948446) rotate(491.54111281382876)"><path class="b-outline" fill="#A5ABB6" stroke="none" d="M 25 0.5 L 31.359955620010894 0.5 L 31.359955620010894 -0.5 L 25 -0.5 Z M 61.35995562001089 0.5 L 67.71991124002179 0.5 L 67.71991124002179 3.5 L 74.71991124002179 0 L 67.71991124002179 -3.5 L 67.71991124002179 -0.5 L 61.35995562001089 -0.5 Z"/><text text-anchor="middle" pointer-events="none" font-size="8px" fill="#000000" x="46.35995562001089" y="3" transform="rotate(180 46.35995562001089 0)" font-family="Helvetica Neue, Helvetica, Arial, sans-serif">以关押</text></g><g class="relationship" transform="translate(-115.25897043944612 207.58699850865773) rotate(316.88104348939726)"><path class="b-outline" fill="#A5ABB6" stroke="none" d="M 25 0.5 L 54.8175214927935 0.5 L 54.8175214927935 -0.5 L 25 -0.5 Z M 76.8175214927935 0.5 L 106.635042985587 0.5 L 106.635042985587 3.5 L 113.635042985587 0 L 106.635042985587 -3.5 L 106.635042985587 -0.5 L 76.8175214927935 -0.5 Z"/><text text-anchor="middle" pointer-events="none" font-size="8px" fill="#000000" x="65.8175214927935" y="3" font-family="Helvetica Neue, Helvetica, Arial, sans-serif">表示</text></g><g class="relationship" transform="translate(156.0094265990357 -4.575264947145352) rotate(533.449533426395)"><path class="b-outline" fill="#A5ABB6" stroke="none" d="M 25 0.5 L 82.35600920018385 0.5 L 82.35600920018385 -0.5 L 25 -0.5 Z M 112.35600920018385 0.5 L 169.7120184003677 0.5 L 169.7120184003677 3.5 L 176.7120184003677 0 L 169.7120184003677 -3.5 L 169.7120184003677 -0.5 L 112.35600920018385 -0.5 Z"/><text text-anchor="middle" pointer-events="none" font-size="8px" fill="#000000" x="97.35600920018385" y="3" transform="rotate(180 97.35600920018385 0)" font-family="Helvetica Neue, Helvetica, Arial, sans-serif">补充说</text></g><g class="relationship" transform="translate(300.08136346329337 165.03842429791905) rotate(255.40137331177084)"><path class="b-outline" fill="#A5ABB6" stroke="none" d="M 25 0.5 L 78.79803511294807 0.5 L 78.79803511294807 -0.5 L 25 -0.5 Z M 92.79803511294807 0.5 L 146.59607022589614 0.5 L 146.59607022589614 3.5 L 153.59607022589614 0 L 146.59607022589614 -3.5 L 146.59607022589614 -0.5 L 92.79803511294807 -0.5 Z"/><text text-anchor="middle" pointer-events="none" font-size="8px" fill="#000000" x="85.79803511294807" y="3" transform="rotate(180 85.79803511294807 0)" font-family="Helvetica Neue, Helvetica, Arial, sans-serif">在</text></g><g class="relationship" transform="translate(222.38753057184823 -253.02559349060368) rotate(508.0430342449081)"><path class="b-outline" fill="#A5ABB6" stroke="none" d="M 25 0.5 L 35.01099112234171 0.5 L 35.01099112234171 -0.5 L 25 -0.5 Z M 57.01099112234171 0.5 L 67.02198224468341 0.5 L 67.02198224468341 3.5 L 74.02198224468341 0 L 67.02198224468341 -3.5 L 67.02198224468341 -0.5 L 57.01099112234171 -0.5 Z"/><text text-anchor="middle" pointer-events="none" font-size="8px" fill="#000000" x="46.01099112234171" y="3" transform="rotate(180 46.01099112234171 0)" font-family="Helvetica Neue, Helvetica, Arial, sans-serif">用于</text></g><g class="relationship" transform="translate(222.38753057184823 -253.02559349060368) rotate(437.5634505538453)"><path class="b-outline" fill="#A5ABB6" stroke="none" d="M 25 0.5 L 55.836965843428246 0.5 L 55.836965843428246 -0.5 L 25 -0.5 Z M 85.83696584342825 0.5 L 116.67393168685649 0.5 L 116.67393168685649 3.5 L 123.67393168685649 0 L 116.67393168685649 -3.5 L 116.67393168685649 -0.5 L 85.83696584342825 -0.5 Z"/><text text-anchor="middle" pointer-events="none" font-size="8px" fill="#000000" x="70.83696584342825" y="3" font-family="Helvetica Neue, Helvetica, Arial, sans-serif">建立于</text></g><g class="relationship" transform="translate(300.08136346329337 165.03842429791905) rotate(530.1488822220228)"><path class="b-outline" fill="#A5ABB6" stroke="none" d="M 25 0.5 L 45.39434055999615 0.5 L 45.39434055999615 -0.5 L 25 -0.5 Z M 83.39434055999615 0.5 L 103.7886811199923 0.5 L 103.7886811199923 3.5 L 110.7886811199923 0 L 103.7886811199923 -3.5 L 103.7886811199923 -0.5 L 83.39434055999615 -0.5 Z"/><text text-anchor="middle" pointer-events="none" font-size="8px" fill="#000000" x="64.39434055999615" y="3" transform="rotate(180 64.39434055999615 0)" font-family="Helvetica Neue, Helvetica, Arial, sans-serif">大部分人</text></g><g class="relationship" transform="translate(222.38753057184823 -253.02559349060368) rotate(484.7967862244228)"><path class="b-outline" fill="#A5ABB6" stroke="none" d="M 25 0.5 L 127.25956112616555 0.5 L 127.25956112616555 -0.5 L 25 -0.5 Z M 158.47049862616555 0.5 L 260.7300597523311 0.5 L 260.7300597523311 3.5 L 267.7300597523311 0 L 260.7300597523311 -3.5 L 260.7300597523311 -0.5 L 158.47049862616555 -0.5 Z"/><text text-anchor="middle" pointer-events="none" font-size="8px" fill="#000000" x="142.86502987616555" y="3" transform="rotate(180 142.86502987616555 0)" font-family="Helvetica Neue, Helvetica, Arial, sans-serif">source</text></g><g class="relationship" transform="translate(300.08136346329337 165.03842429791905) rotate(215.97879944390212)"><path class="b-outline" fill="#A5ABB6" stroke="none" d="M 25 0.5 L 132.114843408542 0.5 L 132.114843408542 -0.5 L 25 -0.5 Z M 163.325780908542 0.5 L 270.440624317084 0.5 L 270.440624317084 3.5 L 277.440624317084 0 L 270.440624317084 -3.5 L 270.440624317084 -0.5 L 163.325780908542 -0.5 Z"/><text text-anchor="middle" pointer-events="none" font-size="8px" fill="#000000" x="147.720312158542" y="3" transform="rotate(180 147.720312158542 0)" font-family="Helvetica Neue, Helvetica, Arial, sans-serif">source</text></g><g class="relationship" transform="translate(222.38753057184823 -253.02559349060368) rotate(473.92144642198576)"><path class="b-outline" fill="#A5ABB6" stroke="none" d="M 25 0.5 L 67.13777747466486 0.5 L 67.13777747466486 -0.5 L 25 -0.5 Z M 89.13777747466486 0.5 L 131.27555494932972 0.5 L 131.27555494932972 3.5 L 138.27555494932972 0 L 131.27555494932972 -3.5 L 131.27555494932972 -0.5 L 89.13777747466486 -0.5 Z"/><text text-anchor="middle" pointer-events="none" font-size="8px" fill="#000000" x="78.13777747466486" y="3" transform="rotate(180 78.13777747466486 0)" font-family="Helvetica Neue, Helvetica, Arial, sans-serif">包括</text></g><g class="relationship" transform="translate(-15.880419568607145 211.71905571241126) rotate(287.61047811488606)"><path class="b-outline" fill="#A5ABB6" stroke="none" d="M 25 0.5 L 98.59041802526426 0.5 L 98.59041802526426 -0.5 L 25 -0.5 Z M 129.80135552526426 0.5 L 203.3917735505285 0.5 L 203.3917735505285 3.5 L 210.3917735505285 0 L 203.3917735505285 -3.5 L 203.3917735505285 -0.5 L 129.80135552526426 -0.5 Z"/><text text-anchor="middle" pointer-events="none" font-size="8px" fill="#000000" x="114.19588677526426" y="3" font-family="Helvetica Neue, Helvetica, Arial, sans-serif">source</text></g><g class="relationship" transform="translate(-110.3922873737718 91.90620803432175) rotate(327.7547940150454)"><path class="b-outline" fill="#A5ABB6" stroke="none" d="M 25 0.5 L 78.86904022030728 0.5 L 78.86904022030728 -0.5 L 25 -0.5 Z M 110.07997772030728 0.5 L 163.94901794061457 0.5 L 163.94901794061457 3.5 L 170.94901794061457 0 L 163.94901794061457 -3.5 L 163.94901794061457 -0.5 L 110.07997772030728 -0.5 Z"/><text text-anchor="middle" pointer-events="none" font-size="8px" fill="#000000" x="94.47450897030728" y="3" font-family="Helvetica Neue, Helvetica, Arial, sans-serif">source</text></g><g class="relationship" transform="translate(-115.25897043944612 207.58699850865773) rotate(362.3809277367501)"><path class="b-outline" fill="#A5ABB6" stroke="none" d="M 25 0.5 L 35.23220855221248 0.5 L 35.23220855221248 -0.5 L 25 -0.5 Z M 57.23220855221248 0.5 L 67.46441710442495 0.5 L 67.46441710442495 3.5 L 74.46441710442495 0 L 67.46441710442495 -3.5 L 67.46441710442495 -0.5 L 57.23220855221248 -0.5 Z"/><text text-anchor="middle" pointer-events="none" font-size="8px" fill="#000000" x="46.23220855221248" y="3" font-family="Helvetica Neue, Helvetica, Arial, sans-serif">表示</text></g><g class="relationship" transform="translate(-45.7814878168874 -225.84530230204058) rotate(424.62616346594496)"><path class="b-outline" fill="#A5ABB6" stroke="none" d="M 25 0.5 L 98.8783749205538 0.5 L 98.8783749205538 -0.5 L 25 -0.5 Z M 130.0893124205538 0.5 L 203.9676873411076 0.5 L 203.9676873411076 3.5 L 210.9676873411076 0 L 203.9676873411076 -3.5 L 203.9676873411076 -0.5 L 130.0893124205538 -0.5 Z"/><text text-anchor="middle" pointer-events="none" font-size="8px" fill="#000000" x="114.4838436705538" y="3" font-family="Helvetica Neue, Helvetica, Arial, sans-serif">source</text></g><g class="relationship" transform="translate(255.0669091767777 -7.791709664363175) rotate(181.39086532013397)"><path class="b-outline" fill="#A5ABB6" stroke="none" d="M 25 0.5 L 80.78941917211571 0.5 L 80.78941917211571 -0.5 L 25 -0.5 Z M 112.00035667211571 0.5 L 167.78977584423143 0.5 L 167.78977584423143 3.5 L 174.78977584423143 0 L 167.78977584423143 -3.5 L 167.78977584423143 -0.5 L 112.00035667211571 -0.5 Z"/><text text-anchor="middle" pointer-events="none" font-size="8px" fill="#000000" x="96.39488792211571" y="3" transform="rotate(180 96.39488792211571 0)" font-family="Helvetica Neue, Helvetica, Arial, sans-serif">source</text></g><g class="relationship" transform="translate(51.28286170052859 -246.88029924725762) rotate(449.00868669267624)"><path class="b-outline" fill="#A5ABB6" stroke="none" d="M 25 0.5 L 98.03162983662284 0.5 L 98.03162983662284 -0.5 L 25 -0.5 Z M 129.24256733662284 0.5 L 202.27419717324568 0.5 L 202.27419717324568 3.5 L 209.27419717324568 0 L 202.27419717324568 -3.5 L 202.27419717324568 -0.5 L 129.24256733662284 -0.5 Z"/><text text-anchor="middle" pointer-events="none" font-size="8px" fill="#000000" x="113.63709858662284" y="3" font-family="Helvetica Neue, Helvetica, Arial, sans-serif">source</text></g><g class="relationship" transform="translate(-180.39016465816962 22.029515789983968) rotate(351.63290770352467)"><path class="b-outline" fill="#A5ABB6" stroke="none" d="M 25 0.5 L 100.02563490580785 0.5 L 100.02563490580785 -0.5 L 25 -0.5 Z M 131.23657240580786 0.5 L 206.2622073116157 0.5 L 206.2622073116157 3.5 L 213.2622073116157 0 L 206.2622073116157 -3.5 L 206.2622073116157 -0.5 L 131.23657240580786 -0.5 Z"/><text text-anchor="middle" pointer-events="none" font-size="8px" fill="#000000" x="115.63110365580785" y="3" font-family="Helvetica Neue, Helvetica, Arial, sans-serif">source</text></g><g class="relationship" transform="translate(69.62106721738225 165.19910926171494) rotate(265.4075604462029)"><path class="b-outline" fill="#A5ABB6" stroke="none" d="M 25 0.5 L 70.10107070958608 0.5 L 70.10107070958608 -0.5 L 25 -0.5 Z M 101.31200820958608 0.5 L 146.41307891917216 0.5 L 146.41307891917216 3.5 L 153.41307891917216 0 L 146.41307891917216 -3.5 L 146.41307891917216 -0.5 L 101.31200820958608 -0.5 Z"/><text text-anchor="middle" pointer-events="none" font-size="8px" fill="#000000" x="85.70653945958608" y="3" transform="rotate(180 85.70653945958608 0)" font-family="Helvetica Neue, Helvetica, Arial, sans-serif">source</text></g><g class="relationship" transform="translate(-115.25897043944612 207.58699850865773) rotate(347.0868358723751)"><path class="b-outline" fill="#A5ABB6" stroke="none" d="M 25 0.5 L 72.33849624335227 0.5 L 72.33849624335227 -0.5 L 25 -0.5 Z M 110.33849624335227 0.5 L 157.67699248670453 0.5 L 157.67699248670453 3.5 L 164.67699248670453 0 L 157.67699248670453 -3.5 L 157.67699248670453 -0.5 L 110.33849624335227 -0.5 Z"/><text text-anchor="middle" pointer-events="none" font-size="8px" fill="#000000" x="91.33849624335227" y="3" font-family="Helvetica Neue, Helvetica, Arial, sans-serif">下令建设</text></g><g class="relationship" transform="translate(156.18194244597132 -103.7750425873714) rotate(497.8960677895728)"><path class="b-outline" fill="#A5ABB6" stroke="none" d="M 25 0.5 L 48.856447409990935 0.5 L 48.856447409990935 -0.5 L 25 -0.5 Z M 80.06738490999093 0.5 L 103.92383231998187 0.5 L 103.92383231998187 3.5 L 110.92383231998187 0 L 103.92383231998187 -3.5 L 103.92383231998187 -0.5 L 80.06738490999093 -0.5 Z"/><text text-anchor="middle" pointer-events="none" font-size="8px" fill="#000000" x="64.46191615999093" y="3" transform="rotate(180 64.46191615999093 0)" font-family="Helvetica Neue, Helvetica, Arial, sans-serif">source</text></g><g class="relationship" transform="translate(236.90969445385446 88.94193837777897) rotate(209.22523954467192)"><path class="b-outline" fill="#A5ABB6" stroke="none" d="M 25 0.5 L 84.92353528385208 0.5 L 84.92353528385208 -0.5 L 25 -0.5 Z M 116.13447278385208 0.5 L 176.05800806770415 0.5 L 176.05800806770415 3.5 L 183.05800806770415 0 L 176.05800806770415 -3.5 L 176.05800806770415 -0.5 L 116.13447278385208 -0.5 Z"/><text text-anchor="middle" pointer-events="none" font-size="8px" fill="#000000" x="100.52900403385208" y="3" transform="rotate(180 100.52900403385208 0)" font-family="Helvetica Neue, Helvetica, Arial, sans-serif">source</text></g><g class="relationship" transform="translate(156.0094265990357 -4.575264947145352) rotate(409.13743064272813)"><path class="b-outline" fill="#A5ABB6" stroke="none" d="M 25 0.5 L 39.32701807603343 0.5 L 39.32701807603343 -0.5 L 25 -0.5 Z M 77.32701807603343 0.5 L 91.65403615206687 0.5 L 91.65403615206687 3.5 L 98.65403615206687 0 L 91.65403615206687 -3.5 L 91.65403615206687 -0.5 L 77.32701807603343 -0.5 Z"/><text text-anchor="middle" pointer-events="none" font-size="8px" fill="#000000" x="58.32701807603343" y="3" font-family="Helvetica Neue, Helvetica, Arial, sans-serif">告诉记者</text></g><g class="relationship" transform="translate(-115.25897043944612 207.58699850865773) rotate(307.76237637254206)"><path class="b-outline" fill="#A5ABB6" stroke="none" d="M 25 0.5 L 120.18118470711462 0.5 L 120.18118470711462 -0.5 L 25 -0.5 Z M 151.39212220711462 0.5 L 246.57330691422925 0.5 L 246.57330691422925 3.5 L 253.57330691422925 0 L 246.57330691422925 -3.5 L 246.57330691422925 -0.5 L 151.39212220711462 -0.5 Z"/><text text-anchor="middle" pointer-events="none" font-size="8px" fill="#000000" x="135.78665345711462" y="3" font-family="Helvetica Neue, Helvetica, Arial, sans-serif">source</text></g><g class="relationship" transform="translate(-38.46005820882932 -116.29843354893843) rotate(407.8590899396969)"><path class="b-outline" fill="#A5ABB6" stroke="none" d="M 25 0.5 L 50.79182926849903 0.5 L 50.79182926849903 -0.5 L 25 -0.5 Z M 82.00276676849903 0.5 L 107.79459603699806 0.5 L 107.79459603699806 3.5 L 114.79459603699806 0 L 107.79459603699806 -3.5 L 107.79459603699806 -0.5 L 82.00276676849903 -0.5 Z"/><text text-anchor="middle" pointer-events="none" font-size="8px" fill="#000000" x="66.39729801849903" y="3" font-family="Helvetica Neue, Helvetica, Arial, sans-serif">source</text></g><g class="relationship" transform="translate(138.88328560193975 93.82625047863831) rotate(231.87795461812817)"><path class="b-outline" fill="#A5ABB6" stroke="none" d="M 25 0.5 L 48.561842801037756 0.5 L 48.561842801037756 -0.5 L 25 -0.5 Z M 79.77278030103776 0.5 L 103.33462310207551 0.5 L 103.33462310207551 3.5 L 110.33462310207551 0 L 103.33462310207551 -3.5 L 103.33462310207551 -0.5 L 79.77278030103776 -0.5 Z"/><text text-anchor="middle" pointer-events="none" font-size="8px" fill="#000000" x="64.16731155103776" y="3" transform="rotate(180 64.16731155103776 0)" font-family="Helvetica Neue, Helvetica, Arial, sans-serif">source</text></g><g class="relationship" transform="translate(254.4056973398306 -107.84028101015426) rotate(514.4419399233993)"><path class="b-outline" fill="#A5ABB6" stroke="none" d="M 25 0.5 L 91.22541668457568 0.5 L 91.22541668457568 -0.5 L 25 -0.5 Z M 122.43635418457568 0.5 L 188.66177086915135 0.5 L 188.66177086915135 3.5 L 195.66177086915135 0 L 188.66177086915135 -3.5 L 188.66177086915135 -0.5 L 122.43635418457568 -0.5 Z"/><text text-anchor="middle" pointer-events="none" font-size="8px" fill="#000000" x="106.83088543457568" y="3" transform="rotate(180 106.83088543457568 0)" font-family="Helvetica Neue, Helvetica, Arial, sans-serif">source</text></g><g class="relationship" transform="translate(138.37273834236467 -200.61502533585931) rotate(473.83326332107055)"><path class="b-outline" fill="#A5ABB6" stroke="none" d="M 25 0.5 L 83.64334173776382 0.5 L 83.64334173776382 -0.5 L 25 -0.5 Z M 114.85427923776382 0.5 L 173.49762097552764 0.5 L 173.49762097552764 3.5 L 180.49762097552764 0 L 173.49762097552764 -3.5 L 173.49762097552764 -0.5 L 114.85427923776382 -0.5 Z"/><text text-anchor="middle" pointer-events="none" font-size="8px" fill="#000000" x="99.24881048776382" y="3" transform="rotate(180 99.24881048776382 0)" font-family="Helvetica Neue, Helvetica, Arial, sans-serif">source</text></g><g class="relationship" transform="translate(55.60404249652699 -148.41634812227477) rotate(450.1131124205575)"><path class="b-outline" fill="#A5ABB6" stroke="none" d="M 25 0.5 L 48.782254616304215 0.5 L 48.782254616304215 -0.5 L 25 -0.5 Z M 79.99319211630421 0.5 L 103.77544673260843 0.5 L 103.77544673260843 3.5 L 110.77544673260843 0 L 103.77544673260843 -3.5 L 103.77544673260843 -0.5 L 79.99319211630421 -0.5 Z"/><text text-anchor="middle" pointer-events="none" font-size="8px" fill="#000000" x="64.38772336630421" y="3" transform="rotate(180 64.38772336630421 0)" font-family="Helvetica Neue, Helvetica, Arial, sans-serif">source</text></g><g class="relationship" transform="translate(166.29479819541405 188.27031776639075) rotate(241.08913730101563)"><path class="b-outline" fill="#A5ABB6" stroke="none" d="M 25 0.5 L 95.65218881227754 0.5 L 95.65218881227754 -0.5 L 25 -0.5 Z M 126.86312631227754 0.5 L 197.5153151245551 0.5 L 197.5153151245551 3.5 L 204.5153151245551 0 L 197.5153151245551 -3.5 L 197.5153151245551 -0.5 L 126.86312631227754 -0.5 Z"/><text text-anchor="middle" pointer-events="none" font-size="8px" fill="#000000" x="111.25765756227754" y="3" transform="rotate(180 111.25765756227754 0)" font-family="Helvetica Neue, Helvetica, Arial, sans-serif">source</text></g><g class="relationship" transform="translate(-14.06423770149178 112.8278237037369) rotate(298.94814804022394)"><path class="b-outline" fill="#A5ABB6" stroke="none" d="M 25 0.5 L 52.586336811289215 0.5 L 52.586336811289215 -0.5 L 25 -0.5 Z M 83.79727431128921 0.5 L 111.38361112257843 0.5 L 111.38361112257843 3.5 L 118.38361112257843 0 L 111.38361112257843 -3.5 L 111.38361112257843 -0.5 L 83.79727431128921 -0.5 Z"/><text text-anchor="middle" pointer-events="none" font-size="8px" fill="#000000" x="68.19180556128921" y="3" font-family="Helvetica Neue, Helvetica, Arial, sans-serif">source</text></g><g class="relationship" transform="translate(-131.841563492915 -149.19151622738886) rotate(396.11161404868307)"><path class="b-outline" fill="#A5ABB6" stroke="none" d="M 25 0.5 L 96.7408057706663 0.5 L 96.7408057706663 -0.5 L 25 -0.5 Z M 127.9517432706663 0.5 L 199.6925490413326 0.5 L 199.6925490413326 3.5 L 206.6925490413326 0 L 199.6925490413326 -3.5 L 199.6925490413326 -0.5 L 127.9517432706663 -0.5 Z"/><text text-anchor="middle" pointer-events="none" font-size="8px" fill="#000000" x="112.3462745206663" y="3" font-family="Helvetica Neue, Helvetica, Arial, sans-serif">source</text></g><g class="relationship" transform="translate(-114.26017818910516 -52.6088495948446) rotate(373.2605898000611)"><path class="b-outline" fill="#A5ABB6" stroke="none" d="M 25 0.5 L 68.01553668246413 0.5 L 68.01553668246413 -0.5 L 25 -0.5 Z M 99.22647418246413 0.5 L 142.24201086492826 0.5 L 142.24201086492826 3.5 L 149.24201086492826 0 L 142.24201086492826 -3.5 L 142.24201086492826 -0.5 L 99.22647418246413 -0.5 Z"/><text text-anchor="middle" pointer-events="none" font-size="8px" fill="#000000" x="83.62100543246413" y="3" font-family="Helvetica Neue, Helvetica, Arial, sans-serif">source</text></g><g class="relationship" transform="translate(-44.38576733231756 18.43570235902405) rotate(342.6910980249651)"><path class="b-outline" fill="#A5ABB6" stroke="none" d="M 25 0.5 L 33.120487473512036 0.5 L 33.120487473512036 -0.5 L 25 -0.5 Z M 64.33142497351204 0.5 L 72.45191244702407 0.5 L 72.45191244702407 3.5 L 79.45191244702407 0 L 72.45191244702407 -3.5 L 72.45191244702407 -0.5 L 64.33142497351204 -0.5 Z"/><text text-anchor="middle" pointer-events="none" font-size="8px" fill="#000000" x="48.725956223512036" y="3" font-family="Helvetica Neue, Helvetica, Arial, sans-serif">source</text></g></g><g class="layer nodes"><g class="node" aria-label="graph-node0" transform="translate(-14.06423770149178,112.8278237037369)"><circle class="b-outline" cx="0" cy="0" r="25" fill="#DA7194" stroke="#cc3c6c" stroke-width="2px"/><text class="caption" text-anchor="middle" pointer-events="none" x="0" y="5" font-size="10px" fill="#FFFFFF" font-family="Helvetica Neue, Helvetica, Arial, sans-serif"> 要把他们…</text></g><g class="node" aria-label="graph-node1" transform="translate(166.29479819541405,188.27031776639075)"><circle class="b-outline" cx="0" cy="0" r="25" fill="#DA7194" stroke="#cc3c6c" stroke-width="2px"/><text class="caption" text-anchor="middle" pointer-events="none" x="0" y="5" font-size="10px" fill="#FFFFFF" font-family="Helvetica Neue, Helvetica, Arial, sans-serif"> 来自海地…</text></g><g class="node" aria-label="graph-node2" transform="translate(-38.46005820882932,-116.29843354893843)"><circle class="b-outline" cx="0" cy="0" r="25" fill="#DA7194" stroke="#cc3c6c" stroke-width="2px"/><text class="caption" text-anchor="middle" pointer-events="none" x="0" y="5" font-size="10px" fill="#FFFFFF" font-family="Helvetica Neue, Helvetica, Arial, sans-serif"> 人权组织…</text></g><g class="node" aria-label="graph-node3" transform="translate(-15.880419568607145,211.71905571241126)"><circle class="b-outline" cx="0" cy="0" r="25" fill="#DA7194" stroke="#cc3c6c" stroke-width="2px"/><text class="caption" text-anchor="middle" pointer-events="none" x="0" y="5" font-size="10px" fill="#FFFFFF" font-family="Helvetica Neue, Helvetica, Arial, sans-serif"> 设施将可…</text></g><g class="node" aria-label="graph-node4" transform="translate(-110.3922873737718,91.90620803432175)"><circle class="b-outline" cx="0" cy="0" r="25" fill="#DA7194" stroke="#cc3c6c" stroke-width="2px"/><text class="caption" text-anchor="middle" pointer-events="none" x="0" y="5" font-size="10px" fill="#FFFFFF" font-family="Helvetica Neue, Helvetica, Arial, sans-serif"> 将用来关…</text></g><g class="node" aria-label="graph-node5" transform="translate(69.62106721738225,165.19910926171494)"><circle class="b-outline" cx="0" cy="0" r="25" fill="#DA7194" stroke="#cc3c6c" stroke-width="2px"/><text class="caption" text-anchor="middle" pointer-events="none" x="0" y="5" font-size="10px" fill="#FFFFFF" font-family="Helvetica Neue, Helvetica, Arial, sans-serif"> 移民拘留…</text></g><g class="node" aria-label="graph-node6" transform="translate(236.90969445385446,88.94193837777897)"><circle class="b-outline" cx="0" cy="0" r="25" fill="#DA7194" stroke="#cc3c6c" stroke-width="2px"/><text class="caption" text-anchor="middle" pointer-events="none" x="0" y="5" font-size="10px" fill="#FFFFFF" font-family="Helvetica Neue, Helvetica, Arial, sans-serif"> 我们只是…</text></g><g class="node" aria-label="graph-node7" transform="translate(55.335996933891444,-12.641165975404732)"><circle class="b-outline" cx="0" cy="0" r="25" fill="#569480" stroke="#447666" stroke-width="2px"/><text class="caption" text-anchor="middle" pointer-events="none" x="0" y="5" font-size="10px" fill="#FFFFFF" font-family="Helvetica Neue, Helvetica, Arial, sans-serif"> ba7b8f4…</text></g><g class="node" aria-label="graph-node42" transform="translate(300.08136346329337,165.03842429791905)"><circle class="b-outline" cx="0" cy="0" r="25" fill="#DA7194" stroke="#cc3c6c" stroke-width="2px"/><text class="caption" text-anchor="middle" pointer-events="none" x="0" y="5" font-size="10px" fill="#FFFFFF" font-family="Helvetica Neue, Helvetica, Arial, sans-serif"> 关塔那摩…</text></g><g class="node" aria-label="graph-node43" transform="translate(254.4056973398306,-107.84028101015426)"><circle class="b-outline" cx="0" cy="0" r="25" fill="#DA7194" stroke="#cc3c6c" stroke-width="2px"/><text class="caption" text-anchor="middle" pointer-events="none" x="0" y="5" font-size="10px" fill="#FFFFFF" font-family="Helvetica Neue, Helvetica, Arial, sans-serif"> 2002年</text></g><g class="node" aria-label="graph-node44" transform="translate(222.38753057184823,-253.02559349060368)"><circle class="b-outline" cx="0" cy="0" r="25" fill="#DA7194" stroke="#cc3c6c" stroke-width="2px"/><text class="caption" text-anchor="middle" pointer-events="none" x="0" y="5" font-size="10px" fill="#FFFFFF" font-family="Helvetica Neue, Helvetica, Arial, sans-serif"> 军事拘留…</text></g><g class="node" aria-label="graph-node45" transform="translate(156.0094265990357,-4.575264947145352)"><circle class="b-outline" cx="0" cy="0" r="25" fill="#DA7194" stroke="#cc3c6c" stroke-width="2px"/><text class="caption" text-anchor="middle" pointer-events="none" x="0" y="5" font-size="10px" fill="#FFFFFF" font-family="Helvetica Neue, Helvetica, Arial, sans-serif"> 汤姆 霍曼</text></g><g class="node" aria-label="graph-node46" transform="translate(51.28286170052859,-246.88029924725762)"><circle class="b-outline" cx="0" cy="0" r="25" fill="#DA7194" stroke="#cc3c6c" stroke-width="2px"/><text class="caption" text-anchor="middle" pointer-events="none" x="0" y="0" font-size="10px" fill="#FFFFFF" font-family="Helvetica Neue, Helvetica, Arial, sans-serif"> 乔治 w</text><text class="caption" text-anchor="middle" pointer-events="none" x="0" y="10" font-size="10px" fill="#FFFFFF" font-family="Helvetica Neue, Helvetica, Arial, sans-serif"> 布什总…</text></g><g class="node" aria-label="graph-node47" transform="translate(-45.7814878168874,-225.84530230204058)"><circle class="b-outline" cx="0" cy="0" r="25" fill="#DA7194" stroke="#cc3c6c" stroke-width="2px"/><text class="caption" text-anchor="middle" pointer-events="none" x="0" y="5" font-size="10px" fill="#FFFFFF" font-family="Helvetica Neue, Helvetica, Arial, sans-serif"> 关塔那…</text></g><g class="node" aria-label="graph-node48" transform="translate(55.60404249652699,-148.41634812227477)"><circle class="b-outline" cx="0" cy="0" r="25" fill="#DA7194" stroke="#cc3c6c" stroke-width="2px"/><text class="caption" text-anchor="middle" pointer-events="none" x="0" y="5" font-size="10px" fill="#FFFFFF" font-family="Helvetica Neue, Helvetica, Arial, sans-serif"> 15名被拘…</text></g><g class="node" aria-label="graph-node49" transform="translate(-131.841563492915,-149.19151622738886)"><circle class="b-outline" cx="0" cy="0" r="25" fill="#DA7194" stroke="#cc3c6c" stroke-width="2px"/><text class="caption" text-anchor="middle" pointer-events="none" x="0" y="5" font-size="10px" fill="#FFFFFF" font-family="Helvetica Neue, Helvetica, Arial, sans-serif"> 关押移民</text></g><g class="node" aria-label="graph-node50" transform="translate(-180.39016465816962,22.029515789983968)"><circle class="b-outline" cx="0" cy="0" r="25" fill="#DA7194" stroke="#cc3c6c" stroke-width="2px"/><text class="caption" text-anchor="middle" pointer-events="none" x="0" y="0" font-size="10px" fill="#FFFFFF" font-family="Helvetica Neue, Helvetica, Arial, sans-serif"> 2001年9</text><text class="caption" text-anchor="middle" pointer-events="none" x="0" y="10" font-size="10px" fill="#FFFFFF" font-family="Helvetica Neue, Helvetica, Arial, sans-serif"> 11袭击…</text></g><g class="node" aria-label="graph-node51" transform="translate(-114.26017818910516,-52.6088495948446)"><circle class="b-outline" cx="0" cy="0" r="25" fill="#DA7194" stroke="#cc3c6c" stroke-width="2px"/><text class="caption" text-anchor="middle" pointer-events="none" x="0" y="5" font-size="10px" fill="#FFFFFF" font-family="Helvetica Neue, Helvetica, Arial, sans-serif"> 美国海军…</text></g><g class="node" aria-label="graph-node52" transform="translate(-115.25897043944612,207.58699850865773)"><circle class="b-outline" cx="0" cy="0" r="25" fill="#DA7194" stroke="#cc3c6c" stroke-width="2px"/><text class="caption" text-anchor="middle" pointer-events="none" x="0" y="0" font-size="10px" fill="#FFFFFF" font-family="Helvetica Neue, Helvetica, Arial, sans-serif"> 唐纳德</text><text class="caption" text-anchor="middle" pointer-events="none" x="0" y="10" font-size="10px" fill="#FFFFFF" font-family="Helvetica Neue, Helvetica, Arial, sans-serif"> 特朗普</text></g><g class="node" aria-label="graph-node53" transform="translate(-44.38576733231756,18.43570235902405)"><circle class="b-outline" cx="0" cy="0" r="25" fill="#DA7194" stroke="#cc3c6c" stroke-width="2px"/><text class="caption" text-anchor="middle" pointer-events="none" x="0" y="5" font-size="10px" fill="#FFFFFF" font-family="Helvetica Neue, Helvetica, Arial, sans-serif"> 该设施将…</text></g><g class="node" aria-label="graph-node54" transform="translate(255.0669091767777,-7.791709664363175)"><circle class="b-outline" cx="0" cy="0" r="25" fill="#DA7194" stroke="#cc3c6c" stroke-width="2px"/><text class="caption" text-anchor="middle" pointer-events="none" x="0" y="5" font-size="10px" fill="#FFFFFF" font-family="Helvetica Neue, Helvetica, Arial, sans-serif"> 不同的共…</text></g><g class="node" aria-label="graph-node55" transform="translate(156.18194244597132,-103.7750425873714)"><circle class="b-outline" cx="0" cy="0" r="25" fill="#DA7194" stroke="#cc3c6c" stroke-width="2px"/><text class="caption" text-anchor="middle" pointer-events="none" x="0" y="-5" font-size="10px" fill="#FFFFFF" font-family="Helvetica Neue, Helvetica, Arial, sans-serif"> 哈立德</text><text class="caption" text-anchor="middle" pointer-events="none" x="0" y="5" font-size="10px" fill="#FFFFFF" font-family="Helvetica Neue, Helvetica, Arial, sans-serif"> 谢赫</text><text class="caption" text-anchor="middle" pointer-events="none" x="0" y="15" font-size="10px" fill="#FFFFFF" font-family="Helvetica Neue, Helvetica, Arial, sans-serif"> 穆罕…</text></g><g class="node" aria-label="graph-node56" transform="translate(138.37273834236467,-200.61502533585931)"><circle class="b-outline" cx="0" cy="0" r="25" fill="#DA7194" stroke="#cc3c6c" stroke-width="2px"/><text class="caption" text-anchor="middle" pointer-events="none" x="0" y="5" font-size="10px" fill="#FFFFFF" font-family="Helvetica Neue, Helvetica, Arial, sans-serif"> 关押在…</text></g><g class="node" aria-label="graph-node57" transform="translate(138.88328560193975,93.82625047863831)"><circle class="b-outline" cx="0" cy="0" r="25" fill="#DA7194" stroke="#cc3c6c" stroke-width="2px"/><text class="caption" text-anchor="middle" pointer-events="none" x="0" y="5" font-size="10px" fill="#FFFFFF" font-family="Helvetica Neue, Helvetica, Arial, sans-serif"> 那些试图…</text></g></g></svg>