<svg xmlns="http://www.w3.org/2000/svg" width="795.0130615234375" height="494.17010498046875" viewBox="-409.6777038574219 -156.5373992919922 795.0130615234375 494.17010498046875"><title>Neo4j Graph Visualization</title><desc>Created using Neo4j (http://www.neo4j.com/)</desc><g class="layer relationships"><g class="relationship" transform="translate(-354.05727948259977 231.92603748369467) rotate(332.3534534121402)"><path class="b-outline" fill="#A5ABB6" stroke="none" d="M 25 0.5 L 91.55130332706301 0.5 L 91.55130332706301 -0.5 L 25 -0.5 Z M 122.76224082706301 0.5 L 189.31354415412602 0.5 L 189.31354415412602 3.5 L 196.31354415412602 0 L 189.31354415412602 -3.5 L 189.31354415412602 -0.5 L 122.76224082706301 -0.5 Z"/><text text-anchor="middle" pointer-events="none" font-size="8px" fill="#000000" x="107.15677207706301" y="3" font-family="Helvetica Neue, Helvetica, Arial, sans-serif">source</text></g><g class="relationship" transform="translate(-187.9522421157302 308.63266991775583) rotate(279.4749127079092)"><path class="b-outline" fill="#A5ABB6" stroke="none" d="M 25 0.5 L 71.83497100965702 0.5 L 71.83497100965702 -0.5 L 25 -0.5 Z M 103.04590850965702 0.5 L 149.88087951931405 0.5 L 149.88087951931405 3.5 L 156.88087951931405 0 L 149.88087951931405 -3.5 L 149.88087951931405 -0.5 L 103.04590850965702 -0.5 Z"/><text text-anchor="middle" pointer-events="none" font-size="8px" fill="#000000" x="87.44043975965702" y="3" font-family="Helvetica Neue, Helvetica, Arial, sans-serif">source</text></g><g class="relationship" transform="translate(-65.59573210440642 304.608678811457) rotate(242.2125341396257)"><path class="b-outline" fill="#A5ABB6" stroke="none" d="M 25 0.5 L 80.01231241088524 0.5 L 80.01231241088524 -0.5 L 25 -0.5 Z M 111.22324991088524 0.5 L 166.2355623217705 0.5 L 166.2355623217705 3.5 L 173.2355623217705 0 L 166.2355623217705 -3.5 L 166.2355623217705 -0.5 L 111.22324991088524 -0.5 Z"/><text text-anchor="middle" pointer-events="none" font-size="8px" fill="#000000" x="95.61778116088524" y="3" transform="rotate(180 95.61778116088524 0)" font-family="Helvetica Neue, Helvetica, Arial, sans-serif">source</text></g><g class="relationship" transform="translate(-130.3613756101678 229.5874340683534) rotate(254.5956440725201)"><path class="b-outline" fill="#A5ABB6" stroke="none" d="M 25 0.5 L 32.941499327491925 0.5 L 32.941499327491925 -0.5 L 25 -0.5 Z M 64.15243682749193 0.5 L 72.09393615498385 0.5 L 72.09393615498385 3.5 L 79.09393615498385 0 L 72.09393615498385 -3.5 L 72.09393615498385 -0.5 L 64.15243682749193 -0.5 Z"/><text text-anchor="middle" pointer-events="none" font-size="8px" fill="#000000" x="48.546968077491925" y="3" transform="rotate(180 48.546968077491925 0)" font-family="Helvetica Neue, Helvetica, Arial, sans-serif">source</text></g><g class="relationship" transform="translate(221.942924510099 170.19811479706755) rotate(186.1536115683242)"><path class="b-outline" fill="#A5ABB6" stroke="none" d="M 25 0.5 L 171.97286536115016 0.5 L 171.97286536115016 -0.5 L 25 -0.5 Z M 203.18380286115016 0.5 L 350.1566682223003 0.5 L 350.1566682223003 3.5 L 357.1566682223003 0 L 350.1566682223003 -3.5 L 350.1566682223003 -0.5 L 203.18380286115016 -0.5 Z"/><text text-anchor="middle" pointer-events="none" font-size="8px" fill="#000000" x="187.57833411115016" y="3" transform="rotate(180 187.57833411115016 0)" font-family="Helvetica Neue, Helvetica, Arial, sans-serif">source</text></g><g class="relationship" transform="translate(-289.8064533487914 -40.49239453264298) rotate(412.1700588433596)"><path class="b-outline" fill="#A5ABB6" stroke="none" d="M 25 0.5 L 88.33819187363426 0.5 L 88.33819187363426 -0.5 L 25 -0.5 Z M 119.54912937363426 0.5 L 182.88732124726852 0.5 L 182.88732124726852 3.5 L 189.88732124726852 0 L 182.88732124726852 -3.5 L 182.88732124726852 -0.5 L 119.54912937363426 -0.5 Z"/><text text-anchor="middle" pointer-events="none" font-size="8px" fill="#000000" x="103.94366062363426" y="3" font-family="Helvetica Neue, Helvetica, Arial, sans-serif">source</text></g><g class="relationship" transform="translate(221.942924510099 170.19811479706755) rotate(335.0559924844998)"><path class="b-outline" fill="#A5ABB6" stroke="none" d="M 25 0.5 L 42.68523965445837 0.5 L 42.68523965445837 -0.5 L 25 -0.5 Z M 98.53289590445837 0.5 L 116.21813555891674 0.5 L 116.21813555891674 3.5 L 123.21813555891674 0 L 116.21813555891674 -3.5 L 116.21813555891674 -0.5 L 98.53289590445837 -0.5 Z"/><text text-anchor="middle" pointer-events="none" font-size="8px" fill="#000000" x="70.60906777945837" y="3" font-family="Helvetica Neue, Helvetica, Arial, sans-serif">OfficialName</text></g><g class="relationship" transform="translate(87.4922623632832 64.16721173593001) rotate(525.1561885448403)"><path class="b-outline" fill="#A5ABB6" stroke="none" d="M 25 0.5 L 107.88449293392821 0.5 L 107.88449293392821 -0.5 L 25 -0.5 Z M 139.09543043392821 0.5 L 221.97992336785643 0.5 L 221.97992336785643 3.5 L 228.97992336785643 0 L 221.97992336785643 -3.5 L 221.97992336785643 -0.5 L 139.09543043392821 -0.5 Z"/><text text-anchor="middle" pointer-events="none" font-size="8px" fill="#000000" x="123.48996168392821" y="3" transform="rotate(180 123.48996168392821 0)" font-family="Helvetica Neue, Helvetica, Arial, sans-serif">source</text></g><g class="relationship" transform="translate(63.952176058868595 199.76708047402337) rotate(197.6288223902115)"><path class="b-outline" fill="#A5ABB6" stroke="none" d="M 25 0.5 L 97.34521840365953 0.5 L 97.34521840365953 -0.5 L 25 -0.5 Z M 128.55615590365954 0.5 L 200.90137430731906 0.5 L 200.90137430731906 3.5 L 207.90137430731906 0 L 200.90137430731906 -3.5 L 200.90137430731906 -0.5 L 128.55615590365954 -0.5 Z"/><text text-anchor="middle" pointer-events="none" font-size="8px" fill="#000000" x="112.95068715365953" y="3" transform="rotate(180 112.95068715365953 0)" font-family="Helvetica Neue, Helvetica, Arial, sans-serif">source</text></g><g class="relationship" transform="translate(-9.507467054064783 -88.34094915876719) rotate(417.54242549906223)"><path class="b-outline" fill="#A5ABB6" stroke="none" d="M 25 0.5 L 75.87102224513339 0.5 L 75.87102224513339 -0.5 L 25 -0.5 Z M 97.87102224513339 0.5 L 148.74204449026678 0.5 L 148.74204449026678 3.5 L 155.74204449026678 0 L 148.74204449026678 -3.5 L 148.74204449026678 -0.5 L 97.87102224513339 -0.5 Z"/><text text-anchor="middle" pointer-events="none" font-size="8px" fill="#000000" x="86.87102224513339" y="3" font-family="Helvetica Neue, Helvetica, Arial, sans-serif">用来</text></g><g class="relationship" transform="translate(-33.933351950188346 211.0263252555889) rotate(213.39311894620596)"><path class="b-outline" fill="#A5ABB6" stroke="none" d="M 25 0.5 L 55.200651073155285 0.5 L 55.200651073155285 -0.5 L 25 -0.5 Z M 86.41158857315529 0.5 L 116.61223964631057 0.5 L 116.61223964631057 3.5 L 123.61223964631057 0 L 116.61223964631057 -3.5 L 116.61223964631057 -0.5 L 86.41158857315529 -0.5 Z"/><text text-anchor="middle" pointer-events="none" font-size="8px" fill="#000000" x="70.80611982315529" y="3" transform="rotate(180 70.80611982315529 0)" font-family="Helvetica Neue, Helvetica, Arial, sans-serif">source</text></g><g class="relationship" transform="translate(5.463948059147567 9.949673046472025) rotate(503.8828836324213)"><path class="b-outline" fill="#A5ABB6" stroke="none" d="M 25 0.5 L 82.07857146905427 0.5 L 82.07857146905427 -0.5 L 25 -0.5 Z M 113.28950896905427 0.5 L 170.36808043810854 0.5 L 170.36808043810854 3.5 L 177.36808043810854 0 L 170.36808043810854 -3.5 L 170.36808043810854 -0.5 L 113.28950896905427 -0.5 Z"/><text text-anchor="middle" pointer-events="none" font-size="8px" fill="#000000" x="97.68404021905427" y="3" transform="rotate(180 97.68404021905427 0)" font-family="Helvetica Neue, Helvetica, Arial, sans-serif">source</text></g><g class="relationship" transform="translate(5.520134521655243 119.54599139371861) rotate(536.6099598858877)"><path class="b-outline" fill="#A5ABB6" stroke="none" d="M 25 0.5 L 62.80382310897561 0.5 L 62.80382310897561 -0.5 L 25 -0.5 Z M 94.0147606089756 0.5 L 131.8185837179512 0.5 L 131.8185837179512 3.5 L 138.8185837179512 0 L 131.8185837179512 -3.5 L 131.8185837179512 -0.5 L 94.0147606089756 -0.5 Z"/><text text-anchor="middle" pointer-events="none" font-size="8px" fill="#000000" x="78.4092918589756" y="3" transform="rotate(180 78.4092918589756 0)" font-family="Helvetica Neue, Helvetica, Arial, sans-serif">source</text></g><g class="relationship" transform="translate(-91.96530988524837 -32.718827435554395) rotate(472.18639364755455)"><path class="b-outline" fill="#A5ABB6" stroke="none" d="M 25 0.5 L 68.34530004463504 0.5 L 68.34530004463504 -0.5 L 25 -0.5 Z M 99.55623754463504 0.5 L 142.90153758927008 0.5 L 142.90153758927008 3.5 L 149.90153758927008 0 L 142.90153758927008 -3.5 L 142.90153758927008 -0.5 L 99.55623754463504 -0.5 Z"/><text text-anchor="middle" pointer-events="none" font-size="8px" fill="#000000" x="83.95076879463504" y="3" transform="rotate(180 83.95076879463504 0)" font-family="Helvetica Neue, Helvetica, Arial, sans-serif">source</text></g><g class="relationship" transform="translate(-265.9004827425969 54.83401038717114) rotate(394.5897847767976)"><path class="b-outline" fill="#A5ABB6" stroke="none" d="M 25 0.5 L 46.42160179466828 0.5 L 46.42160179466828 -0.5 L 25 -0.5 Z M 77.63253929466828 0.5 L 99.05414108933655 0.5 L 99.05414108933655 3.5 L 106.05414108933655 0 L 99.05414108933655 -3.5 L 99.05414108933655 -0.5 L 77.63253929466828 -0.5 Z"/><text text-anchor="middle" pointer-events="none" font-size="8px" fill="#000000" x="62.02707054466828" y="3" font-family="Helvetica Neue, Helvetica, Arial, sans-serif">source</text></g><g class="relationship" transform="translate(-380.67771006092875 76.02782590510729) rotate(373.43864148558293)"><path class="b-outline" fill="#A5ABB6" stroke="none" d="M 25 0.5 L 95.36167647709469 0.5 L 95.36167647709469 -0.5 L 25 -0.5 Z M 126.57261397709469 0.5 L 196.93429045418938 0.5 L 196.93429045418938 3.5 L 203.93429045418938 0 L 196.93429045418938 -3.5 L 196.93429045418938 -0.5 L 126.57261397709469 -0.5 Z"/><text text-anchor="middle" pointer-events="none" font-size="8px" fill="#000000" x="110.96714522709469" y="3" font-family="Helvetica Neue, Helvetica, Arial, sans-serif">source</text></g><g class="relationship" transform="translate(-193.8922914784993 -65.932581884139) rotate(439.5827024744025)"><path class="b-outline" fill="#A5ABB6" stroke="none" d="M 25 0.5 L 80.11276882343417 0.5 L 80.11276882343417 -0.5 L 25 -0.5 Z M 111.32370632343417 0.5 L 166.43647514686833 0.5 L 166.43647514686833 3.5 L 173.43647514686833 0 L 166.43647514686833 -3.5 L 166.43647514686833 -0.5 L 111.32370632343417 -0.5 Z"/><text text-anchor="middle" pointer-events="none" font-size="8px" fill="#000000" x="95.71823757343417" y="3" font-family="Helvetica Neue, Helvetica, Arial, sans-serif">source</text></g><g class="relationship" transform="translate(-76.27950802830192 65.41345655285272) rotate(502.0159620235341)"><path class="b-outline" fill="#A5ABB6" stroke="none" d="M 25 0.5 L 32.743123184287576 0.5 L 32.743123184287576 -0.5 L 25 -0.5 Z M 63.954060684287576 0.5 L 71.69718386857515 0.5 L 71.69718386857515 3.5 L 78.69718386857515 0 L 71.69718386857515 -3.5 L 71.69718386857515 -0.5 L 63.954060684287576 -0.5 Z"/><text text-anchor="middle" pointer-events="none" font-size="8px" fill="#000000" x="48.348591934287576" y="3" transform="rotate(180 48.348591934287576 0)" font-family="Helvetica Neue, Helvetica, Arial, sans-serif">source</text></g><g class="relationship" transform="translate(-9.507467054064783 -88.34094915876719) rotate(533.0707998060893)"><path class="b-outline" fill="#A5ABB6" stroke="none" d="M 25 0.5 L 78.37074135854651 0.5 L 78.37074135854651 -0.5 L 25 -0.5 Z M 100.37074135854651 0.5 L 153.74148271709302 0.5 L 153.74148271709302 3.5 L 160.74148271709302 0 L 153.74148271709302 -3.5 L 153.74148271709302 -0.5 L 100.37074135854651 -0.5 Z"/><text text-anchor="middle" pointer-events="none" font-size="8px" fill="#000000" x="89.37074135854651" y="3" transform="rotate(180 89.37074135854651 0)" font-family="Helvetica Neue, Helvetica, Arial, sans-serif">受到</text></g><g class="relationship" transform="translate(-302.54672818341027 148.5172995575709) rotate(352.4003230818828)"><path class="b-outline" fill="#A5ABB6" stroke="none" d="M 25 0.5 L 53.802403893179275 0.5 L 53.802403893179275 -0.5 L 25 -0.5 Z M 85.01334139317927 0.5 L 113.81574528635855 0.5 L 113.81574528635855 3.5 L 120.81574528635855 0 L 113.81574528635855 -3.5 L 113.81574528635855 -0.5 L 85.01334139317927 -0.5 Z"/><text text-anchor="middle" pointer-events="none" font-size="8px" fill="#000000" x="69.40787264317927" y="3" font-family="Helvetica Neue, Helvetica, Arial, sans-serif">source</text></g><g class="relationship" transform="translate(-118.11087356604298 -127.53740159745223) rotate(458.8328474996061)"><path class="b-outline" fill="#A5ABB6" stroke="none" d="M 25 0.5 L 110.82061399991667 0.5 L 110.82061399991667 -0.5 L 25 -0.5 Z M 142.03155149991667 0.5 L 227.85216549983335 0.5 L 227.85216549983335 3.5 L 234.85216549983335 0 L 227.85216549983335 -3.5 L 227.85216549983335 -0.5 L 142.03155149991667 -0.5 Z"/><text text-anchor="middle" pointer-events="none" font-size="8px" fill="#000000" x="126.42608274991667" y="3" transform="rotate(180 126.42608274991667 0)" font-family="Helvetica Neue, Helvetica, Arial, sans-serif">source</text></g><g class="relationship" transform="translate(-169.4769428790214 28.72877484796616) rotate(443.49204222716276)"><path class="b-outline" fill="#A5ABB6" stroke="none" d="M 25 0.5 L 31.472587808867736 0.5 L 31.472587808867736 -0.5 L 25 -0.5 Z M 62.683525308867736 0.5 L 69.15611311773547 0.5 L 69.15611311773547 3.5 L 76.15611311773547 0 L 69.15611311773547 -3.5 L 69.15611311773547 -0.5 L 62.683525308867736 -0.5 Z"/><text text-anchor="middle" pointer-events="none" font-size="8px" fill="#000000" x="47.078056558867736" y="3" font-family="Helvetica Neue, Helvetica, Arial, sans-serif">source</text></g><g class="relationship" transform="translate(-9.507467054064783 -88.34094915876719) rotate(199.84520545464034)"><path class="b-outline" fill="#A5ABB6" stroke="none" d="M 25 0.5 L 47.23010867342986 0.5 L 47.23010867342986 -0.5 L 25 -0.5 Z M 61.23010867342986 0.5 L 83.46021734685972 0.5 L 83.46021734685972 3.5 L 90.46021734685972 0 L 83.46021734685972 -3.5 L 83.46021734685972 -0.5 L 61.23010867342986 -0.5 Z"/><text text-anchor="middle" pointer-events="none" font-size="8px" fill="#000000" x="54.23010867342986" y="3" transform="rotate(180 54.23010867342986 0)" font-family="Helvetica Neue, Helvetica, Arial, sans-serif">以</text></g><g class="relationship" transform="translate(-255.26229017476248 235.9551196377392) rotate(312.3413523949988)"><path class="b-outline" fill="#A5ABB6" stroke="none" d="M 25 0.5 L 53.08743338965941 0.5 L 53.08743338965941 -0.5 L 25 -0.5 Z M 84.29837088965941 0.5 L 112.38580427931882 0.5 L 112.38580427931882 3.5 L 119.38580427931882 0 L 112.38580427931882 -3.5 L 112.38580427931882 -0.5 L 84.29837088965941 -0.5 Z"/><text text-anchor="middle" pointer-events="none" font-size="8px" fill="#000000" x="68.69290213965941" y="3" font-family="Helvetica Neue, Helvetica, Arial, sans-serif">source</text></g><g class="relationship" transform="translate(5.520134521655243 119.54599139371861) rotate(207.4276961930966)"><path class="b-outline" fill="#A5ABB6" stroke="none" d="M 25 0.5 L 76.07959210695755 0.5 L 76.07959210695755 -0.5 L 25 -0.5 Z M 114.07959210695755 0.5 L 165.1591842139151 0.5 L 165.1591842139151 3.5 L 172.1591842139151 0 L 165.1591842139151 -3.5 L 165.1591842139151 -0.5 L 114.07959210695755 -0.5 Z"/><text text-anchor="middle" pointer-events="none" font-size="8px" fill="#000000" x="95.07959210695755" y="3" transform="rotate(180 95.07959210695755 0)" font-family="Helvetica Neue, Helvetica, Arial, sans-serif">告诉记者</text></g><g class="relationship" transform="translate(-9.507467054064783 -88.34094915876719) rotate(484.31534467968413)"><path class="b-outline" fill="#A5ABB6" stroke="none" d="M 25 0.5 L 112.60631722624649 0.5 L 112.60631722624649 -0.5 L 25 -0.5 Z M 143.8172547262465 0.5 L 231.42357195249298 0.5 L 231.42357195249298 3.5 L 238.42357195249298 0 L 231.42357195249298 -3.5 L 231.42357195249298 -0.5 L 143.8172547262465 -0.5 Z"/><text text-anchor="middle" pointer-events="none" font-size="8px" fill="#000000" x="128.2117859762465" y="3" transform="rotate(180 128.2117859762465 0)" font-family="Helvetica Neue, Helvetica, Arial, sans-serif">source</text></g><g class="relationship" transform="translate(-76.27950802830192 65.41345655285272) rotate(359.56400794923456)"><path class="b-outline" fill="#A5ABB6" stroke="none" d="M 25 0.5 L 67.38825603121882 0.5 L 67.38825603121882 -0.5 L 25 -0.5 Z M 89.38825603121882 0.5 L 131.77651206243763 0.5 L 131.77651206243763 3.5 L 138.77651206243763 0 L 131.77651206243763 -3.5 L 131.77651206243763 -0.5 L 89.38825603121882 -0.5 Z"/><text text-anchor="middle" pointer-events="none" font-size="8px" fill="#000000" x="78.38825603121882" y="3" font-family="Helvetica Neue, Helvetica, Arial, sans-serif">用来</text></g><g class="relationship" transform="translate(-76.27950802830192 65.41345655285272) rotate(468.2328147045214)"><path class="b-outline" fill="#A5ABB6" stroke="none" d="M 25 0.5 L 63.92618714024499 0.5 L 63.92618714024499 -0.5 L 25 -0.5 Z M 101.92618714024499 0.5 L 140.85237428048998 0.5 L 140.85237428048998 3.5 L 147.85237428048998 0 L 140.85237428048998 -3.5 L 140.85237428048998 -0.5 L 101.92618714024499 -0.5 Z"/><text text-anchor="middle" pointer-events="none" font-size="8px" fill="#000000" x="82.92618714024499" y="3" transform="rotate(180 82.92618714024499 0)" font-family="Helvetica Neue, Helvetica, Arial, sans-serif">主要关押</text></g><g class="relationship" transform="translate(-380.67771006092875 76.02782590510729) rotate(349.53807618786493)"><path class="b-outline" fill="#A5ABB6" stroke="none" d="M 25 0.5 L 43.858781959299684 0.5 L 43.858781959299684 -0.5 L 25 -0.5 Z M 65.85878195929968 0.5 L 84.71756391859937 0.5 L 84.71756391859937 3.5 L 91.71756391859937 0 L 84.71756391859937 -3.5 L 84.71756391859937 -0.5 L 65.85878195929968 -0.5 Z"/><text text-anchor="middle" pointer-events="none" font-size="8px" fill="#000000" x="54.858781959299684" y="3" font-family="Helvetica Neue, Helvetica, Arial, sans-serif">表示</text></g><g class="relationship" transform="translate(-380.67771006092875 76.02782590510729) rotate(440.30990543754433)"><path class="b-outline" fill="#A5ABB6" stroke="none" d="M 25 0.5 L 47.653506961574635 0.5 L 47.653506961574635 -0.5 L 25 -0.5 Z M 103.50116321157464 0.5 L 126.15467017314927 0.5 L 126.15467017314927 3.5 L 133.15467017314927 0 L 126.15467017314927 -3.5 L 126.15467017314927 -0.5 L 103.50116321157464 -0.5 Z"/><text text-anchor="middle" pointer-events="none" font-size="8px" fill="#000000" x="75.57733508657464" y="3" font-family="Helvetica Neue, Helvetica, Arial, sans-serif">OfficialName</text></g><g class="relationship" transform="translate(63.952176058868595 199.76708047402337) rotate(501.01716071661565)"><path class="b-outline" fill="#A5ABB6" stroke="none" d="M 25 0.5 L 51.904470266705005 0.5 L 51.904470266705005 -0.5 L 25 -0.5 Z M 107.752126516705 0.5 L 134.65659678341 0.5 L 134.65659678341 3.5 L 141.65659678341 0 L 134.65659678341 -3.5 L 134.65659678341 -0.5 L 107.752126516705 -0.5 Z"/><text text-anchor="middle" pointer-events="none" font-size="8px" fill="#000000" x="79.828298391705" y="3" transform="rotate(180 79.828298391705 0)" font-family="Helvetica Neue, Helvetica, Arial, sans-serif">OfficialName</text></g><g class="relationship" transform="translate(-91.96530988524837 -32.718827435554395) rotate(383.6506977553697)"><path class="b-outline" fill="#A5ABB6" stroke="none" d="M 25 0.5 L 26.732218888005633 0.5 L 26.732218888005633 -0.5 L 25 -0.5 Z M 72.63065638800563 0.5 L 74.36287527601127 0.5 L 74.36287527601127 3.5 L 81.36287527601127 0 L 74.36287527601127 -3.5 L 74.36287527601127 -0.5 L 72.63065638800563 -0.5 Z"/><text text-anchor="middle" pointer-events="none" font-size="8px" fill="#000000" x="49.68143763800563" y="3" font-family="Helvetica Neue, Helvetica, Arial, sans-serif">OfficialN…</text></g><g class="relationship" transform="translate(-380.67771006092875 76.02782590510729) rotate(307.9497929761948)"><path class="b-outline" fill="#A5ABB6" stroke="none" d="M 25 0.5 L 63.382587710679644 0.5 L 63.382587710679644 -0.5 L 25 -0.5 Z M 77.38258771067964 0.5 L 115.76517542135929 0.5 L 115.76517542135929 3.5 L 122.76517542135929 0 L 115.76517542135929 -3.5 L 115.76517542135929 -0.5 L 77.38258771067964 -0.5 Z"/><text text-anchor="middle" pointer-events="none" font-size="8px" fill="#000000" x="70.38258771067964" y="3" font-family="Helvetica Neue, Helvetica, Arial, sans-serif">称</text></g></g><g class="layer nodes"><g class="node" aria-label="graph-node38" transform="translate(-354.05727948259977,231.92603748369467)"><circle class="b-outline" cx="0" cy="0" r="25" fill="#F16667" stroke="#eb2728" stroke-width="2px"/><text class="caption" text-anchor="middle" pointer-events="none" x="0" y="0" font-size="10px" fill="#FFFFFF" font-family="Helvetica Neue, Helvetica, Arial, sans-serif"> donald</text><text class="caption" text-anchor="middle" pointer-events="none" x="0" y="10" font-size="10px" fill="#FFFFFF" font-family="Helvetica Neue, Helvetica, Arial, sans-serif"> trump</text></g><g class="node" aria-label="graph-node43" transform="translate(-158.01178669906784,129.23305045282473)"><circle class="b-outline" cx="0" cy="0" r="25" fill="#D9C8AE" stroke="#c0a378" stroke-width="2px"/><text class="caption" text-anchor="middle" pointer-events="none" x="0" y="5" font-size="10px" fill="#2A2C34" font-family="Helvetica Neue, Helvetica, Arial, sans-serif"> 特朗普计…</text></g><g class="node" aria-label="graph-node45" transform="translate(-187.9522421157302,308.63266991775583)"><circle class="b-outline" cx="0" cy="0" r="25" fill="#F16667" stroke="#eb2728" stroke-width="2px"/><text class="caption" text-anchor="middle" pointer-events="none" x="0" y="5" font-size="10px" fill="#FFFFFF" font-family="Helvetica Neue, Helvetica, Arial, sans-serif"> 唐纳德·…</text></g><g class="node" aria-label="graph-node40" transform="translate(-65.59573210440642,304.608678811457)"><circle class="b-outline" cx="0" cy="0" r="25" fill="#F16667" stroke="#eb2728" stroke-width="2px"/><text class="caption" text-anchor="middle" pointer-events="none" x="0" y="-5" font-size="10px" fill="#FFFFFF" font-family="Helvetica Neue, Helvetica, Arial, sans-serif"> khalid</text><text class="caption" text-anchor="middle" pointer-events="none" x="0" y="5" font-size="10px" fill="#FFFFFF" font-family="Helvetica Neue, Helvetica, Arial, sans-serif"> sheikh</text><text class="caption" text-anchor="middle" pointer-events="none" x="0" y="15" font-size="10px" fill="#FFFFFF" font-family="Helvetica Neue, Helvetica, Arial, sans-serif"> mo…</text></g><g class="node" aria-label="graph-node27" transform="translate(-130.3613756101678,229.5874340683534)"><circle class="b-outline" cx="0" cy="0" r="25" fill="#57C7E3" stroke="#23b3d7" stroke-width="2px"/><text class="caption" text-anchor="middle" pointer-events="none" x="0" y="5" font-size="10px" fill="#2A2C34" font-family="Helvetica Neue, Helvetica, Arial, sans-serif"> 大部分人…</text></g><g class="node" aria-label="graph-node5" transform="translate(221.942924510099,170.19811479706755)"><circle class="b-outline" cx="0" cy="0" r="25" fill="#ECB5C9" stroke="#da7298" stroke-width="2px"/><text class="caption" text-anchor="middle" pointer-events="none" x="0" y="5" font-size="10px" fill="#2A2C34" font-family="Helvetica Neue, Helvetica, Arial, sans-serif"> 移民及海…</text></g><g class="node" aria-label="graph-node23" transform="translate(-289.8064533487914,-40.49239453264298)"><circle class="b-outline" cx="0" cy="0" r="25" fill="#57C7E3" stroke="#23b3d7" stroke-width="2px"/><text class="caption" text-anchor="middle" pointer-events="none" x="0" y="0" font-size="10px" fill="#2A2C34" font-family="Helvetica Neue, Helvetica, Arial, sans-serif"> 用来关押</text><text class="caption" text-anchor="middle" pointer-events="none" x="0" y="10" font-size="10px" fill="#2A2C34" font-family="Helvetica Neue, Helvetica, Arial, sans-serif"> 威胁美…</text></g><g class="node" aria-label="graph-node7" transform="translate(356.3353256316592,107.68972952482518)"><circle class="b-outline" cx="0" cy="0" r="25" fill="#ECB5C9" stroke="#da7298" stroke-width="2px"/><text class="caption" text-anchor="middle" pointer-events="none" x="0" y="5" font-size="10px" fill="#2A2C34" font-family="Helvetica Neue, Helvetica, Arial, sans-serif"> immigra…</text></g><g class="node" aria-label="graph-node29" transform="translate(87.4922623632832,64.16721173593001)"><circle class="b-outline" cx="0" cy="0" r="25" fill="#57C7E3" stroke="#23b3d7" stroke-width="2px"/><text class="caption" text-anchor="middle" pointer-events="none" x="0" y="5" font-size="10px" fill="#2A2C34" font-family="Helvetica Neue, Helvetica, Arial, sans-serif"> 关押移民</text></g><g class="node" aria-label="graph-node25" transform="translate(63.952176058868595,199.76708047402337)"><circle class="b-outline" cx="0" cy="0" r="25" fill="#F16667" stroke="#eb2728" stroke-width="2px"/><text class="caption" text-anchor="middle" pointer-events="none" x="0" y="-5" font-size="10px" fill="#FFFFFF" font-family="Helvetica Neue, Helvetica, Arial, sans-serif"> 哈立德</text><text class="caption" text-anchor="middle" pointer-events="none" x="0" y="5" font-size="10px" fill="#FFFFFF" font-family="Helvetica Neue, Helvetica, Arial, sans-serif"> 谢赫</text><text class="caption" text-anchor="middle" pointer-events="none" x="0" y="15" font-size="10px" fill="#FFFFFF" font-family="Helvetica Neue, Helvetica, Arial, sans-serif"> 穆罕…</text></g><g class="node" aria-label="graph-node47" transform="translate(-9.507467054064783,-88.34094915876719)"><circle class="b-outline" cx="0" cy="0" r="25" fill="#C990C0" stroke="#b261a5" stroke-width="2px"/><text class="caption" text-anchor="middle" pointer-events="none" x="0" y="5" font-size="10px" fill="#FFFFFF" font-family="Helvetica Neue, Helvetica, Arial, sans-serif"> 关塔那…</text></g><g class="node" aria-label="graph-node4" transform="translate(-33.933351950188346,211.0263252555889)"><circle class="b-outline" cx="0" cy="0" r="25" fill="#ECB5C9" stroke="#da7298" stroke-width="2px"/><text class="caption" text-anchor="middle" pointer-events="none" x="0" y="5" font-size="10px" fill="#2A2C34" font-family="Helvetica Neue, Helvetica, Arial, sans-serif"> immigra…</text></g><g class="node" aria-label="graph-node36" transform="translate(5.463948059147567,9.949673046472025)"><circle class="b-outline" cx="0" cy="0" r="25" fill="#F16667" stroke="#eb2728" stroke-width="2px"/><text class="caption" text-anchor="middle" pointer-events="none" x="0" y="0" font-size="10px" fill="#FFFFFF" font-family="Helvetica Neue, Helvetica, Arial, sans-serif"> tom</text><text class="caption" text-anchor="middle" pointer-events="none" x="0" y="10" font-size="10px" fill="#FFFFFF" font-family="Helvetica Neue, Helvetica, Arial, sans-serif"> homan</text></g><g class="node" aria-label="graph-node30" transform="translate(5.520134521655243,119.54599139371861)"><circle class="b-outline" cx="0" cy="0" r="25" fill="#57C7E3" stroke="#23b3d7" stroke-width="2px"/><text class="caption" text-anchor="middle" pointer-events="none" x="0" y="5" font-size="10px" fill="#2A2C34" font-family="Helvetica Neue, Helvetica, Arial, sans-serif"> 特朗普的…</text></g><g class="node" aria-label="graph-node41" transform="translate(-91.96530988524837,-32.718827435554395)"><circle class="b-outline" cx="0" cy="0" r="25" fill="#F16667" stroke="#eb2728" stroke-width="2px"/><text class="caption" text-anchor="middle" pointer-events="none" x="0" y="5" font-size="10px" fill="#FFFFFF" font-family="Helvetica Neue, Helvetica, Arial, sans-serif"> 汤姆 霍曼</text></g><g class="node" aria-label="graph-node44" transform="translate(-265.9004827425969,54.83401038717114)"><circle class="b-outline" cx="0" cy="0" r="25" fill="#57C7E3" stroke="#23b3d7" stroke-width="2px"/><text class="caption" text-anchor="middle" pointer-events="none" x="0" y="5" font-size="10px" fill="#2A2C34" font-family="Helvetica Neue, Helvetica, Arial, sans-serif"> 该设施将…</text></g><g class="node" aria-label="graph-node16" transform="translate(-380.67771006092875,76.02782590510729)"><circle class="b-outline" cx="0" cy="0" r="25" fill="#F16667" stroke="#eb2728" stroke-width="2px"/><text class="caption" text-anchor="middle" pointer-events="none" x="0" y="0" font-size="10px" fill="#FFFFFF" font-family="Helvetica Neue, Helvetica, Arial, sans-serif"> 唐纳德</text><text class="caption" text-anchor="middle" pointer-events="none" x="0" y="10" font-size="10px" fill="#FFFFFF" font-family="Helvetica Neue, Helvetica, Arial, sans-serif"> 特朗普</text></g><g class="node" aria-label="graph-node37" transform="translate(-193.8922914784993,-65.932581884139)"><circle class="b-outline" cx="0" cy="0" r="25" fill="#57C7E3" stroke="#23b3d7" stroke-width="2px"/><text class="caption" text-anchor="middle" pointer-events="none" x="0" y="5" font-size="10px" fill="#2A2C34" font-family="Helvetica Neue, Helvetica, Arial, sans-serif"> 人权组织…</text></g><g class="node" aria-label="graph-node24" transform="translate(-76.27950802830192,65.41345655285272)"><circle class="b-outline" cx="0" cy="0" r="25" fill="#57C7E3" stroke="#23b3d7" stroke-width="2px"/><text class="caption" text-anchor="middle" pointer-events="none" x="0" y="5" font-size="10px" fill="#2A2C34" font-family="Helvetica Neue, Helvetica, Arial, sans-serif"> 关塔那摩…</text></g><g class="node" aria-label="graph-node42" transform="translate(-302.54672818341027,148.5172995575709)"><circle class="b-outline" cx="0" cy="0" r="25" fill="#F16667" stroke="#eb2728" stroke-width="2px"/><text class="caption" text-anchor="middle" pointer-events="none" x="0" y="5" font-size="10px" fill="#FFFFFF" font-family="Helvetica Neue, Helvetica, Arial, sans-serif"> 乔治·W·…</text></g><g class="node" aria-label="graph-node31" transform="translate(-118.11087356604298,-127.53740159745223)"><circle class="b-outline" cx="0" cy="0" r="25" fill="#57C7E3" stroke="#23b3d7" stroke-width="2px"/><text class="caption" text-anchor="middle" pointer-events="none" x="0" y="5" font-size="10px" fill="#2A2C34" font-family="Helvetica Neue, Helvetica, Arial, sans-serif"> 关押200…</text></g><g class="node" aria-label="graph-node15" transform="translate(-169.4769428790214,28.72877484796616)"><circle class="b-outline" cx="0" cy="0" r="25" fill="#57C7E3" stroke="#23b3d7" stroke-width="2px"/><text class="caption" text-anchor="middle" pointer-events="none" x="0" y="5" font-size="10px" fill="#2A2C34" font-family="Helvetica Neue, Helvetica, Arial, sans-serif"> 我们只是…</text></g><g class="node" aria-label="graph-node6" transform="translate(-255.26229017476248,235.9551196377392)"><circle class="b-outline" cx="0" cy="0" r="25" fill="#ECB5C9" stroke="#da7298" stroke-width="2px"/><text class="caption" text-anchor="middle" pointer-events="none" x="0" y="5" font-size="10px" fill="#2A2C34" font-family="Helvetica Neue, Helvetica, Arial, sans-serif"> 移民及海…</text></g></g></svg>