<svg xmlns="http://www.w3.org/2000/svg" width="692.9119873046875" height="858.6407470703125" viewBox="-343.4951171875 -336.6022033691406 692.9119873046875 858.6407470703125"><title>Neo4j Graph Visualization</title><desc>Created using Neo4j (http://www.neo4j.com/)</desc><g class="layer relationships"><g class="relationship" transform="translate(-20.066047935856158 189.3329606210361) rotate(251.57032680351188)"><path class="b-outline" fill="#A5ABB6" stroke="none" d="M 25 0.5 L 92.41756421479887 0.5 L 92.41756421479887 -0.5 L 25 -0.5 Z M 123.62850171479887 0.5 L 191.04606592959775 0.5 L 191.04606592959775 3.5 L 198.04606592959775 0 L 191.04606592959775 -3.5 L 191.04606592959775 -0.5 L 123.62850171479887 -0.5 Z"/><text text-anchor="middle" pointer-events="none" font-size="8px" fill="#000000" x="108.02303296479887" y="3" transform="rotate(180 108.02303296479887 0)" font-family="Helvetica Neue, Helvetica, Arial, sans-serif">source</text></g><g class="relationship" transform="translate(195.97738190161326 493.0385602419522) rotate(329.35290529835424)"><path class="b-outline" fill="#A5ABB6" stroke="none" d="M 25 0.5 L 40.897462530015105 0.5 L 40.897462530015105 -0.5 L 25 -0.5 Z M 96.7451187800151 0.5 L 112.64258131003021 0.5 L 112.64258131003021 3.5 L 119.64258131003021 0 L 112.64258131003021 -3.5 L 112.64258131003021 -0.5 L 96.7451187800151 -0.5 Z"/><text text-anchor="middle" pointer-events="none" font-size="8px" fill="#000000" x="68.8212906550151" y="3" font-family="Helvetica Neue, Helvetica, Arial, sans-serif">OfficialName</text></g><g class="relationship" transform="translate(55.64321276468308 77.62373474862339) rotate(214.34027455372058)"><path class="b-outline" fill="#A5ABB6" stroke="none" d="M 25 0.5 L 69.43927288714947 0.5 L 69.43927288714947 -0.5 L 25 -0.5 Z M 100.65021038714947 0.5 L 145.08948327429894 0.5 L 145.08948327429894 3.5 L 152.08948327429894 0 L 145.08948327429894 -3.5 L 145.08948327429894 -0.5 L 100.65021038714947 -0.5 Z"/><text text-anchor="middle" pointer-events="none" font-size="8px" fill="#000000" x="85.04474163714947" y="3" transform="rotate(180 85.04474163714947 0)" font-family="Helvetica Neue, Helvetica, Arial, sans-serif">source</text></g><g class="relationship" transform="translate(296.5385759219032 -111.30867476716232) rotate(533.554416081216)"><path class="b-outline" fill="#A5ABB6" stroke="none" d="M 25 0.5 L 52.517133086996566 0.5 L 52.517133086996566 -0.5 L 25 -0.5 Z M 108.36478933699657 0.5 L 135.88192242399313 0.5 L 135.88192242399313 3.5 L 142.88192242399313 0 L 135.88192242399313 -3.5 L 135.88192242399313 -0.5 L 108.36478933699657 -0.5 Z"/><text text-anchor="middle" pointer-events="none" font-size="8px" fill="#000000" x="80.44096121199657" y="3" transform="rotate(180 80.44096121199657 0)" font-family="Helvetica Neue, Helvetica, Arial, sans-serif">OfficialName</text></g><g class="relationship" transform="translate(187.7623479467178 -307.602218125988) rotate(497.7474079361948)"><path class="b-outline" fill="#A5ABB6" stroke="none" d="M 25 0.5 L 52.58755685301928 0.5 L 52.58755685301928 -0.5 L 25 -0.5 Z M 108.43521310301928 0.5 L 136.02276995603856 0.5 L 136.02276995603856 3.5 L 143.02276995603856 0 L 136.02276995603856 -3.5 L 136.02276995603856 -0.5 L 108.43521310301928 -0.5 Z"/><text text-anchor="middle" pointer-events="none" font-size="8px" fill="#000000" x="80.51138497801928" y="3" transform="rotate(180 80.51138497801928 0)" font-family="Helvetica Neue, Helvetica, Arial, sans-serif">OfficialName</text></g><g class="relationship" transform="translate(137.61641329724677 7.158441244242922) rotate(187.34925840883824)"><path class="b-outline" fill="#A5ABB6" stroke="none" d="M 25 0.5 L 95.93779886047325 0.5 L 95.93779886047325 -0.5 L 25 -0.5 Z M 127.14873636047325 0.5 L 198.0865352209465 0.5 L 198.0865352209465 3.5 L 205.0865352209465 0 L 198.0865352209465 -3.5 L 198.0865352209465 -0.5 L 127.14873636047325 -0.5 Z"/><text text-anchor="middle" pointer-events="none" font-size="8px" fill="#000000" x="111.54326761047325" y="3" transform="rotate(180 111.54326761047325 0)" font-family="Helvetica Neue, Helvetica, Arial, sans-serif">source</text></g><g class="relationship" transform="translate(-20.066047935856158 189.3329606210361) rotate(304.12687056190543)"><path class="b-outline" fill="#A5ABB6" stroke="none" d="M 25 0.5 L 36.049950672463126 0.5 L 36.049950672463126 -0.5 L 25 -0.5 Z M 91.89760692246313 0.5 L 102.94755759492625 0.5 L 102.94755759492625 3.5 L 109.94755759492625 0 L 102.94755759492625 -3.5 L 102.94755759492625 -0.5 L 91.89760692246313 -0.5 Z"/><text text-anchor="middle" pointer-events="none" font-size="8px" fill="#000000" x="63.973778797463126" y="3" font-family="Helvetica Neue, Helvetica, Arial, sans-serif">OfficialName</text></g><g class="relationship" transform="translate(-40.244538081974476 92.84999924171647) rotate(246.38365433275203)"><path class="b-outline" fill="#A5ABB6" stroke="none" d="M 25 0.5 L 43.717887786372195 0.5 L 43.717887786372195 -0.5 L 25 -0.5 Z M 74.92882528637219 0.5 L 93.64671307274439 0.5 L 93.64671307274439 3.5 L 100.64671307274439 0 L 93.64671307274439 -3.5 L 93.64671307274439 -0.5 L 74.92882528637219 -0.5 Z"/><text text-anchor="middle" pointer-events="none" font-size="8px" fill="#000000" x="59.323356536372195" y="3" transform="rotate(180 59.323356536372195 0)" font-family="Helvetica Neue, Helvetica, Arial, sans-serif">source</text></g><g class="relationship" transform="translate(44.10522407101927 -19.064646355560605) rotate(181.3648522002365)"><path class="b-outline" fill="#A5ABB6" stroke="none" d="M 25 0.5 L 48.256216141384385 0.5 L 48.256216141384385 -0.5 L 25 -0.5 Z M 79.46715364138439 0.5 L 102.72336978276877 0.5 L 102.72336978276877 3.5 L 109.72336978276877 0 L 102.72336978276877 -3.5 L 102.72336978276877 -0.5 L 79.46715364138439 -0.5 Z"/><text text-anchor="middle" pointer-events="none" font-size="8px" fill="#000000" x="63.861684891384385" y="3" transform="rotate(180 63.861684891384385 0)" font-family="Helvetica Neue, Helvetica, Arial, sans-serif">source</text></g><g class="relationship" transform="translate(7.661349966693566 -113.785671017487) rotate(497.03102612712917)"><path class="b-outline" fill="#A5ABB6" stroke="none" d="M 25 0.5 L 48.02463813394269 0.5 L 48.02463813394269 -0.5 L 25 -0.5 Z M 79.23557563394269 0.5 L 102.26021376788538 0.5 L 102.26021376788538 3.5 L 109.26021376788538 0 L 102.26021376788538 -3.5 L 102.26021376788538 -0.5 L 79.23557563394269 -0.5 Z"/><text text-anchor="middle" pointer-events="none" font-size="8px" fill="#000000" x="63.63010688394269" y="3" transform="rotate(180 63.63010688394269 0)" font-family="Helvetica Neue, Helvetica, Arial, sans-serif">source</text></g><g class="relationship" transform="translate(-23.827433250882283 -237.2845303030948) rotate(467.24752693776037)"><path class="b-outline" fill="#A5ABB6" stroke="none" d="M 25 0.5 L 93.46183399520832 0.5 L 93.46183399520832 -0.5 L 25 -0.5 Z M 124.67277149520832 0.5 L 193.13460549041665 0.5 L 193.13460549041665 3.5 L 200.13460549041665 0 L 193.13460549041665 -3.5 L 193.13460549041665 -0.5 L 124.67277149520832 -0.5 Z"/><text text-anchor="middle" pointer-events="none" font-size="8px" fill="#000000" x="109.06730274520832" y="3" transform="rotate(180 109.06730274520832 0)" font-family="Helvetica Neue, Helvetica, Arial, sans-serif">source</text></g><g class="relationship" transform="translate(-152.31640592096218 -241.85654380836772) rotate(434.2964927233098)"><path class="b-outline" fill="#A5ABB6" stroke="none" d="M 25 0.5 L 94.94283014260066 0.5 L 94.94283014260066 -0.5 L 25 -0.5 Z M 126.15376764260066 0.5 L 196.0965977852013 0.5 L 196.0965977852013 3.5 L 203.0965977852013 0 L 196.0965977852013 -3.5 L 196.0965977852013 -0.5 L 126.15376764260066 -0.5 Z"/><text text-anchor="middle" pointer-events="none" font-size="8px" fill="#000000" x="110.54829889260066" y="3" font-family="Helvetica Neue, Helvetica, Arial, sans-serif">source</text></g><g class="relationship" transform="translate(-242.9365455995123 -204.23226284184827) rotate(410.0600726451269)"><path class="b-outline" fill="#A5ABB6" stroke="none" d="M 25 0.5 L 99.55527829226638 0.5 L 99.55527829226638 -0.5 L 25 -0.5 Z M 130.7662157922664 0.5 L 205.32149408453276 0.5 L 205.32149408453276 3.5 L 212.32149408453276 0 L 205.32149408453276 -3.5 L 205.32149408453276 -0.5 L 130.7662157922664 -0.5 Z"/><text text-anchor="middle" pointer-events="none" font-size="8px" fill="#000000" x="115.16074704226638" y="3" font-family="Helvetica Neue, Helvetica, Arial, sans-serif">source</text></g><g class="relationship" transform="translate(-152.31640592096218 -241.85654380836772) rotate(494.4382810763003)"><path class="b-outline" fill="#A5ABB6" stroke="none" d="M 25 0.5 L 58.47417771113035 0.5 L 58.47417771113035 -0.5 L 25 -0.5 Z M 114.32183396113035 0.5 L 147.7960116722607 0.5 L 147.7960116722607 3.5 L 154.7960116722607 0 L 147.7960116722607 -3.5 L 147.7960116722607 -0.5 L 114.32183396113035 -0.5 Z"/><text text-anchor="middle" pointer-events="none" font-size="8px" fill="#000000" x="86.39800583613035" y="3" transform="rotate(180 86.39800583613035 0)" font-family="Helvetica Neue, Helvetica, Arial, sans-serif">OfficialName</text></g><g class="relationship" transform="translate(-88.48763066708402 -168.86873953926272) rotate(450.8177038178324)"><path class="b-outline" fill="#A5ABB6" stroke="none" d="M 25 0.5 L 54.19956103515729 0.5 L 54.19956103515729 -0.5 L 25 -0.5 Z M 85.41049853515729 0.5 L 114.61005957031458 0.5 L 114.61005957031458 3.5 L 121.61005957031458 0 L 114.61005957031458 -3.5 L 114.61005957031458 -0.5 L 85.41049853515729 -0.5 Z"/><text text-anchor="middle" pointer-events="none" font-size="8px" fill="#000000" x="69.80502978515729" y="3" transform="rotate(180 69.80502978515729 0)" font-family="Helvetica Neue, Helvetica, Arial, sans-serif">source</text></g><g class="relationship" transform="translate(-181.23688600106794 -127.77271566382736) rotate(409.3270381629002)"><path class="b-outline" fill="#A5ABB6" stroke="none" d="M 25 0.5 L 50.44441639791202 0.5 L 50.44441639791202 -0.5 L 25 -0.5 Z M 81.65535389791202 0.5 L 107.09977029582404 0.5 L 107.09977029582404 3.5 L 114.09977029582404 0 L 107.09977029582404 -3.5 L 107.09977029582404 -0.5 L 81.65535389791202 -0.5 Z"/><text text-anchor="middle" pointer-events="none" font-size="8px" fill="#000000" x="66.04988514791202" y="3" font-family="Helvetica Neue, Helvetica, Arial, sans-serif">source</text></g><g class="relationship" transform="translate(-217.3470014262465 -35.39592666807056) rotate(365.9099335229948)"><path class="b-outline" fill="#A5ABB6" stroke="none" d="M 25 0.5 L 44.61675517320651 0.5 L 44.61675517320651 -0.5 L 25 -0.5 Z M 75.82769267320651 0.5 L 95.44444784641303 0.5 L 95.44444784641303 3.5 L 102.44444784641303 0 L 95.44444784641303 -3.5 L 95.44444784641303 -0.5 L 75.82769267320651 -0.5 Z"/><text text-anchor="middle" pointer-events="none" font-size="8px" fill="#000000" x="60.22222392320651" y="3" font-family="Helvetica Neue, Helvetica, Arial, sans-serif">source</text></g><g class="relationship" transform="translate(-314.4951073185904 -21.1994704438923) rotate(359.72514943129363)"><path class="b-outline" fill="#A5ABB6" stroke="none" d="M 25 0.5 L 92.85341145014169 0.5 L 92.85341145014169 -0.5 L 25 -0.5 Z M 124.06434895014169 0.5 L 191.91776040028338 0.5 L 191.91776040028338 3.5 L 198.91776040028338 0 L 191.91776040028338 -3.5 L 191.91776040028338 -0.5 L 124.06434895014169 -0.5 Z"/><text text-anchor="middle" pointer-events="none" font-size="8px" fill="#000000" x="108.45888020014169" y="3" font-family="Helvetica Neue, Helvetica, Arial, sans-serif">source</text></g><g class="relationship" transform="translate(-242.9365455995123 -204.23226284184827) rotate(471.35352705416284)"><path class="b-outline" fill="#A5ABB6" stroke="none" d="M 25 0.5 L 66.83810607168722 0.5 L 66.83810607168722 -0.5 L 25 -0.5 Z M 122.68576232168722 0.5 L 164.52386839337444 0.5 L 164.52386839337444 3.5 L 171.52386839337444 0 L 164.52386839337444 -3.5 L 164.52386839337444 -0.5 L 122.68576232168722 -0.5 Z"/><text text-anchor="middle" pointer-events="none" font-size="8px" fill="#000000" x="94.76193419668722" y="3" transform="rotate(180 94.76193419668722 0)" font-family="Helvetica Neue, Helvetica, Arial, sans-serif">OfficialName</text></g><g class="relationship" transform="translate(-253.57024108778896 56.25359637843416) rotate(334.27566886202794)"><path class="b-outline" fill="#A5ABB6" stroke="none" d="M 25 0.5 L 71.35497275648817 0.5 L 71.35497275648817 -0.5 L 25 -0.5 Z M 102.56591025648817 0.5 L 148.92088301297633 0.5 L 148.92088301297633 3.5 L 155.92088301297633 0 L 148.92088301297633 -3.5 L 148.92088301297633 -0.5 L 102.56591025648817 -0.5 Z"/><text text-anchor="middle" pointer-events="none" font-size="8px" fill="#000000" x="86.96044150648817" y="3" font-family="Helvetica Neue, Helvetica, Arial, sans-serif">source</text></g><g class="relationship" transform="translate(-155.4643256933434 67.74152693394052) rotate(305.7846879729988)"><path class="b-outline" fill="#A5ABB6" stroke="none" d="M 25 0.5 L 36.375858360688014 0.5 L 36.375858360688014 -0.5 L 25 -0.5 Z M 67.58679586068801 0.5 L 78.96265422137603 0.5 L 78.96265422137603 3.5 L 85.96265422137603 0 L 78.96265422137603 -3.5 L 78.96265422137603 -0.5 L 67.58679586068801 -0.5 Z"/><text text-anchor="middle" pointer-events="none" font-size="8px" fill="#000000" x="51.981327110688014" y="3" font-family="Helvetica Neue, Helvetica, Arial, sans-serif">source</text></g><g class="relationship" transform="translate(-278.1988836177684 -113.48128286543995) rotate(385.925892309256)"><path class="b-outline" fill="#A5ABB6" stroke="none" d="M 25 0.5 L 85.20142674588907 0.5 L 85.20142674588907 -0.5 L 25 -0.5 Z M 116.41236424588907 0.5 L 176.61379099177813 0.5 L 176.61379099177813 3.5 L 183.61379099177813 0 L 176.61379099177813 -3.5 L 176.61379099177813 -0.5 L 116.41236424588907 -0.5 Z"/><text text-anchor="middle" pointer-events="none" font-size="8px" fill="#000000" x="100.80689549588907" y="3" font-family="Helvetica Neue, Helvetica, Arial, sans-serif">source</text></g><g class="relationship" transform="translate(-211.86259603788164 146.04457819998785) rotate(305.77486021726986)"><path class="b-outline" fill="#A5ABB6" stroke="none" d="M 25 0.5 L 84.62555281084025 0.5 L 84.62555281084025 -0.5 L 25 -0.5 Z M 115.83649031084025 0.5 L 175.4620431216805 0.5 L 175.4620431216805 3.5 L 182.4620431216805 0 L 175.4620431216805 -3.5 L 175.4620431216805 -0.5 L 115.83649031084025 -0.5 Z"/><text text-anchor="middle" pointer-events="none" font-size="8px" fill="#000000" x="100.23102156084025" y="3" font-family="Helvetica Neue, Helvetica, Arial, sans-serif">source</text></g><g class="relationship" transform="translate(-113.90516685850457 157.51630079004264) rotate(277.3920430860545)"><path class="b-outline" fill="#A5ABB6" stroke="none" d="M 25 0.5 L 71.54286157721324 0.5 L 71.54286157721324 -0.5 L 25 -0.5 Z M 102.75379907721324 0.5 L 149.2966606544265 0.5 L 149.2966606544265 3.5 L 156.2966606544265 0 L 149.2966606544265 -3.5 L 149.2966606544265 -0.5 L 102.75379907721324 -0.5 Z"/><text text-anchor="middle" pointer-events="none" font-size="8px" fill="#000000" x="87.14833032721324" y="3" font-family="Helvetica Neue, Helvetica, Arial, sans-serif">source</text></g><g class="relationship" transform="translate(138.4742425786075 127.08733401291772) rotate(213.1074444987462)"><path class="b-outline" fill="#A5ABB6" stroke="none" d="M 25 0.5 L 117.61916566051443 0.5 L 117.61916566051443 -0.5 L 25 -0.5 Z M 148.83010316051443 0.5 L 241.44926882102885 0.5 L 241.44926882102885 3.5 L 248.44926882102885 0 L 241.44926882102885 -3.5 L 241.44926882102885 -0.5 L 148.83010316051443 -0.5 Z"/><text text-anchor="middle" pointer-events="none" font-size="8px" fill="#000000" x="133.22463441051443" y="3" transform="rotate(180 133.22463441051443 0)" font-family="Helvetica Neue, Helvetica, Arial, sans-serif">source</text></g><g class="relationship" transform="translate(137.61641329724677 7.158441244242922) rotate(449.5901808309987)"><path class="b-outline" fill="#A5ABB6" stroke="none" d="M 25 0.5 L 28.54215221343076 0.5 L 28.54215221343076 -0.5 L 25 -0.5 Z M 84.38980846343077 0.5 L 87.93196067686152 0.5 L 87.93196067686152 3.5 L 94.93196067686152 0 L 87.93196067686152 -3.5 L 87.93196067686152 -0.5 L 84.38980846343077 -0.5 Z"/><text text-anchor="middle" pointer-events="none" font-size="8px" fill="#000000" x="56.46598033843076" y="3" font-family="Helvetica Neue, Helvetica, Arial, sans-serif">OfficialName</text></g></g><g class="layer nodes"><g class="node" aria-label="graph-node61" transform="translate(-20.066047935856158,189.3329606210361)"><circle class="b-outline" cx="0" cy="0" r="25" fill="#F16667" stroke="#eb2728" stroke-width="2px"/><text class="caption" text-anchor="middle" pointer-events="none" x="0" y="5" font-size="10px" fill="#FFFFFF" font-family="Helvetica Neue, Helvetica, Arial, sans-serif"> 奥巴马</text></g><g class="node" aria-label="graph-node80" transform="translate(-90.57992327344539,-22.27361042897968)"><circle class="b-outline" cx="0" cy="0" r="25" fill="#D9C8AE" stroke="#c0a378" stroke-width="2px"/><text class="caption" text-anchor="middle" pointer-events="none" x="0" y="5" font-size="10px" fill="#2A2C34" font-family="Helvetica Neue, Helvetica, Arial, sans-serif"> 特朗普计…</text></g><g class="node" aria-label="graph-node0" transform="translate(195.97738190161326,493.0385602419522)"><circle class="b-outline" cx="0" cy="0" r="25" fill="#C990C0" stroke="#b261a5" stroke-width="2px"/><text class="caption" text-anchor="middle" pointer-events="none" x="0" y="5" font-size="10px" fill="#FFFFFF" font-family="Helvetica Neue, Helvetica, Arial, sans-serif"> 关塔那…</text></g><g class="node" aria-label="graph-node2" transform="translate(320.4167685100057,419.3071870785848)"><circle class="b-outline" cx="0" cy="0" r="25" fill="#C990C0" stroke="#b261a5" stroke-width="2px"/><text class="caption" text-anchor="middle" pointer-events="none" x="0" y="5" font-size="10px" fill="#FFFFFF" font-family="Helvetica Neue, Helvetica, Arial, sans-serif"> guantan…</text></g><g class="node" aria-label="graph-node75" transform="translate(55.64321276468308,77.62373474862339)"><circle class="b-outline" cx="0" cy="0" r="25" fill="#F16667" stroke="#eb2728" stroke-width="2px"/><text class="caption" text-anchor="middle" pointer-events="none" x="0" y="0" font-size="10px" fill="#FFFFFF" font-family="Helvetica Neue, Helvetica, Arial, sans-serif"> barack</text><text class="caption" text-anchor="middle" pointer-events="none" x="0" y="10" font-size="10px" fill="#FFFFFF" font-family="Helvetica Neue, Helvetica, Arial, sans-serif"> obama</text></g><g class="node" aria-label="graph-node6" transform="translate(296.5385759219032,-111.30867476716232)"><circle class="b-outline" cx="0" cy="0" r="25" fill="#C990C0" stroke="#b261a5" stroke-width="2px"/><text class="caption" text-anchor="middle" pointer-events="none" x="0" y="5" font-size="10px" fill="#FFFFFF" font-family="Helvetica Neue, Helvetica, Arial, sans-serif"> 古巴</text></g><g class="node" aria-label="graph-node7" transform="translate(129.71784836663056,-92.46232937328946)"><circle class="b-outline" cx="0" cy="0" r="25" fill="#C990C0" stroke="#b261a5" stroke-width="2px"/><text class="caption" text-anchor="middle" pointer-events="none" x="0" y="5" font-size="10px" fill="#FFFFFF" font-family="Helvetica Neue, Helvetica, Arial, sans-serif"> cuba</text></g><g class="node" aria-label="graph-node4" transform="translate(187.7623479467178,-307.602218125988)"><circle class="b-outline" cx="0" cy="0" r="25" fill="#C990C0" stroke="#b261a5" stroke-width="2px"/><text class="caption" text-anchor="middle" pointer-events="none" x="0" y="5" font-size="10px" fill="#FFFFFF" font-family="Helvetica Neue, Helvetica, Arial, sans-serif"> 关塔那摩…</text></g><g class="node" aria-label="graph-node10" transform="translate(63.39395882289182,-194.62365816683263)"><circle class="b-outline" cx="0" cy="0" r="25" fill="#C990C0" stroke="#b261a5" stroke-width="2px"/><text class="caption" text-anchor="middle" pointer-events="none" x="0" y="5" font-size="10px" fill="#FFFFFF" font-family="Helvetica Neue, Helvetica, Arial, sans-serif"> guantan…</text></g><g class="node" aria-label="graph-node60" transform="translate(137.61641329724677,7.158441244242922)"><circle class="b-outline" cx="0" cy="0" r="25" fill="#F16667" stroke="#eb2728" stroke-width="2px"/><text class="caption" text-anchor="middle" pointer-events="none" x="0" y="5" font-size="10px" fill="#FFFFFF" font-family="Helvetica Neue, Helvetica, Arial, sans-serif"> 汤姆 霍曼</text></g><g class="node" aria-label="graph-node12" transform="translate(-40.244538081974476,92.84999924171647)"><circle class="b-outline" cx="0" cy="0" r="25" fill="#C990C0" stroke="#b261a5" stroke-width="2px"/><text class="caption" text-anchor="middle" pointer-events="none" x="0" y="5" font-size="10px" fill="#FFFFFF" font-family="Helvetica Neue, Helvetica, Arial, sans-serif"> guantan…</text></g><g class="node" aria-label="graph-node69" transform="translate(44.10522407101927,-19.064646355560605)"><circle class="b-outline" cx="0" cy="0" r="25" fill="#F16667" stroke="#eb2728" stroke-width="2px"/><text class="caption" text-anchor="middle" pointer-events="none" x="0" y="5" font-size="10px" fill="#FFFFFF" font-family="Helvetica Neue, Helvetica, Arial, sans-serif"> 哈立德·…</text></g><g class="node" aria-label="graph-node76" transform="translate(7.661349966693566,-113.785671017487)"><circle class="b-outline" cx="0" cy="0" r="25" fill="#F16667" stroke="#eb2728" stroke-width="2px"/><text class="caption" text-anchor="middle" pointer-events="none" x="0" y="5" font-size="10px" fill="#FFFFFF" font-family="Helvetica Neue, Helvetica, Arial, sans-serif"> 汤姆·霍曼</text></g><g class="node" aria-label="graph-node77" transform="translate(-23.827433250882283,-237.2845303030948)"><circle class="b-outline" cx="0" cy="0" r="25" fill="#F16667" stroke="#eb2728" stroke-width="2px"/><text class="caption" text-anchor="middle" pointer-events="none" x="0" y="5" font-size="10px" fill="#FFFFFF" font-family="Helvetica Neue, Helvetica, Arial, sans-serif"> 唐纳德·…</text></g><g class="node" aria-label="graph-node66" transform="translate(-152.31640592096218,-241.85654380836772)"><circle class="b-outline" cx="0" cy="0" r="25" fill="#F16667" stroke="#eb2728" stroke-width="2px"/><text class="caption" text-anchor="middle" pointer-events="none" x="0" y="0" font-size="10px" fill="#FFFFFF" font-family="Helvetica Neue, Helvetica, Arial, sans-serif"> 乔治 w</text><text class="caption" text-anchor="middle" pointer-events="none" x="0" y="10" font-size="10px" fill="#FFFFFF" font-family="Helvetica Neue, Helvetica, Arial, sans-serif"> 布什</text></g><g class="node" aria-label="graph-node64" transform="translate(-242.9365455995123,-204.23226284184827)"><circle class="b-outline" cx="0" cy="0" r="25" fill="#F16667" stroke="#eb2728" stroke-width="2px"/><text class="caption" text-anchor="middle" pointer-events="none" x="0" y="0" font-size="10px" fill="#FFFFFF" font-family="Helvetica Neue, Helvetica, Arial, sans-serif"> 唐纳德</text><text class="caption" text-anchor="middle" pointer-events="none" x="0" y="10" font-size="10px" fill="#FFFFFF" font-family="Helvetica Neue, Helvetica, Arial, sans-serif"> 特朗普</text></g><g class="node" aria-label="graph-node63" transform="translate(-278.1988836177684,-113.48128286543995)"><circle class="b-outline" cx="0" cy="0" r="25" fill="#F16667" stroke="#eb2728" stroke-width="2px"/><text class="caption" text-anchor="middle" pointer-events="none" x="0" y="0" font-size="10px" fill="#FFFFFF" font-family="Helvetica Neue, Helvetica, Arial, sans-serif"> george w</text><text class="caption" text-anchor="middle" pointer-events="none" x="0" y="10" font-size="10px" fill="#FFFFFF" font-family="Helvetica Neue, Helvetica, Arial, sans-serif">  bush</text></g><g class="node" aria-label="graph-node1" transform="translate(-88.48763066708402,-168.86873953926272)"><circle class="b-outline" cx="0" cy="0" r="25" fill="#C990C0" stroke="#b261a5" stroke-width="2px"/><text class="caption" text-anchor="middle" pointer-events="none" x="0" y="5" font-size="10px" fill="#FFFFFF" font-family="Helvetica Neue, Helvetica, Arial, sans-serif"> 古巴</text></g><g class="node" aria-label="graph-node72" transform="translate(-181.23688600106794,-127.77271566382736)"><circle class="b-outline" cx="0" cy="0" r="25" fill="#F16667" stroke="#eb2728" stroke-width="2px"/><text class="caption" text-anchor="middle" pointer-events="none" x="0" y="-5" font-size="10px" fill="#FFFFFF" font-family="Helvetica Neue, Helvetica, Arial, sans-serif"> 哈立德</text><text class="caption" text-anchor="middle" pointer-events="none" x="0" y="5" font-size="10px" fill="#FFFFFF" font-family="Helvetica Neue, Helvetica, Arial, sans-serif"> 谢赫</text><text class="caption" text-anchor="middle" pointer-events="none" x="0" y="15" font-size="10px" fill="#FFFFFF" font-family="Helvetica Neue, Helvetica, Arial, sans-serif"> 穆罕…</text></g><g class="node" aria-label="graph-node11" transform="translate(-217.3470014262465,-35.39592666807056)"><circle class="b-outline" cx="0" cy="0" r="25" fill="#C990C0" stroke="#b261a5" stroke-width="2px"/><text class="caption" text-anchor="middle" pointer-events="none" x="0" y="5" font-size="10px" fill="#FFFFFF" font-family="Helvetica Neue, Helvetica, Arial, sans-serif"> 关塔那摩…</text></g><g class="node" aria-label="graph-node62" transform="translate(-314.4951073185904,-21.1994704438923)"><circle class="b-outline" cx="0" cy="0" r="25" fill="#F16667" stroke="#eb2728" stroke-width="2px"/><text class="caption" text-anchor="middle" pointer-events="none" x="0" y="0" font-size="10px" fill="#FFFFFF" font-family="Helvetica Neue, Helvetica, Arial, sans-serif"> donald</text><text class="caption" text-anchor="middle" pointer-events="none" x="0" y="10" font-size="10px" fill="#FFFFFF" font-family="Helvetica Neue, Helvetica, Arial, sans-serif"> trump</text></g><g class="node" aria-label="graph-node3" transform="translate(-253.57024108778896,56.25359637843416)"><circle class="b-outline" cx="0" cy="0" r="25" fill="#C990C0" stroke="#b261a5" stroke-width="2px"/><text class="caption" text-anchor="middle" pointer-events="none" x="0" y="5" font-size="10px" fill="#FFFFFF" font-family="Helvetica Neue, Helvetica, Arial, sans-serif"> cuba</text></g><g class="node" aria-label="graph-node5" transform="translate(-155.4643256933434,67.74152693394052)"><circle class="b-outline" cx="0" cy="0" r="25" fill="#C990C0" stroke="#b261a5" stroke-width="2px"/><text class="caption" text-anchor="middle" pointer-events="none" x="0" y="5" font-size="10px" fill="#FFFFFF" font-family="Helvetica Neue, Helvetica, Arial, sans-serif"> 关塔那摩…</text></g><g class="node" aria-label="graph-node82" transform="translate(-211.86259603788164,146.04457819998785)"><circle class="b-outline" cx="0" cy="0" r="25" fill="#C990C0" stroke="#b261a5" stroke-width="2px"/><text class="caption" text-anchor="middle" pointer-events="none" x="0" y="5" font-size="10px" fill="#FFFFFF" font-family="Helvetica Neue, Helvetica, Arial, sans-serif"> 关塔那…</text></g><g class="node" aria-label="graph-node8" transform="translate(-113.90516685850457,157.51630079004264)"><circle class="b-outline" cx="0" cy="0" r="25" fill="#C990C0" stroke="#b261a5" stroke-width="2px"/><text class="caption" text-anchor="middle" pointer-events="none" x="0" y="5" font-size="10px" fill="#FFFFFF" font-family="Helvetica Neue, Helvetica, Arial, sans-serif"> 关塔那…</text></g><g class="node" aria-label="graph-node70" transform="translate(138.4742425786075,127.08733401291772)"><circle class="b-outline" cx="0" cy="0" r="25" fill="#F16667" stroke="#eb2728" stroke-width="2px"/><text class="caption" text-anchor="middle" pointer-events="none" x="0" y="0" font-size="10px" fill="#FFFFFF" font-family="Helvetica Neue, Helvetica, Arial, sans-serif"> tom</text><text class="caption" text-anchor="middle" pointer-events="none" x="0" y="10" font-size="10px" fill="#FFFFFF" font-family="Helvetica Neue, Helvetica, Arial, sans-serif"> homan</text></g></g></svg>