<svg xmlns="http://www.w3.org/2000/svg" width="496.689453125" height="516.2162475585938" viewBox="-227.0821990966797 -197.1155548095703 496.689453125 516.2162475585938"><title>Neo4j Graph Visualization</title><desc>Created using Neo4j (http://www.neo4j.com/)</desc><g class="layer relationships"><g class="relationship" transform="translate(-171.21611464173094 215.58068281082208) rotate(388.28059422732264)"><path class="b-outline" fill="#A5ABB6" stroke="none" d="M 25 0.5 L 48.142428980014174 0.5 L 48.142428980014174 -0.5 L 25 -0.5 Z M 102.14242898001417 0.5 L 125.28485796002835 0.5 L 125.28485796002835 3.5 L 132.28485796002835 0 L 125.28485796002835 -3.5 L 125.28485796002835 -0.5 L 102.14242898001417 -0.5 Z"/><text text-anchor="middle" pointer-events="none" font-size="8px" fill="#000000" x="75.14242898001417" y="3" font-family="Helvetica Neue, Helvetica, Arial, sans-serif">要把他们送到</text></g><g class="relationship" transform="translate(56.92868238939592 149.5653237225605) rotate(251.48166649208758)"><path class="b-outline" fill="#A5ABB6" stroke="none" d="M 25 0.5 L 30.549714765235912 0.5 L 30.549714765235912 -0.5 L 25 -0.5 Z M 61.76065226523591 0.5 L 67.31036703047182 0.5 L 67.31036703047182 3.5 L 74.31036703047182 0 L 67.31036703047182 -3.5 L 67.31036703047182 -0.5 L 61.76065226523591 -0.5 Z"/><text text-anchor="middle" pointer-events="none" font-size="8px" fill="#000000" x="46.15518351523591" y="3" transform="rotate(180 46.15518351523591 0)" font-family="Helvetica Neue, Helvetica, Arial, sans-serif">source</text></g><g class="relationship" transform="translate(155.40374461833778 253.74091017567187) rotate(329.132009252734)"><path class="b-outline" fill="#A5ABB6" stroke="none" d="M 25 0.5 L 27.878142579329342 0.5 L 27.878142579329342 -0.5 L 25 -0.5 Z M 64.38595507932934 0.5 L 67.26409765865868 0.5 L 67.26409765865868 3.5 L 74.26409765865868 0 L 67.26409765865868 -3.5 L 67.26409765865868 -0.5 L 64.38595507932934 -0.5 Z"/><text text-anchor="middle" pointer-events="none" font-size="8px" fill="#000000" x="46.13204882932934" y="3" font-family="Helvetica Neue, Helvetica, Arial, sans-serif">目前关…</text></g><g class="relationship" transform="translate(154.18570851851595 154.577010700906) rotate(217.59763732859375)"><path class="b-outline" fill="#A5ABB6" stroke="none" d="M 25 0.5 L 62.17459893223352 0.5 L 62.17459893223352 -0.5 L 25 -0.5 Z M 93.38553643223352 0.5 L 130.56013536446704 0.5 L 130.56013536446704 3.5 L 137.56013536446704 0 L 130.56013536446704 -3.5 L 130.56013536446704 -0.5 L 93.38553643223352 -0.5 Z"/><text text-anchor="middle" pointer-events="none" font-size="8px" fill="#000000" x="77.78006768223352" y="3" transform="rotate(180 77.78006768223352 0)" font-family="Helvetica Neue, Helvetica, Arial, sans-serif">source</text></g><g class="relationship" transform="translate(239.12271547545583 104.85781309910517) rotate(193.0295117857096)"><path class="b-outline" fill="#A5ABB6" stroke="none" d="M 25 0.5 L 90.58655899247277 0.5 L 90.58655899247277 -0.5 L 25 -0.5 Z M 121.79749649247277 0.5 L 187.38405548494555 0.5 L 187.38405548494555 3.5 L 194.38405548494555 0 L 187.38405548494555 -3.5 L 187.38405548494555 -0.5 L 121.79749649247277 -0.5 Z"/><text text-anchor="middle" pointer-events="none" font-size="8px" fill="#000000" x="106.19202774247277" y="3" transform="rotate(180 106.19202774247277 0)" font-family="Helvetica Neue, Helvetica, Arial, sans-serif">source</text></g><g class="relationship" transform="translate(153.9269531404208 54.80473482297774) rotate(539.7359855807779)"><path class="b-outline" fill="#A5ABB6" stroke="none" d="M 25 0.5 L 45.16523669039796 0.5 L 45.16523669039796 -0.5 L 25 -0.5 Z M 76.37617419039796 0.5 L 96.54141088079592 0.5 L 96.54141088079592 3.5 L 103.54141088079592 0 L 96.54141088079592 -3.5 L 96.54141088079592 -0.5 L 76.37617419039796 -0.5 Z"/><text text-anchor="middle" pointer-events="none" font-size="8px" fill="#000000" x="60.77070544039796" y="3" transform="rotate(180 60.77070544039796 0)" font-family="Helvetica Neue, Helvetica, Arial, sans-serif">source</text></g><g class="relationship" transform="translate(238.43646058478495 5.893077263039244) rotate(526.9189362147146)"><path class="b-outline" fill="#A5ABB6" stroke="none" d="M 25 0.5 L 90.2571788758995 0.5 L 90.2571788758995 -0.5 L 25 -0.5 Z M 121.4681163758995 0.5 L 186.725295251799 0.5 L 186.725295251799 3.5 L 193.725295251799 0 L 186.725295251799 -3.5 L 186.725295251799 -0.5 L 121.4681163758995 -0.5 Z"/><text text-anchor="middle" pointer-events="none" font-size="8px" fill="#000000" x="105.8626476258995" y="3" transform="rotate(180 105.8626476258995 0)" font-family="Helvetica Neue, Helvetica, Arial, sans-serif">source</text></g><g class="relationship" transform="translate(-74.62871400099122 9.929413504795862) rotate(384.4467948190637)"><path class="b-outline" fill="#A5ABB6" stroke="none" d="M 25 0.5 L 35.827284711186984 0.5 L 35.827284711186984 -0.5 L 25 -0.5 Z M 67.03822221118699 0.5 L 77.86550692237397 0.5 L 77.86550692237397 3.5 L 84.86550692237397 0 L 77.86550692237397 -3.5 L 77.86550692237397 -0.5 L 67.03822221118699 -0.5 Z"/><text text-anchor="middle" pointer-events="none" font-size="8px" fill="#000000" x="51.432753461186984" y="3" font-family="Helvetica Neue, Helvetica, Arial, sans-serif">source</text></g><g class="relationship" transform="translate(238.43646058478495 5.893077263039244) rotate(501.6366696800855)"><path class="b-outline" fill="#A5ABB6" stroke="none" d="M 25 0.5 L 101.24410130558702 0.5 L 101.24410130558702 -0.5 L 25 -0.5 Z M 123.24410130558702 0.5 L 199.48820261117405 0.5 L 199.48820261117405 3.5 L 206.48820261117405 0 L 199.48820261117405 -3.5 L 199.48820261117405 -0.5 L 123.24410130558702 -0.5 Z"/><text text-anchor="middle" pointer-events="none" font-size="8px" fill="#000000" x="112.24410130558702" y="3" transform="rotate(180 112.24410130558702 0)" font-family="Helvetica Neue, Helvetica, Arial, sans-serif">包括</text></g><g class="relationship" transform="translate(155.092118092749 -44.9852156832645) rotate(502.2627744439017)"><path class="b-outline" fill="#A5ABB6" stroke="none" d="M 25 0.5 L 62.90068854952712 0.5 L 62.90068854952712 -0.5 L 25 -0.5 Z M 94.11162604952712 0.5 L 132.01231459905424 0.5 L 132.01231459905424 3.5 L 139.01231459905424 0 L 132.01231459905424 -3.5 L 132.01231459905424 -0.5 L 94.11162604952712 -0.5 Z"/><text text-anchor="middle" pointer-events="none" font-size="8px" fill="#000000" x="78.50615729952712" y="3" transform="rotate(180 78.50615729952712 0)" font-family="Helvetica Neue, Helvetica, Arial, sans-serif">source</text></g><g class="relationship" transform="translate(131.95973138690655 -151.59702222959694) rotate(477.24209671969123)"><path class="b-outline" fill="#A5ABB6" stroke="none" d="M 25 0.5 L 97.30362591790382 0.5 L 97.30362591790382 -0.5 L 25 -0.5 Z M 128.51456341790382 0.5 L 200.81818933580763 0.5 L 200.81818933580763 3.5 L 207.81818933580763 0 L 200.81818933580763 -3.5 L 200.81818933580763 -0.5 L 128.51456341790382 -0.5 Z"/><text text-anchor="middle" pointer-events="none" font-size="8px" fill="#000000" x="112.90909466790382" y="3" transform="rotate(180 112.90909466790382 0)" font-family="Helvetica Neue, Helvetica, Arial, sans-serif">source</text></g><g class="relationship" transform="translate(14.216026285495866 -168.11554830742634) rotate(447.1388090733551)"><path class="b-outline" fill="#A5ABB6" stroke="none" d="M 25 0.5 L 92.7903157130083 0.5 L 92.7903157130083 -0.5 L 25 -0.5 Z M 124.0012532130083 0.5 L 191.7915689260166 0.5 L 191.7915689260166 3.5 L 198.7915689260166 0 L 191.7915689260166 -3.5 L 191.7915689260166 -0.5 L 124.0012532130083 -0.5 Z"/><text text-anchor="middle" pointer-events="none" font-size="8px" fill="#000000" x="108.3957844630083" y="3" font-family="Helvetica Neue, Helvetica, Arial, sans-serif">source</text></g><g class="relationship" transform="translate(-34.685324985803355 -81.36377048281399) rotate(337.14680730769214)"><path class="b-outline" fill="#A5ABB6" stroke="none" d="M 25 0.5 L 59.920247268505435 0.5 L 59.920247268505435 -0.5 L 25 -0.5 Z M 113.92024726850543 0.5 L 148.84049453701087 0.5 L 148.84049453701087 3.5 L 155.84049453701087 0 L 148.84049453701087 -3.5 L 148.84049453701087 -0.5 L 113.92024726850543 -0.5 Z"/><text text-anchor="middle" pointer-events="none" font-size="8px" fill="#000000" x="86.92024726850543" y="3" font-family="Helvetica Neue, Helvetica, Arial, sans-serif">大部分人来自</text></g><g class="relationship" transform="translate(-172.66991777021104 19.963514106693715) rotate(370.14324015670684)"><path class="b-outline" fill="#A5ABB6" stroke="none" d="M 25 0.5 L 81.49527759231952 0.5 L 81.49527759231952 -0.5 L 25 -0.5 Z M 112.70621509231952 0.5 L 169.20149268463905 0.5 L 169.20149268463905 3.5 L 176.20149268463905 0 L 169.20149268463905 -3.5 L 169.20149268463905 -0.5 L 112.70621509231952 -0.5 Z"/><text text-anchor="middle" pointer-events="none" font-size="8px" fill="#000000" x="97.10074634231952" y="3" font-family="Helvetica Neue, Helvetica, Arial, sans-serif">source</text></g><g class="relationship" transform="translate(14.216026285495866 -168.11554830742634) rotate(535.9036820003447)"><path class="b-outline" fill="#A5ABB6" stroke="none" d="M 25 0.5 L 35.14544011775801 0.5 L 35.14544011775801 -0.5 L 25 -0.5 Z M 65.145440117758 0.5 L 75.29088023551601 0.5 L 75.29088023551601 3.5 L 82.29088023551601 0 L 75.29088023551601 -3.5 L 75.29088023551601 -0.5 L 65.145440117758 -0.5 Z"/><text text-anchor="middle" pointer-events="none" font-size="8px" fill="#000000" x="50.14544011775801" y="3" transform="rotate(180 50.14544011775801 0)" font-family="Helvetica Neue, Helvetica, Arial, sans-serif">将会由</text></g><g class="relationship" transform="translate(-198.082178597205 120.47419753330352) rotate(284.1888280988536)"><path class="b-outline" fill="#A5ABB6" stroke="none" d="M 25 0.5 L 29.33671595313342 0.5 L 29.33671595313342 -0.5 L 25 -0.5 Z M 67.33671595313342 0.5 L 71.67343190626684 0.5 L 71.67343190626684 3.5 L 78.67343190626684 0 L 71.67343190626684 -3.5 L 71.67343190626684 -0.5 L 67.33671595313342 -0.5 Z"/><text text-anchor="middle" pointer-events="none" font-size="8px" fill="#000000" x="48.33671595313342" y="3" font-family="Helvetica Neue, Helvetica, Arial, sans-serif">专门用于</text></g><g class="relationship" transform="translate(63.919962558341396 -81.79812676146312) rotate(465.68809121218715)"><path class="b-outline" fill="#A5ABB6" stroke="none" d="M 25 0.5 L 52.14639181954925 0.5 L 52.14639181954925 -0.5 L 25 -0.5 Z M 83.35732931954925 0.5 L 110.5037211390985 0.5 L 110.5037211390985 3.5 L 117.5037211390985 0 L 110.5037211390985 -3.5 L 110.5037211390985 -0.5 L 83.35732931954925 -0.5 Z"/><text text-anchor="middle" pointer-events="none" font-size="8px" fill="#000000" x="67.75186056954925" y="3" transform="rotate(180 67.75186056954925 0)" font-family="Helvetica Neue, Helvetica, Arial, sans-serif">source</text></g><g class="relationship" transform="translate(-75.34752718581434 202.16767129182878) rotate(304.46333524468713)"><path class="b-outline" fill="#A5ABB6" stroke="none" d="M 25 0.5 L 69.90161526325642 0.5 L 69.90161526325642 -0.5 L 25 -0.5 Z M 101.11255276325642 0.5 L 146.01416802651283 0.5 L 146.01416802651283 3.5 L 153.01416802651283 0 L 146.01416802651283 -3.5 L 146.01416802651283 -0.5 L 101.11255276325642 -0.5 Z"/><text text-anchor="middle" pointer-events="none" font-size="8px" fill="#000000" x="85.50708401325642" y="3" font-family="Helvetica Neue, Helvetica, Arial, sans-serif">source</text></g><g class="relationship" transform="translate(-101.14703155103894 105.26909505998006) rotate(338.4886294316052)"><path class="b-outline" fill="#A5ABB6" stroke="none" d="M 25 0.5 L 48.89831666219 0.5 L 48.89831666219 -0.5 L 25 -0.5 Z M 80.10925416219 0.5 L 104.00757082438 0.5 L 104.00757082438 3.5 L 111.00757082438 0 L 104.00757082438 -3.5 L 104.00757082438 -0.5 L 80.10925416219 -0.5 Z"/><text text-anchor="middle" pointer-events="none" font-size="8px" fill="#000000" x="64.50378541219" y="3" font-family="Helvetica Neue, Helvetica, Arial, sans-serif">source</text></g><g class="relationship" transform="translate(-75.34752718581434 202.16767129182878) rotate(270.2142381557267)"><path class="b-outline" fill="#A5ABB6" stroke="none" d="M 25 0.5 L 26.36589458389217 0.5 L 26.36589458389217 -0.5 L 25 -0.5 Z M 158.87370708389216 0.5 L 160.23960166778434 0.5 L 160.23960166778434 3.5 L 167.23960166778434 0 L 160.23960166778434 -3.5 L 160.23960166778434 -0.5 L 158.87370708389216 -0.5 Z"/><text text-anchor="middle" pointer-events="none" font-size="8px" fill="#000000" x="92.61980083389217" y="3" font-family="Helvetica Neue, Helvetica, Arial, sans-serif">会与其具有高度安全性的军事监狱…</text></g><g class="relationship" transform="translate(-132.3898649141516 -70.33077956454316) rotate(398.5503444470345)"><path class="b-outline" fill="#A5ABB6" stroke="none" d="M 25 0.5 L 81.7669688722345 0.5 L 81.7669688722345 -0.5 L 25 -0.5 Z M 112.9779063722345 0.5 L 169.744875244469 0.5 L 169.744875244469 3.5 L 176.744875244469 0 L 169.744875244469 -3.5 L 169.744875244469 -0.5 L 112.9779063722345 -0.5 Z"/><text text-anchor="middle" pointer-events="none" font-size="8px" fill="#000000" x="97.3724376222345" y="3" font-family="Helvetica Neue, Helvetica, Arial, sans-serif">source</text></g><g class="relationship" transform="translate(56.291140374751514 248.22191556737226) rotate(260.89458470132087)"><path class="b-outline" fill="#A5ABB6" stroke="none" d="M 25 0.5 L 78.53738013253208 0.5 L 78.53738013253208 -0.5 L 25 -0.5 Z M 109.74831763253208 0.5 L 163.28569776506416 0.5 L 163.28569776506416 3.5 L 170.28569776506416 0 L 163.28569776506416 -3.5 L 163.28569776506416 -0.5 L 109.74831763253208 -0.5 Z"/><text text-anchor="middle" pointer-events="none" font-size="8px" fill="#000000" x="94.14284888253208" y="3" transform="rotate(180 94.14284888253208 0)" font-family="Helvetica Neue, Helvetica, Arial, sans-serif">source</text></g><g class="relationship" transform="translate(-132.3898649141516 -70.33077956454316) rotate(326.2970804467483)"><path class="b-outline" fill="#A5ABB6" stroke="none" d="M 25 0.5 L 61.612354883611545 0.5 L 61.612354883611545 -0.5 L 25 -0.5 Z M 107.61235488361154 0.5 L 144.2247097672231 0.5 L 144.2247097672231 3.5 L 151.2247097672231 0 L 144.2247097672231 -3.5 L 144.2247097672231 -0.5 L 107.61235488361154 -0.5 Z"/><text text-anchor="middle" pointer-events="none" font-size="8px" fill="#000000" x="84.61235488361154" y="3" font-family="Helvetica Neue, Helvetica, Arial, sans-serif">曾承诺关闭</text></g><g class="relationship" transform="translate(56.291140374751514 248.22191556737226) rotate(316.2710060501166)"><path class="b-outline" fill="#A5ABB6" stroke="none" d="M 25 0.5 L 53.236095767883725 0.5 L 53.236095767883725 -0.5 L 25 -0.5 Z M 75.23609576788373 0.5 L 103.47219153576745 0.5 L 103.47219153576745 3.5 L 110.47219153576745 0 L 103.47219153576745 -3.5 L 103.47219153576745 -0.5 L 75.23609576788373 -0.5 Z"/><text text-anchor="middle" pointer-events="none" font-size="8px" fill="#000000" x="64.23609576788373" y="3" font-family="Helvetica Neue, Helvetica, Arial, sans-serif">下令</text></g><g class="relationship" transform="translate(-32.70511169438857 290.1006707739693) rotate(283.9020110272038)"><path class="b-outline" fill="#A5ABB6" stroke="none" d="M 25 0.5 L 101.78753795117058 0.5 L 101.78753795117058 -0.5 L 25 -0.5 Z M 132.99847545117058 0.5 L 209.78601340234115 0.5 L 209.78601340234115 3.5 L 216.78601340234115 0 L 209.78601340234115 -3.5 L 209.78601340234115 -0.5 L 132.99847545117058 -0.5 Z"/><text text-anchor="middle" pointer-events="none" font-size="8px" fill="#000000" x="117.39300670117058" y="3" font-family="Helvetica Neue, Helvetica, Arial, sans-serif">source</text></g><g class="relationship" transform="translate(-198.082178597205 120.47419753330352) rotate(343.7637409209499)"><path class="b-outline" fill="#A5ABB6" stroke="none" d="M 25 0.5 L 97.27050431988309 0.5 L 97.27050431988309 -0.5 L 25 -0.5 Z M 128.4814418198831 0.5 L 200.75194613976618 0.5 L 200.75194613976618 3.5 L 207.75194613976618 0 L 200.75194613976618 -3.5 L 200.75194613976618 -0.5 L 128.4814418198831 -0.5 Z"/><text text-anchor="middle" pointer-events="none" font-size="8px" fill="#000000" x="112.87597306988309" y="3" font-family="Helvetica Neue, Helvetica, Arial, sans-serif">source</text></g><g class="relationship" transform="translate(-92.80076604021389 -160.45140177778916) rotate(421.29712001181394)"><path class="b-outline" fill="#A5ABB6" stroke="none" d="M 25 0.5 L 103.93809716399574 0.5 L 103.93809716399574 -0.5 L 25 -0.5 Z M 135.14903466399574 0.5 L 214.08713182799147 0.5 L 214.08713182799147 3.5 L 221.08713182799147 0 L 214.08713182799147 -3.5 L 214.08713182799147 -0.5 L 135.14903466399574 -0.5 Z"/><text text-anchor="middle" pointer-events="none" font-size="8px" fill="#000000" x="119.54356591399574" y="3" font-family="Helvetica Neue, Helvetica, Arial, sans-serif">source</text></g><g class="relationship" transform="translate(-34.685324985803355 -81.36377048281399) rotate(426.2865014261023)"><path class="b-outline" fill="#A5ABB6" stroke="none" d="M 25 0.5 L 55.580863176300895 0.5 L 55.580863176300895 -0.5 L 25 -0.5 Z M 86.7918006763009 0.5 L 117.37266385260179 0.5 L 117.37266385260179 3.5 L 124.37266385260179 0 L 117.37266385260179 -3.5 L 117.37266385260179 -0.5 L 86.7918006763009 -0.5 Z"/><text text-anchor="middle" pointer-events="none" font-size="8px" fill="#000000" x="71.1863319263009" y="3" font-family="Helvetica Neue, Helvetica, Arial, sans-serif">source</text></g><g class="relationship" transform="translate(155.40374461833778 253.74091017567187) rotate(236.75466730407436)"><path class="b-outline" fill="#A5ABB6" stroke="none" d="M 25 0.5 L 99.47432334809649 0.5 L 99.47432334809649 -0.5 L 25 -0.5 Z M 130.6852608480965 0.5 L 205.15958419619298 0.5 L 205.15958419619298 3.5 L 212.15958419619298 0 L 205.15958419619298 -3.5 L 205.15958419619298 -0.5 L 130.6852608480965 -0.5 Z"/><text text-anchor="middle" pointer-events="none" font-size="8px" fill="#000000" x="115.07979209809649" y="3" transform="rotate(180 115.07979209809649 0)" font-family="Helvetica Neue, Helvetica, Arial, sans-serif">source</text></g><g class="relationship" transform="translate(155.40374461833778 253.74091017567187) rotate(299.34963426650734)"><path class="b-outline" fill="#A5ABB6" stroke="none" d="M 25 0.5 L 34.90351672572588 0.5 L 34.90351672572588 -0.5 L 25 -0.5 Z M 128.90351672572586 0.5 L 138.80703345145176 0.5 L 138.80703345145176 3.5 L 145.80703345145176 0 L 138.80703345145176 -3.5 L 138.80703345145176 -0.5 L 128.90351672572586 -0.5 Z"/><text text-anchor="middle" pointer-events="none" font-size="8px" fill="#000000" x="81.90351672572588" y="3" font-family="Helvetica Neue, Helvetica, Arial, sans-serif">还有一个小型独立的设施</text></g><g class="relationship" transform="translate(-171.21611464173094 215.58068281082208) rotate(320.82834105232735)"><path class="b-outline" fill="#A5ABB6" stroke="none" d="M 25 0.5 L 107.6931383665062 0.5 L 107.6931383665062 -0.5 L 25 -0.5 Z M 138.90407586650622 0.5 L 221.5972142330124 0.5 L 221.5972142330124 3.5 L 228.5972142330124 0 L 221.5972142330124 -3.5 L 221.5972142330124 -0.5 L 138.90407586650622 -0.5 Z"/><text text-anchor="middle" pointer-events="none" font-size="8px" fill="#000000" x="123.2986071165062" y="3" font-family="Helvetica Neue, Helvetica, Arial, sans-serif">source</text></g><g class="relationship" transform="translate(240.60724864231474 202.8122936028268) rotate(214.4092078179849)"><path class="b-outline" fill="#A5ABB6" stroke="none" d="M 25 0.5 L 111.3275141208074 0.5 L 111.3275141208074 -0.5 L 25 -0.5 Z M 142.5384516208074 0.5 L 228.8659657416148 0.5 L 228.8659657416148 3.5 L 235.8659657416148 0 L 228.8659657416148 -3.5 L 228.8659657416148 -0.5 L 142.5384516208074 -0.5 Z"/><text text-anchor="middle" pointer-events="none" font-size="8px" fill="#000000" x="126.9329828708074" y="3" transform="rotate(180 126.9329828708074 0)" font-family="Helvetica Neue, Helvetica, Arial, sans-serif">source</text></g></g><g class="layer nodes"><g class="node" aria-label="graph-node36" transform="translate(-171.21611464173094,215.58068281082208)"><circle class="b-outline" cx="0" cy="0" r="25" fill="#57C7E3" stroke="#23b3d7" stroke-width="2px"/><text class="caption" text-anchor="middle" pointer-events="none" x="0" y="5" font-size="10px" fill="#2A2C34" font-family="Helvetica Neue, Helvetica, Arial, sans-serif"> 我们</text></g><g class="node" aria-label="graph-node49" transform="translate(-32.70511169438857,290.1006707739693)"><circle class="b-outline" cx="0" cy="0" r="25" fill="#57C7E3" stroke="#23b3d7" stroke-width="2px"/><text class="caption" text-anchor="middle" pointer-events="none" x="0" y="5" font-size="10px" fill="#2A2C34" font-family="Helvetica Neue, Helvetica, Arial, sans-serif"> 关塔那摩</text></g><g class="node" aria-label="graph-node46" transform="translate(56.92868238939592,149.5653237225605)"><circle class="b-outline" cx="0" cy="0" r="25" fill="#57C7E3" stroke="#23b3d7" stroke-width="2px"/><text class="caption" text-anchor="middle" pointer-events="none" x="0" y="0" font-size="10px" fill="#2A2C34" font-family="Helvetica Neue, Helvetica, Arial, sans-serif"> 被指控为9</text><text class="caption" text-anchor="middle" pointer-events="none" x="0" y="10" font-size="10px" fill="#2A2C34" font-family="Helvetica Neue, Helvetica, Arial, sans-serif"> 11事件…</text></g><g class="node" aria-label="graph-node42" transform="translate(25.386906912915563,55.397041379096635)"><circle class="b-outline" cx="0" cy="0" r="25" fill="#D9C8AE" stroke="#c0a378" stroke-width="2px"/><text class="caption" text-anchor="middle" pointer-events="none" x="0" y="5" font-size="10px" fill="#2A2C34" font-family="Helvetica Neue, Helvetica, Arial, sans-serif"> 特朗普计…</text></g><g class="node" aria-label="graph-node35" transform="translate(155.40374461833778,253.74091017567187)"><circle class="b-outline" cx="0" cy="0" r="25" fill="#57C7E3" stroke="#23b3d7" stroke-width="2px"/><text class="caption" text-anchor="middle" pointer-events="none" x="0" y="5" font-size="10px" fill="#2A2C34" font-family="Helvetica Neue, Helvetica, Arial, sans-serif"> 该基地</text></g><g class="node" aria-label="graph-node30" transform="translate(240.60724864231474,202.8122936028268)"><circle class="b-outline" cx="0" cy="0" r="25" fill="#57C7E3" stroke="#23b3d7" stroke-width="2px"/><text class="caption" text-anchor="middle" pointer-events="none" x="0" y="5" font-size="10px" fill="#2A2C34" font-family="Helvetica Neue, Helvetica, Arial, sans-serif"> 15名被拘…</text></g><g class="node" aria-label="graph-node20" transform="translate(154.18570851851595,154.577010700906)"><circle class="b-outline" cx="0" cy="0" r="25" fill="#57C7E3" stroke="#23b3d7" stroke-width="2px"/><text class="caption" text-anchor="middle" pointer-events="none" x="0" y="5" font-size="10px" fill="#2A2C34" font-family="Helvetica Neue, Helvetica, Arial, sans-serif"> 在关塔那…</text></g><g class="node" aria-label="graph-node43" transform="translate(239.12271547545583,104.85781309910517)"><circle class="b-outline" cx="0" cy="0" r="25" fill="#57C7E3" stroke="#23b3d7" stroke-width="2px"/><text class="caption" text-anchor="middle" pointer-events="none" x="0" y="5" font-size="10px" fill="#2A2C34" font-family="Helvetica Neue, Helvetica, Arial, sans-serif"> 用数十年…</text></g><g class="node" aria-label="graph-node33" transform="translate(153.9269531404208,54.80473482297774)"><circle class="b-outline" cx="0" cy="0" r="25" fill="#F16667" stroke="#eb2728" stroke-width="2px"/><text class="caption" text-anchor="middle" pointer-events="none" x="0" y="-5" font-size="10px" fill="#FFFFFF" font-family="Helvetica Neue, Helvetica, Arial, sans-serif"> khalid</text><text class="caption" text-anchor="middle" pointer-events="none" x="0" y="5" font-size="10px" fill="#FFFFFF" font-family="Helvetica Neue, Helvetica, Arial, sans-serif"> sheikh</text><text class="caption" text-anchor="middle" pointer-events="none" x="0" y="15" font-size="10px" fill="#FFFFFF" font-family="Helvetica Neue, Helvetica, Arial, sans-serif"> mo…</text></g><g class="node" aria-label="graph-node40" transform="translate(238.43646058478495,5.893077263039244)"><circle class="b-outline" cx="0" cy="0" r="25" fill="#57C7E3" stroke="#23b3d7" stroke-width="2px"/><text class="caption" text-anchor="middle" pointer-events="none" x="0" y="5" font-size="10px" fill="#2A2C34" font-family="Helvetica Neue, Helvetica, Arial, sans-serif"> 被拘留者</text></g><g class="node" aria-label="graph-node28" transform="translate(-74.62871400099122,9.929413504795862)"><circle class="b-outline" cx="0" cy="0" r="25" fill="#57C7E3" stroke="#23b3d7" stroke-width="2px"/><text class="caption" text-anchor="middle" pointer-events="none" x="0" y="5" font-size="10px" fill="#2A2C34" font-family="Helvetica Neue, Helvetica, Arial, sans-serif"> 用来关押…</text></g><g class="node" aria-label="graph-node17" transform="translate(155.092118092749,-44.9852156832645)"><circle class="b-outline" cx="0" cy="0" r="25" fill="#F16667" stroke="#eb2728" stroke-width="2px"/><text class="caption" text-anchor="middle" pointer-events="none" x="0" y="5" font-size="10px" fill="#FFFFFF" font-family="Helvetica Neue, Helvetica, Arial, sans-serif"> 乔治·W·…</text></g><g class="node" aria-label="graph-node38" transform="translate(131.95973138690655,-151.59702222959694)"><circle class="b-outline" cx="0" cy="0" r="25" fill="#57C7E3" stroke="#23b3d7" stroke-width="2px"/><text class="caption" text-anchor="middle" pointer-events="none" x="0" y="5" font-size="10px" fill="#2A2C34" font-family="Helvetica Neue, Helvetica, Arial, sans-serif"> 海地和…</text></g><g class="node" aria-label="graph-node26" transform="translate(14.216026285495866,-168.11554830742634)"><circle class="b-outline" cx="0" cy="0" r="25" fill="#57C7E3" stroke="#23b3d7" stroke-width="2px"/><text class="caption" text-anchor="middle" pointer-events="none" x="0" y="5" font-size="10px" fill="#2A2C34" font-family="Helvetica Neue, Helvetica, Arial, sans-serif"> 该设施</text></g><g class="node" aria-label="graph-node24" transform="translate(-34.685324985803355,-81.36377048281399)"><circle class="b-outline" cx="0" cy="0" r="25" fill="#57C7E3" stroke="#23b3d7" stroke-width="2px"/><text class="caption" text-anchor="middle" pointer-events="none" x="0" y="5" font-size="10px" fill="#2A2C34" font-family="Helvetica Neue, Helvetica, Arial, sans-serif"> 试图非法…</text></g><g class="node" aria-label="graph-node27" transform="translate(-172.66991777021104,19.963514106693715)"><circle class="b-outline" cx="0" cy="0" r="25" fill="#57C7E3" stroke="#23b3d7" stroke-width="2px"/><text class="caption" text-anchor="middle" pointer-events="none" x="0" y="5" font-size="10px" fill="#2A2C34" font-family="Helvetica Neue, Helvetica, Arial, sans-serif"> 关押在…</text></g><g class="node" aria-label="graph-node31" transform="translate(-92.80076604021389,-160.45140177778916)"><circle class="b-outline" cx="0" cy="0" r="25" fill="#57C7E3" stroke="#23b3d7" stroke-width="2px"/><text class="caption" text-anchor="middle" pointer-events="none" x="0" y="5" font-size="10px" fill="#2A2C34" font-family="Helvetica Neue, Helvetica, Arial, sans-serif"> 移民及海…</text></g><g class="node" aria-label="graph-node47" transform="translate(-198.082178597205,120.47419753330352)"><circle class="b-outline" cx="0" cy="0" r="25" fill="#57C7E3" stroke="#23b3d7" stroke-width="2px"/><text class="caption" text-anchor="middle" pointer-events="none" x="0" y="5" font-size="10px" fill="#2A2C34" font-family="Helvetica Neue, Helvetica, Arial, sans-serif"> 军事拘留…</text></g><g class="node" aria-label="graph-node51" transform="translate(63.919962558341396,-81.79812676146312)"><circle class="b-outline" cx="0" cy="0" r="25" fill="#C990C0" stroke="#b261a5" stroke-width="2px"/><text class="caption" text-anchor="middle" pointer-events="none" x="0" y="5" font-size="10px" fill="#FFFFFF" font-family="Helvetica Neue, Helvetica, Arial, sans-serif"> 关塔那摩…</text></g><g class="node selected" aria-label="graph-node34" transform="translate(-75.34752718581434,202.16767129182878)"><circle class="b-outline" cx="0" cy="0" r="25" fill="#57C7E3" stroke="#23b3d7" stroke-width="2px"/><text class="caption" text-anchor="middle" pointer-events="none" x="0" y="5" font-size="10px" fill="#2A2C34" font-family="Helvetica Neue, Helvetica, Arial, sans-serif"> 关塔那摩…</text></g><g class="node" aria-label="graph-node22" transform="translate(-101.14703155103894,105.26909505998006)"><circle class="b-outline" cx="0" cy="0" r="25" fill="#F16667" stroke="#eb2728" stroke-width="2px"/><text class="caption" text-anchor="middle" pointer-events="none" x="0" y="5" font-size="10px" fill="#FFFFFF" font-family="Helvetica Neue, Helvetica, Arial, sans-serif"> 唐纳德·…</text></g><g class="node" aria-label="graph-node29" transform="translate(-132.3898649141516,-70.33077956454316)"><circle class="b-outline" cx="0" cy="0" r="25" fill="#57C7E3" stroke="#23b3d7" stroke-width="2px"/><text class="caption" text-anchor="middle" pointer-events="none" x="0" y="5" font-size="10px" fill="#2A2C34" font-family="Helvetica Neue, Helvetica, Arial, sans-serif"> 几位民主…</text></g><g class="node" aria-label="graph-node41" transform="translate(56.291140374751514,248.22191556737226)"><circle class="b-outline" cx="0" cy="0" r="25" fill="#F16667" stroke="#eb2728" stroke-width="2px"/><text class="caption" text-anchor="middle" pointer-events="none" x="0" y="0" font-size="10px" fill="#FFFFFF" font-family="Helvetica Neue, Helvetica, Arial, sans-serif"> 唐纳德</text><text class="caption" text-anchor="middle" pointer-events="none" x="0" y="10" font-size="10px" fill="#FFFFFF" font-family="Helvetica Neue, Helvetica, Arial, sans-serif"> 特朗普</text></g></g></svg>