<svg xmlns="http://www.w3.org/2000/svg" width="699.34326171875" height="565.5841064453125" viewBox="-296.27703857421875 -273.4599304199219 699.34326171875 565.5841064453125"><title>Neo4j Graph Visualization</title><desc>Created using Neo4j (http://www.neo4j.com/)</desc><g class="layer relationships"><g class="relationship" transform="translate(-80.6335172734269 239.9396436815816) rotate(343.810822024911)"><path class="b-outline" fill="#A5ABB6" stroke="none" d="M 25 0.5 L 67.01893544269542 0.5 L 67.01893544269542 -0.5 L 25 -0.5 Z M 97.01893544269542 0.5 L 139.03787088539084 0.5 L 139.03787088539084 3.5 L 146.03787088539084 0 L 139.03787088539084 -3.5 L 139.03787088539084 -0.5 L 97.01893544269542 -0.5 Z"/><text text-anchor="middle" pointer-events="none" font-size="8px" fill="#000000" x="82.01893544269542" y="3" font-family="Helvetica Neue, Helvetica, Arial, sans-serif">以关押</text></g><g class="relationship" transform="translate(15.28265792735714 263.1241253076044) rotate(313.24613609806204)"><path class="b-outline" fill="#A5ABB6" stroke="none" d="M 25 0.5 L 79.8227944440936 0.5 L 79.8227944440936 -0.5 L 25 -0.5 Z M 109.8227944440936 0.5 L 164.6455888881872 0.5 L 164.6455888881872 3.5 L 171.6455888881872 0 L 164.6455888881872 -3.5 L 164.6455888881872 -0.5 L 109.8227944440936 -0.5 Z"/><text text-anchor="middle" pointer-events="none" font-size="8px" fill="#000000" x="94.8227944440936" y="3" font-family="Helvetica Neue, Helvetica, Arial, sans-serif">被用来</text></g><g class="relationship" transform="translate(374.0661637797977 47.95653810672898) rotate(184.62062558238603)"><path class="b-outline" fill="#A5ABB6" stroke="none" d="M 25 0.5 L 47.40781529248392 0.5 L 47.40781529248392 -0.5 L 25 -0.5 Z M 103.25547154248392 0.5 L 125.66328683496783 0.5 L 125.66328683496783 3.5 L 132.66328683496783 0 L 125.66328683496783 -3.5 L 125.66328683496783 -0.5 L 103.25547154248392 -0.5 Z"/><text text-anchor="middle" pointer-events="none" font-size="8px" fill="#000000" x="75.33164341748392" y="3" transform="rotate(180 75.33164341748392 0)" font-family="Helvetica Neue, Helvetica, Arial, sans-serif">OfficialName</text></g><g class="relationship" transform="translate(53.81628368029839 97.69831767893854) rotate(307.5554096328822)"><path class="b-outline" fill="#A5ABB6" stroke="none" d="M 25 0.5 L 83.60055794596964 0.5 L 83.60055794596964 -0.5 L 25 -0.5 Z M 105.60055794596964 0.5 L 164.20111589193928 0.5 L 164.20111589193928 3.5 L 171.20111589193928 0 L 164.20111589193928 -3.5 L 164.20111589193928 -0.5 L 105.60055794596964 -0.5 Z"/><text text-anchor="middle" pointer-events="none" font-size="8px" fill="#000000" x="94.60055794596964" y="3" font-family="Helvetica Neue, Helvetica, Arial, sans-serif">受到</text></g><g class="relationship" transform="translate(119.63077715906083 25.287633096219658) rotate(184.38636766710692)"><path class="b-outline" fill="#A5ABB6" stroke="none" d="M 25 0.5 L 53.28222614672627 0.5 L 53.28222614672627 -0.5 L 25 -0.5 Z M 84.49316364672627 0.5 L 112.77538979345255 0.5 L 112.77538979345255 3.5 L 119.77538979345255 0 L 112.77538979345255 -3.5 L 112.77538979345255 -0.5 L 84.49316364672627 -0.5 Z"/><text text-anchor="middle" pointer-events="none" font-size="8px" fill="#000000" x="68.88769489672627" y="3" transform="rotate(180 68.88769489672627 0)" font-family="Helvetica Neue, Helvetica, Arial, sans-serif">source</text></g><g class="relationship" transform="translate(74.8140656058386 -62.750644102132725) rotate(502.286851617652)"><path class="b-outline" fill="#A5ABB6" stroke="none" d="M 25 0.5 L 43.8048741475392 0.5 L 43.8048741475392 -0.5 L 25 -0.5 Z M 75.01581164753921 0.5 L 93.8206857950784 0.5 L 93.8206857950784 3.5 L 100.8206857950784 0 L 93.8206857950784 -3.5 L 93.8206857950784 -0.5 L 75.01581164753921 -0.5 Z"/><text text-anchor="middle" pointer-events="none" font-size="8px" fill="#000000" x="59.4103428975392" y="3" transform="rotate(180 59.4103428975392 0)" font-family="Helvetica Neue, Helvetica, Arial, sans-serif">source</text></g><g class="relationship" transform="translate(-5.831271290417929 -217.9274474680943) rotate(454.65187542530305)"><path class="b-outline" fill="#A5ABB6" stroke="none" d="M 25 0.5 L 97.34934916698157 0.5 L 97.34934916698157 -0.5 L 25 -0.5 Z M 128.56028666698157 0.5 L 200.90963583396314 0.5 L 200.90963583396314 3.5 L 207.90963583396314 0 L 200.90963583396314 -3.5 L 200.90963583396314 -0.5 L 128.56028666698157 -0.5 Z"/><text text-anchor="middle" pointer-events="none" font-size="8px" fill="#000000" x="112.95481791698157" y="3" transform="rotate(180 112.95481791698157 0)" font-family="Helvetica Neue, Helvetica, Arial, sans-serif">source</text></g><g class="relationship" transform="translate(-13.351569808518956 -119.71892729450597) rotate(454.8519275710998)"><path class="b-outline" fill="#A5ABB6" stroke="none" d="M 25 0.5 L 48.102301885969155 0.5 L 48.102301885969155 -0.5 L 25 -0.5 Z M 79.31323938596915 0.5 L 102.41554127193831 0.5 L 102.41554127193831 3.5 L 109.41554127193831 0 L 102.41554127193831 -3.5 L 102.41554127193831 -0.5 L 79.31323938596915 -0.5 Z"/><text text-anchor="middle" pointer-events="none" font-size="8px" fill="#000000" x="63.707770635969155" y="3" transform="rotate(180 63.707770635969155 0)" font-family="Helvetica Neue, Helvetica, Arial, sans-serif">source</text></g><g class="relationship" transform="translate(75.51121808371022 -160.33140507886472) rotate(479.86623536001485)"><path class="b-outline" fill="#A5ABB6" stroke="none" d="M 25 0.5 L 81.5335398456524 0.5 L 81.5335398456524 -0.5 L 25 -0.5 Z M 112.7444773456524 0.5 L 169.2780171913048 0.5 L 169.2780171913048 3.5 L 176.2780171913048 0 L 169.2780171913048 -3.5 L 169.2780171913048 -0.5 L 112.7444773456524 -0.5 Z"/><text text-anchor="middle" pointer-events="none" font-size="8px" fill="#000000" x="97.1390085956524" y="3" transform="rotate(180 97.1390085956524 0)" font-family="Helvetica Neue, Helvetica, Arial, sans-serif">source</text></g><g class="relationship" transform="translate(150.0112110689586 119.88410088163396) rotate(211.16347758568156)"><path class="b-outline" fill="#A5ABB6" stroke="none" d="M 25 0.5 L 82.99394587227499 0.5 L 82.99394587227499 -0.5 L 25 -0.5 Z M 114.20488337227499 0.5 L 172.19882924454998 0.5 L 172.19882924454998 3.5 L 179.19882924454998 0 L 172.19882924454998 -3.5 L 172.19882924454998 -0.5 L 114.20488337227499 -0.5 Z"/><text text-anchor="middle" pointer-events="none" font-size="8px" fill="#000000" x="98.59941462227499" y="3" transform="rotate(180 98.59941462227499 0)" font-family="Helvetica Neue, Helvetica, Arial, sans-serif">source</text></g><g class="relationship" transform="translate(-100.400874668739 -192.9967208560724) rotate(429.9361939352469)"><path class="b-outline" fill="#A5ABB6" stroke="none" d="M 25 0.5 L 91.19433476360457 0.5 L 91.19433476360457 -0.5 L 25 -0.5 Z M 122.40527226360457 0.5 L 188.59960702720915 0.5 L 188.59960702720915 3.5 L 195.59960702720915 0 L 188.59960702720915 -3.5 L 188.59960702720915 -0.5 L 122.40527226360457 -0.5 Z"/><text text-anchor="middle" pointer-events="none" font-size="8px" fill="#000000" x="106.79980351360457" y="3" font-family="Helvetica Neue, Helvetica, Arial, sans-serif">source</text></g><g class="relationship" transform="translate(-197.0719461259456 -172.68439760072482) rotate(407.31894251434363)"><path class="b-outline" fill="#A5ABB6" stroke="none" d="M 25 0.5 L 108.01294652169489 0.5 L 108.01294652169489 -0.5 L 25 -0.5 Z M 139.2238840216949 0.5 L 222.23683054338977 0.5 L 222.23683054338977 3.5 L 229.23683054338977 0 L 222.23683054338977 -3.5 L 222.23683054338977 -0.5 L 139.2238840216949 -0.5 Z"/><text text-anchor="middle" pointer-events="none" font-size="8px" fill="#000000" x="123.61841527169489" y="3" font-family="Helvetica Neue, Helvetica, Arial, sans-serif">source</text></g><g class="relationship" transform="translate(-109.39835650402466 -94.63306817573354) rotate(412.1190398500339)"><path class="b-outline" fill="#A5ABB6" stroke="none" d="M 25 0.5 L 49.84781272363675 0.5 L 49.84781272363675 -0.5 L 25 -0.5 Z M 81.05875022363675 0.5 L 105.9065629472735 0.5 L 105.9065629472735 3.5 L 112.9065629472735 0 L 105.9065629472735 -3.5 L 105.9065629472735 -0.5 L 81.05875022363675 -0.5 Z"/><text text-anchor="middle" pointer-events="none" font-size="8px" fill="#000000" x="65.45328147363675" y="3" font-family="Helvetica Neue, Helvetica, Arial, sans-serif">source</text></g><g class="relationship" transform="translate(-267.2770001062666 -244.45993619579176) rotate(377.1393293334391)"><path class="b-outline" fill="#A5ABB6" stroke="none" d="M 25 0.5 L 64.81566837364268 0.5 L 64.81566837364268 -0.5 L 25 -0.5 Z M 102.81566837364268 0.5 L 142.63133674728536 0.5 L 142.63133674728536 3.5 L 149.63133674728536 0 L 142.63133674728536 -3.5 L 142.63133674728536 -0.5 L 102.81566837364268 -0.5 Z"/><text text-anchor="middle" pointer-events="none" font-size="8px" fill="#000000" x="83.81566837364268" y="3" font-family="Helvetica Neue, Helvetica, Arial, sans-serif">主要关押</text></g><g class="relationship" transform="translate(216.91529153253387 35.2555394243612) rotate(184.97651249284223)"><path class="b-outline" fill="#A5ABB6" stroke="none" d="M 25 0.5 L 102.16962372005011 0.5 L 102.16962372005011 -0.5 L 25 -0.5 Z M 133.3805612200501 0.5 L 210.55018494010022 0.5 L 210.55018494010022 3.5 L 217.55018494010022 0 L 210.55018494010022 -3.5 L 210.55018494010022 -0.5 L 133.3805612200501 -0.5 Z"/><text text-anchor="middle" pointer-events="none" font-size="8px" fill="#000000" x="117.77509247005011" y="3" transform="rotate(180 117.77509247005011 0)" font-family="Helvetica Neue, Helvetica, Arial, sans-serif">source</text></g><g class="relationship" transform="translate(-131.40177439043478 32.504735423274305) rotate(350.2715988358009)"><path class="b-outline" fill="#A5ABB6" stroke="none" d="M 25 0.5 L 35.013375544611264 0.5 L 35.013375544611264 -0.5 L 25 -0.5 Z M 66.22431304461126 0.5 L 76.23768858922253 0.5 L 76.23768858922253 3.5 L 83.23768858922253 0 L 76.23768858922253 -3.5 L 76.23768858922253 -0.5 L 66.22431304461126 -0.5 Z"/><text text-anchor="middle" pointer-events="none" font-size="8px" fill="#000000" x="50.618844294611264" y="3" font-family="Helvetica Neue, Helvetica, Arial, sans-serif">source</text></g><g class="relationship" transform="translate(-205.90628847416465 -75.23841224742088) rotate(386.27605430030826)"><path class="b-outline" fill="#A5ABB6" stroke="none" d="M 25 0.5 L 81.92691660658905 0.5 L 81.92691660658905 -0.5 L 25 -0.5 Z M 113.13785410658905 0.5 L 170.0647707131781 0.5 L 170.0647707131781 3.5 L 177.0647707131781 0 L 170.0647707131781 -3.5 L 170.0647707131781 -0.5 L 113.13785410658905 -0.5 Z"/><text text-anchor="middle" pointer-events="none" font-size="8px" fill="#000000" x="97.53238535658905" y="3" font-family="Helvetica Neue, Helvetica, Arial, sans-serif">source</text></g><g class="relationship" transform="translate(-244.10606438668216 15.69087487900257) rotate(359.6145463823244)"><path class="b-outline" fill="#A5ABB6" stroke="none" d="M 25 0.5 L 90.589764604004 0.5 L 90.589764604004 -0.5 L 25 -0.5 Z M 121.800702104004 0.5 L 187.390466708008 0.5 L 187.390466708008 3.5 L 194.390466708008 0 L 187.390466708008 -3.5 L 187.390466708008 -0.5 L 121.800702104004 -0.5 Z"/><text text-anchor="middle" pointer-events="none" font-size="8px" fill="#000000" x="106.195233354004" y="3" font-family="Helvetica Neue, Helvetica, Arial, sans-serif">source</text></g><g class="relationship" transform="translate(15.28265792735714 263.1241253076044) rotate(260.86983248141996)"><path class="b-outline" fill="#A5ABB6" stroke="none" d="M 25 0.5 L 106.9461424058372 0.5 L 106.9461424058372 -0.5 L 25 -0.5 Z M 138.15707990583718 0.5 L 220.1032223116744 0.5 L 220.1032223116744 3.5 L 227.1032223116744 0 L 220.1032223116744 -3.5 L 220.1032223116744 -0.5 L 138.15707990583718 -0.5 Z"/><text text-anchor="middle" pointer-events="none" font-size="8px" fill="#000000" x="122.5516111558372" y="3" transform="rotate(180 122.5516111558372 0)" font-family="Helvetica Neue, Helvetica, Arial, sans-serif">source</text></g><g class="relationship" transform="translate(53.81628368029839 97.69831767893854) rotate(226.74871239724467)"><path class="b-outline" fill="#A5ABB6" stroke="none" d="M 25 0.5 L 38.20401714178169 0.5 L 38.20401714178169 -0.5 L 25 -0.5 Z M 69.41495464178169 0.5 L 82.61897178356338 0.5 L 82.61897178356338 3.5 L 89.61897178356338 0 L 82.61897178356338 -3.5 L 82.61897178356338 -0.5 L 69.41495464178169 -0.5 Z"/><text text-anchor="middle" pointer-events="none" font-size="8px" fill="#000000" x="53.80948589178169" y="3" transform="rotate(180 53.80948589178169 0)" font-family="Helvetica Neue, Helvetica, Arial, sans-serif">source</text></g><g class="relationship" transform="translate(-198.2876812353302 103.3713004251149) rotate(332.81176099924164)"><path class="b-outline" fill="#A5ABB6" stroke="none" d="M 25 0.5 L 78.4578432950037 0.5 L 78.4578432950037 -0.5 L 25 -0.5 Z M 109.6687807950037 0.5 L 163.1266240900074 0.5 L 163.1266240900074 3.5 L 170.1266240900074 0 L 163.1266240900074 -3.5 L 163.1266240900074 -0.5 L 109.6687807950037 -0.5 Z"/><text text-anchor="middle" pointer-events="none" font-size="8px" fill="#000000" x="94.0633120450037" y="3" font-family="Helvetica Neue, Helvetica, Arial, sans-serif">source</text></g><g class="relationship" transform="translate(15.28265792735714 263.1241253076044) rotate(198.9558587641231)"><path class="b-outline" fill="#A5ABB6" stroke="none" d="M 25 0.5 L 66.30933133268144 0.5 L 66.30933133268144 -0.5 L 25 -0.5 Z M 122.15698758268144 0.5 L 163.46631891536288 0.5 L 163.46631891536288 3.5 L 170.46631891536288 0 L 163.46631891536288 -3.5 L 163.46631891536288 -0.5 L 122.15698758268144 -0.5 Z"/><text text-anchor="middle" pointer-events="none" font-size="8px" fill="#000000" x="94.23315945768144" y="3" transform="rotate(180 94.23315945768144 0)" font-family="Helvetica Neue, Helvetica, Arial, sans-serif">OfficialName</text></g><g class="relationship" transform="translate(53.81628368029839 97.69831767893854) rotate(515.4741976180144)"><path class="b-outline" fill="#A5ABB6" stroke="none" d="M 25 0.5 L 91.35365755096046 0.5 L 91.35365755096046 -0.5 L 25 -0.5 Z M 147.20131380096046 0.5 L 213.55497135192093 0.5 L 213.55497135192093 3.5 L 220.55497135192093 0 L 213.55497135192093 -3.5 L 213.55497135192093 -0.5 L 147.20131380096046 -0.5 Z"/><text text-anchor="middle" pointer-events="none" font-size="8px" fill="#000000" x="119.27748567596046" y="3" transform="rotate(180 119.27748567596046 0)" font-family="Helvetica Neue, Helvetica, Arial, sans-serif">OfficialName</text></g><g class="relationship" transform="translate(-103.29353921675573 127.72629017560593) rotate(304.6911282182598)"><path class="b-outline" fill="#A5ABB6" stroke="none" d="M 25 0.5 L 49.920861068702266 0.5 L 49.920861068702266 -0.5 L 25 -0.5 Z M 81.13179856870227 0.5 L 106.05265963740453 0.5 L 106.05265963740453 3.5 L 113.05265963740453 0 L 106.05265963740453 -3.5 L 106.05265963740453 -0.5 L 81.13179856870227 -0.5 Z"/><text text-anchor="middle" pointer-events="none" font-size="8px" fill="#000000" x="65.52632981870227" y="3" font-family="Helvetica Neue, Helvetica, Arial, sans-serif">source</text></g><g class="relationship" transform="translate(-12.787300570413215 169.5603858726057) rotate(265.6073031729886)"><path class="b-outline" fill="#A5ABB6" stroke="none" d="M 25 0.5 L 58.796082714178155 0.5 L 58.796082714178155 -0.5 L 25 -0.5 Z M 90.00702021417816 0.5 L 123.80310292835631 0.5 L 123.80310292835631 3.5 L 130.8031029283563 0 L 123.80310292835631 -3.5 L 123.80310292835631 -0.5 L 90.00702021417816 -0.5 Z"/><text text-anchor="middle" pointer-events="none" font-size="8px" fill="#000000" x="74.40155146417816" y="3" transform="rotate(180 74.40155146417816 0)" font-family="Helvetica Neue, Helvetica, Arial, sans-serif">source</text></g><g class="relationship" transform="translate(83.62208020228213 192.2526226495914) rotate(238.67790926697938)"><path class="b-outline" fill="#A5ABB6" stroke="none" d="M 25 0.5 L 85.1005060319108 0.5 L 85.1005060319108 -0.5 L 25 -0.5 Z M 116.3114435319108 0.5 L 176.4119495638216 0.5 L 176.4119495638216 3.5 L 183.4119495638216 0 L 176.4119495638216 -3.5 L 176.4119495638216 -0.5 L 116.3114435319108 -0.5 Z"/><text text-anchor="middle" pointer-events="none" font-size="8px" fill="#000000" x="100.7059747819108" y="3" transform="rotate(180 100.7059747819108 0)" font-family="Helvetica Neue, Helvetica, Arial, sans-serif">source</text></g><g class="relationship" transform="translate(-197.0719461259456 -172.68439760072482) rotate(464.01915215285123)"><path class="b-outline" fill="#A5ABB6" stroke="none" d="M 25 0.5 L 74.57915785890462 0.5 L 74.57915785890462 -0.5 L 25 -0.5 Z M 112.57915785890462 0.5 L 162.15831571780924 0.5 L 162.15831571780924 3.5 L 169.15831571780924 0 L 162.15831571780924 -3.5 L 162.15831571780924 -0.5 L 112.57915785890462 -0.5 Z"/><text text-anchor="middle" pointer-events="none" font-size="8px" fill="#000000" x="93.57915785890462" y="3" transform="rotate(180 93.57915785890462 0)" font-family="Helvetica Neue, Helvetica, Arial, sans-serif">告诉记者</text></g><g class="relationship" transform="translate(-267.2770001062666 -244.45993619579176) rotate(430.0660676798842)"><path class="b-outline" fill="#A5ABB6" stroke="none" d="M 25 0.5 L 27.5031782961575 0.5 L 27.5031782961575 -0.5 L 25 -0.5 Z M 145.5031782961575 0.5 L 148.006356592315 0.5 L 148.006356592315 3.5 L 155.006356592315 0 L 148.006356592315 -3.5 L 148.006356592315 -0.5 L 145.5031782961575 -0.5 Z"/><text text-anchor="middle" pointer-events="none" font-size="8px" fill="#000000" x="86.5031782961575" y="3" font-family="Helvetica Neue, Helvetica, Arial, sans-serif">在不同的共和党和民主党政府中</text></g><g class="relationship" transform="translate(-197.0719461259456 -172.68439760072482) rotate(346.68987925189754)"><path class="b-outline" fill="#A5ABB6" stroke="none" d="M 25 0.5 L 66.83594145651453 0.5 L 66.83594145651453 -0.5 L 25 -0.5 Z M 122.68359770651453 0.5 L 164.51953916302907 0.5 L 164.51953916302907 3.5 L 171.51953916302907 0 L 164.51953916302907 -3.5 L 164.51953916302907 -0.5 L 122.68359770651453 -0.5 Z"/><text text-anchor="middle" pointer-events="none" font-size="8px" fill="#000000" x="94.75976958151453" y="3" font-family="Helvetica Neue, Helvetica, Arial, sans-serif">OfficialName</text></g><g class="relationship" transform="translate(-169.58334970281794 199.62892034532095) rotate(308.00029131779235)"><path class="b-outline" fill="#A5ABB6" stroke="none" d="M 25 0.5 L 98.541850831831 0.5 L 98.541850831831 -0.5 L 25 -0.5 Z M 129.752788331831 0.5 L 203.294639163662 0.5 L 203.294639163662 3.5 L 210.294639163662 0 L 203.294639163662 -3.5 L 203.294639163662 -0.5 L 129.752788331831 -0.5 Z"/><text text-anchor="middle" pointer-events="none" font-size="8px" fill="#000000" x="114.147319581831" y="3" font-family="Helvetica Neue, Helvetica, Arial, sans-serif">source</text></g><g class="relationship" transform="translate(173.40643215878447 -57.84291243107394) rotate(520.0139093868247)"><path class="b-outline" fill="#A5ABB6" stroke="none" d="M 25 0.5 L 86.30639206951723 0.5 L 86.30639206951723 -0.5 L 25 -0.5 Z M 117.51732956951723 0.5 L 178.82372163903446 0.5 L 178.82372163903446 3.5 L 185.82372163903446 0 L 178.82372163903446 -3.5 L 178.82372163903446 -0.5 L 117.51732956951723 -0.5 Z"/><text text-anchor="middle" pointer-events="none" font-size="8px" fill="#000000" x="101.91186081951723" y="3" transform="rotate(180 101.91186081951723 0)" font-family="Helvetica Neue, Helvetica, Arial, sans-serif">source</text></g><g class="relationship" transform="translate(-80.6335172734269 239.9396436815816) rotate(283.91237485707524)"><path class="b-outline" fill="#A5ABB6" stroke="none" d="M 25 0.5 L 97.16780358452681 0.5 L 97.16780358452681 -0.5 L 25 -0.5 Z M 128.3787410845268 0.5 L 200.54654466905362 0.5 L 200.54654466905362 3.5 L 207.54654466905362 0 L 200.54654466905362 -3.5 L 200.54654466905362 -0.5 L 128.3787410845268 -0.5 Z"/><text text-anchor="middle" pointer-events="none" font-size="8px" fill="#000000" x="112.77327233452681" y="3" font-family="Helvetica Neue, Helvetica, Arial, sans-serif">source</text></g><g class="relationship" transform="translate(-80.6335172734269 239.9396436815816) rotate(256.2475873315458)"><path class="b-outline" fill="#A5ABB6" stroke="none" d="M 25 0.5 L 92.27857591159261 0.5 L 92.27857591159261 -0.5 L 25 -0.5 Z M 114.27857591159261 0.5 L 181.55715182318522 0.5 L 181.55715182318522 3.5 L 188.55715182318522 0 L 181.55715182318522 -3.5 L 181.55715182318522 -0.5 L 114.27857591159261 -0.5 Z"/><text text-anchor="middle" pointer-events="none" font-size="8px" fill="#000000" x="103.27857591159261" y="3" transform="rotate(180 103.27857591159261 0)" font-family="Helvetica Neue, Helvetica, Arial, sans-serif">用于</text></g></g><g class="layer nodes"><g class="node" aria-label="graph-node12" transform="translate(-80.6335172734269,239.9396436815816)"><circle class="b-outline" cx="0" cy="0" r="25" fill="#57C7E3" stroke="#23b3d7" stroke-width="2px"/><text class="caption" text-anchor="middle" pointer-events="none" x="0" y="5" font-size="10px" fill="#2A2C34" font-family="Helvetica Neue, Helvetica, Arial, sans-serif"> 古巴的美…</text></g><g class="node" aria-label="graph-node66" transform="translate(83.62208020228213,192.2526226495914)"><circle class="b-outline" cx="0" cy="0" r="25" fill="#57C7E3" stroke="#23b3d7" stroke-width="2px"/><text class="caption" text-anchor="middle" pointer-events="none" x="0" y="0" font-size="10px" fill="#2A2C34" font-family="Helvetica Neue, Helvetica, Arial, sans-serif"> 2001年9</text><text class="caption" text-anchor="middle" pointer-events="none" x="0" y="10" font-size="10px" fill="#2A2C34" font-family="Helvetica Neue, Helvetica, Arial, sans-serif"> 11袭击…</text></g><g class="node" aria-label="graph-node19" transform="translate(15.28265792735714,263.1241253076044)"><circle class="b-outline" cx="0" cy="0" r="25" fill="#C990C0" stroke="#b261a5" stroke-width="2px"/><text class="caption" text-anchor="middle" pointer-events="none" x="0" y="5" font-size="10px" fill="#FFFFFF" font-family="Helvetica Neue, Helvetica, Arial, sans-serif"> 关塔那…</text></g><g class="node" aria-label="graph-node68" transform="translate(150.0112110689586,119.88410088163396)"><circle class="b-outline" cx="0" cy="0" r="25" fill="#57C7E3" stroke="#23b3d7" stroke-width="2px"/><text class="caption" text-anchor="middle" pointer-events="none" x="0" y="5" font-size="10px" fill="#2A2C34" font-family="Helvetica Neue, Helvetica, Arial, sans-serif"> 关押移民</text></g><g class="node" aria-label="graph-node20" transform="translate(374.0661637797977,47.95653810672898)"><circle class="b-outline" cx="0" cy="0" r="25" fill="#C990C0" stroke="#b261a5" stroke-width="2px"/><text class="caption" text-anchor="middle" pointer-events="none" x="0" y="5" font-size="10px" fill="#FFFFFF" font-family="Helvetica Neue, Helvetica, Arial, sans-serif"> 古巴</text></g><g class="node" aria-label="graph-node21" transform="translate(216.91529153253387,35.2555394243612)"><circle class="b-outline" cx="0" cy="0" r="25" fill="#C990C0" stroke="#b261a5" stroke-width="2px"/><text class="caption" text-anchor="middle" pointer-events="none" x="0" y="5" font-size="10px" fill="#FFFFFF" font-family="Helvetica Neue, Helvetica, Arial, sans-serif"> cuba</text></g><g class="node" aria-label="graph-node22" transform="translate(53.81628368029839,97.69831767893854)"><circle class="b-outline" cx="0" cy="0" r="25" fill="#C990C0" stroke="#b261a5" stroke-width="2px"/><text class="caption" text-anchor="middle" pointer-events="none" x="0" y="5" font-size="10px" fill="#FFFFFF" font-family="Helvetica Neue, Helvetica, Arial, sans-serif"> 关塔那…</text></g><g class="node" aria-label="graph-node62" transform="translate(173.40643215878447,-57.84291243107394)"><circle class="b-outline" cx="0" cy="0" r="25" fill="#57C7E3" stroke="#23b3d7" stroke-width="2px"/><text class="caption" text-anchor="middle" pointer-events="none" x="0" y="5" font-size="10px" fill="#2A2C34" font-family="Helvetica Neue, Helvetica, Arial, sans-serif"> 一些人权…</text></g><g class="node" aria-label="graph-node78" transform="translate(119.63077715906083,25.287633096219658)"><circle class="b-outline" cx="0" cy="0" r="25" fill="#57C7E3" stroke="#23b3d7" stroke-width="2px"/><text class="caption" text-anchor="middle" pointer-events="none" x="0" y="5" font-size="10px" fill="#2A2C34" font-family="Helvetica Neue, Helvetica, Arial, sans-serif"> 位于古巴…</text></g><g class="node" aria-label="graph-node27" transform="translate(-24.720562288308912,14.214950964217762)"><circle class="b-outline" cx="0" cy="0" r="25" fill="#D9C8AE" stroke="#c0a378" stroke-width="2px"/><text class="caption" text-anchor="middle" pointer-events="none" x="0" y="5" font-size="10px" fill="#2A2C34" font-family="Helvetica Neue, Helvetica, Arial, sans-serif"> </text></g><g class="node" aria-label="graph-node63" transform="translate(74.8140656058386,-62.750644102132725)"><circle class="b-outline" cx="0" cy="0" r="25" fill="#57C7E3" stroke="#23b3d7" stroke-width="2px"/><text class="caption" text-anchor="middle" pointer-events="none" x="0" y="5" font-size="10px" fill="#2A2C34" font-family="Helvetica Neue, Helvetica, Arial, sans-serif"> 关闭该…</text></g><g class="node" aria-label="graph-node1" transform="translate(-5.831271290417929,-217.9274474680943)"><circle class="b-outline" cx="0" cy="0" r="25" fill="#F16667" stroke="#eb2728" stroke-width="2px"/><text class="caption" text-anchor="middle" pointer-events="none" x="0" y="0" font-size="10px" fill="#FFFFFF" font-family="Helvetica Neue, Helvetica, Arial, sans-serif"> tom</text><text class="caption" text-anchor="middle" pointer-events="none" x="0" y="10" font-size="10px" fill="#FFFFFF" font-family="Helvetica Neue, Helvetica, Arial, sans-serif"> homan</text></g><g class="node" aria-label="graph-node70" transform="translate(-13.351569808518956,-119.71892729450597)"><circle class="b-outline" cx="0" cy="0" r="25" fill="#F16667" stroke="#eb2728" stroke-width="2px"/><text class="caption" text-anchor="middle" pointer-events="none" x="0" y="5" font-size="10px" fill="#FFFFFF" font-family="Helvetica Neue, Helvetica, Arial, sans-serif"> 哈立德·…</text></g><g class="node" aria-label="graph-node15" transform="translate(75.51121808371022,-160.33140507886472)"><circle class="b-outline" cx="0" cy="0" r="25" fill="#F16667" stroke="#eb2728" stroke-width="2px"/><text class="caption" text-anchor="middle" pointer-events="none" x="0" y="0" font-size="10px" fill="#FFFFFF" font-family="Helvetica Neue, Helvetica, Arial, sans-serif"> 乔治 w</text><text class="caption" text-anchor="middle" pointer-events="none" x="0" y="10" font-size="10px" fill="#FFFFFF" font-family="Helvetica Neue, Helvetica, Arial, sans-serif"> 布什</text></g><g class="node" aria-label="graph-node18" transform="translate(-100.400874668739,-192.9967208560724)"><circle class="b-outline" cx="0" cy="0" r="25" fill="#57C7E3" stroke="#23b3d7" stroke-width="2px"/><text class="caption" text-anchor="middle" pointer-events="none" x="0" y="5" font-size="10px" fill="#2A2C34" font-family="Helvetica Neue, Helvetica, Arial, sans-serif"> 那些试图…</text></g><g class="node" aria-label="graph-node61" transform="translate(-197.0719461259456,-172.68439760072482)"><circle class="b-outline" cx="0" cy="0" r="25" fill="#F16667" stroke="#eb2728" stroke-width="2px"/><text class="caption" text-anchor="middle" pointer-events="none" x="0" y="5" font-size="10px" fill="#FFFFFF" font-family="Helvetica Neue, Helvetica, Arial, sans-serif"> 汤姆 霍曼</text></g><g class="node" aria-label="graph-node77" transform="translate(-109.39835650402466,-94.63306817573354)"><circle class="b-outline" cx="0" cy="0" r="25" fill="#57C7E3" stroke="#23b3d7" stroke-width="2px"/><text class="caption" text-anchor="middle" pointer-events="none" x="0" y="5" font-size="10px" fill="#2A2C34" font-family="Helvetica Neue, Helvetica, Arial, sans-serif"> 15名被拘…</text></g><g class="node" aria-label="graph-node28" transform="translate(-267.2770001062666,-244.45993619579176)"><circle class="b-outline" cx="0" cy="0" r="25" fill="#C990C0" stroke="#b261a5" stroke-width="2px"/><text class="caption" text-anchor="middle" pointer-events="none" x="0" y="5" font-size="10px" fill="#FFFFFF" font-family="Helvetica Neue, Helvetica, Arial, sans-serif"> 关塔那摩…</text></g><g class="node" aria-label="graph-node74" transform="translate(-131.40177439043478,32.504735423274305)"><circle class="b-outline" cx="0" cy="0" r="25" fill="#57C7E3" stroke="#23b3d7" stroke-width="2px"/><text class="caption" text-anchor="middle" pointer-events="none" x="0" y="5" font-size="10px" fill="#2A2C34" font-family="Helvetica Neue, Helvetica, Arial, sans-serif"> 关押在…</text></g><g class="node" aria-label="graph-node81" transform="translate(-205.90628847416465,-75.23841224742088)"><circle class="b-outline" cx="0" cy="0" r="25" fill="#57C7E3" stroke="#23b3d7" stroke-width="2px"/><text class="caption" text-anchor="middle" pointer-events="none" x="0" y="5" font-size="10px" fill="#2A2C34" font-family="Helvetica Neue, Helvetica, Arial, sans-serif"> 均有使用</text></g><g class="node" aria-label="graph-node72" transform="translate(-244.10606438668216,15.69087487900257)"><circle class="b-outline" cx="0" cy="0" r="25" fill="#57C7E3" stroke="#23b3d7" stroke-width="2px"/><text class="caption" text-anchor="middle" pointer-events="none" x="0" y="5" font-size="10px" fill="#2A2C34" font-family="Helvetica Neue, Helvetica, Arial, sans-serif"> 我们只是…</text></g><g class="node" aria-label="graph-node59" transform="translate(-198.2876812353302,103.3713004251149)"><circle class="b-outline" cx="0" cy="0" r="25" fill="#57C7E3" stroke="#23b3d7" stroke-width="2px"/><text class="caption" text-anchor="middle" pointer-events="none" x="0" y="5" font-size="10px" fill="#2A2C34" font-family="Helvetica Neue, Helvetica, Arial, sans-serif"> 该设施会…</text></g><g class="node" aria-label="graph-node30" transform="translate(-169.58334970281794,199.62892034532095)"><circle class="b-outline" cx="0" cy="0" r="25" fill="#C990C0" stroke="#b261a5" stroke-width="2px"/><text class="caption" text-anchor="middle" pointer-events="none" x="0" y="5" font-size="10px" fill="#FFFFFF" font-family="Helvetica Neue, Helvetica, Arial, sans-serif"> guantan…</text></g><g class="node" aria-label="graph-node7" transform="translate(-103.29353921675573,127.72629017560593)"><circle class="b-outline" cx="0" cy="0" r="25" fill="#F16667" stroke="#eb2728" stroke-width="2px"/><text class="caption" text-anchor="middle" pointer-events="none" x="0" y="5" font-size="10px" fill="#FFFFFF" font-family="Helvetica Neue, Helvetica, Arial, sans-serif"> 唐纳德·…</text></g><g class="node" aria-label="graph-node67" transform="translate(-12.787300570413215,169.5603858726057)"><circle class="b-outline" cx="0" cy="0" r="25" fill="#57C7E3" stroke="#23b3d7" stroke-width="2px"/><text class="caption" text-anchor="middle" pointer-events="none" x="0" y="5" font-size="10px" fill="#2A2C34" font-family="Helvetica Neue, Helvetica, Arial, sans-serif"> 在关塔那…</text></g></g></svg>