<svg xmlns="http://www.w3.org/2000/svg" width="1707.595458984375" height="1536.2410888671875" viewBox="-816.8305053710938 -778.4837036132812 1707.595458984375 1536.2410888671875"><title>Neo4j Graph Visualization</title><desc>Created using Neo4j (http://www.neo4j.com/)</desc><g class="layer relationships"><g class="relationship" transform="translate(196.58382575039835 -78.7338425339037) rotate(368.67802942464243)"><path class="b-outline" fill="#A5ABB6" stroke="none" d="M 25 0.5 L 45.060112711124916 0.5 L 45.060112711124916 -0.5 L 25 -0.5 Z M 76.12261271112492 0.5 L 96.18272542224983 0.5 L 96.18272542224983 3.5 L 103.18272542224983 0 L 96.18272542224983 -3.5 L 96.18272542224983 -0.5 L 76.12261271112492 -0.5 Z"/><text text-anchor="middle" pointer-events="none" font-size="8px" fill="#000000" x="60.591362711124916" y="3" font-family="Helvetica Neue, Helvetica, Arial, sans-serif">similar</text></g><g class="relationship" transform="translate(455.15007437504414 -44.38699263221619) rotate(186.49309008830312)"><path class="b-outline" fill="#A5ABB6" stroke="none" d="M 25 0.5 L 47.31985036391127 0.5 L 47.31985036391127 -0.5 L 25 -0.5 Z M 78.38235036391127 0.5 L 100.70220072782254 0.5 L 100.70220072782254 3.5 L 107.70220072782254 0 L 100.70220072782254 -3.5 L 100.70220072782254 -0.5 L 78.38235036391127 -0.5 Z"/><text text-anchor="middle" pointer-events="none" font-size="8px" fill="#000000" x="62.85110036391127" y="3" transform="rotate(180 62.85110036391127 0)" font-family="Helvetica Neue, Helvetica, Arial, sans-serif">similar</text></g><g class="relationship" transform="translate(302.1487802147812 475.03628210163555) rotate(484.40221700333126)"><path class="b-outline" fill="#A5ABB6" stroke="none" d="M 25 0.5 L 77.20918371783137 0.5 L 77.20918371783137 -0.5 L 25 -0.5 Z M 108.27168371783137 0.5 L 160.48086743566273 0.5 L 160.48086743566273 3.5 L 167.48086743566273 0 L 160.48086743566273 -3.5 L 160.48086743566273 -0.5 L 108.27168371783137 -0.5 Z"/><text text-anchor="middle" pointer-events="none" font-size="8px" fill="#000000" x="92.74043371783137" y="3" transform="rotate(180 92.74043371783137 0)" font-family="Helvetica Neue, Helvetica, Arial, sans-serif">similar</text></g><g class="relationship" transform="translate(303.73779075937296 608.4782787496887) rotate(527.0501730928587)"><path class="b-outline" fill="#A5ABB6" stroke="none" d="M 25 0.5 L 37.57877844600731 0.5 L 37.57877844600731 -0.5 L 25 -0.5 Z M 68.6412784460073 0.5 L 81.22005689201463 0.5 L 81.22005689201463 3.5 L 88.22005689201463 0 L 81.22005689201463 -3.5 L 81.22005689201463 -0.5 L 68.6412784460073 -0.5 Z"/><text text-anchor="middle" pointer-events="none" font-size="8px" fill="#000000" x="53.11002844600731" y="3" transform="rotate(180 53.11002844600731 0)" font-family="Helvetica Neue, Helvetica, Arial, sans-serif">similar</text></g><g class="relationship" transform="translate(747.5823119475807 150.64887237122076) rotate(460.0753081603574)"><path class="b-outline" fill="#A5ABB6" stroke="none" d="M 25 0.5 L 62.414821175027996 0.5 L 62.414821175027996 -0.5 L 25 -0.5 Z M 118.262477425028 0.5 L 155.677298600056 0.5 L 155.677298600056 3.5 L 162.677298600056 0 L 155.677298600056 -3.5 L 155.677298600056 -0.5 L 118.262477425028 -0.5 Z"/><text text-anchor="middle" pointer-events="none" font-size="8px" fill="#000000" x="90.338649300028" y="3" transform="rotate(180 90.338649300028 0)" font-family="Helvetica Neue, Helvetica, Arial, sans-serif">OfficialName</text></g><g class="relationship" transform="translate(138.71336062487578 263.61244232240364) rotate(477.0254772785552)"><path class="b-outline" fill="#A5ABB6" stroke="none" d="M 25 0.5 L 56.40850766969058 0.5 L 56.40850766969058 -0.5 L 25 -0.5 Z M 87.47100766969058 0.5 L 118.87951533938116 0.5 L 118.87951533938116 3.5 L 125.87951533938116 0 L 118.87951533938116 -3.5 L 118.87951533938116 -0.5 L 87.47100766969058 -0.5 Z"/><text text-anchor="middle" pointer-events="none" font-size="8px" fill="#000000" x="71.93975766969058" y="3" transform="rotate(180 71.93975766969058 0)" font-family="Helvetica Neue, Helvetica, Arial, sans-serif">similar</text></g><g class="relationship" transform="translate(766.0131929251285 -325.0160533703039) rotate(249.94525303527064)"><path class="b-outline" fill="#A5ABB6" stroke="none" d="M 25 0.5 L 54.18098600172533 0.5 L 54.18098600172533 -0.5 L 25 -0.5 Z M 85.24348600172533 0.5 L 114.42447200345066 0.5 L 114.42447200345066 3.5 L 121.42447200345066 0 L 114.42447200345066 -3.5 L 114.42447200345066 -0.5 L 85.24348600172533 -0.5 Z"/><text text-anchor="middle" pointer-events="none" font-size="8px" fill="#000000" x="69.71223600172533" y="3" transform="rotate(180 69.71223600172533 0)" font-family="Helvetica Neue, Helvetica, Arial, sans-serif">similar</text></g><g class="relationship" transform="translate(585.0284035600988 -233.68441784732434) rotate(265.5998173469619)"><path class="b-outline" fill="#A5ABB6" stroke="none" d="M 25 0.5 L 61.050246920476 0.5 L 61.050246920476 -0.5 L 25 -0.5 Z M 92.112746920476 0.5 L 128.162993840952 0.5 L 128.162993840952 3.5 L 135.162993840952 0 L 128.162993840952 -3.5 L 128.162993840952 -0.5 L 92.112746920476 -0.5 Z"/><text text-anchor="middle" pointer-events="none" font-size="8px" fill="#000000" x="76.581496920476" y="3" transform="rotate(180 76.581496920476 0)" font-family="Helvetica Neue, Helvetica, Arial, sans-serif">similar</text></g><g class="relationship" transform="translate(183.89143656134644 -354.2529783613672) rotate(296.98031098890635)"><path class="b-outline" fill="#A5ABB6" stroke="none" d="M 25 0.5 L 69.82352881325184 0.5 L 69.82352881325184 -0.5 L 25 -0.5 Z M 100.88602881325184 0.5 L 145.70955762650368 0.5 L 145.70955762650368 3.5 L 152.70955762650368 0 L 145.70955762650368 -3.5 L 145.70955762650368 -0.5 L 100.88602881325184 -0.5 Z"/><text text-anchor="middle" pointer-events="none" font-size="8px" fill="#000000" x="85.35477881325184" y="3" font-family="Helvetica Neue, Helvetica, Arial, sans-serif">similar</text></g><g class="relationship" transform="translate(78.15940237506216 -515.242937390461) rotate(360.8060489531676)"><path class="b-outline" fill="#A5ABB6" stroke="none" d="M 25 0.5 L 74.15600566067937 0.5 L 74.15600566067937 -0.5 L 25 -0.5 Z M 105.21850566067937 0.5 L 154.37451132135874 0.5 L 154.37451132135874 3.5 L 161.37451132135874 0 L 154.37451132135874 -3.5 L 154.37451132135874 -0.5 L 105.21850566067937 -0.5 Z"/><text text-anchor="middle" pointer-events="none" font-size="8px" fill="#000000" x="89.68725566067937" y="3" font-family="Helvetica Neue, Helvetica, Arial, sans-serif">similar</text></g><g class="relationship" transform="translate(-116.94978772489038 -749.4836199740946) rotate(418.6898040136003)"><path class="b-outline" fill="#A5ABB6" stroke="none" d="M 25 0.5 L 48.65183843667954 0.5 L 48.65183843667954 -0.5 L 25 -0.5 Z M 79.71433843667954 0.5 L 103.36617687335908 0.5 L 103.36617687335908 3.5 L 110.36617687335908 0 L 103.36617687335908 -3.5 L 103.36617687335908 -0.5 L 79.71433843667954 -0.5 Z"/><text text-anchor="middle" pointer-events="none" font-size="8px" fill="#000000" x="64.18308843667954" y="3" font-family="Helvetica Neue, Helvetica, Arial, sans-serif">similar</text></g><g class="relationship" transform="translate(-211.97575942206177 -721.5522104260109) rotate(387.943550173923)"><path class="b-outline" fill="#A5ABB6" stroke="none" d="M 25 0.5 L 74.56737629184069 0.5 L 74.56737629184069 -0.5 L 25 -0.5 Z M 105.62987629184069 0.5 L 155.19725258368138 0.5 L 155.19725258368138 3.5 L 162.19725258368138 0 L 155.19725258368138 -3.5 L 155.19725258368138 -0.5 L 105.62987629184069 -0.5 Z"/><text text-anchor="middle" pointer-events="none" font-size="8px" fill="#000000" x="90.09862629184069" y="3" font-family="Helvetica Neue, Helvetica, Arial, sans-serif">similar</text></g><g class="relationship" transform="translate(-382.0057575338482 -366.68191728494656) rotate(401.690685808626)"><path class="b-outline" fill="#A5ABB6" stroke="none" d="M 25 0.5 L 52.117803240499015 0.5 L 52.117803240499015 -0.5 L 25 -0.5 Z M 83.18030324049901 0.5 L 110.29810648099803 0.5 L 110.29810648099803 3.5 L 117.29810648099803 0 L 110.29810648099803 -3.5 L 110.29810648099803 -0.5 L 83.18030324049901 -0.5 Z"/><text text-anchor="middle" pointer-events="none" font-size="8px" fill="#000000" x="67.64905324049901" y="3" font-family="Helvetica Neue, Helvetica, Arial, sans-serif">similar</text></g><g class="relationship" transform="translate(-173.4895513695282 -154.01146067232193) rotate(229.09509787331785)"><path class="b-outline" fill="#A5ABB6" stroke="none" d="M 25 0.5 L 59.04966302620183 0.5 L 59.04966302620183 -0.5 L 25 -0.5 Z M 90.11216302620183 0.5 L 124.16182605240365 0.5 L 124.16182605240365 3.5 L 131.16182605240365 0 L 124.16182605240365 -3.5 L 124.16182605240365 -0.5 L 90.11216302620183 -0.5 Z"/><text text-anchor="middle" pointer-events="none" font-size="8px" fill="#000000" x="74.58091302620183" y="3" transform="rotate(180 74.58091302620183 0)" font-family="Helvetica Neue, Helvetica, Arial, sans-serif">similar</text></g><g class="relationship" transform="translate(-655.877259208768 -215.34233032750274) rotate(399.10847131779906)"><path class="b-outline" fill="#A5ABB6" stroke="none" d="M 25 0.5 L 66.8386731784408 0.5 L 66.8386731784408 -0.5 L 25 -0.5 Z M 88.8386731784408 0.5 L 130.6773463568816 0.5 L 130.6773463568816 3.5 L 137.6773463568816 0 L 130.6773463568816 -3.5 L 130.6773463568816 -0.5 L 88.8386731784408 -0.5 Z"/><text text-anchor="middle" pointer-events="none" font-size="8px" fill="#000000" x="77.8386731784408" y="3" font-family="Helvetica Neue, Helvetica, Arial, sans-serif">造成</text></g><g class="relationship" transform="translate(-655.877259208768 -215.34233032750274) rotate(526.7867142412604)"><path class="b-outline" fill="#A5ABB6" stroke="none" d="M 25 0.5 L 53.27079324239648 0.5 L 53.27079324239648 -0.5 L 25 -0.5 Z M 75.27079324239648 0.5 L 103.54158648479296 0.5 L 103.54158648479296 3.5 L 110.54158648479296 0 L 103.54158648479296 -3.5 L 103.54158648479296 -0.5 L 75.27079324239648 -0.5 Z"/><text text-anchor="middle" pointer-events="none" font-size="8px" fill="#000000" x="64.27079324239648" y="3" transform="rotate(180 64.27079324239648 0)" font-family="Helvetica Neue, Helvetica, Arial, sans-serif">造成</text></g><g class="relationship" transform="translate(-322.5291912277625 224.32721902530537) rotate(223.24202299134447)"><path class="b-outline" fill="#A5ABB6" stroke="none" d="M 25 0.5 L 41.69120735086908 0.5 L 41.69120735086908 -0.5 L 25 -0.5 Z M 97.53886360086908 0.5 L 114.23007095173816 0.5 L 114.23007095173816 3.5 L 121.23007095173816 0 L 114.23007095173816 -3.5 L 114.23007095173816 -0.5 L 97.53886360086908 -0.5 Z"/><text text-anchor="middle" pointer-events="none" font-size="8px" fill="#000000" x="69.61503547586908" y="3" transform="rotate(180 69.61503547586908 0)" font-family="Helvetica Neue, Helvetica, Arial, sans-serif">OfficialName</text></g><g class="relationship" transform="translate(-339.19386367997697 320.99618881627816) rotate(338.82712919082667)"><path class="b-outline" fill="#A5ABB6" stroke="none" d="M 25 0.5 L 59.17700379342814 0.5 L 59.17700379342814 -0.5 L 25 -0.5 Z M 115.02466004342814 0.5 L 149.20166383685628 0.5 L 149.20166383685628 3.5 L 156.20166383685628 0 L 149.20166383685628 -3.5 L 149.20166383685628 -0.5 L 115.02466004342814 -0.5 Z"/><text text-anchor="middle" pointer-events="none" font-size="8px" fill="#000000" x="87.10083191842814" y="3" font-family="Helvetica Neue, Helvetica, Arial, sans-serif">OfficialName</text></g><g class="relationship" transform="translate(-232.06973692040626 4.0478869286130745) rotate(397.44652378684475)"><path class="b-outline" fill="#A5ABB6" stroke="none" d="M 25 0.5 L 40.901198553533916 0.5 L 40.901198553533916 -0.5 L 25 -0.5 Z M 96.74885480353392 0.5 L 112.65005335706783 0.5 L 112.65005335706783 3.5 L 119.65005335706783 0 L 112.65005335706783 -3.5 L 112.65005335706783 -0.5 L 96.74885480353392 -0.5 Z"/><text text-anchor="middle" pointer-events="none" font-size="8px" fill="#000000" x="68.82502667853392" y="3" font-family="Helvetica Neue, Helvetica, Arial, sans-serif">OfficialName</text></g><g class="relationship" transform="translate(-156.31274256582554 587.8646156841949) rotate(516.9265481304117)"><path class="b-outline" fill="#A5ABB6" stroke="none" d="M 25 0.5 L 86.93519201833739 0.5 L 86.93519201833739 -0.5 L 25 -0.5 Z M 117.99769201833739 0.5 L 179.93288403667478 0.5 L 179.93288403667478 3.5 L 186.93288403667478 0 L 179.93288403667478 -3.5 L 179.93288403667478 -0.5 L 117.99769201833739 -0.5 Z"/><text text-anchor="middle" pointer-events="none" font-size="8px" fill="#000000" x="102.46644201833739" y="3" transform="rotate(180 102.46644201833739 0)" font-family="Helvetica Neue, Helvetica, Arial, sans-serif">similar</text></g><g class="relationship" transform="translate(-239.49148736579045 725.728474531729) rotate(206.1143445392902)"><path class="b-outline" fill="#A5ABB6" stroke="none" d="M 25 0.5 L 43.2240218973654 0.5 L 43.2240218973654 -0.5 L 25 -0.5 Z M 74.28652189736539 0.5 L 92.5105437947308 0.5 L 92.5105437947308 3.5 L 99.5105437947308 0 L 92.5105437947308 -3.5 L 92.5105437947308 -0.5 L 74.28652189736539 -0.5 Z"/><text text-anchor="middle" pointer-events="none" font-size="8px" fill="#000000" x="58.7552718973654" y="3" transform="rotate(180 58.7552718973654 0)" font-family="Helvetica Neue, Helvetica, Arial, sans-serif">similar</text></g><g class="relationship" transform="translate(264.5154708932612 -512.6210684548386) rotate(510.2199988299797)"><path class="b-outline" fill="#A5ABB6" stroke="none" d="M 25 0.5 L 46.76781308304301 0.5 L 46.76781308304301 -0.5 L 25 -0.5 Z M 77.97875058304301 0.5 L 99.74656366608602 0.5 L 99.74656366608602 3.5 L 106.74656366608602 0 L 99.74656366608602 -3.5 L 99.74656366608602 -0.5 L 77.97875058304301 -0.5 Z"/><text text-anchor="middle" pointer-events="none" font-size="8px" fill="#000000" x="62.37328183304301" y="3" transform="rotate(180 62.37328183304301 0)" font-family="Helvetica Neue, Helvetica, Arial, sans-serif">source</text></g><g class="relationship" transform="translate(264.5154708932612 -512.6210684548386) rotate(506.08660293205776)"><path class="b-outline" fill="#A5ABB6" stroke="none" d="M 25 0.5 L 122.00948470934566 0.5 L 122.00948470934566 -0.5 L 25 -0.5 Z M 179.13057845934566 0.5 L 276.1400631686913 0.5 L 276.1400631686913 3.5 L 283.1400631686913 0 L 276.1400631686913 -3.5 L 276.1400631686913 -0.5 L 179.13057845934566 -0.5 Z"/><text text-anchor="middle" pointer-events="none" font-size="8px" fill="#000000" x="150.57003158434566" y="3" transform="rotate(180 150.57003158434566 0)" font-family="Helvetica Neue, Helvetica, Arial, sans-serif">BELONGS_TO</text></g><g class="relationship" transform="translate(183.89143656134644 -354.2529783613672) rotate(535.5731857322346)"><path class="b-outline" fill="#A5ABB6" stroke="none" d="M 25 0.5 L 55.749318384121864 0.5 L 55.749318384121864 -0.5 L 25 -0.5 Z M 112.87041213412186 0.5 L 143.61973051824373 0.5 L 143.61973051824373 3.5 L 150.61973051824373 0 L 143.61973051824373 -3.5 L 143.61973051824373 -0.5 L 112.87041213412186 -0.5 Z"/><text text-anchor="middle" pointer-events="none" font-size="8px" fill="#000000" x="84.30986525912186" y="3" transform="rotate(180 84.30986525912186 0)" font-family="Helvetica Neue, Helvetica, Arial, sans-serif">BELONGS_TO</text></g><g class="relationship" transform="translate(78.15940237506216 -515.242937390461) rotate(471.6727261984113)"><path class="b-outline" fill="#A5ABB6" stroke="none" d="M 25 0.5 L 61.850831924280385 0.5 L 61.850831924280385 -0.5 L 25 -0.5 Z M 118.97192567428039 0.5 L 155.82275759856077 0.5 L 155.82275759856077 3.5 L 162.82275759856077 0 L 155.82275759856077 -3.5 L 155.82275759856077 -0.5 L 118.97192567428039 -0.5 Z"/><text text-anchor="middle" pointer-events="none" font-size="8px" fill="#000000" x="90.41137879928039" y="3" transform="rotate(180 90.41137879928039 0)" font-family="Helvetica Neue, Helvetica, Arial, sans-serif">BELONGS_TO</text></g><g class="relationship" transform="translate(-46.60388988644422 -633.8313113131239) rotate(315.16702255290954)"><path class="b-outline" fill="#A5ABB6" stroke="none" d="M 25 0.5 L 54.540290029080694 0.5 L 54.540290029080694 -0.5 L 25 -0.5 Z M 85.7512275290807 0.5 L 115.29151755816139 0.5 L 115.29151755816139 3.5 L 122.29151755816139 0 L 115.29151755816139 -3.5 L 115.29151755816139 -0.5 L 85.7512275290807 -0.5 Z"/><text text-anchor="middle" pointer-events="none" font-size="8px" fill="#000000" x="70.1457587790807" y="3" font-family="Helvetica Neue, Helvetica, Arial, sans-serif">source</text></g><g class="relationship" transform="translate(-46.60388988644422 -633.8313113131239) rotate(528.2903859740778)"><path class="b-outline" fill="#A5ABB6" stroke="none" d="M 25 0.5 L 46.85653062797685 0.5 L 46.85653062797685 -0.5 L 25 -0.5 Z M 103.97762437797685 0.5 L 125.8341550059537 0.5 L 125.8341550059537 3.5 L 132.8341550059537 0 L 125.8341550059537 -3.5 L 125.8341550059537 -0.5 L 103.97762437797685 -0.5 Z"/><text text-anchor="middle" pointer-events="none" font-size="8px" fill="#000000" x="75.41707750297685" y="3" transform="rotate(180 75.41707750297685 0)" font-family="Helvetica Neue, Helvetica, Arial, sans-serif">BELONGS_TO</text></g><g class="relationship" transform="translate(-211.97575942206177 -721.5522104260109) rotate(444.8360622047314)"><path class="b-outline" fill="#A5ABB6" stroke="none" d="M 25 0.5 L 28.06026562624882 0.5 L 28.06026562624882 -0.5 L 25 -0.5 Z M 85.18135937624882 0.5 L 88.24162500249764 0.5 L 88.24162500249764 3.5 L 95.24162500249764 0 L 88.24162500249764 -3.5 L 88.24162500249764 -0.5 L 85.18135937624882 -0.5 Z"/><text text-anchor="middle" pointer-events="none" font-size="8px" fill="#000000" x="56.62081250124882" y="3" font-family="Helvetica Neue, Helvetica, Arial, sans-serif">BELONGS_TO</text></g><g class="relationship" transform="translate(-116.94978772489038 -749.4836199740946) rotate(479.6898987293282)"><path class="b-outline" fill="#A5ABB6" stroke="none" d="M 25 0.5 L 52.941063986813205 0.5 L 52.941063986813205 -0.5 L 25 -0.5 Z M 110.0621577368132 0.5 L 138.0032217236264 0.5 L 138.0032217236264 3.5 L 145.0032217236264 0 L 138.0032217236264 -3.5 L 138.0032217236264 -0.5 L 110.0621577368132 -0.5 Z"/><text text-anchor="middle" pointer-events="none" font-size="8px" fill="#000000" x="81.5016108618132" y="3" transform="rotate(180 81.5016108618132 0)" font-family="Helvetica Neue, Helvetica, Arial, sans-serif">BELONGS_TO</text></g><g class="relationship" transform="translate(-173.4895513695282 -154.01146067232193) rotate(195.90131280717713)"><path class="b-outline" fill="#A5ABB6" stroke="none" d="M 25 0.5 L 71.37262812333557 0.5 L 71.37262812333557 -0.5 L 25 -0.5 Z M 102.58356562333557 0.5 L 148.95619374667115 0.5 L 148.95619374667115 3.5 L 155.95619374667115 0 L 148.95619374667115 -3.5 L 148.95619374667115 -0.5 L 102.58356562333557 -0.5 Z"/><text text-anchor="middle" pointer-events="none" font-size="8px" fill="#000000" x="86.97809687333557" y="3" transform="rotate(180 86.97809687333557 0)" font-family="Helvetica Neue, Helvetica, Arial, sans-serif">source</text></g><g class="relationship" transform="translate(-173.4895513695282 -154.01146067232193) rotate(259.75224841513835)"><path class="b-outline" fill="#A5ABB6" stroke="none" d="M 25 0.5 L 68.55719539639841 0.5 L 68.55719539639841 -0.5 L 25 -0.5 Z M 125.67828914639841 0.5 L 169.23548454279683 0.5 L 169.23548454279683 3.5 L 176.23548454279683 0 L 169.23548454279683 -3.5 L 169.23548454279683 -0.5 L 125.67828914639841 -0.5 Z"/><text text-anchor="middle" pointer-events="none" font-size="8px" fill="#000000" x="97.11774227139841" y="3" transform="rotate(180 97.11774227139841 0)" font-family="Helvetica Neue, Helvetica, Arial, sans-serif">BELONGS_TO</text></g><g class="relationship" transform="translate(-382.0057575338482 -366.68191728494656) rotate(438.0611708429369)"><path class="b-outline" fill="#A5ABB6" stroke="none" d="M 25 0.5 L 64.2433744923115 0.5 L 64.2433744923115 -0.5 L 25 -0.5 Z M 95.4543119923115 0.5 L 134.697686484623 0.5 L 134.697686484623 3.5 L 141.697686484623 0 L 134.697686484623 -3.5 L 134.697686484623 -0.5 L 95.4543119923115 -0.5 Z"/><text text-anchor="middle" pointer-events="none" font-size="8px" fill="#000000" x="79.8488432423115" y="3" font-family="Helvetica Neue, Helvetica, Arial, sans-serif">source</text></g><g class="relationship" transform="translate(-275.74517096375735 -272.0381702656232) rotate(309.71641080744365)"><path class="b-outline" fill="#A5ABB6" stroke="none" d="M 25 0.5 L 26.146535859704237 0.5 L 26.146535859704237 -0.5 L 25 -0.5 Z M 70.85356710970424 0.5 L 72.00010296940847 0.5 L 72.00010296940847 3.5 L 79.00010296940847 0 L 72.00010296940847 -3.5 L 72.00010296940847 -0.5 L 70.85356710970424 -0.5 Z"/><text text-anchor="middle" pointer-events="none" font-size="8px" fill="#000000" x="48.50005148470424" y="3" font-family="Helvetica Neue, Helvetica, Arial, sans-serif">BELONG…</text></g><g class="relationship" transform="translate(-382.0057575338482 -366.68191728494656) rotate(364.84671596094694)"><path class="b-outline" fill="#A5ABB6" stroke="none" d="M 25 0.5 L 54.60706110919273 0.5 L 54.60706110919273 -0.5 L 25 -0.5 Z M 111.72815485919273 0.5 L 141.33521596838546 0.5 L 141.33521596838546 3.5 L 148.33521596838546 0 L 141.33521596838546 -3.5 L 141.33521596838546 -0.5 L 111.72815485919273 -0.5 Z"/><text text-anchor="middle" pointer-events="none" font-size="8px" fill="#000000" x="83.16760798419273" y="3" font-family="Helvetica Neue, Helvetica, Arial, sans-serif">BELONGS_TO</text></g><g class="relationship" transform="translate(-529.6472595993537 -112.72699903473693) rotate(528.2149799351121)"><path class="b-outline" fill="#A5ABB6" stroke="none" d="M 25 0.5 L 88.57546234845027 0.5 L 88.57546234845027 -0.5 L 25 -0.5 Z M 119.78639984845027 0.5 L 183.36186219690055 0.5 L 183.36186219690055 3.5 L 190.36186219690055 0 L 183.36186219690055 -3.5 L 183.36186219690055 -0.5 L 119.78639984845027 -0.5 Z"/><text text-anchor="middle" pointer-events="none" font-size="8px" fill="#000000" x="104.18093109845027" y="3" transform="rotate(180 104.18093109845027 0)" font-family="Helvetica Neue, Helvetica, Arial, sans-serif">source</text></g><g class="relationship" transform="translate(-529.6472595993537 -112.72699903473693) rotate(520.6458564790119)"><path class="b-outline" fill="#A5ABB6" stroke="none" d="M 25 0.5 L 27.385746660950197 0.5 L 27.385746660950197 -0.5 L 25 -0.5 Z M 84.50684041095019 0.5 L 86.8925870719004 0.5 L 86.8925870719004 3.5 L 93.8925870719004 0 L 86.8925870719004 -3.5 L 86.8925870719004 -0.5 L 84.50684041095019 -0.5 Z"/><text text-anchor="middle" pointer-events="none" font-size="8px" fill="#000000" x="55.9462935359502" y="3" transform="rotate(180 55.9462935359502 0)" font-family="Helvetica Neue, Helvetica, Arial, sans-serif">BELONGS_TO</text></g><g class="relationship" transform="translate(-787.830507790528 -184.3606929347688) rotate(427.7245500640227)"><path class="b-outline" fill="#A5ABB6" stroke="none" d="M 25 0.5 L 43.36627171226633 0.5 L 43.36627171226633 -0.5 L 25 -0.5 Z M 74.57720921226633 0.5 L 92.94348092453266 0.5 L 92.94348092453266 3.5 L 99.94348092453266 0 L 92.94348092453266 -3.5 L 92.94348092453266 -0.5 L 74.57720921226633 -0.5 Z"/><text text-anchor="middle" pointer-events="none" font-size="8px" fill="#000000" x="58.97174046226633" y="3" font-family="Helvetica Neue, Helvetica, Arial, sans-serif">source</text></g><g class="relationship" transform="translate(-655.877259208768 -215.34233032750274) rotate(479.985975960871)"><path class="b-outline" fill="#A5ABB6" stroke="none" d="M 25 0.5 L 65.52262283782834 0.5 L 65.52262283782834 -0.5 L 25 -0.5 Z M 96.73356033782834 0.5 L 137.25618317565667 0.5 L 137.25618317565667 3.5 L 144.25618317565667 0 L 137.25618317565667 -3.5 L 137.25618317565667 -0.5 L 96.73356033782834 -0.5 Z"/><text text-anchor="middle" pointer-events="none" font-size="8px" fill="#000000" x="81.12809158782834" y="3" transform="rotate(180 81.12809158782834 0)" font-family="Helvetica Neue, Helvetica, Arial, sans-serif">source</text></g><g class="relationship" transform="translate(-655.877259208768 -215.34233032750274) rotate(444.34751633652263)"><path class="b-outline" fill="#A5ABB6" stroke="none" d="M 25 0.5 L 39.294943569103566 0.5 L 39.294943569103566 -0.5 L 25 -0.5 Z M 96.41603731910357 0.5 L 110.71098088820713 0.5 L 110.71098088820713 3.5 L 117.71098088820713 0 L 110.71098088820713 -3.5 L 110.71098088820713 -0.5 L 96.41603731910357 -0.5 Z"/><text text-anchor="middle" pointer-events="none" font-size="8px" fill="#000000" x="67.85549044410357" y="3" font-family="Helvetica Neue, Helvetica, Arial, sans-serif">BELONGS_TO</text></g><g class="relationship" transform="translate(-787.830507790528 -184.3606929347688) rotate(397.25179632345737)"><path class="b-outline" fill="#A5ABB6" stroke="none" d="M 25 0.5 L 59.65591606075816 0.5 L 59.65591606075816 -0.5 L 25 -0.5 Z M 116.77700981075816 0.5 L 151.43292587151632 0.5 L 151.43292587151632 3.5 L 158.43292587151632 0 L 151.43292587151632 -3.5 L 151.43292587151632 -0.5 L 116.77700981075816 -0.5 Z"/><text text-anchor="middle" pointer-events="none" font-size="8px" fill="#000000" x="88.21646293575816" y="3" font-family="Helvetica Neue, Helvetica, Arial, sans-serif">BELONGS_TO</text></g><g class="relationship" transform="translate(-240.4360348262215 325.42729392268694) rotate(230.92343713901454)"><path class="b-outline" fill="#A5ABB6" stroke="none" d="M 25 0.5 L 50.616264236026396 0.5 L 50.616264236026396 -0.5 L 25 -0.5 Z M 72.6162642360264 0.5 L 98.23252847205279 0.5 L 98.23252847205279 3.5 L 105.23252847205279 0 L 98.23252847205279 -3.5 L 98.23252847205279 -0.5 L 72.6162642360264 -0.5 Z"/><text text-anchor="middle" pointer-events="none" font-size="8px" fill="#000000" x="61.616264236026396" y="3" transform="rotate(180 61.616264236026396 0)" font-family="Helvetica Neue, Helvetica, Arial, sans-serif">发生</text></g><g class="relationship" transform="translate(-322.5291912277625 224.32721902530537) rotate(308.8123846855558)"><path class="b-outline" fill="#A5ABB6" stroke="none" d="M 25 0.5 L 30.60229404671732 0.5 L 30.60229404671732 -0.5 L 25 -0.5 Z M 61.81323154671732 0.5 L 67.41552559343464 0.5 L 67.41552559343464 3.5 L 74.41552559343464 0 L 67.41552559343464 -3.5 L 67.41552559343464 -0.5 L 61.81323154671732 -0.5 Z"/><text text-anchor="middle" pointer-events="none" font-size="8px" fill="#000000" x="46.20776279671732" y="3" font-family="Helvetica Neue, Helvetica, Arial, sans-serif">source</text></g><g class="relationship" transform="translate(-322.5291912277625 224.32721902530537) rotate(529.6015968712055)"><path class="b-outline" fill="#A5ABB6" stroke="none" d="M 25 0.5 L 53.40012242355556 0.5 L 53.40012242355556 -0.5 L 25 -0.5 Z M 110.52121617355556 0.5 L 138.92133859711112 0.5 L 138.92133859711112 3.5 L 145.92133859711112 0 L 138.92133859711112 -3.5 L 138.92133859711112 -0.5 L 110.52121617355556 -0.5 Z"/><text text-anchor="middle" pointer-events="none" font-size="8px" fill="#000000" x="81.96066929855556" y="3" transform="rotate(180 81.96066929855556 0)" font-family="Helvetica Neue, Helvetica, Arial, sans-serif">BELONGS_TO</text></g><g class="relationship" transform="translate(-429.0528783664915 124.14769153130804) rotate(475.17592399127494)"><path class="b-outline" fill="#A5ABB6" stroke="none" d="M 25 0.5 L 40.330924727857024 0.5 L 40.330924727857024 -0.5 L 25 -0.5 Z M 97.45201847785702 0.5 L 112.78294320571405 0.5 L 112.78294320571405 3.5 L 119.78294320571405 0 L 112.78294320571405 -3.5 L 112.78294320571405 -0.5 L 97.45201847785702 -0.5 Z"/><text text-anchor="middle" pointer-events="none" font-size="8px" fill="#000000" x="68.89147160285702" y="3" transform="rotate(180 68.89147160285702 0)" font-family="Helvetica Neue, Helvetica, Arial, sans-serif">BELONGS_TO</text></g><g class="relationship" transform="translate(-429.0528783664915 124.14769153130804) rotate(367.66246074267895)"><path class="b-outline" fill="#A5ABB6" stroke="none" d="M 25 0.5 L 66.07239382531795 0.5 L 66.07239382531795 -0.5 L 25 -0.5 Z M 97.28333132531795 0.5 L 138.3557251506359 0.5 L 138.3557251506359 3.5 L 145.3557251506359 0 L 138.3557251506359 -3.5 L 138.3557251506359 -0.5 L 97.28333132531795 -0.5 Z"/><text text-anchor="middle" pointer-events="none" font-size="8px" fill="#000000" x="81.67786257531795" y="3" font-family="Helvetica Neue, Helvetica, Arial, sans-serif">source</text></g><g class="relationship" transform="translate(-339.19386367997697 320.99618881627816) rotate(294.39589905443734)"><path class="b-outline" fill="#A5ABB6" stroke="none" d="M 25 0.5 L 76.49751099532712 0.5 L 76.49751099532712 -0.5 L 25 -0.5 Z M 107.70844849532712 0.5 L 159.20595949065424 0.5 L 159.20595949065424 3.5 L 166.20595949065424 0 L 159.20595949065424 -3.5 L 159.20595949065424 -0.5 L 107.70844849532712 -0.5 Z"/><text text-anchor="middle" pointer-events="none" font-size="8px" fill="#000000" x="92.10297974532712" y="3" font-family="Helvetica Neue, Helvetica, Arial, sans-serif">source</text></g><g class="relationship" transform="translate(-170.2242319944044 255.54921375029812) rotate(230.37481234109748)"><path class="b-outline" fill="#A5ABB6" stroke="none" d="M 25 0.5 L 51.44904397435445 0.5 L 51.44904397435445 -0.5 L 25 -0.5 Z M 82.65998147435445 0.5 L 109.1090254487089 0.5 L 109.1090254487089 3.5 L 116.1090254487089 0 L 109.1090254487089 -3.5 L 109.1090254487089 -0.5 L 82.65998147435445 -0.5 Z"/><text text-anchor="middle" pointer-events="none" font-size="8px" fill="#000000" x="67.05451272435445" y="3" transform="rotate(180 67.05451272435445 0)" font-family="Helvetica Neue, Helvetica, Arial, sans-serif">source</text></g><g class="relationship" transform="translate(-232.06973692040626 4.0478869286130745) rotate(461.150008017558)"><path class="b-outline" fill="#A5ABB6" stroke="none" d="M 25 0.5 L 53.67558049358172 0.5 L 53.67558049358172 -0.5 L 25 -0.5 Z M 84.88651799358172 0.5 L 113.56209848716344 0.5 L 113.56209848716344 3.5 L 120.56209848716344 0 L 113.56209848716344 -3.5 L 113.56209848716344 -0.5 L 84.88651799358172 -0.5 Z"/><text text-anchor="middle" pointer-events="none" font-size="8px" fill="#000000" x="69.28104924358172" y="3" transform="rotate(180 69.28104924358172 0)" font-family="Helvetica Neue, Helvetica, Arial, sans-serif">source</text></g><g class="relationship" transform="translate(-117.22899679655741 91.998113443439) rotate(519.0084419723548)"><path class="b-outline" fill="#A5ABB6" stroke="none" d="M 25 0.5 L 57.471338190684335 0.5 L 57.471338190684335 -0.5 L 25 -0.5 Z M 88.68227569068434 0.5 L 121.15361388136867 0.5 L 121.15361388136867 3.5 L 128.15361388136867 0 L 121.15361388136867 -3.5 L 121.15361388136867 -0.5 L 88.68227569068434 -0.5 Z"/><text text-anchor="middle" pointer-events="none" font-size="8px" fill="#000000" x="73.07680694068434" y="3" transform="rotate(180 73.07680694068434 0)" font-family="Helvetica Neue, Helvetica, Arial, sans-serif">source</text></g><g class="relationship" transform="translate(-240.4360348262215 325.42729392268694) rotate(263.67828143518705)"><path class="b-outline" fill="#A5ABB6" stroke="none" d="M 25 0.5 L 70.72320422284338 0.5 L 70.72320422284338 -0.5 L 25 -0.5 Z M 101.93414172284338 0.5 L 147.65734594568676 0.5 L 147.65734594568676 3.5 L 154.65734594568676 0 L 147.65734594568676 -3.5 L 147.65734594568676 -0.5 L 101.93414172284338 -0.5 Z"/><text text-anchor="middle" pointer-events="none" font-size="8px" fill="#000000" x="86.32867297284338" y="3" transform="rotate(180 86.32867297284338 0)" font-family="Helvetica Neue, Helvetica, Arial, sans-serif">source</text></g><g class="relationship" transform="translate(-156.31274256582554 587.8646156841949) rotate(426.6484433925224)"><path class="b-outline" fill="#A5ABB6" stroke="none" d="M 25 0.5 L 57.62594976715957 0.5 L 57.62594976715957 -0.5 L 25 -0.5 Z M 88.83688726715957 0.5 L 121.46283703431914 0.5 L 121.46283703431914 3.5 L 128.46283703431914 0 L 121.46283703431914 -3.5 L 121.46283703431914 -0.5 L 88.83688726715957 -0.5 Z"/><text text-anchor="middle" pointer-events="none" font-size="8px" fill="#000000" x="73.23141851715957" y="3" font-family="Helvetica Neue, Helvetica, Arial, sans-serif">source</text></g><g class="relationship" transform="translate(-156.31274256582554 587.8646156841949) rotate(188.81153724255034)"><path class="b-outline" fill="#A5ABB6" stroke="none" d="M 25 0.5 L 42.76398267586927 0.5 L 42.76398267586927 -0.5 L 25 -0.5 Z M 99.88507642586927 0.5 L 117.64905910173854 0.5 L 117.64905910173854 3.5 L 124.64905910173854 0 L 117.64905910173854 -3.5 L 117.64905910173854 -0.5 L 99.88507642586927 -0.5 Z"/><text text-anchor="middle" pointer-events="none" font-size="8px" fill="#000000" x="71.32452955086927" y="3" transform="rotate(180 71.32452955086927 0)" font-family="Helvetica Neue, Helvetica, Arial, sans-serif">BELONGS_TO</text></g><g class="relationship" transform="translate(-239.49148736579045 725.728474531729) rotate(361.204904276428)"><path class="b-outline" fill="#A5ABB6" stroke="none" d="M 25 0.5 L 52.913997801038946 0.5 L 52.913997801038946 -0.5 L 25 -0.5 Z M 84.12493530103895 0.5 L 112.03893310207789 0.5 L 112.03893310207789 3.5 L 119.03893310207789 0 L 112.03893310207789 -3.5 L 112.03893310207789 -0.5 L 84.12493530103895 -0.5 Z"/><text text-anchor="middle" pointer-events="none" font-size="8px" fill="#000000" x="68.51946655103895" y="3" font-family="Helvetica Neue, Helvetica, Arial, sans-serif">source</text></g><g class="relationship" transform="translate(-351.2916717069092 670.9234173074962) rotate(293.95916758159575)"><path class="b-outline" fill="#A5ABB6" stroke="none" d="M 25 0.5 L 25.927359117461087 0.5 L 25.927359117461087 -0.5 L 25 -0.5 Z M 83.0484528674611 0.5 L 83.97581198492217 0.5 L 83.97581198492217 3.5 L 90.97581198492217 0 L 83.97581198492217 -3.5 L 83.97581198492217 -0.5 L 83.0484528674611 -0.5 Z"/><text text-anchor="middle" pointer-events="none" font-size="8px" fill="#000000" x="54.48790599246109" y="3" font-family="Helvetica Neue, Helvetica, Arial, sans-serif">BELONGS_TO</text></g><g class="relationship" transform="translate(-239.49148736579045 725.728474531729) rotate(248.07920441639607)"><path class="b-outline" fill="#A5ABB6" stroke="none" d="M 25 0.5 L 54.598762379736414 0.5 L 54.598762379736414 -0.5 L 25 -0.5 Z M 111.71985612973641 0.5 L 141.31861850947283 0.5 L 141.31861850947283 3.5 L 148.31861850947283 0 L 141.31861850947283 -3.5 L 141.31861850947283 -0.5 L 111.71985612973641 -0.5 Z"/><text text-anchor="middle" pointer-events="none" font-size="8px" fill="#000000" x="83.15930925473641" y="3" transform="rotate(180 83.15930925473641 0)" font-family="Helvetica Neue, Helvetica, Arial, sans-serif">BELONGS_TO</text></g><g class="relationship" transform="translate(302.1487802147812 475.03628210163555) rotate(517.5060252927592)"><path class="b-outline" fill="#A5ABB6" stroke="none" d="M 25 0.5 L 77.22354456227285 0.5 L 77.22354456227285 -0.5 L 25 -0.5 Z M 108.43448206227285 0.5 L 160.6580266245457 0.5 L 160.6580266245457 3.5 L 167.6580266245457 0 L 160.6580266245457 -3.5 L 160.6580266245457 -0.5 L 108.43448206227285 -0.5 Z"/><text text-anchor="middle" pointer-events="none" font-size="8px" fill="#000000" x="92.82901331227285" y="3" transform="rotate(180 92.82901331227285 0)" font-family="Helvetica Neue, Helvetica, Arial, sans-serif">source</text></g><g class="relationship" transform="translate(191.7140594234145 391.716105547562) rotate(397.033620947966)"><path class="b-outline" fill="#A5ABB6" stroke="none" d="M 25 0.5 L 54.670223682718245 0.5 L 54.670223682718245 -0.5 L 25 -0.5 Z M 76.67022368271824 0.5 L 106.34044736543649 0.5 L 106.34044736543649 3.5 L 113.34044736543649 0 L 106.34044736543649 -3.5 L 106.34044736543649 -0.5 L 76.67022368271824 -0.5 Z"/><text text-anchor="middle" pointer-events="none" font-size="8px" fill="#000000" x="65.67022368271824" y="3" font-family="Helvetica Neue, Helvetica, Arial, sans-serif">说明</text></g><g class="relationship" transform="translate(302.1487802147812 475.03628210163555) rotate(530.948475073613)"><path class="b-outline" fill="#A5ABB6" stroke="none" d="M 25 0.5 L 26.769208699345363 0.5 L 26.769208699345363 -0.5 L 25 -0.5 Z M 65.52702119934537 0.5 L 67.29622989869073 0.5 L 67.29622989869073 3.5 L 74.29622989869073 0 L 67.29622989869073 -3.5 L 67.29622989869073 -0.5 L 65.52702119934537 -0.5 Z"/><text text-anchor="middle" pointer-events="none" font-size="8px" fill="#000000" x="46.14811494934536" y="3" transform="rotate(180 46.14811494934536 0)" font-family="Helvetica Neue, Helvetica, Arial, sans-serif">BELON…</text></g><g class="relationship" transform="translate(193.39729607778216 633.8506360712475) rotate(274.27017467103883)"><path class="b-outline" fill="#A5ABB6" stroke="none" d="M 25 0.5 L 39.73516193522664 0.5 L 39.73516193522664 -0.5 L 25 -0.5 Z M 96.85625568522664 0.5 L 111.59141762045329 0.5 L 111.59141762045329 3.5 L 118.59141762045329 0 L 111.59141762045329 -3.5 L 111.59141762045329 -0.5 L 96.85625568522664 -0.5 Z"/><text text-anchor="middle" pointer-events="none" font-size="8px" fill="#000000" x="68.29570881022664" y="3" font-family="Helvetica Neue, Helvetica, Arial, sans-serif">BELONGS_TO</text></g><g class="relationship" transform="translate(303.73779075937296 608.4782787496887) rotate(229.7765386422027)"><path class="b-outline" fill="#A5ABB6" stroke="none" d="M 25 0.5 L 45.09437688162029 0.5 L 45.09437688162029 -0.5 L 25 -0.5 Z M 102.21547063162029 0.5 L 122.30984751324058 0.5 L 122.30984751324058 3.5 L 129.30984751324058 0 L 122.30984751324058 -3.5 L 122.30984751324058 -0.5 L 102.21547063162029 -0.5 Z"/><text text-anchor="middle" pointer-events="none" font-size="8px" fill="#000000" x="73.65492375662029" y="3" transform="rotate(180 73.65492375662029 0)" font-family="Helvetica Neue, Helvetica, Arial, sans-serif">BELONGS_TO</text></g><g class="relationship" transform="translate(303.73779075937296 608.4782787496887) rotate(198.39775409961067)"><path class="b-outline" fill="#A5ABB6" stroke="none" d="M 25 0.5 L 75.52608824592217 0.5 L 75.52608824592217 -0.5 L 25 -0.5 Z M 106.73702574592217 0.5 L 157.26311399184434 0.5 L 157.26311399184434 3.5 L 164.26311399184434 0 L 157.26311399184434 -3.5 L 157.26311399184434 -0.5 L 106.73702574592217 -0.5 Z"/><text text-anchor="middle" pointer-events="none" font-size="8px" fill="#000000" x="91.13155699592217" y="3" transform="rotate(180 91.13155699592217 0)" font-family="Helvetica Neue, Helvetica, Arial, sans-serif">source</text></g><g class="relationship" transform="translate(70.15572280361245 398.0166031412378) rotate(430.2918932023202)"><path class="b-outline" fill="#A5ABB6" stroke="none" d="M 25 0.5 L 60.947823546059695 0.5 L 60.947823546059695 -0.5 L 25 -0.5 Z M 92.1587610460597 0.5 L 128.1065845921194 0.5 L 128.1065845921194 3.5 L 135.1065845921194 0 L 128.1065845921194 -3.5 L 128.1065845921194 -0.5 L 92.1587610460597 -0.5 Z"/><text text-anchor="middle" pointer-events="none" font-size="8px" fill="#000000" x="76.5532922960597" y="3" font-family="Helvetica Neue, Helvetica, Arial, sans-serif">source</text></g><g class="relationship" transform="translate(191.7140594234145 391.716105547562) rotate(473.28112552090056)"><path class="b-outline" fill="#A5ABB6" stroke="none" d="M 25 0.5 L 66.36834339622227 0.5 L 66.36834339622227 -0.5 L 25 -0.5 Z M 97.57928089622227 0.5 L 138.94762429244454 0.5 L 138.94762429244454 3.5 L 145.94762429244454 0 L 138.94762429244454 -3.5 L 138.94762429244454 -0.5 L 97.57928089622227 -0.5 Z"/><text text-anchor="middle" pointer-events="none" font-size="8px" fill="#000000" x="81.97381214622227" y="3" transform="rotate(180 81.97381214622227 0)" font-family="Helvetica Neue, Helvetica, Arial, sans-serif">source</text></g><g class="relationship" transform="translate(455.15007437504414 -44.38699263221619) rotate(509.7536149518018)"><path class="b-outline" fill="#A5ABB6" stroke="none" d="M 25 0.5 L 63.94748719961599 0.5 L 63.94748719961599 -0.5 L 25 -0.5 Z M 95.15842469961599 0.5 L 134.10591189923198 0.5 L 134.10591189923198 3.5 L 141.10591189923198 0 L 134.10591189923198 -3.5 L 134.10591189923198 -0.5 L 95.15842469961599 -0.5 Z"/><text text-anchor="middle" pointer-events="none" font-size="8px" fill="#000000" x="79.55295594961599" y="3" transform="rotate(180 79.55295594961599 0)" font-family="Helvetica Neue, Helvetica, Arial, sans-serif">source</text></g><g class="relationship" transform="translate(455.15007437504414 -44.38699263221619) rotate(228.0381636288193)"><path class="b-outline" fill="#A5ABB6" stroke="none" d="M 25 0.5 L 58.04782569629256 0.5 L 58.04782569629256 -0.5 L 25 -0.5 Z M 115.16891944629256 0.5 L 148.21674514258513 0.5 L 148.21674514258513 3.5 L 155.21674514258513 0 L 148.21674514258513 -3.5 L 148.21674514258513 -0.5 L 115.16891944629256 -0.5 Z"/><text text-anchor="middle" pointer-events="none" font-size="8px" fill="#000000" x="86.60837257129256" y="3" transform="rotate(180 86.60837257129256 0)" font-family="Helvetica Neue, Helvetica, Arial, sans-serif">BELONGS_TO</text></g><g class="relationship" transform="translate(196.58382575039835 -78.7338425339037) rotate(405.7238322348351)"><path class="b-outline" fill="#A5ABB6" stroke="none" d="M 25 0.5 L 63.31101538548013 0.5 L 63.31101538548013 -0.5 L 25 -0.5 Z M 94.52195288548013 0.5 L 132.83296827096027 0.5 L 132.83296827096027 3.5 L 139.83296827096027 0 L 132.83296827096027 -3.5 L 132.83296827096027 -0.5 L 94.52195288548013 -0.5 Z"/><text text-anchor="middle" pointer-events="none" font-size="8px" fill="#000000" x="78.91648413548013" y="3" font-family="Helvetica Neue, Helvetica, Arial, sans-serif">source</text></g><g class="relationship" transform="translate(196.58382575039835 -78.7338425339037) rotate(324.17719438284405)"><path class="b-outline" fill="#A5ABB6" stroke="none" d="M 25 0.5 L 53.07862206390112 0.5 L 53.07862206390112 -0.5 L 25 -0.5 Z M 110.19971581390112 0.5 L 138.27833787780224 0.5 L 138.27833787780224 3.5 L 145.27833787780224 0 L 138.27833787780224 -3.5 L 138.27833787780224 -0.5 L 110.19971581390112 -0.5 Z"/><text text-anchor="middle" pointer-events="none" font-size="8px" fill="#000000" x="81.63916893890112" y="3" font-family="Helvetica Neue, Helvetica, Arial, sans-serif">BELONGS_TO</text></g><g class="relationship" transform="translate(323.2990918024523 -59.39340701571874) rotate(275.44903755197885)"><path class="b-outline" fill="#A5ABB6" stroke="none" d="M 25 0.5 L 27.71006279981507 0.5 L 27.71006279981507 -0.5 L 25 -0.5 Z M 84.83115654981506 0.5 L 87.54121934963014 0.5 L 87.54121934963014 3.5 L 94.54121934963014 0 L 87.54121934963014 -3.5 L 87.54121934963014 -0.5 L 84.83115654981506 -0.5 Z"/><text text-anchor="middle" pointer-events="none" font-size="8px" fill="#000000" x="56.27060967481507" y="3" font-family="Helvetica Neue, Helvetica, Arial, sans-serif">BELONGS_TO</text></g><g class="relationship" transform="translate(585.0284035600988 -233.68441784732434) rotate(380.3423570249415)"><path class="b-outline" fill="#A5ABB6" stroke="none" d="M 25 0.5 L 54.85852809933036 0.5 L 54.85852809933036 -0.5 L 25 -0.5 Z M 86.06946559933036 0.5 L 115.92799369866071 0.5 L 115.92799369866071 3.5 L 122.92799369866071 0 L 115.92799369866071 -3.5 L 115.92799369866071 -0.5 L 86.06946559933036 -0.5 Z"/><text text-anchor="middle" pointer-events="none" font-size="8px" fill="#000000" x="70.46399684933036" y="3" font-family="Helvetica Neue, Helvetica, Arial, sans-serif">source</text></g><g class="relationship" transform="translate(585.0284035600988 -233.68441784732434) rotate(215.25242191802528)"><path class="b-outline" fill="#A5ABB6" stroke="none" d="M 25 0.5 L 45.76411568855946 0.5 L 45.76411568855946 -0.5 L 25 -0.5 Z M 102.88520943855946 0.5 L 123.64932512711891 0.5 L 123.64932512711891 3.5 L 130.6493251271189 0 L 123.64932512711891 -3.5 L 123.64932512711891 -0.5 L 102.88520943855946 -0.5 Z"/><text text-anchor="middle" pointer-events="none" font-size="8px" fill="#000000" x="74.32466256355946" y="3" transform="rotate(180 74.32466256355946 0)" font-family="Helvetica Neue, Helvetica, Arial, sans-serif">BELONGS_TO</text></g><g class="relationship" transform="translate(766.0131929251285 -325.0160533703039) rotate(466.4987379315966)"><path class="b-outline" fill="#A5ABB6" stroke="none" d="M 25 0.5 L 55.337487547602606 0.5 L 55.337487547602606 -0.5 L 25 -0.5 Z M 86.5484250476026 0.5 L 116.88591259520521 0.5 L 116.88591259520521 3.5 L 123.88591259520521 0 L 116.88591259520521 -3.5 L 116.88591259520521 -0.5 L 86.5484250476026 -0.5 Z"/><text text-anchor="middle" pointer-events="none" font-size="8px" fill="#000000" x="70.9429562976026" y="3" transform="rotate(180 70.9429562976026 0)" font-family="Helvetica Neue, Helvetica, Arial, sans-serif">source</text></g><g class="relationship" transform="translate(572.7403452525047 -393.3753324890972) rotate(508.68436021121556)"><path class="b-outline" fill="#A5ABB6" stroke="none" d="M 25 0.5 L 35.13807668134564 0.5 L 35.13807668134564 -0.5 L 25 -0.5 Z M 92.25917043134564 0.5 L 102.39724711269128 0.5 L 102.39724711269128 3.5 L 109.39724711269128 0 L 102.39724711269128 -3.5 L 102.39724711269128 -0.5 L 92.25917043134564 -0.5 Z"/><text text-anchor="middle" pointer-events="none" font-size="8px" fill="#000000" x="63.69862355634564" y="3" transform="rotate(180 63.69862355634564 0)" font-family="Helvetica Neue, Helvetica, Arial, sans-serif">BELONGS_TO</text></g><g class="relationship" transform="translate(762.2621108571975 248.970237637718) rotate(261.5082240199659)"><path class="b-outline" fill="#A5ABB6" stroke="none" d="M 25 0.5 L 35.205601706182854 0.5 L 35.205601706182854 -0.5 L 25 -0.5 Z M 57.205601706182854 0.5 L 67.41120341236571 0.5 L 67.41120341236571 3.5 L 74.41120341236571 0 L 67.41120341236571 -3.5 L 67.41120341236571 -0.5 L 57.205601706182854 -0.5 Z"/><text text-anchor="middle" pointer-events="none" font-size="8px" fill="#000000" x="46.205601706182854" y="3" transform="rotate(180 46.205601706182854 0)" font-family="Helvetica Neue, Helvetica, Arial, sans-serif">发生</text></g><g class="relationship" transform="translate(747.5823119475807 150.64887237122076) rotate(525.7935435531128)"><path class="b-outline" fill="#A5ABB6" stroke="none" d="M 25 0.5 L 49.85414272487415 0.5 L 49.85414272487415 -0.5 L 25 -0.5 Z M 81.06508022487415 0.5 L 105.9192229497483 0.5 L 105.9192229497483 3.5 L 112.9192229497483 0 L 105.9192229497483 -3.5 L 105.9192229497483 -0.5 L 81.06508022487415 -0.5 Z"/><text text-anchor="middle" pointer-events="none" font-size="8px" fill="#000000" x="65.45961147487415" y="3" transform="rotate(180 65.45961147487415 0)" font-family="Helvetica Neue, Helvetica, Arial, sans-serif">source</text></g><g class="relationship" transform="translate(747.5823119475807 150.64887237122076) rotate(491.60245464575274)"><path class="b-outline" fill="#A5ABB6" stroke="none" d="M 25 0.5 L 68.88700641416706 0.5 L 68.88700641416706 -0.5 L 25 -0.5 Z M 100.09794391416706 0.5 L 143.98495032833412 0.5 L 143.98495032833412 3.5 L 150.98495032833412 0 L 143.98495032833412 -3.5 L 143.98495032833412 -0.5 L 100.09794391416706 -0.5 Z"/><text text-anchor="middle" pointer-events="none" font-size="8px" fill="#000000" x="84.49247516416706" y="3" transform="rotate(180 84.49247516416706 0)" font-family="Helvetica Neue, Helvetica, Arial, sans-serif">source</text></g><g class="relationship" transform="translate(747.5823119475807 150.64887237122076) rotate(400.05553585212533)"><path class="b-outline" fill="#A5ABB6" stroke="none" d="M 25 0.5 L 42.527505874028165 0.5 L 42.527505874028165 -0.5 L 25 -0.5 Z M 99.64859962402817 0.5 L 117.17610549805633 0.5 L 117.17610549805633 3.5 L 124.17610549805633 0 L 117.17610549805633 -3.5 L 117.17610549805633 -0.5 L 99.64859962402817 -0.5 Z"/><text text-anchor="middle" pointer-events="none" font-size="8px" fill="#000000" x="71.08805274902817" y="3" font-family="Helvetica Neue, Helvetica, Arial, sans-serif">BELONGS_TO</text></g><g class="relationship" transform="translate(714.7495884610051 335.4319362008603) rotate(328.87185658318816)"><path class="b-outline" fill="#A5ABB6" stroke="none" d="M 25 0.5 L 53.81151826740761 0.5 L 53.81151826740761 -0.5 L 25 -0.5 Z M 110.9326120174076 0.5 L 139.7441302848152 0.5 L 139.7441302848152 3.5 L 146.7441302848152 0 L 139.7441302848152 -3.5 L 139.7441302848152 -0.5 L 110.9326120174076 -0.5 Z"/><text text-anchor="middle" pointer-events="none" font-size="8px" fill="#000000" x="82.3720651424076" y="3" font-family="Helvetica Neue, Helvetica, Arial, sans-serif">BELONGS_TO</text></g><g class="relationship" transform="translate(714.7495884610051 335.4319362008603) rotate(236.24558944084043)"><path class="b-outline" fill="#A5ABB6" stroke="none" d="M 25 0.5 L 71.66342726832461 0.5 L 71.66342726832461 -0.5 L 25 -0.5 Z M 102.87436476832461 0.5 L 149.53779203664922 0.5 L 149.53779203664922 3.5 L 156.53779203664922 0 L 149.53779203664922 -3.5 L 149.53779203664922 -0.5 L 102.87436476832461 -0.5 Z"/><text text-anchor="middle" pointer-events="none" font-size="8px" fill="#000000" x="87.26889601832461" y="3" transform="rotate(180 87.26889601832461 0)" font-family="Helvetica Neue, Helvetica, Arial, sans-serif">source</text></g><g class="relationship" transform="translate(762.2621108571975 248.970237637718) rotate(525.8026496002374)"><path class="b-outline" fill="#A5ABB6" stroke="none" d="M 25 0.5 L 48.72966990654466 0.5 L 48.72966990654466 -0.5 L 25 -0.5 Z M 79.94060740654466 0.5 L 103.67027731308931 0.5 L 103.67027731308931 3.5 L 110.67027731308931 0 L 103.67027731308931 -3.5 L 103.67027731308931 -0.5 L 79.94060740654466 -0.5 Z"/><text text-anchor="middle" pointer-events="none" font-size="8px" fill="#000000" x="64.33513865654466" y="3" transform="rotate(180 64.33513865654466 0)" font-family="Helvetica Neue, Helvetica, Arial, sans-serif">source</text></g><g class="relationship" transform="translate(762.2621108571975 248.970237637718) rotate(203.485625648253)"><path class="b-outline" fill="#A5ABB6" stroke="none" d="M 25 0.5 L 61.78615398563731 0.5 L 61.78615398563731 -0.5 L 25 -0.5 Z M 92.99709148563731 0.5 L 129.78324547127463 0.5 L 129.78324547127463 3.5 L 136.78324547127463 0 L 129.78324547127463 -3.5 L 129.78324547127463 -0.5 L 92.99709148563731 -0.5 Z"/><text text-anchor="middle" pointer-events="none" font-size="8px" fill="#000000" x="77.39162273563731" y="3" transform="rotate(180 77.39162273563731 0)" font-family="Helvetica Neue, Helvetica, Arial, sans-serif">source</text></g></g><g class="layer nodes"><g class="node" aria-label="graph-node870" transform="translate(323.2990918024523,-59.39340701571874)"><circle class="b-outline" cx="0" cy="0" r="25" fill="#ECB5C9" stroke="#da7298" stroke-width="2px"/><text class="caption" text-anchor="middle" pointer-events="none" x="0" y="5" font-size="10px" fill="#2A2C34" font-family="Helvetica Neue, Helvetica, Arial, sans-serif"> 彰化一名…</text></g><g class="node" aria-label="graph-node10507" transform="translate(196.58382575039835,-78.7338425339037)"><circle class="b-outline" cx="0" cy="0" r="25" fill="#ECB5C9" stroke="#da7298" stroke-width="2px"/><text class="caption" text-anchor="middle" pointer-events="none" x="0" y="5" font-size="10px" fill="#2A2C34" font-family="Helvetica Neue, Helvetica, Arial, sans-serif"> 彰化县陈…</text></g><g class="node" aria-label="graph-node10508" transform="translate(455.15007437504414,-44.38699263221619)"><circle class="b-outline" cx="0" cy="0" r="25" fill="#ECB5C9" stroke="#da7298" stroke-width="2px"/><text class="caption" text-anchor="middle" pointer-events="none" x="0" y="5" font-size="10px" fill="#2A2C34" font-family="Helvetica Neue, Helvetica, Arial, sans-serif"> 彰化县陈…</text></g><g class="node" aria-label="graph-node1365" transform="translate(193.39729607778216,633.8506360712475)"><circle class="b-outline" cx="0" cy="0" r="25" fill="#ECB5C9" stroke="#da7298" stroke-width="2px"/><text class="caption" text-anchor="middle" pointer-events="none" x="0" y="5" font-size="10px" fill="#2A2C34" font-family="Helvetica Neue, Helvetica, Arial, sans-serif"> 「飨飨」…</text></g><g class="node" aria-label="graph-node2034" transform="translate(302.1487802147812,475.03628210163555)"><circle class="b-outline" cx="0" cy="0" r="25" fill="#ECB5C9" stroke="#da7298" stroke-width="2px"/><text class="caption" text-anchor="middle" pointer-events="none" x="0" y="5" font-size="10px" fill="#2A2C34" font-family="Helvetica Neue, Helvetica, Arial, sans-serif"> 飨飨微…</text></g><g class="node" aria-label="graph-node2037" transform="translate(303.73779075937296,608.4782787496887)"><circle class="b-outline" cx="0" cy="0" r="25" fill="#ECB5C9" stroke="#da7298" stroke-width="2px"/><text class="caption" text-anchor="middle" pointer-events="none" x="0" y="5" font-size="10px" fill="#2A2C34" font-family="Helvetica Neue, Helvetica, Arial, sans-serif"> 「飨飨微…</text></g><g class="node" aria-label="graph-node1523" transform="translate(747.5823119475807,150.64887237122076)"><circle class="b-outline" cx="0" cy="0" r="25" fill="#ECB5C9" stroke="#da7298" stroke-width="2px"/><text class="caption" text-anchor="middle" pointer-events="none" x="0" y="5" font-size="10px" fill="#2A2C34" font-family="Helvetica Neue, Helvetica, Arial, sans-serif"> 葵涌石篱…</text></g><g class="node" aria-label="graph-node1539" transform="translate(714.7495884610051,335.4319362008603)"><circle class="b-outline" cx="0" cy="0" r="25" fill="#ECB5C9" stroke="#da7298" stroke-width="2px"/><text class="caption" text-anchor="middle" pointer-events="none" x="0" y="-5" font-size="10px" fill="#2A2C34" font-family="Helvetica Neue, Helvetica, Arial, sans-serif"> kwai</text><text class="caption" text-anchor="middle" pointer-events="none" x="0" y="5" font-size="10px" fill="#2A2C34" font-family="Helvetica Neue, Helvetica, Arial, sans-serif"> chung</text><text class="caption" text-anchor="middle" pointer-events="none" x="0" y="15" font-size="10px" fill="#2A2C34" font-family="Helvetica Neue, Helvetica, Arial, sans-serif">le…</text></g><g class="node" aria-label="graph-node2032" transform="translate(70.15572280361245,398.0166031412378)"><circle class="b-outline" cx="0" cy="0" r="25" fill="#ECB5C9" stroke="#da7298" stroke-width="2px"/><text class="caption" text-anchor="middle" pointer-events="none" x="0" y="0" font-size="10px" fill="#2A2C34" font-family="Helvetica Neue, Helvetica, Arial, sans-serif"> 飨飨</text><text class="caption" text-anchor="middle" pointer-events="none" x="0" y="10" font-size="10px" fill="#2A2C34" font-family="Helvetica Neue, Helvetica, Arial, sans-serif"> 微风信…</text></g><g class="node" aria-label="graph-node2695" transform="translate(138.71336062487578,263.61244232240364)"><circle class="b-outline" cx="0" cy="0" r="25" fill="#ECB5C9" stroke="#da7298" stroke-width="2px"/><text class="caption" text-anchor="middle" pointer-events="none" x="0" y="5" font-size="10px" fill="#2A2C34" font-family="Helvetica Neue, Helvetica, Arial, sans-serif"> 飨飨微风…</text></g><g class="node" aria-label="graph-node5233" transform="translate(715.8016238078703,-462.562134115166)"><circle class="b-outline" cx="0" cy="0" r="25" fill="#ECB5C9" stroke="#da7298" stroke-width="2px"/><text class="caption" text-anchor="middle" pointer-events="none" x="0" y="5" font-size="10px" fill="#2A2C34" font-family="Helvetica Neue, Helvetica, Arial, sans-serif"> 当地时间…</text></g><g class="node" aria-label="graph-node11800" transform="translate(766.0131929251285,-325.0160533703039)"><circle class="b-outline" cx="0" cy="0" r="25" fill="#ECB5C9" stroke="#da7298" stroke-width="2px"/><text class="caption" text-anchor="middle" pointer-events="none" x="0" y="5" font-size="10px" fill="#2A2C34" font-family="Helvetica Neue, Helvetica, Arial, sans-serif"> 洛杉矶周…</text></g><g class="node" aria-label="graph-node5253" transform="translate(572.7403452525047,-393.3753324890972)"><circle class="b-outline" cx="0" cy="0" r="25" fill="#ECB5C9" stroke="#da7298" stroke-width="2px"/><text class="caption" text-anchor="middle" pointer-events="none" x="0" y="5" font-size="10px" fill="#2A2C34" font-family="Helvetica Neue, Helvetica, Arial, sans-serif"> 当地时间…</text></g><g class="node" aria-label="graph-node11824" transform="translate(585.0284035600988,-233.68441784732434)"><circle class="b-outline" cx="0" cy="0" r="25" fill="#ECB5C9" stroke="#da7298" stroke-width="2px"/><text class="caption" text-anchor="middle" pointer-events="none" x="0" y="5" font-size="10px" fill="#2A2C34" font-family="Helvetica Neue, Helvetica, Arial, sans-serif"> 洛杉矶周…</text></g><g class="node" aria-label="graph-node5668" transform="translate(264.5154708932612,-512.6210684548386)"><circle class="b-outline" cx="0" cy="0" r="25" fill="#ECB5C9" stroke="#da7298" stroke-width="2px"/><text class="caption" text-anchor="middle" pointer-events="none" x="0" y="5" font-size="10px" fill="#2A2C34" font-family="Helvetica Neue, Helvetica, Arial, sans-serif"> 美国洛杉…</text></g><g class="node" aria-label="graph-node8531" transform="translate(183.89143656134644,-354.2529783613672)"><circle class="b-outline" cx="0" cy="0" r="25" fill="#ECB5C9" stroke="#da7298" stroke-width="2px"/><text class="caption" text-anchor="middle" pointer-events="none" x="0" y="5" font-size="10px" fill="#2A2C34" font-family="Helvetica Neue, Helvetica, Arial, sans-serif"> 洛杉矶山…</text></g><g class="node" aria-label="graph-node9772" transform="translate(78.15940237506216,-515.242937390461)"><circle class="b-outline" cx="0" cy="0" r="25" fill="#ECB5C9" stroke="#da7298" stroke-width="2px"/><text class="caption" text-anchor="middle" pointer-events="none" x="0" y="5" font-size="10px" fill="#2A2C34" font-family="Helvetica Neue, Helvetica, Arial, sans-serif"> 美国加州…</text></g><g class="node" aria-label="graph-node6283" transform="translate(-46.60388988644422,-633.8313113131239)"><circle class="b-outline" cx="0" cy="0" r="25" fill="#ECB5C9" stroke="#da7298" stroke-width="2px"/><text class="caption" text-anchor="middle" pointer-events="none" x="0" y="5" font-size="10px" fill="#2A2C34" font-family="Helvetica Neue, Helvetica, Arial, sans-serif"> 期间拘捕…</text></g><g class="node" aria-label="graph-node8657" transform="translate(-116.94978772489038,-749.4836199740946)"><circle class="b-outline" cx="0" cy="0" r="25" fill="#ECB5C9" stroke="#da7298" stroke-width="2px"/><text class="caption" text-anchor="middle" pointer-events="none" x="0" y="5" font-size="10px" fill="#2A2C34" font-family="Helvetica Neue, Helvetica, Arial, sans-serif"> 警方於…</text></g><g class="node" aria-label="graph-node8678" transform="translate(-211.97575942206177,-721.5522104260109)"><circle class="b-outline" cx="0" cy="0" r="25" fill="#ECB5C9" stroke="#da7298" stroke-width="2px"/><text class="caption" text-anchor="middle" pointer-events="none" x="0" y="5" font-size="10px" fill="#2A2C34" font-family="Helvetica Neue, Helvetica, Arial, sans-serif"> 警方於前…</text></g><g class="node" aria-label="graph-node8366" transform="translate(-275.74517096375735,-272.0381702656232)"><circle class="b-outline" cx="0" cy="0" r="25" fill="#ECB5C9" stroke="#da7298" stroke-width="2px"/><text class="caption" text-anchor="middle" pointer-events="none" x="0" y="5" font-size="10px" fill="#2A2C34" font-family="Helvetica Neue, Helvetica, Arial, sans-serif"> 乌克兰东…</text></g><g class="node" aria-label="graph-node11149" transform="translate(-382.0057575338482,-366.68191728494656)"><circle class="b-outline" cx="0" cy="0" r="25" fill="#ECB5C9" stroke="#da7298" stroke-width="2px"/><text class="caption" text-anchor="middle" pointer-events="none" x="0" y="5" font-size="10px" fill="#2A2C34" font-family="Helvetica Neue, Helvetica, Arial, sans-serif"> 乌克兰东…</text></g><g class="node" aria-label="graph-node11154" transform="translate(-173.4895513695282,-154.01146067232193)"><circle class="b-outline" cx="0" cy="0" r="25" fill="#ECB5C9" stroke="#da7298" stroke-width="2px"/><text class="caption" text-anchor="middle" pointer-events="none" x="0" y="5" font-size="10px" fill="#2A2C34" font-family="Helvetica Neue, Helvetica, Arial, sans-serif"> 乌克兰东…</text></g><g class="node" aria-label="graph-node9856" transform="translate(-655.877259208768,-215.34233032750274)"><circle class="b-outline" cx="0" cy="0" r="25" fill="#ECB5C9" stroke="#da7298" stroke-width="2px"/><text class="caption" text-anchor="middle" pointer-events="none" x="0" y="5" font-size="10px" fill="#2A2C34" font-family="Helvetica Neue, Helvetica, Arial, sans-serif"> 24起一氧…</text></g><g class="node" aria-label="graph-node9860" transform="translate(-529.6472595993537,-112.72699903473693)"><circle class="b-outline" cx="0" cy="0" r="25" fill="#ECB5C9" stroke="#da7298" stroke-width="2px"/><text class="caption" text-anchor="middle" pointer-events="none" x="0" y="5" font-size="10px" fill="#2A2C34" font-family="Helvetica Neue, Helvetica, Arial, sans-serif"> 4人死亡</text></g><g class="node" aria-label="graph-node9872" transform="translate(-787.830507790528,-184.3606929347688)"><circle class="b-outline" cx="0" cy="0" r="25" fill="#ECB5C9" stroke="#da7298" stroke-width="2px"/><text class="caption" text-anchor="middle" pointer-events="none" x="0" y="5" font-size="10px" fill="#2A2C34" font-family="Helvetica Neue, Helvetica, Arial, sans-serif"> 59人送医</text></g><g class="node" aria-label="graph-node10355" transform="translate(-322.5291912277625,224.32721902530537)"><circle class="b-outline" cx="0" cy="0" r="25" fill="#ECB5C9" stroke="#da7298" stroke-width="2px"/><text class="caption" text-anchor="middle" pointer-events="none" x="0" y="5" font-size="10px" fill="#2A2C34" font-family="Helvetica Neue, Helvetica, Arial, sans-serif"> 女事主早…</text></g><g class="node" aria-label="graph-node10362" transform="translate(-429.0528783664915,124.14769153130804)"><circle class="b-outline" cx="0" cy="0" r="25" fill="#ECB5C9" stroke="#da7298" stroke-width="2px"/><text class="caption" text-anchor="middle" pointer-events="none" x="0" y="-5" font-size="10px" fill="#2A2C34" font-family="Helvetica Neue, Helvetica, Arial, sans-serif"> female</text><text class="caption" text-anchor="middle" pointer-events="none" x="0" y="5" font-size="10px" fill="#2A2C34" font-family="Helvetica Neue, Helvetica, Arial, sans-serif"> victim</text><text class="caption" text-anchor="middle" pointer-events="none" x="0" y="15" font-size="10px" fill="#2A2C34" font-family="Helvetica Neue, Helvetica, Arial, sans-serif"> previ</text></g><g class="node" aria-label="graph-node10356" transform="translate(-339.19386367997697,320.99618881627816)"><circle class="b-outline" cx="0" cy="0" r="25" fill="#ECB5C9" stroke="#da7298" stroke-width="2px"/><text class="caption" text-anchor="middle" pointer-events="none" x="0" y="5" font-size="10px" fill="#2A2C34" font-family="Helvetica Neue, Helvetica, Arial, sans-serif"> 今日她到…</text></g><g class="node" aria-label="graph-node10373" transform="translate(-170.2242319944044,255.54921375029812)"><circle class="b-outline" cx="0" cy="0" r="25" fill="#ECB5C9" stroke="#da7298" stroke-width="2px"/><text class="caption" text-anchor="middle" pointer-events="none" x="0" y="-5" font-size="10px" fill="#2A2C34" font-family="Helvetica Neue, Helvetica, Arial, sans-serif"> today </text><text class="caption" text-anchor="middle" pointer-events="none" x="0" y="5" font-size="10px" fill="#2A2C34" font-family="Helvetica Neue, Helvetica, Arial, sans-serif"> when she</text><text class="caption" text-anchor="middle" pointer-events="none" x="0" y="15" font-size="10px" fill="#2A2C34" font-family="Helvetica Neue, Helvetica, Arial, sans-serif"> wen</text></g><g class="node" aria-label="graph-node10363" transform="translate(-232.06973692040626,4.0478869286130745)"><circle class="b-outline" cx="0" cy="0" r="25" fill="#ECB5C9" stroke="#da7298" stroke-width="2px"/><text class="caption" text-anchor="middle" pointer-events="none" x="0" y="5" font-size="10px" fill="#2A2C34" font-family="Helvetica Neue, Helvetica, Arial, sans-serif"> 女事主怀…</text></g><g class="node" aria-label="graph-node10368" transform="translate(-117.22899679655741,91.998113443439)"><circle class="b-outline" cx="0" cy="0" r="25" fill="#ECB5C9" stroke="#da7298" stroke-width="2px"/><text class="caption" text-anchor="middle" pointer-events="none" x="0" y="-5" font-size="10px" fill="#2A2C34" font-family="Helvetica Neue, Helvetica, Arial, sans-serif"> female</text><text class="caption" text-anchor="middle" pointer-events="none" x="0" y="5" font-size="10px" fill="#2A2C34" font-family="Helvetica Neue, Helvetica, Arial, sans-serif"> victim</text><text class="caption" text-anchor="middle" pointer-events="none" x="0" y="15" font-size="10px" fill="#2A2C34" font-family="Helvetica Neue, Helvetica, Arial, sans-serif"> sus…</text></g><g class="node" aria-label="graph-node10728" transform="translate(-351.2916717069092,670.9234173074962)"><circle class="b-outline" cx="0" cy="0" r="25" fill="#ECB5C9" stroke="#da7298" stroke-width="2px"/><text class="caption" text-anchor="middle" pointer-events="none" x="0" y="5" font-size="10px" fill="#2A2C34" font-family="Helvetica Neue, Helvetica, Arial, sans-serif"> 歌手邱军…</text></g><g class="node" aria-label="graph-node10789" transform="translate(-156.31274256582554,587.8646156841949)"><circle class="b-outline" cx="0" cy="0" r="25" fill="#ECB5C9" stroke="#da7298" stroke-width="2px"/><text class="caption" text-anchor="middle" pointer-events="none" x="0" y="5" font-size="10px" fill="#2A2C34" font-family="Helvetica Neue, Helvetica, Arial, sans-serif"> 男歌手邱…</text></g><g class="node" aria-label="graph-node10793" transform="translate(-239.49148736579045,725.728474531729)"><circle class="b-outline" cx="0" cy="0" r="25" fill="#ECB5C9" stroke="#da7298" stroke-width="2px"/><text class="caption" text-anchor="middle" pointer-events="none" x="0" y="5" font-size="10px" fill="#2A2C34" font-family="Helvetica Neue, Helvetica, Arial, sans-serif"> 男歌手邱…</text></g><g class="node" aria-label="graph-node5682" transform="translate(150.16750769455635,-447.18636550502987)"><circle class="b-outline" cx="0" cy="0" r="25" fill="#C990C0" stroke="#b261a5" stroke-width="2px"/><text class="caption" text-anchor="middle" pointer-events="none" x="0" y="5" font-size="10px" fill="#FFFFFF" font-family="Helvetica Neue, Helvetica, Arial, sans-serif"> None</text></g><g class="node" aria-label="graph-node12311" transform="translate(8.795625580702307,-340.6976574750478)"><circle class="b-outline" cx="0" cy="0" r="25" fill="#8DCC93" stroke="#5db665" stroke-width="2px"/><text class="caption" text-anchor="middle" pointer-events="none" x="0" y="5" font-size="10px" fill="#2A2C34" font-family="Helvetica Neue, Helvetica, Arial, sans-serif"> 304</text></g><g class="node" aria-label="graph-node6310" transform="translate(57.850107442934636,-737.6780906878367)"><circle class="b-outline" cx="0" cy="0" r="25" fill="#C990C0" stroke="#b261a5" stroke-width="2px"/><text class="caption" text-anchor="middle" pointer-events="none" x="0" y="5" font-size="10px" fill="#FFFFFF" font-family="Helvetica Neue, Helvetica, Arial, sans-serif"> None</text></g><g class="node" aria-label="graph-node12322" transform="translate(-201.15332196816166,-601.7986166143942)"><circle class="b-outline" cx="0" cy="0" r="25" fill="#8DCC93" stroke="#5db665" stroke-width="2px"/><text class="caption" text-anchor="middle" pointer-events="none" x="0" y="5" font-size="10px" fill="#2A2C34" font-family="Helvetica Neue, Helvetica, Arial, sans-serif"> 150</text></g><g class="node" aria-label="graph-node11158" transform="translate(-347.52146217513337,-203.59006570143373)"><circle class="b-outline" cx="0" cy="0" r="25" fill="#C990C0" stroke="#b261a5" stroke-width="2px"/><text class="caption" text-anchor="middle" pointer-events="none" x="0" y="5" font-size="10px" fill="#FFFFFF" font-family="Helvetica Neue, Helvetica, Arial, sans-serif"> None</text></g><g class="node" aria-label="graph-node12441" transform="translate(-209.29033603357254,-352.03677232871837)"><circle class="b-outline" cx="0" cy="0" r="25" fill="#8DCC93" stroke="#5db665" stroke-width="2px"/><text class="caption" text-anchor="middle" pointer-events="none" x="0" y="5" font-size="10px" fill="#2A2C34" font-family="Helvetica Neue, Helvetica, Arial, sans-serif"> 306</text></g><g class="node" aria-label="graph-node9859" transform="translate(-740.4694704740873,-68.74146629036606)"><circle class="b-outline" cx="0" cy="0" r="25" fill="#C990C0" stroke="#b261a5" stroke-width="2px"/><text class="caption" text-anchor="middle" pointer-events="none" x="0" y="5" font-size="10px" fill="#FFFFFF" font-family="Helvetica Neue, Helvetica, Arial, sans-serif"> None</text></g><g class="node" aria-label="graph-node12473" transform="translate(-641.8210125501139,-73.32526798658083)"><circle class="b-outline" cx="0" cy="0" r="25" fill="#8DCC93" stroke="#5db665" stroke-width="2px"/><text class="caption" text-anchor="middle" pointer-events="none" x="0" y="5" font-size="10px" fill="#2A2C34" font-family="Helvetica Neue, Helvetica, Arial, sans-serif"> 305</text></g><g class="node" aria-label="graph-node10350" transform="translate(-240.4360348262215,325.42729392268694)"><circle class="b-outline" cx="0" cy="0" r="25" fill="#C990C0" stroke="#b261a5" stroke-width="2px"/><text class="caption" text-anchor="middle" pointer-events="none" x="0" y="5" font-size="10px" fill="#FFFFFF" font-family="Helvetica Neue, Helvetica, Arial, sans-serif"> 金钟夏悫…</text></g><g class="node" aria-label="graph-node10375" transform="translate(-260.21829823013655,146.86239253703866)"><circle class="b-outline" cx="0" cy="0" r="25" fill="#C990C0" stroke="#b261a5" stroke-width="2px"/><text class="caption" text-anchor="middle" pointer-events="none" x="0" y="5" font-size="10px" fill="#FFFFFF" font-family="Helvetica Neue, Helvetica, Arial, sans-serif"> None</text></g><g class="node" aria-label="graph-node12476" transform="translate(-490.6434034971709,255.17710753182365)"><circle class="b-outline" cx="0" cy="0" r="25" fill="#8DCC93" stroke="#5db665" stroke-width="2px"/><text class="caption" text-anchor="middle" pointer-events="none" x="0" y="5" font-size="10px" fill="#2A2C34" font-family="Helvetica Neue, Helvetica, Arial, sans-serif"> 315</text></g><g class="node" aria-label="graph-node10800" transform="translate(-95.48440311123397,728.7573247568043)"><circle class="b-outline" cx="0" cy="0" r="25" fill="#C990C0" stroke="#b261a5" stroke-width="2px"/><text class="caption" text-anchor="middle" pointer-events="none" x="0" y="5" font-size="10px" fill="#FFFFFF" font-family="Helvetica Neue, Helvetica, Arial, sans-serif"> None</text></g><g class="node" aria-label="graph-node12496" transform="translate(-304.1955769897002,564.9406506520172)"><circle class="b-outline" cx="0" cy="0" r="25" fill="#8DCC93" stroke="#5db665" stroke-width="2px"/><text class="caption" text-anchor="middle" pointer-events="none" x="0" y="5" font-size="10px" fill="#2A2C34" font-family="Helvetica Neue, Helvetica, Arial, sans-serif"> 337</text></g><g class="node" aria-label="graph-node2033" transform="translate(124.14822040331867,548.7445986586572)"><circle class="b-outline" cx="0" cy="0" r="25" fill="#C990C0" stroke="#b261a5" stroke-width="2px"/><text class="caption" text-anchor="middle" pointer-events="none" x="0" y="5" font-size="10px" fill="#FFFFFF" font-family="Helvetica Neue, Helvetica, Arial, sans-serif"> None</text></g><g class="node" aria-label="graph-node2043" transform="translate(191.7140594234145,391.716105547562)"><circle class="b-outline" cx="0" cy="0" r="25" fill="#C990C0" stroke="#b261a5" stroke-width="2px"/><text class="caption" text-anchor="middle" pointer-events="none" x="0" y="5" font-size="10px" fill="#FFFFFF" font-family="Helvetica Neue, Helvetica, Arial, sans-serif"> 台北市卫…</text></g><g class="node" aria-label="graph-node12216" transform="translate(204.0890601605122,490.65782411809585)"><circle class="b-outline" cx="0" cy="0" r="25" fill="#8DCC93" stroke="#5db665" stroke-width="2px"/><text class="caption" text-anchor="middle" pointer-events="none" x="0" y="5" font-size="10px" fill="#2A2C34" font-family="Helvetica Neue, Helvetica, Arial, sans-serif"> 52</text></g><g class="node" aria-label="graph-node10525" transform="translate(311.65661074164166,39.283789976558396)"><circle class="b-outline" cx="0" cy="0" r="25" fill="#C990C0" stroke="#b261a5" stroke-width="2px"/><text class="caption" text-anchor="middle" pointer-events="none" x="0" y="5" font-size="10px" fill="#FFFFFF" font-family="Helvetica Neue, Helvetica, Arial, sans-serif"> None</text></g><g class="node" aria-label="graph-node12198" transform="translate(334.65076748694764,-178.3944262666076)"><circle class="b-outline" cx="0" cy="0" r="25" fill="#8DCC93" stroke="#5db665" stroke-width="2px"/><text class="caption" text-anchor="middle" pointer-events="none" x="0" y="5" font-size="10px" fill="#2A2C34" font-family="Helvetica Neue, Helvetica, Arial, sans-serif"> 22</text></g><g class="node" aria-label="graph-node11832" transform="translate(723.7304536425564,-182.26037072310024)"><circle class="b-outline" cx="0" cy="0" r="25" fill="#C990C0" stroke="#b261a5" stroke-width="2px"/><text class="caption" text-anchor="middle" pointer-events="none" x="0" y="5" font-size="10px" fill="#FFFFFF" font-family="Helvetica Neue, Helvetica, Arial, sans-serif"> None</text></g><g class="node" aria-label="graph-node12306" transform="translate(457.92249399144606,-323.5220500804428)"><circle class="b-outline" cx="0" cy="0" r="25" fill="#8DCC93" stroke="#5db665" stroke-width="2px"/><text class="caption" text-anchor="middle" pointer-events="none" x="0" y="5" font-size="10px" fill="#2A2C34" font-family="Helvetica Neue, Helvetica, Arial, sans-serif"> 134</text></g><g class="node" aria-label="graph-node1531" transform="translate(762.2621108571975,248.970237637718)"><circle class="b-outline" cx="0" cy="0" r="25" fill="#C990C0" stroke="#b261a5" stroke-width="2px"/><text class="caption" text-anchor="middle" pointer-events="none" x="0" y="5" font-size="10px" fill="#FFFFFF" font-family="Helvetica Neue, Helvetica, Arial, sans-serif"> 下午近1时</text></g><g class="node" aria-label="graph-node1542" transform="translate(613.880975916181,184.49654293333063)"><circle class="b-outline" cx="0" cy="0" r="25" fill="#C990C0" stroke="#b261a5" stroke-width="2px"/><text class="caption" text-anchor="middle" pointer-events="none" x="0" y="5" font-size="10px" fill="#FFFFFF" font-family="Helvetica Neue, Helvetica, Arial, sans-serif"> None</text></g><g class="node" aria-label="graph-node10279" transform="translate(630.735652486507,282.245076400266)"><circle class="b-outline" cx="0" cy="0" r="25" fill="#C990C0" stroke="#b261a5" stroke-width="2px"/><text class="caption" text-anchor="middle" pointer-events="none" x="0" y="5" font-size="10px" fill="#FFFFFF" font-family="Helvetica Neue, Helvetica, Arial, sans-serif"> None</text></g><g class="node" aria-label="graph-node12225" transform="translate(861.7648417546078,246.64814496447846)"><circle class="b-outline" cx="0" cy="0" r="25" fill="#8DCC93" stroke="#5db665" stroke-width="2px"/><text class="caption" text-anchor="middle" pointer-events="none" x="0" y="5" font-size="10px" fill="#2A2C34" font-family="Helvetica Neue, Helvetica, Arial, sans-serif"> 49</text></g></g></svg>