<svg xmlns="http://www.w3.org/2000/svg" width="722.0050659179688" height="568.8876342773438" viewBox="-79.91072082519531 -836.9393310546875 722.0050659179688 568.8876342773438"><title>Neo4j Graph Visualization</title><desc>Created using Neo4j (http://www.neo4j.com/)</desc><g class="layer relationships"><g class="relationship" transform="translate(347.00963268818276 -482.7591490520751) rotate(286.85271854923815)"><path class="b-outline" fill="#A5ABB6" stroke="none" d="M 25 0.5 L 53.356376441567576 0.5 L 53.356376441567576 -0.5 L 25 -0.5 Z M 84.56731394156758 0.5 L 112.92369038313515 0.5 L 112.92369038313515 3.5 L 119.92369038313515 0 L 112.92369038313515 -3.5 L 112.92369038313515 -0.5 L 84.56731394156758 -0.5 Z"/><text text-anchor="middle" pointer-events="none" font-size="8px" fill="#000000" x="68.96184519156758" y="3" font-family="Helvetica Neue, Helvetica, Arial, sans-serif">source</text></g><g class="relationship" transform="translate(347.00963268818276 -482.7591490520751) rotate(524.2844336320154)"><path class="b-outline" fill="#A5ABB6" stroke="none" d="M 25 0.5 L 174.62594139493143 0.5 L 174.62594139493143 -0.5 L 25 -0.5 Z M 231.74703514493143 0.5 L 381.37297653986286 0.5 L 381.37297653986286 3.5 L 388.37297653986286 0 L 381.37297653986286 -3.5 L 381.37297653986286 -0.5 L 231.74703514493143 -0.5 Z"/><text text-anchor="middle" pointer-events="none" font-size="8px" fill="#000000" x="203.18648826993143" y="3" transform="rotate(180 203.18648826993143 0)" font-family="Helvetica Neue, Helvetica, Arial, sans-serif">BELONGS_TO</text></g><g class="relationship" transform="translate(14.0569799858458 -588.0836276249099) rotate(354.9136123516689)"><path class="b-outline" fill="#A5ABB6" stroke="none" d="M 25 0.5 L 169.1196544601385 0.5 L 169.1196544601385 -0.5 L 25 -0.5 Z M 200.3305919601385 0.5 L 344.450246420277 0.5 L 344.450246420277 3.5 L 351.450246420277 0 L 344.450246420277 -3.5 L 344.450246420277 -0.5 L 200.3305919601385 -0.5 Z"/><text text-anchor="middle" pointer-events="none" font-size="8px" fill="#000000" x="184.7251232101385" y="3" font-family="Helvetica Neue, Helvetica, Arial, sans-serif">source</text></g><g class="relationship" transform="translate(14.0569799858458 -588.0836276249099) rotate(466.64606833339843)"><path class="b-outline" fill="#A5ABB6" stroke="none" d="M 25 0.5 L 81.3374235420956 0.5 L 81.3374235420956 -0.5 L 25 -0.5 Z M 138.45851729209562 0.5 L 194.7959408341912 0.5 L 194.7959408341912 3.5 L 201.7959408341912 0 L 194.7959408341912 -3.5 L 194.7959408341912 -0.5 L 138.45851729209562 -0.5 Z"/><text text-anchor="middle" pointer-events="none" font-size="8px" fill="#000000" x="109.8979704170956" y="3" transform="rotate(180 109.8979704170956 0)" font-family="Helvetica Neue, Helvetica, Arial, sans-serif">BELONGS_TO</text></g><g class="relationship" transform="translate(389.02482437770396 -621.4588235346044) rotate(507.896821127069)"><path class="b-outline" fill="#A5ABB6" stroke="none" d="M 25 0.5 L 39.44822244209051 0.5 L 39.44822244209051 -0.5 L 25 -0.5 Z M 70.51072244209051 0.5 L 84.95894488418102 0.5 L 84.95894488418102 3.5 L 91.95894488418102 0 L 84.95894488418102 -3.5 L 84.95894488418102 -0.5 L 70.51072244209051 -0.5 Z"/><text text-anchor="middle" pointer-events="none" font-size="8px" fill="#000000" x="54.97947244209051" y="3" transform="rotate(180 54.97947244209051 0)" font-family="Helvetica Neue, Helvetica, Arial, sans-serif">similar</text></g><g class="relationship" transform="translate(422.0479028629586 -789.1429717754172) rotate(461.1410421368883)"><path class="b-outline" fill="#A5ABB6" stroke="none" d="M 25 0.5 L 66.34699944707748 0.5 L 66.34699944707748 -0.5 L 25 -0.5 Z M 97.55793694707748 0.5 L 138.90493639415496 0.5 L 138.90493639415496 3.5 L 145.90493639415496 0 L 138.90493639415496 -3.5 L 138.90493639415496 -0.5 L 97.55793694707748 -0.5 Z"/><text text-anchor="middle" pointer-events="none" font-size="8px" fill="#000000" x="81.95246819707748" y="3" transform="rotate(180 81.95246819707748 0)" font-family="Helvetica Neue, Helvetica, Arial, sans-serif">source</text></g><g class="relationship" transform="translate(132.24830559124402 -619.9317392171721) rotate(359.6592583494015)"><path class="b-outline" fill="#A5ABB6" stroke="none" d="M 25 0.5 L 109.28506106684998 0.5 L 109.28506106684998 -0.5 L 25 -0.5 Z M 140.49599856684998 0.5 L 224.78105963369995 0.5 L 224.78105963369995 3.5 L 231.78105963369995 0 L 224.78105963369995 -3.5 L 224.78105963369995 -0.5 L 140.49599856684998 -0.5 Z"/><text text-anchor="middle" pointer-events="none" font-size="8px" fill="#000000" x="124.89052981684998" y="3" font-family="Helvetica Neue, Helvetica, Arial, sans-serif">source</text></g><g class="relationship" transform="translate(356.92890582098454 -715.2972165400228) rotate(431.1175692771152)"><path class="b-outline" fill="#A5ABB6" stroke="none" d="M 25 0.5 L 30.482311977309493 0.5 L 30.482311977309493 -0.5 L 25 -0.5 Z M 61.69324947730949 0.5 L 67.17556145461899 0.5 L 67.17556145461899 3.5 L 74.17556145461899 0 L 67.17556145461899 -3.5 L 67.17556145461899 -0.5 L 61.69324947730949 -0.5 Z"/><text text-anchor="middle" pointer-events="none" font-size="8px" fill="#000000" x="46.08778072730949" y="3" font-family="Helvetica Neue, Helvetica, Arial, sans-serif">source</text></g><g class="relationship" transform="translate(163.14384538937887 -709.7280659462357) rotate(381.344448152915)"><path class="b-outline" fill="#A5ABB6" stroke="none" d="M 25 0.5 L 102.1521864976662 0.5 L 102.1521864976662 -0.5 L 25 -0.5 Z M 133.3631239976662 0.5 L 210.5153104953324 0.5 L 210.5153104953324 3.5 L 217.5153104953324 0 L 210.5153104953324 -3.5 L 210.5153104953324 -0.5 L 133.3631239976662 -0.5 Z"/><text text-anchor="middle" pointer-events="none" font-size="8px" fill="#000000" x="117.7576552476662" y="3" font-family="Helvetica Neue, Helvetica, Arial, sans-serif">source</text></g><g class="relationship" transform="translate(613.094271619532 -501.94659891948777) rotate(208.07418294351862)"><path class="b-outline" fill="#A5ABB6" stroke="none" d="M 25 0.5 L 107.869222645286 0.5 L 107.869222645286 -0.5 L 25 -0.5 Z M 139.08016014528602 0.5 L 221.949382790572 0.5 L 221.949382790572 3.5 L 228.949382790572 0 L 221.949382790572 -3.5 L 221.949382790572 -0.5 L 139.08016014528602 -0.5 Z"/><text text-anchor="middle" pointer-events="none" font-size="8px" fill="#000000" x="123.474691395286" y="3" transform="rotate(180 123.474691395286 0)" font-family="Helvetica Neue, Helvetica, Arial, sans-serif">source</text></g><g class="relationship" transform="translate(194.64600308298645 -805.446547691664) rotate(403.42687889136516)"><path class="b-outline" fill="#A5ABB6" stroke="none" d="M 25 0.5 L 114.7177437435898 0.5 L 114.7177437435898 -0.5 L 25 -0.5 Z M 145.9286812435898 0.5 L 235.6464249871796 0.5 L 235.6464249871796 3.5 L 242.6464249871796 0 L 235.6464249871796 -3.5 L 235.6464249871796 -0.5 L 145.9286812435898 -0.5 Z"/><text text-anchor="middle" pointer-events="none" font-size="8px" fill="#000000" x="130.3232124935898" y="3" font-family="Helvetica Neue, Helvetica, Arial, sans-serif">source</text></g><g class="relationship" transform="translate(519.5028514156186 -387.89014954372414) rotate(240.81104687009116)"><path class="b-outline" fill="#A5ABB6" stroke="none" d="M 25 0.5 L 114.66564267691169 0.5 L 114.66564267691169 -0.5 L 25 -0.5 Z M 145.8765801769117 0.5 L 235.54222285382338 0.5 L 235.54222285382338 3.5 L 242.54222285382338 0 L 235.54222285382338 -3.5 L 235.54222285382338 -0.5 L 145.8765801769117 -0.5 Z"/><text text-anchor="middle" pointer-events="none" font-size="8px" fill="#000000" x="130.2711114269117" y="3" transform="rotate(180 130.2711114269117 0)" font-family="Helvetica Neue, Helvetica, Arial, sans-serif">source</text></g><g class="relationship" transform="translate(579.3376512520512 -674.0656315961367) rotate(524.5479864531848)"><path class="b-outline" fill="#A5ABB6" stroke="none" d="M 25 0.5 L 79.61946265960917 0.5 L 79.61946265960917 -0.5 L 25 -0.5 Z M 110.83040015960917 0.5 L 165.44986281921834 0.5 L 165.44986281921834 3.5 L 172.44986281921834 0 L 165.44986281921834 -3.5 L 165.44986281921834 -0.5 L 110.83040015960917 -0.5 Z"/><text text-anchor="middle" pointer-events="none" font-size="8px" fill="#000000" x="95.22493140960917" y="3" transform="rotate(180 95.22493140960917 0)" font-family="Helvetica Neue, Helvetica, Arial, sans-serif">source</text></g><g class="relationship" transform="translate(324.25964710732046 -807.9393183659976) rotate(430.84774828764)"><path class="b-outline" fill="#A5ABB6" stroke="none" d="M 25 0.5 L 79.59800527627912 0.5 L 79.59800527627912 -0.5 L 25 -0.5 Z M 110.80894277627912 0.5 L 165.40694805255825 0.5 L 165.40694805255825 3.5 L 172.40694805255825 0 L 165.40694805255825 -3.5 L 165.40694805255825 -0.5 L 110.80894277627912 -0.5 Z"/><text text-anchor="middle" pointer-events="none" font-size="8px" fill="#000000" x="95.20347402627912" y="3" font-family="Helvetica Neue, Helvetica, Arial, sans-serif">source</text></g><g class="relationship" transform="translate(517.8164388046353 -486.198365638451) rotate(226.40337208522965)"><path class="b-outline" fill="#A5ABB6" stroke="none" d="M 25 0.5 L 74.27904738754344 0.5 L 74.27904738754344 -0.5 L 25 -0.5 Z M 105.48998488754344 0.5 L 154.7690322750869 0.5 L 154.7690322750869 3.5 L 161.7690322750869 0 L 154.7690322750869 -3.5 L 154.7690322750869 -0.5 L 105.48998488754344 -0.5 Z"/><text text-anchor="middle" pointer-events="none" font-size="8px" fill="#000000" x="89.88451613754344" y="3" transform="rotate(180 89.88451613754344 0)" font-family="Helvetica Neue, Helvetica, Arial, sans-serif">source</text></g><g class="relationship" transform="translate(261.29482904193196 -732.0158340676904) rotate(400.87790634064527)"><path class="b-outline" fill="#A5ABB6" stroke="none" d="M 25 0.5 L 65.36021109467008 0.5 L 65.36021109467008 -0.5 L 25 -0.5 Z M 96.57114859467008 0.5 L 136.93135968934016 0.5 L 136.93135968934016 3.5 L 143.93135968934016 0 L 136.93135968934016 -3.5 L 136.93135968934016 -0.5 L 96.57114859467008 -0.5 Z"/><text text-anchor="middle" pointer-events="none" font-size="8px" fill="#000000" x="80.96567984467008" y="3" font-family="Helvetica Neue, Helvetica, Arial, sans-serif">source</text></g><g class="relationship" transform="translate(257.9635579545662 -469.76373808032866) rotate(310.8263045691559)"><path class="b-outline" fill="#A5ABB6" stroke="none" d="M 25 0.5 L 81.12982257423461 0.5 L 81.12982257423461 -0.5 L 25 -0.5 Z M 112.34076007423461 0.5 L 168.47058264846922 0.5 L 168.47058264846922 3.5 L 175.47058264846922 0 L 168.47058264846922 -3.5 L 168.47058264846922 -0.5 L 112.34076007423461 -0.5 Z"/><text text-anchor="middle" pointer-events="none" font-size="8px" fill="#000000" x="96.73529132423461" y="3" font-family="Helvetica Neue, Helvetica, Arial, sans-serif">source</text></g><g class="relationship" transform="translate(312.363803269355 -297.05169300824883) rotate(283.2957220054838)"><path class="b-outline" fill="#A5ABB6" stroke="none" d="M 25 0.5 L 147.565538397103 0.5 L 147.565538397103 -0.5 L 25 -0.5 Z M 178.776475897103 0.5 L 301.342014294206 0.5 L 301.342014294206 3.5 L 308.342014294206 0 L 301.342014294206 -3.5 L 301.342014294206 -0.5 L 178.776475897103 -0.5 Z"/><text text-anchor="middle" pointer-events="none" font-size="8px" fill="#000000" x="163.171007147103" y="3" font-family="Helvetica Neue, Helvetica, Arial, sans-serif">source</text></g><g class="relationship" transform="translate(229.52726608863836 -639.6783439656784) rotate(366.51669124248826)"><path class="b-outline" fill="#A5ABB6" stroke="none" d="M 25 0.5 L 61.16193127160311 0.5 L 61.16193127160311 -0.5 L 25 -0.5 Z M 92.37286877160311 0.5 L 128.53480004320622 0.5 L 128.53480004320622 3.5 L 135.53480004320622 0 L 128.53480004320622 -3.5 L 128.53480004320622 -0.5 L 92.37286877160311 -0.5 Z"/><text text-anchor="middle" pointer-events="none" font-size="8px" fill="#000000" x="76.76740002160311" y="3" font-family="Helvetica Neue, Helvetica, Arial, sans-serif">source</text></g><g class="relationship" transform="translate(511.0443530894752 -746.958084235657) rotate(494.1945628690074)"><path class="b-outline" fill="#A5ABB6" stroke="none" d="M 25 0.5 L 68.41428591081002 0.5 L 68.41428591081002 -0.5 L 25 -0.5 Z M 99.62522341081002 0.5 L 143.03950932162005 0.5 L 143.03950932162005 3.5 L 150.03950932162005 0 L 143.03950932162005 -3.5 L 143.03950932162005 -0.5 L 99.62522341081002 -0.5 Z"/><text text-anchor="middle" pointer-events="none" font-size="8px" fill="#000000" x="84.01975466081002" y="3" transform="rotate(180 84.01975466081002 0)" font-family="Helvetica Neue, Helvetica, Arial, sans-serif">source</text></g><g class="relationship" transform="translate(150.20560271971476 -352.54526126287357) rotate(311.6079328022112)"><path class="b-outline" fill="#A5ABB6" stroke="none" d="M 25 0.5 L 160.72022783352492 0.5 L 160.72022783352492 -0.5 L 25 -0.5 Z M 191.93116533352492 0.5 L 327.65139316704983 0.5 L 327.65139316704983 3.5 L 334.65139316704983 0 L 327.65139316704983 -3.5 L 327.65139316704983 -0.5 L 191.93116533352492 -0.5 Z"/><text text-anchor="middle" pointer-events="none" font-size="8px" fill="#000000" x="176.32569658352492" y="3" font-family="Helvetica Neue, Helvetica, Arial, sans-serif">source</text></g><g class="relationship" transform="translate(432.4556778136844 -436.2071552953003) rotate(256.8057264263759)"><path class="b-outline" fill="#A5ABB6" stroke="none" d="M 25 0.5 L 76.03182627096275 0.5 L 76.03182627096275 -0.5 L 25 -0.5 Z M 107.24276377096275 0.5 L 158.2745900419255 0.5 L 158.2745900419255 3.5 L 165.2745900419255 0 L 158.2745900419255 -3.5 L 158.2745900419255 -0.5 L 107.24276377096275 -0.5 Z"/><text text-anchor="middle" pointer-events="none" font-size="8px" fill="#000000" x="91.63729502096275" y="3" transform="rotate(180 91.63729502096275 0)" font-family="Helvetica Neue, Helvetica, Arial, sans-serif">source</text></g><g class="relationship" transform="translate(481.6768455469523 -654.1411587696184) rotate(520.5700718934655)"><path class="b-outline" fill="#A5ABB6" stroke="none" d="M 25 0.5 L 30.018181519398432 0.5 L 30.018181519398432 -0.5 L 25 -0.5 Z M 61.22911901939843 0.5 L 66.24730053879686 0.5 L 66.24730053879686 3.5 L 73.24730053879686 0 L 66.24730053879686 -3.5 L 66.24730053879686 -0.5 L 61.22911901939843 -0.5 Z"/><text text-anchor="middle" pointer-events="none" font-size="8px" fill="#000000" x="45.62365026939843" y="3" transform="rotate(180 45.62365026939843 0)" font-family="Helvetica Neue, Helvetica, Arial, sans-serif">source</text></g><g class="relationship" transform="translate(160.26558002849993 -452.10699747171907) rotate(323.4872341402718)"><path class="b-outline" fill="#A5ABB6" stroke="none" d="M 25 0.5 L 123.20654134230793 0.5 L 123.20654134230793 -0.5 L 25 -0.5 Z M 154.41747884230793 0.5 L 252.62402018461586 0.5 L 252.62402018461586 3.5 L 259.62402018461586 0 L 252.62402018461586 -3.5 L 252.62402018461586 -0.5 L 154.41747884230793 -0.5 Z"/><text text-anchor="middle" pointer-events="none" font-size="8px" fill="#000000" x="138.81201009230793" y="3" font-family="Helvetica Neue, Helvetica, Arial, sans-serif">source</text></g><g class="relationship" transform="translate(195.15948161921014 -546.2432109622496) rotate(338.7948104432953)"><path class="b-outline" fill="#A5ABB6" stroke="none" d="M 25 0.5 L 84.86707509872826 0.5 L 84.86707509872826 -0.5 L 25 -0.5 Z M 116.07801259872826 0.5 L 175.94508769745653 0.5 L 175.94508769745653 3.5 L 182.94508769745653 0 L 175.94508769745653 -3.5 L 175.94508769745653 -0.5 L 116.07801259872826 -0.5 Z"/><text text-anchor="middle" pointer-events="none" font-size="8px" fill="#000000" x="100.47254384872826" y="3" font-family="Helvetica Neue, Helvetica, Arial, sans-serif">source</text></g><g class="relationship" transform="translate(546.5931031380572 -580.9684362613194) rotate(194.4115057596049)"><path class="b-outline" fill="#A5ABB6" stroke="none" d="M 25 0.5 L 62.23829857891248 0.5 L 62.23829857891248 -0.5 L 25 -0.5 Z M 93.44923607891248 0.5 L 130.68753465782495 0.5 L 130.68753465782495 3.5 L 137.68753465782495 0 L 130.68753465782495 -3.5 L 130.68753465782495 -0.5 L 93.44923607891248 -0.5 Z"/><text text-anchor="middle" pointer-events="none" font-size="8px" fill="#000000" x="77.84376732891248" y="3" transform="rotate(180 77.84376732891248 0)" font-family="Helvetica Neue, Helvetica, Arial, sans-serif">source</text></g><g class="relationship" transform="translate(427.8494961533478 -337.03654588785685) rotate(262.226959825159)"><path class="b-outline" fill="#A5ABB6" stroke="none" d="M 25 0.5 L 124.42448209672227 0.5 L 124.42448209672227 -0.5 L 25 -0.5 Z M 155.63541959672227 0.5 L 255.05990169344454 0.5 L 255.05990169344454 3.5 L 262.05990169344454 0 L 255.05990169344454 -3.5 L 255.05990169344454 -0.5 L 155.63541959672227 -0.5 Z"/><text text-anchor="middle" pointer-events="none" font-size="8px" fill="#000000" x="140.02995084672227" y="3" transform="rotate(180 140.02995084672227 0)" font-family="Helvetica Neue, Helvetica, Arial, sans-serif">source</text></g><g class="relationship" transform="translate(99.0072136880506 -528.0968034963037) rotate(342.15567501373084)"><path class="b-outline" fill="#A5ABB6" stroke="none" d="M 25 0.5 L 133.23188820469397 0.5 L 133.23188820469397 -0.5 L 25 -0.5 Z M 164.44282570469397 0.5 L 272.67471390938795 0.5 L 272.67471390938795 3.5 L 279.67471390938795 0 L 272.67471390938795 -3.5 L 272.67471390938795 -0.5 L 164.44282570469397 -0.5 Z"/><text text-anchor="middle" pointer-events="none" font-size="8px" fill="#000000" x="148.83735695469397" y="3" font-family="Helvetica Neue, Helvetica, Arial, sans-serif">source</text></g><g class="relationship" transform="translate(248.40005615050748 -372.79382947044195) rotate(299.48898231572554)"><path class="b-outline" fill="#A5ABB6" stroke="none" d="M 25 0.5 L 123.73150537774703 0.5 L 123.73150537774703 -0.5 L 25 -0.5 Z M 154.94244287774703 0.5 L 253.67394825549405 0.5 L 253.67394825549405 3.5 L 260.67394825549405 0 L 253.67394825549405 -3.5 L 253.67394825549405 -0.5 L 154.94244287774703 -0.5 Z"/><text text-anchor="middle" pointer-events="none" font-size="8px" fill="#000000" x="139.33697412774703" y="3" font-family="Helvetica Neue, Helvetica, Arial, sans-serif">source</text></g><g class="relationship" transform="translate(431.3274817474122 -531.6058606344816) rotate(244.7890050967044)"><path class="b-outline" fill="#A5ABB6" stroke="none" d="M 25 0.5 L 30.551025695514845 0.5 L 30.551025695514845 -0.5 L 25 -0.5 Z M 61.761963195514845 0.5 L 67.31298889102969 0.5 L 67.31298889102969 3.5 L 74.31298889102969 0 L 67.31298889102969 -3.5 L 67.31298889102969 -0.5 L 61.761963195514845 -0.5 Z"/><text text-anchor="middle" pointer-events="none" font-size="8px" fill="#000000" x="46.156494445514845" y="3" transform="rotate(180 46.156494445514845 0)" font-family="Helvetica Neue, Helvetica, Arial, sans-serif">source</text></g><g class="relationship" transform="translate(345.5190796680709 -391.72490504303454) rotate(280.7233730088663)"><path class="b-outline" fill="#A5ABB6" stroke="none" d="M 25 0.5 L 97.80306721747229 0.5 L 97.80306721747229 -0.5 L 25 -0.5 Z M 129.0140047174723 0.5 L 201.81707193494458 0.5 L 201.81707193494458 3.5 L 208.81707193494458 0 L 201.81707193494458 -3.5 L 201.81707193494458 -0.5 L 129.0140047174723 -0.5 Z"/><text text-anchor="middle" pointer-events="none" font-size="8px" fill="#000000" x="113.40853596747229" y="3" font-family="Helvetica Neue, Helvetica, Arial, sans-serif">source</text></g><g class="relationship" transform="translate(422.0479028629586 -789.1429717754172) rotate(184.1008034119315)"><path class="b-outline" fill="#A5ABB6" stroke="none" d="M 25 0.5 L 99.49279649521425 0.5 L 99.49279649521425 -0.5 L 25 -0.5 Z M 121.49279649521425 0.5 L 195.9855929904285 0.5 L 195.9855929904285 3.5 L 202.9855929904285 0 L 195.9855929904285 -3.5 L 195.9855929904285 -0.5 L 121.49279649521425 -0.5 Z"/><text text-anchor="middle" pointer-events="none" font-size="8px" fill="#000000" x="110.49279649521425" y="3" transform="rotate(180 110.49279649521425 0)" font-family="Helvetica Neue, Helvetica, Arial, sans-serif">取消</text></g><g class="relationship" transform="translate(422.0479028629586 -789.1429717754172) rotate(396.19018948984836)"><path class="b-outline" fill="#A5ABB6" stroke="none" d="M 25 0.5 L 82.94595831926779 0.5 L 82.94595831926779 -0.5 L 25 -0.5 Z M 104.94595831926779 0.5 L 162.89191663853558 0.5 L 162.89191663853558 3.5 L 169.89191663853558 0 L 162.89191663853558 -3.5 L 162.89191663853558 -0.5 L 104.94595831926779 -0.5 Z"/><text text-anchor="middle" pointer-events="none" font-size="8px" fill="#000000" x="93.94595831926779" y="3" font-family="Helvetica Neue, Helvetica, Arial, sans-serif">通知</text></g><g class="relationship" transform="translate(422.0479028629586 -789.1429717754172) rotate(426.1694347280693)"><path class="b-outline" fill="#A5ABB6" stroke="none" d="M 25 0.5 L 59.29210716679607 0.5 L 59.29210716679607 -0.5 L 25 -0.5 Z M 81.29210716679607 0.5 L 115.58421433359214 0.5 L 115.58421433359214 3.5 L 122.58421433359214 0 L 115.58421433359214 -3.5 L 115.58421433359214 -0.5 L 81.29210716679607 -0.5 Z"/><text text-anchor="middle" pointer-events="none" font-size="8px" fill="#000000" x="70.29210716679607" y="3" font-family="Helvetica Neue, Helvetica, Arial, sans-serif">运营</text></g><g class="relationship" transform="translate(422.0479028629586 -789.1429717754172) rotate(419.1090568514996)"><path class="b-outline" fill="#A5ABB6" stroke="none" d="M 25 0.5 L 106.79318215389807 0.5 L 106.79318215389807 -0.5 L 25 -0.5 Z M 128.79318215389807 0.5 L 210.58636430779615 0.5 L 210.58636430779615 3.5 L 217.58636430779615 0 L 210.58636430779615 -3.5 L 210.58636430779615 -0.5 L 128.79318215389807 -0.5 Z"/><text text-anchor="middle" pointer-events="none" font-size="8px" fill="#000000" x="117.79318215389807" y="3" font-family="Helvetica Neue, Helvetica, Arial, sans-serif">提供</text></g><g class="relationship" transform="translate(163.14384538937887 -709.7280659462357) rotate(450.64010912343866)"><path class="b-outline" fill="#A5ABB6" stroke="none" d="M 25 0.5 L 114.31857332450085 0.5 L 114.31857332450085 -0.5 L 25 -0.5 Z M 136.31857332450085 0.5 L 225.6371466490017 0.5 L 225.6371466490017 3.5 L 232.6371466490017 0 L 225.6371466490017 -3.5 L 225.6371466490017 -0.5 L 136.31857332450085 -0.5 Z"/><text text-anchor="middle" pointer-events="none" font-size="8px" fill="#000000" x="125.31857332450085" y="3" transform="rotate(180 125.31857332450085 0)" font-family="Helvetica Neue, Helvetica, Arial, sans-serif">发生</text></g><g class="relationship" transform="translate(194.64600308298645 -805.446547691664) rotate(468.59030802508494)"><path class="b-outline" fill="#A5ABB6" stroke="none" d="M 25 0.5 L 75.36370217756738 0.5 L 75.36370217756738 -0.5 L 25 -0.5 Z M 113.36370217756738 0.5 L 163.72740435513475 0.5 L 163.72740435513475 3.5 L 170.72740435513475 0 L 163.72740435513475 -3.5 L 163.72740435513475 -0.5 L 113.36370217756738 -0.5 Z"/><text text-anchor="middle" pointer-events="none" font-size="8px" fill="#000000" x="94.36370217756738" y="3" transform="rotate(180 94.36370217756738 0)" font-family="Helvetica Neue, Helvetica, Arial, sans-serif">准备起飞</text></g><g class="relationship" transform="translate(194.64600308298645 -805.446547691664) rotate(358.8982052435938)"><path class="b-outline" fill="#A5ABB6" stroke="none" d="M 25 0.5 L 54.31880634295419 0.5 L 54.31880634295419 -0.5 L 25 -0.5 Z M 68.31880634295419 0.5 L 97.63761268590838 0.5 L 97.63761268590838 3.5 L 104.63761268590838 0 L 97.63761268590838 -3.5 L 97.63761268590838 -0.5 L 68.31880634295419 -0.5 Z"/><text text-anchor="middle" pointer-events="none" font-size="8px" fill="#000000" x="61.31880634295419" y="3" font-family="Helvetica Neue, Helvetica, Arial, sans-serif">与</text></g><g class="relationship" transform="translate(194.64600308298645 -805.446547691664) rotate(389.0524896863144)"><path class="b-outline" fill="#A5ABB6" stroke="none" d="M 25 0.5 L 78.32058288461512 0.5 L 78.32058288461512 -0.5 L 25 -0.5 Z M 100.32058288461512 0.5 L 153.64116576923024 0.5 L 153.64116576923024 3.5 L 160.64116576923024 0 L 153.64116576923024 -3.5 L 153.64116576923024 -0.5 L 100.32058288461512 -0.5 Z"/><text text-anchor="middle" pointer-events="none" font-size="8px" fill="#000000" x="89.32058288461512" y="3" font-family="Helvetica Neue, Helvetica, Arial, sans-serif">返回</text></g><g class="relationship" transform="translate(519.5028514156186 -387.89014954372414) rotate(510.9764207474997)"><path class="b-outline" fill="#A5ABB6" stroke="none" d="M 25 0.5 L 37.90807794515093 0.5 L 37.90807794515093 -0.5 L 25 -0.5 Z M 59.90807794515093 0.5 L 72.81615589030186 0.5 L 72.81615589030186 3.5 L 79.81615589030186 0 L 72.81615589030186 -3.5 L 72.81615589030186 -0.5 L 59.90807794515093 -0.5 Z"/><text text-anchor="middle" pointer-events="none" font-size="8px" fill="#000000" x="48.90807794515093" y="3" transform="rotate(180 48.90807794515093 0)" font-family="Helvetica Neue, Helvetica, Arial, sans-serif">发现</text></g><g class="relationship" transform="translate(579.3376512520512 -674.0656315961367) rotate(438.90377970825983)"><path class="b-outline" fill="#A5ABB6" stroke="none" d="M 25 0.5 L 73.19901770855184 0.5 L 73.19901770855184 -0.5 L 25 -0.5 Z M 95.19901770855184 0.5 L 143.39803541710367 0.5 L 143.39803541710367 3.5 L 150.39803541710367 0 L 143.39803541710367 -3.5 L 143.39803541710367 -0.5 L 95.19901770855184 -0.5 Z"/><text text-anchor="middle" pointer-events="none" font-size="8px" fill="#000000" x="84.19901770855184" y="3" font-family="Helvetica Neue, Helvetica, Arial, sans-serif">改搭</text></g><g class="relationship" transform="translate(150.20560271971476 -352.54526126287357) rotate(378.89190554314615)"><path class="b-outline" fill="#A5ABB6" stroke="none" d="M 25 0.5 L 71.19541720991859 0.5 L 71.19541720991859 -0.5 L 25 -0.5 Z M 93.19541720991859 0.5 L 139.39083441983718 0.5 L 139.39083441983718 3.5 L 146.39083441983718 0 L 139.39083441983718 -3.5 L 139.39083441983718 -0.5 L 93.19541720991859 -0.5 Z"/><text text-anchor="middle" pointer-events="none" font-size="8px" fill="#000000" x="82.19541720991859" y="3" font-family="Helvetica Neue, Helvetica, Arial, sans-serif">检查</text></g><g class="relationship" transform="translate(150.20560271971476 -352.54526126287357) rotate(253.74104180092706)"><path class="b-outline" fill="#A5ABB6" stroke="none" d="M 25 0.5 L 76.93251475811739 0.5 L 76.93251475811739 -0.5 L 25 -0.5 Z M 98.93251475811739 0.5 L 150.86502951623478 0.5 L 150.86502951623478 3.5 L 157.86502951623478 0 L 150.86502951623478 -3.5 L 150.86502951623478 -0.5 L 98.93251475811739 -0.5 Z"/><text text-anchor="middle" pointer-events="none" font-size="8px" fill="#000000" x="87.93251475811739" y="3" transform="rotate(180 87.93251475811739 0)" font-family="Helvetica Neue, Helvetica, Arial, sans-serif">检查</text></g><g class="relationship" transform="translate(150.20560271971476 -352.54526126287357) rotate(348.348419333946)"><path class="b-outline" fill="#A5ABB6" stroke="none" d="M 25 0.5 L 35.63021842917869 0.5 L 35.63021842917869 -0.5 L 25 -0.5 Z M 57.63021842917869 0.5 L 68.26043685835738 0.5 L 68.26043685835738 3.5 L 75.26043685835738 0 L 68.26043685835738 -3.5 L 68.26043685835738 -0.5 L 57.63021842917869 -0.5 Z"/><text text-anchor="middle" pointer-events="none" font-size="8px" fill="#000000" x="46.63021842917869" y="3" font-family="Helvetica Neue, Helvetica, Arial, sans-serif">进行</text></g></g><g class="layer nodes"><g class="node" aria-label="graph-node499" transform="translate(347.00963268818276,-482.7591490520751)"><circle class="b-outline" cx="0" cy="0" r="25" fill="#ECB5C9" stroke="#da7298" stroke-width="2px"/><text class="caption" text-anchor="middle" pointer-events="none" x="0" y="5" font-size="10px" fill="#2A2C34" font-family="Helvetica Neue, Helvetica, Arial, sans-serif"> 南韩济州…</text></g><g class="node" aria-label="graph-node500" transform="translate(14.0569799858458,-588.0836276249099)"><circle class="b-outline" cx="0" cy="0" r="25" fill="#ECB5C9" stroke="#da7298" stroke-width="2px"/><text class="caption" text-anchor="middle" pointer-events="none" x="0" y="5" font-size="10px" fill="#2A2C34" font-family="Helvetica Neue, Helvetica, Arial, sans-serif"> 南韩济州…</text></g><g class="node" aria-label="graph-node521" transform="translate(389.02482437770396,-621.4588235346044)"><circle class="b-outline" cx="0" cy="0" r="25" fill="#C990C0" stroke="#b261a5" stroke-width="2px"/><text class="caption" text-anchor="middle" pointer-events="none" x="0" y="5" font-size="10px" fill="#FFFFFF" font-family="Helvetica Neue, Helvetica, Arial, sans-serif"> None</text></g><g class="node" aria-label="graph-node12181" transform="translate(-50.910715017593674,-370.79212437453884)"><circle class="b-outline" cx="0" cy="0" r="25" fill="#8DCC93" stroke="#5db665" stroke-width="2px"/><text class="caption" text-anchor="middle" pointer-events="none" x="0" y="5" font-size="10px" fill="#2A2C34" font-family="Helvetica Neue, Helvetica, Arial, sans-serif"> 24</text></g><g class="node" aria-label="graph-node495" transform="translate(422.0479028629586,-789.1429717754172)"><circle class="b-outline" cx="0" cy="0" r="25" fill="#C990C0" stroke="#b261a5" stroke-width="2px"/><text class="caption" text-anchor="middle" pointer-events="none" x="0" y="5" font-size="10px" fill="#FFFFFF" font-family="Helvetica Neue, Helvetica, Arial, sans-serif"> 南韩廉价…</text></g><g class="node" aria-label="graph-node496" transform="translate(132.24830559124402,-619.9317392171721)"><circle class="b-outline" cx="0" cy="0" r="25" fill="#C990C0" stroke="#b261a5" stroke-width="2px"/><text class="caption" text-anchor="middle" pointer-events="none" x="0" y="5" font-size="10px" fill="#FFFFFF" font-family="Helvetica Neue, Helvetica, Arial, sans-serif"> 北九州…</text></g><g class="node" aria-label="graph-node497" transform="translate(356.92890582098454,-715.2972165400228)"><circle class="b-outline" cx="0" cy="0" r="25" fill="#C990C0" stroke="#b261a5" stroke-width="2px"/><text class="caption" text-anchor="middle" pointer-events="none" x="0" y="5" font-size="10px" fill="#FFFFFF" font-family="Helvetica Neue, Helvetica, Arial, sans-serif"> 南韩仁川…</text></g><g class="node" aria-label="graph-node498" transform="translate(163.14384538937887,-709.7280659462357)"><circle class="b-outline" cx="0" cy="0" r="25" fill="#C990C0" stroke="#b261a5" stroke-width="2px"/><text class="caption" text-anchor="middle" pointer-events="none" x="0" y="5" font-size="10px" fill="#FFFFFF" font-family="Helvetica Neue, Helvetica, Arial, sans-serif"> 上月29日</text></g><g class="node" aria-label="graph-node501" transform="translate(613.094271619532,-501.94659891948777)"><circle class="b-outline" cx="0" cy="0" r="25" fill="#C990C0" stroke="#b261a5" stroke-width="2px"/><text class="caption" text-anchor="middle" pointer-events="none" x="0" y="5" font-size="10px" fill="#FFFFFF" font-family="Helvetica Neue, Helvetica, Arial, sans-serif"> 下午2时…</text></g><g class="node" aria-label="graph-node502" transform="translate(194.64600308298645,-805.446547691664)"><circle class="b-outline" cx="0" cy="0" r="25" fill="#C990C0" stroke="#b261a5" stroke-width="2px"/><text class="caption" text-anchor="middle" pointer-events="none" x="0" y="5" font-size="10px" fill="#FFFFFF" font-family="Helvetica Neue, Helvetica, Arial, sans-serif"> lj350航班</text></g><g class="node" aria-label="graph-node503" transform="translate(519.5028514156186,-387.89014954372414)"><circle class="b-outline" cx="0" cy="0" r="25" fill="#C990C0" stroke="#b261a5" stroke-width="2px"/><text class="caption" text-anchor="middle" pointer-events="none" x="0" y="5" font-size="10px" fill="#FFFFFF" font-family="Helvetica Neue, Helvetica, Arial, sans-serif"> 技术人员</text></g><g class="node" aria-label="graph-node504" transform="translate(579.3376512520512,-674.0656315961367)"><circle class="b-outline" cx="0" cy="0" r="25" fill="#C990C0" stroke="#b261a5" stroke-width="2px"/><text class="caption" text-anchor="middle" pointer-events="none" x="0" y="5" font-size="10px" fill="#FFFFFF" font-family="Helvetica Neue, Helvetica, Arial, sans-serif"> 乘客</text></g><g class="node" aria-label="graph-node505" transform="translate(324.25964710732046,-807.9393183659976)"><circle class="b-outline" cx="0" cy="0" r="25" fill="#C990C0" stroke="#b261a5" stroke-width="2px"/><text class="caption" text-anchor="middle" pointer-events="none" x="0" y="5" font-size="10px" fill="#FFFFFF" font-family="Helvetica Neue, Helvetica, Arial, sans-serif"> 济州航空…</text></g><g class="node" aria-label="graph-node506" transform="translate(517.8164388046353,-486.198365638451)"><circle class="b-outline" cx="0" cy="0" r="25" fill="#C990C0" stroke="#b261a5" stroke-width="2px"/><text class="caption" text-anchor="middle" pointer-events="none" x="0" y="5" font-size="10px" fill="#FFFFFF" font-family="Helvetica Neue, Helvetica, Arial, sans-serif"> 波音737…</text></g><g class="node" aria-label="graph-node507" transform="translate(261.29482904193196,-732.0158340676904)"><circle class="b-outline" cx="0" cy="0" r="25" fill="#C990C0" stroke="#b261a5" stroke-width="2px"/><text class="caption" text-anchor="middle" pointer-events="none" x="0" y="5" font-size="10px" fill="#FFFFFF" font-family="Helvetica Neue, Helvetica, Arial, sans-serif"> 当地时间…</text></g><g class="node" aria-label="graph-node508" transform="translate(257.9635579545662,-469.76373808032866)"><circle class="b-outline" cx="0" cy="0" r="25" fill="#C990C0" stroke="#b261a5" stroke-width="2px"/><text class="caption" text-anchor="middle" pointer-events="none" x="0" y="5" font-size="10px" fill="#FFFFFF" font-family="Helvetica Neue, Helvetica, Arial, sans-serif"> 下午2时</text></g><g class="node" aria-label="graph-node509" transform="translate(312.363803269355,-297.05169300824883)"><circle class="b-outline" cx="0" cy="0" r="25" fill="#C990C0" stroke="#b261a5" stroke-width="2px"/><text class="caption" text-anchor="middle" pointer-events="none" x="0" y="5" font-size="10px" fill="#FFFFFF" font-family="Helvetica Neue, Helvetica, Arial, sans-serif"> 101架…</text></g><g class="node" aria-label="graph-node510" transform="translate(229.52726608863836,-639.6783439656784)"><circle class="b-outline" cx="0" cy="0" r="25" fill="#C990C0" stroke="#b261a5" stroke-width="2px"/><text class="caption" text-anchor="middle" pointer-events="none" x="0" y="5" font-size="10px" fill="#FFFFFF" font-family="Helvetica Neue, Helvetica, Arial, sans-serif"> 务安机场</text></g><g class="node" aria-label="graph-node511" transform="translate(511.0443530894752,-746.958084235657)"><circle class="b-outline" cx="0" cy="0" r="25" fill="#C990C0" stroke="#b261a5" stroke-width="2px"/><text class="caption" text-anchor="middle" pointer-events="none" x="0" y="5" font-size="10px" fill="#FFFFFF" font-family="Helvetica Neue, Helvetica, Arial, sans-serif"> 真航空、…</text></g><g class="node" aria-label="graph-node512" transform="translate(150.20560271971476,-352.54526126287357)"><circle class="b-outline" cx="0" cy="0" r="25" fill="#C990C0" stroke="#b261a5" stroke-width="2px"/><text class="caption" text-anchor="middle" pointer-events="none" x="0" y="5" font-size="10px" fill="#FFFFFF" font-family="Helvetica Neue, Helvetica, Arial, sans-serif"> 南韩国土…</text></g><g class="node" aria-label="graph-node513" transform="translate(432.4556778136844,-436.2071552953003)"><circle class="b-outline" cx="0" cy="0" r="25" fill="#C990C0" stroke="#b261a5" stroke-width="2px"/><text class="caption" text-anchor="middle" pointer-events="none" x="0" y="5" font-size="10px" fill="#FFFFFF" font-family="Helvetica Neue, Helvetica, Arial, sans-serif"> 日本九州</text></g><g class="node" aria-label="graph-node514" transform="translate(481.6768455469523,-654.1411587696184)"><circle class="b-outline" cx="0" cy="0" r="25" fill="#C990C0" stroke="#b261a5" stroke-width="2px"/><text class="caption" text-anchor="middle" pointer-events="none" x="0" y="0" font-size="10px" fill="#FFFFFF" font-family="Helvetica Neue, Helvetica, Arial, sans-serif"> 波音737</text><text class="caption" text-anchor="middle" pointer-events="none" x="0" y="10" font-size="10px" fill="#FFFFFF" font-family="Helvetica Neue, Helvetica, Arial, sans-serif"> 800型…</text></g><g class="node" aria-label="graph-node515" transform="translate(160.26558002849993,-452.10699747171907)"><circle class="b-outline" cx="0" cy="0" r="25" fill="#C990C0" stroke="#b261a5" stroke-width="2px"/><text class="caption" text-anchor="middle" pointer-events="none" x="0" y="5" font-size="10px" fill="#FFFFFF" font-family="Helvetica Neue, Helvetica, Arial, sans-serif"> 济州航空…</text></g><g class="node" aria-label="graph-node516" transform="translate(195.15948161921014,-546.2432109622496)"><circle class="b-outline" cx="0" cy="0" r="25" fill="#C990C0" stroke="#b261a5" stroke-width="2px"/><text class="caption" text-anchor="middle" pointer-events="none" x="0" y="5" font-size="10px" fill="#FFFFFF" font-family="Helvetica Neue, Helvetica, Arial, sans-serif"> 南韩廉价…</text></g><g class="node" aria-label="graph-node517" transform="translate(546.5931031380572,-580.9684362613194)"><circle class="b-outline" cx="0" cy="0" r="25" fill="#C990C0" stroke="#b261a5" stroke-width="2px"/><text class="caption" text-anchor="middle" pointer-events="none" x="0" y="5" font-size="10px" fill="#FFFFFF" font-family="Helvetica Neue, Helvetica, Arial, sans-serif"> 餐券</text></g><g class="node" aria-label="graph-node518" transform="translate(427.8494961533478,-337.03654588785685)"><circle class="b-outline" cx="0" cy="0" r="25" fill="#C990C0" stroke="#b261a5" stroke-width="2px"/><text class="caption" text-anchor="middle" pointer-events="none" x="0" y="5" font-size="10px" fill="#FFFFFF" font-family="Helvetica Neue, Helvetica, Arial, sans-serif"> 水平尾翼…</text></g><g class="node" aria-label="graph-node519" transform="translate(99.0072136880506,-528.0968034963037)"><circle class="b-outline" cx="0" cy="0" r="25" fill="#C990C0" stroke="#b261a5" stroke-width="2px"/><text class="caption" text-anchor="middle" pointer-events="none" x="0" y="-5" font-size="10px" fill="#FFFFFF" font-family="Helvetica Neue, Helvetica, Arial, sans-serif"> 真航空</text><text class="caption" text-anchor="middle" pointer-events="none" x="0" y="5" font-size="10px" fill="#FFFFFF" font-family="Helvetica Neue, Helvetica, Arial, sans-serif"> 大韩航空</text><text class="caption" text-anchor="middle" pointer-events="none" x="0" y="15" font-size="10px" fill="#FFFFFF" font-family="Helvetica Neue, Helvetica, Arial, sans-serif"> 济州…</text></g><g class="node" aria-label="graph-node520" transform="translate(248.40005615050748,-372.79382947044195)"><circle class="b-outline" cx="0" cy="0" r="25" fill="#C990C0" stroke="#b261a5" stroke-width="2px"/><text class="caption" text-anchor="middle" pointer-events="none" x="0" y="5" font-size="10px" fill="#FFFFFF" font-family="Helvetica Neue, Helvetica, Arial, sans-serif"> 特别安全…</text></g><g class="node" aria-label="graph-node522" transform="translate(431.3274817474122,-531.6058606344816)"><circle class="b-outline" cx="0" cy="0" r="25" fill="#C990C0" stroke="#b261a5" stroke-width="2px"/><text class="caption" text-anchor="middle" pointer-events="none" x="0" y="5" font-size="10px" fill="#FFFFFF" font-family="Helvetica Neue, Helvetica, Arial, sans-serif"> lj350</text></g><g class="node" aria-label="graph-node523" transform="translate(345.5190796680709,-391.72490504303454)"><circle class="b-outline" cx="0" cy="0" r="25" fill="#C990C0" stroke="#b261a5" stroke-width="2px"/><text class="caption" text-anchor="middle" pointer-events="none" x="0" y="5" font-size="10px" fill="#FFFFFF" font-family="Helvetica Neue, Helvetica, Arial, sans-serif"> LJ350</text></g><g class="node" aria-label="graph-node6" transform="translate(289.9497867117176,-559.3015094042121)"><circle class="b-outline" cx="0" cy="0" r="25" fill="#C990C0" stroke="#b261a5" stroke-width="2px"/><text class="caption" text-anchor="middle" pointer-events="none" x="0" y="5" font-size="10px" fill="#FFFFFF" font-family="Helvetica Neue, Helvetica, Arial, sans-serif"> None</text></g></g></svg>