<svg xmlns="http://www.w3.org/2000/svg" width="749.257568359375" height="438.47039794921875" viewBox="-381.8789978027344 -229.10069274902344 749.257568359375 438.47039794921875"><title>Neo4j Graph Visualization</title><desc>Created using Neo4j (http://www.neo4j.com/)</desc><g class="layer relationships"><g class="relationship" transform="translate(1.8722329311014672 63.55775261323523) rotate(274.88603964636116)"><path class="b-outline" fill="#A5ABB6" stroke="none" d="M 25 0.5 L 67.97850067314681 0.5 L 67.97850067314681 -0.5 L 25 -0.5 Z M 99.18943817314681 0.5 L 142.16793884629362 0.5 L 142.16793884629362 3.5 L 149.16793884629362 0 L 142.16793884629362 -3.5 L 142.16793884629362 -0.5 L 99.18943817314681 -0.5 Z"/><text text-anchor="middle" pointer-events="none" font-size="8px" fill="#000000" x="83.58396942314681" y="3" font-family="Helvetica Neue, Helvetica, Arial, sans-serif">source</text></g><g class="relationship" transform="translate(-91.05665982367546 65.36854330079984) rotate(334.79811536076886)"><path class="b-outline" fill="#A5ABB6" stroke="none" d="M 25 0.5 L 62.936616542355125 0.5 L 62.936616542355125 -0.5 L 25 -0.5 Z M 100.93661654235513 0.5 L 138.87323308471025 0.5 L 138.87323308471025 3.5 L 145.87323308471025 0 L 138.87323308471025 -3.5 L 138.87323308471025 -0.5 L 100.93661654235513 -0.5 Z"/><text text-anchor="middle" pointer-events="none" font-size="8px" fill="#000000" x="81.93661654235513" y="3" font-family="Helvetica Neue, Helvetica, Arial, sans-serif">调查结果</text></g><g class="relationship" transform="translate(-240.1185192113859 -199.05174905402106) rotate(379.12802763364573)"><path class="b-outline" fill="#A5ABB6" stroke="none" d="M 25 0.5 L 116.81135089396707 0.5 L 116.81135089396707 -0.5 L 25 -0.5 Z M 148.02228839396707 0.5 L 239.83363928793415 0.5 L 239.83363928793415 3.5 L 246.83363928793415 0 L 239.83363928793415 -3.5 L 239.83363928793415 -0.5 L 148.02228839396707 -0.5 Z"/><text text-anchor="middle" pointer-events="none" font-size="8px" fill="#000000" x="132.41681964396707" y="3" font-family="Helvetica Neue, Helvetica, Arial, sans-serif">source</text></g><g class="relationship" transform="translate(173.99561556578274 18.294939631546093) rotate(525.2666532031128)"><path class="b-outline" fill="#A5ABB6" stroke="none" d="M 25 0.5 L 57.56378490150536 0.5 L 57.56378490150536 -0.5 L 25 -0.5 Z M 113.41144115150536 0.5 L 145.97522605301072 0.5 L 145.97522605301072 3.5 L 152.97522605301072 0 L 145.97522605301072 -3.5 L 145.97522605301072 -0.5 L 113.41144115150536 -0.5 Z"/><text text-anchor="middle" pointer-events="none" font-size="8px" fill="#000000" x="85.48761302650536" y="3" transform="rotate(180 85.48761302650536 0)" font-family="Helvetica Neue, Helvetica, Arial, sans-serif">OfficialName</text></g><g class="relationship" transform="translate(338.3784809461199 17.12448907265825) rotate(201.56040846372133)"><path class="b-outline" fill="#A5ABB6" stroke="none" d="M 25 0.5 L 153.8305761437122 0.5 L 153.8305761437122 -0.5 L 25 -0.5 Z M 185.0415136437122 0.5 L 313.8720897874244 0.5 L 313.8720897874244 3.5 L 320.8720897874244 0 L 313.8720897874244 -3.5 L 313.8720897874244 -0.5 L 185.0415136437122 -0.5 Z"/><text text-anchor="middle" pointer-events="none" font-size="8px" fill="#000000" x="169.4360448937122" y="3" transform="rotate(180 169.4360448937122 0)" font-family="Helvetica Neue, Helvetica, Arial, sans-serif">source</text></g><g class="relationship" transform="translate(-91.05665982367546 65.36854330079984) rotate(301.57392592851295)"><path class="b-outline" fill="#A5ABB6" stroke="none" d="M 25 0.5 L 83.8011970755593 0.5 L 83.8011970755593 -0.5 L 25 -0.5 Z M 115.0121345755593 0.5 L 173.8133316511186 0.5 L 173.8133316511186 3.5 L 180.8133316511186 0 L 173.8133316511186 -3.5 L 173.8133316511186 -0.5 L 115.0121345755593 -0.5 Z"/><text text-anchor="middle" pointer-events="none" font-size="8px" fill="#000000" x="99.4066658255593" y="3" font-family="Helvetica Neue, Helvetica, Arial, sans-serif">source</text></g><g class="relationship" transform="translate(204.06319880131025 -75.0390393371684) rotate(190.56319406579382)"><path class="b-outline" fill="#A5ABB6" stroke="none" d="M 25 0.5 L 76.18761244246488 0.5 L 76.18761244246488 -0.5 L 25 -0.5 Z M 107.39854994246488 0.5 L 158.58616238492976 0.5 L 158.58616238492976 3.5 L 165.58616238492976 0 L 158.58616238492976 -3.5 L 158.58616238492976 -0.5 L 107.39854994246488 -0.5 Z"/><text text-anchor="middle" pointer-events="none" font-size="8px" fill="#000000" x="91.79308119246488" y="3" transform="rotate(180 91.79308119246488 0)" font-family="Helvetica Neue, Helvetica, Arial, sans-serif">source</text></g><g class="relationship" transform="translate(338.3784809461199 17.12448907265825) rotate(214.45686459259753)"><path class="b-outline" fill="#A5ABB6" stroke="none" d="M 25 0.5 L 50.023564384810825 0.5 L 50.023564384810825 -0.5 L 25 -0.5 Z M 105.87122063481083 0.5 L 130.89478501962165 0.5 L 130.89478501962165 3.5 L 137.89478501962165 0 L 130.89478501962165 -3.5 L 130.89478501962165 -0.5 L 105.87122063481083 -0.5 Z"/><text text-anchor="middle" pointer-events="none" font-size="8px" fill="#000000" x="77.94739250981083" y="3" transform="rotate(180 77.94739250981083 0)" font-family="Helvetica Neue, Helvetica, Arial, sans-serif">OfficialName</text></g><g class="relationship" transform="translate(206.56313241616974 -173.8038959787457) rotate(521.4181859395155)"><path class="b-outline" fill="#A5ABB6" stroke="none" d="M 25 0.5 L 81.0434820374597 0.5 L 81.0434820374597 -0.5 L 25 -0.5 Z M 112.2544195374597 0.5 L 168.2979015749194 0.5 L 168.2979015749194 3.5 L 175.2979015749194 0 L 168.2979015749194 -3.5 L 168.2979015749194 -0.5 L 112.2544195374597 -0.5 Z"/><text text-anchor="middle" pointer-events="none" font-size="8px" fill="#000000" x="96.6489507874597" y="3" transform="rotate(180 96.6489507874597 0)" font-family="Helvetica Neue, Helvetica, Arial, sans-serif">source</text></g><g class="relationship" transform="translate(173.99561556578274 18.294939631546093) rotate(219.19794763419293)"><path class="b-outline" fill="#A5ABB6" stroke="none" d="M 25 0.5 L 82.37546484395598 0.5 L 82.37546484395598 -0.5 L 25 -0.5 Z M 113.58640234395598 0.5 L 170.96186718791196 0.5 L 170.96186718791196 3.5 L 177.96186718791196 0 L 170.96186718791196 -3.5 L 170.96186718791196 -0.5 L 113.58640234395598 -0.5 Z"/><text text-anchor="middle" pointer-events="none" font-size="8px" fill="#000000" x="97.98093359395598" y="3" transform="rotate(180 97.98093359395598 0)" font-family="Helvetica Neue, Helvetica, Arial, sans-serif">source</text></g><g class="relationship" transform="translate(338.3784809461199 17.12448907265825) rotate(235.37912797990674)"><path class="b-outline" fill="#A5ABB6" stroke="none" d="M 25 0.5 L 101.5053170402217 0.5 L 101.5053170402217 -0.5 L 25 -0.5 Z M 123.5053170402217 0.5 L 200.0106340804434 0.5 L 200.0106340804434 3.5 L 207.0106340804434 0 L 200.0106340804434 -3.5 L 200.0106340804434 -0.5 L 123.5053170402217 -0.5 Z"/><text text-anchor="middle" pointer-events="none" font-size="8px" fill="#000000" x="112.5053170402217" y="3" transform="rotate(180 112.5053170402217 0)" font-family="Helvetica Neue, Helvetica, Arial, sans-serif">发生</text></g><g class="relationship" transform="translate(-305.65255401401373 -109.00434534778012) rotate(359.82707338999603)"><path class="b-outline" fill="#A5ABB6" stroke="none" d="M 25 0.5 L 142.07496251094202 0.5 L 142.07496251094202 -0.5 L 25 -0.5 Z M 173.28590001094202 0.5 L 290.36086252188403 0.5 L 290.36086252188403 3.5 L 297.36086252188403 0 L 290.36086252188403 -3.5 L 290.36086252188403 -0.5 L 173.28590001094202 -0.5 Z"/><text text-anchor="middle" pointer-events="none" font-size="8px" fill="#000000" x="157.68043126094202" y="3" font-family="Helvetica Neue, Helvetica, Arial, sans-serif">source</text></g><g class="relationship" transform="translate(173.99561556578274 18.294939631546093) rotate(279.6221609491413)"><path class="b-outline" fill="#A5ABB6" stroke="none" d="M 25 0.5 L 82.91997459021194 0.5 L 82.91997459021194 -0.5 L 25 -0.5 Z M 104.91997459021194 0.5 L 162.83994918042387 0.5 L 162.83994918042387 3.5 L 169.83994918042387 0 L 162.83994918042387 -3.5 L 162.83994918042387 -0.5 L 104.91997459021194 -0.5 Z"/><text text-anchor="middle" pointer-events="none" font-size="8px" fill="#000000" x="93.91997459021194" y="3" font-family="Helvetica Neue, Helvetica, Arial, sans-serif">发生</text></g><g class="relationship" transform="translate(-305.65255401401373 -109.00434534778012) rotate(341.3315216755318)"><path class="b-outline" fill="#A5ABB6" stroke="none" d="M 25 0.5 L 63.810079991719846 0.5 L 63.810079991719846 -0.5 L 25 -0.5 Z M 101.81007999171985 0.5 L 140.6201599834397 0.5 L 140.6201599834397 3.5 L 147.6201599834397 0 L 140.6201599834397 -3.5 L 140.6201599834397 -0.5 L 101.81007999171985 -0.5 Z"/><text text-anchor="middle" pointer-events="none" font-size="8px" fill="#000000" x="82.81007999171985" y="3" font-family="Helvetica Neue, Helvetica, Arial, sans-serif">接報到場</text></g><g class="relationship" transform="translate(-305.65255401401373 -109.00434534778012) rotate(306.0461021308055)"><path class="b-outline" fill="#A5ABB6" stroke="none" d="M 25 0.5 L 27.0247713151562 0.5 L 27.0247713151562 -0.5 L 25 -0.5 Z M 77.3450838151562 0.5 L 79.3698551303124 0.5 L 79.3698551303124 3.5 L 86.3698551303124 0 L 79.3698551303124 -3.5 L 79.3698551303124 -0.5 L 77.3450838151562 -0.5 Z"/><text text-anchor="middle" pointer-events="none" font-size="8px" fill="#000000" x="52.1849275651562" y="3" font-family="Helvetica Neue, Helvetica, Arial, sans-serif">OfficialNa…</text></g><g class="relationship" transform="translate(-142.11454104120145 -164.2586478554817) rotate(378.86920907236026)"><path class="b-outline" fill="#A5ABB6" stroke="none" d="M 25 0.5 L 64.81517643305877 0.5 L 64.81517643305877 -0.5 L 25 -0.5 Z M 96.02611393305877 0.5 L 135.84129036611753 0.5 L 135.84129036611753 3.5 L 142.84129036611753 0 L 135.84129036611753 -3.5 L 135.84129036611753 -0.5 L 96.02611393305877 -0.5 Z"/><text text-anchor="middle" pointer-events="none" font-size="8px" fill="#000000" x="80.42064518305877" y="3" font-family="Helvetica Neue, Helvetica, Arial, sans-serif">source</text></g><g class="relationship" transform="translate(-25.993983069149664 -200.1006954972097) rotate(424.6482261394)"><path class="b-outline" fill="#A5ABB6" stroke="none" d="M 25 0.5 L 30.758324421439873 0.5 L 30.758324421439873 -0.5 L 25 -0.5 Z M 61.96926192143987 0.5 L 67.72758634287975 0.5 L 67.72758634287975 3.5 L 74.72758634287975 0 L 67.72758634287975 -3.5 L 67.72758634287975 -0.5 L 61.96926192143987 -0.5 Z"/><text text-anchor="middle" pointer-events="none" font-size="8px" fill="#000000" x="46.36379317143987" y="3" font-family="Helvetica Neue, Helvetica, Arial, sans-serif">source</text></g><g class="relationship" transform="translate(63.551670811767494 -7.3908264253273686) rotate(245.45677764964086)"><path class="b-outline" fill="#A5ABB6" stroke="none" d="M 25 0.5 L 37.282511583719604 0.5 L 37.282511583719604 -0.5 L 25 -0.5 Z M 68.49344908371961 0.5 L 80.77596066743921 0.5 L 80.77596066743921 3.5 L 87.77596066743921 0 L 80.77596066743921 -3.5 L 80.77596066743921 -0.5 L 68.49344908371961 -0.5 Z"/><text text-anchor="middle" pointer-events="none" font-size="8px" fill="#000000" x="52.887980333719604" y="3" transform="rotate(180 52.887980333719604 0)" font-family="Helvetica Neue, Helvetica, Arial, sans-serif">source</text></g><g class="relationship" transform="translate(-133.98701383911848 -24.211924710401462) rotate(301.5492922995268)"><path class="b-outline" fill="#A5ABB6" stroke="none" d="M 25 0.5 L 88.69805519458421 0.5 L 88.69805519458421 -0.5 L 25 -0.5 Z M 110.69805519458421 0.5 L 174.39611038916843 0.5 L 174.39611038916843 3.5 L 181.39611038916843 0 L 174.39611038916843 -3.5 L 174.39611038916843 -0.5 L 110.69805519458421 -0.5 Z"/><text text-anchor="middle" pointer-events="none" font-size="8px" fill="#000000" x="99.69805519458421" y="3" font-family="Helvetica Neue, Helvetica, Arial, sans-serif">报案</text></g><g class="relationship" transform="translate(-133.98701383911848 -24.211924710401462) rotate(330.3542228845896)"><path class="b-outline" fill="#A5ABB6" stroke="none" d="M 25 0.5 L 67.58987823335302 0.5 L 67.58987823335302 -0.5 L 25 -0.5 Z M 98.80081573335302 0.5 L 141.39069396670604 0.5 L 141.39069396670604 3.5 L 148.39069396670604 0 L 141.39069396670604 -3.5 L 141.39069396670604 -0.5 L 98.80081573335302 -0.5 Z"/><text text-anchor="middle" pointer-events="none" font-size="8px" fill="#000000" x="83.19534698335302" y="3" font-family="Helvetica Neue, Helvetica, Arial, sans-serif">source</text></g><g class="relationship" transform="translate(-352.87898238113627 42.978376262223655) rotate(365.29106668974873)"><path class="b-outline" fill="#A5ABB6" stroke="none" d="M 25 0.5 L 62.86985569103808 0.5 L 62.86985569103808 -0.5 L 25 -0.5 Z M 94.08079319103808 0.5 L 131.95064888207617 0.5 L 131.95064888207617 3.5 L 138.95064888207617 0 L 131.95064888207617 -3.5 L 131.95064888207617 -0.5 L 94.08079319103808 -0.5 Z"/><text text-anchor="middle" pointer-events="none" font-size="8px" fill="#000000" x="78.47532444103808" y="3" font-family="Helvetica Neue, Helvetica, Arial, sans-serif">source</text></g><g class="relationship" transform="translate(-293.21999117687284 180.369682115869) rotate(310.2723024534455)"><path class="b-outline" fill="#A5ABB6" stroke="none" d="M 25 0.5 L 61.02271027162442 0.5 L 61.02271027162442 -0.5 L 25 -0.5 Z M 92.23364777162442 0.5 L 128.25635804324884 0.5 L 128.25635804324884 3.5 L 135.25635804324884 0 L 128.25635804324884 -3.5 L 128.25635804324884 -0.5 L 92.23364777162442 -0.5 Z"/><text text-anchor="middle" pointer-events="none" font-size="8px" fill="#000000" x="76.62817902162442" y="3" font-family="Helvetica Neue, Helvetica, Arial, sans-serif">source</text></g><g class="relationship" transform="translate(-352.87898238113627 42.978376262223655) rotate(426.52822093846714)"><path class="b-outline" fill="#A5ABB6" stroke="none" d="M 25 0.5 L 43.468705140473645 0.5 L 43.468705140473645 -0.5 L 25 -0.5 Z M 99.31636139047365 0.5 L 117.78506653094729 0.5 L 117.78506653094729 3.5 L 124.78506653094729 0 L 117.78506653094729 -3.5 L 117.78506653094729 -0.5 L 99.31636139047365 -0.5 Z"/><text text-anchor="middle" pointer-events="none" font-size="8px" fill="#000000" x="71.39253326547365" y="3" font-family="Helvetica Neue, Helvetica, Arial, sans-serif">OfficialName</text></g><g class="relationship" transform="translate(79.03281548367823 117.45308287701135) rotate(519.0158174571905)"><path class="b-outline" fill="#A5ABB6" stroke="none" d="M 25 0.5 L 49.95692539484824 0.5 L 49.95692539484824 -0.5 L 25 -0.5 Z M 105.80458164484824 0.5 L 130.76150703969648 0.5 L 130.76150703969648 3.5 L 137.76150703969648 0 L 130.76150703969648 -3.5 L 130.76150703969648 -0.5 L 105.80458164484824 -0.5 Z"/><text text-anchor="middle" pointer-events="none" font-size="8px" fill="#000000" x="77.88075351984824" y="3" transform="rotate(180 77.88075351984824 0)" font-family="Helvetica Neue, Helvetica, Arial, sans-serif">OfficialName</text></g><g class="relationship" transform="translate(-72.93423844427548 175.73963959716403) rotate(225.2322342139135)"><path class="b-outline" fill="#A5ABB6" stroke="none" d="M 25 0.5 L 63.745206869318764 0.5 L 63.745206869318764 -0.5 L 25 -0.5 Z M 94.95614436931876 0.5 L 133.70135123863753 0.5 L 133.70135123863753 3.5 L 140.70135123863753 0 L 133.70135123863753 -3.5 L 133.70135123863753 -0.5 L 94.95614436931876 -0.5 Z"/><text text-anchor="middle" pointer-events="none" font-size="8px" fill="#000000" x="79.35067561931876" y="3" transform="rotate(180 79.35067561931876 0)" font-family="Helvetica Neue, Helvetica, Arial, sans-serif">source</text></g><g class="relationship" transform="translate(-305.65255401401373 -109.00434534778012) rotate(467.2618750142304)"><path class="b-outline" fill="#A5ABB6" stroke="none" d="M 25 0.5 L 65.07556660856847 0.5 L 65.07556660856847 -0.5 L 25 -0.5 Z M 87.07556660856847 0.5 L 127.15113321713693 0.5 L 127.15113321713693 3.5 L 134.15113321713693 0 L 127.15113321713693 -3.5 L 127.15113321713693 -0.5 L 87.07556660856847 -0.5 Z"/><text text-anchor="middle" pointer-events="none" font-size="8px" fill="#000000" x="76.07556660856847" y="3" transform="rotate(180 76.07556660856847 0)" font-family="Helvetica Neue, Helvetica, Arial, sans-serif">出动</text></g><g class="relationship" transform="translate(-305.65255401401373 -109.00434534778012) rotate(415.22611459166603)"><path class="b-outline" fill="#A5ABB6" stroke="none" d="M 25 0.5 L 82.61087217555767 0.5 L 82.61087217555767 -0.5 L 25 -0.5 Z M 113.82180967555767 0.5 L 171.43268185111535 0.5 L 171.43268185111535 3.5 L 178.43268185111535 0 L 171.43268185111535 -3.5 L 171.43268185111535 -0.5 L 113.82180967555767 -0.5 Z"/><text text-anchor="middle" pointer-events="none" font-size="8px" fill="#000000" x="98.21634092555767" y="3" font-family="Helvetica Neue, Helvetica, Arial, sans-serif">source</text></g><g class="relationship" transform="translate(-240.1185192113859 -199.05174905402106) rotate(438.8912035684924)"><path class="b-outline" fill="#A5ABB6" stroke="none" d="M 25 0.5 L 111.92406398143541 0.5 L 111.92406398143541 -0.5 L 25 -0.5 Z M 143.1350014814354 0.5 L 230.05906546287082 0.5 L 230.05906546287082 3.5 L 237.05906546287082 0 L 230.05906546287082 -3.5 L 230.05906546287082 -0.5 L 143.1350014814354 -0.5 Z"/><text text-anchor="middle" pointer-events="none" font-size="8px" fill="#000000" x="127.52953273143541" y="3" font-family="Helvetica Neue, Helvetica, Arial, sans-serif">source</text></g><g class="relationship" transform="translate(79.03281548367823 117.45308287701135) rotate(192.45842659854986)"><path class="b-outline" fill="#A5ABB6" stroke="none" d="M 25 0.5 L 118.46376605915921 0.5 L 118.46376605915921 -0.5 L 25 -0.5 Z M 149.6747035591592 0.5 L 243.13846961831842 0.5 L 243.13846961831842 3.5 L 250.13846961831842 0 L 243.13846961831842 -3.5 L 243.13846961831842 -0.5 L 149.6747035591592 -0.5 Z"/><text text-anchor="middle" pointer-events="none" font-size="8px" fill="#000000" x="134.0692348091592" y="3" transform="rotate(180 134.0692348091592 0)" font-family="Helvetica Neue, Helvetica, Arial, sans-serif">source</text></g><g class="relationship" transform="translate(79.03281548367823 117.45308287701135) rotate(338.8508988012884)"><path class="b-outline" fill="#A5ABB6" stroke="none" d="M 25 0.5 L 120.00651548919686 0.5 L 120.00651548919686 -0.5 L 25 -0.5 Z M 151.06901548919686 0.5 L 246.07553097839372 0.5 L 246.07553097839372 3.5 L 253.07553097839372 0 L 246.07553097839372 -3.5 L 246.07553097839372 -0.5 L 151.06901548919686 -0.5 Z"/><text text-anchor="middle" pointer-events="none" font-size="8px" fill="#000000" x="135.53776548919686" y="3" font-family="Helvetica Neue, Helvetica, Arial, sans-serif">similar</text></g></g><g class="layer nodes"><g class="node" aria-label="graph-node5" transform="translate(1.8722329311014672,63.55775261323523)"><circle class="b-outline" cx="0" cy="0" r="25" fill="#F16667" stroke="#eb2728" stroke-width="2px"/><text class="caption" text-anchor="middle" pointer-events="none" x="0" y="5" font-size="10px" fill="#FFFFFF" font-family="Helvetica Neue, Helvetica, Arial, sans-serif"> 钻石山彩…</text></g><g class="node" aria-label="graph-node8" transform="translate(16.70684029044357,-109.97727366809053)"><circle class="b-outline" cx="0" cy="0" r="25" fill="#569480" stroke="#447666" stroke-width="2px"/><text class="caption" text-anchor="middle" pointer-events="none" x="0" y="5" font-size="10px" fill="#FFFFFF" font-family="Helvetica Neue, Helvetica, Arial, sans-serif"> 啟鑽商場…</text></g><g class="node" aria-label="graph-node9" transform="translate(-91.05665982367546,65.36854330079984)"><circle class="b-outline" cx="0" cy="0" r="25" fill="#DA7194" stroke="#cc3c6c" stroke-width="2px"/><text class="caption" text-anchor="middle" pointer-events="none" x="0" y="5" font-size="10px" fill="#FFFFFF" font-family="Helvetica Neue, Helvetica, Arial, sans-serif"> 啟鑽商場…</text></g><g class="node" aria-label="graph-node11" transform="translate(63.551670811767494,-7.3908264253273686)"><circle class="b-outline" cx="0" cy="0" r="25" fill="#ECB5C9" stroke="#da7298" stroke-width="2px"/><text class="caption" text-anchor="middle" pointer-events="none" x="0" y="5" font-size="10px" fill="#2A2C34" font-family="Helvetica Neue, Helvetica, Arial, sans-serif"> 油炸食物…</text></g><g class="node" aria-label="graph-node12" transform="translate(-240.1185192113859,-199.05174905402106)"><circle class="b-outline" cx="0" cy="0" r="25" fill="#57C7E3" stroke="#23b3d7" stroke-width="2px"/><text class="caption" text-anchor="middle" pointer-events="none" x="0" y="5" font-size="10px" fill="#2A2C34" font-family="Helvetica Neue, Helvetica, Arial, sans-serif"> 香港消…</text></g><g class="node selected" aria-label="graph-node1" transform="translate(173.99561556578274,18.294939631546093)"><circle class="b-outline" cx="0" cy="0" r="25" fill="#F16667" stroke="#eb2728" stroke-width="2px"/><text class="caption" text-anchor="middle" pointer-events="none" x="0" y="5" font-size="10px" fill="#FFFFFF" font-family="Helvetica Neue, Helvetica, Arial, sans-serif"> 鑽石山彩…</text></g><g class="node" aria-label="graph-node0" transform="translate(338.3784809461199,17.12448907265825)"><circle class="b-outline" cx="0" cy="0" r="25" fill="#D9C8AE" stroke="#c0a378" stroke-width="2px"/><text class="caption" text-anchor="middle" pointer-events="none" x="0" y="5" font-size="10px" fill="#2A2C34" font-family="Helvetica Neue, Helvetica, Arial, sans-serif"> 8日中午1…</text></g><g class="node" aria-label="graph-node7" transform="translate(204.06319880131025,-75.0390393371684)"><circle class="b-outline" cx="0" cy="0" r="25" fill="#D9C8AE" stroke="#c0a378" stroke-width="2px"/><text class="caption" text-anchor="middle" pointer-events="none" x="0" y="0" font-size="10px" fill="#2A2C34" font-family="Helvetica Neue, Helvetica, Arial, sans-serif"> 2023 02</text><text class="caption" text-anchor="middle" pointer-events="none" x="0" y="10" font-size="10px" fill="#2A2C34" font-family="Helvetica Neue, Helvetica, Arial, sans-serif">47…</text></g><g class="node" aria-label="graph-node6" transform="translate(206.56313241616974,-173.8038959787457)"><circle class="b-outline" cx="0" cy="0" r="25" fill="#ECB5C9" stroke="#da7298" stroke-width="2px"/><text class="caption" text-anchor="middle" pointer-events="none" x="0" y="5" font-size="10px" fill="#2A2C34" font-family="Helvetica Neue, Helvetica, Arial, sans-serif"> 中式酒樓…</text></g><g class="node" aria-label="graph-node2" transform="translate(-305.65255401401373,-109.00434534778012)"><circle class="b-outline" cx="0" cy="0" r="25" fill="#57C7E3" stroke="#23b3d7" stroke-width="2px"/><text class="caption" text-anchor="middle" pointer-events="none" x="0" y="5" font-size="10px" fill="#2A2C34" font-family="Helvetica Neue, Helvetica, Arial, sans-serif"> 消防</text></g><g class="node" aria-label="graph-node10" transform="translate(-142.11454104120145,-164.2586478554817)"><circle class="b-outline" cx="0" cy="0" r="25" fill="#ECB5C9" stroke="#da7298" stroke-width="2px"/><text class="caption" text-anchor="middle" pointer-events="none" x="0" y="5" font-size="10px" fill="#2A2C34" font-family="Helvetica Neue, Helvetica, Arial, sans-serif"> 救熄冒煙</text></g><g class="node" aria-label="graph-node4" transform="translate(-25.993983069149664,-200.1006954972097)"><circle class="b-outline" cx="0" cy="0" r="25" fill="#ECB5C9" stroke="#da7298" stroke-width="2px"/><text class="caption" text-anchor="middle" pointer-events="none" x="0" y="5" font-size="10px" fill="#2A2C34" font-family="Helvetica Neue, Helvetica, Arial, sans-serif"> 冒煙事件</text></g><g class="node" aria-label="graph-node3" transform="translate(-133.98701383911848,-24.211924710401462)"><circle class="b-outline" cx="0" cy="0" r="25" fill="#ECB5C9" stroke="#da7298" stroke-width="2px"/><text class="caption" text-anchor="middle" pointer-events="none" x="0" y="5" font-size="10px" fill="#2A2C34" font-family="Helvetica Neue, Helvetica, Arial, sans-serif"> 職員</text></g><g class="node" aria-label="graph-node21" transform="translate(-352.87898238113627,42.978376262223655)"><circle class="b-outline" cx="0" cy="0" r="25" fill="#F16667" stroke="#eb2728" stroke-width="2px"/><text class="caption" text-anchor="middle" pointer-events="none" x="0" y="5" font-size="10px" fill="#FFFFFF" font-family="Helvetica Neue, Helvetica, Arial, sans-serif"> 牛頭角彩…</text></g><g class="node" aria-label="graph-node22" transform="translate(-189.6269127691869,58.09714063862235)"><circle class="b-outline" cx="0" cy="0" r="25" fill="#569480" stroke="#447666" stroke-width="2px"/><text class="caption" text-anchor="middle" pointer-events="none" x="0" y="5" font-size="10px" fill="#FFFFFF" font-family="Helvetica Neue, Helvetica, Arial, sans-serif"> 珍惜生命…</text></g><g class="node" aria-label="graph-node17" transform="translate(-293.21999117687284,180.369682115869)"><circle class="b-outline" cx="0" cy="0" r="25" fill="#F16667" stroke="#eb2728" stroke-width="2px"/><text class="caption" text-anchor="middle" pointer-events="none" x="0" y="5" font-size="10px" fill="#FFFFFF" font-family="Helvetica Neue, Helvetica, Arial, sans-serif"> 香港九龙…</text></g><g class="node" aria-label="graph-node14" transform="translate(79.03281548367823,117.45308287701135)"><circle class="b-outline" cx="0" cy="0" r="25" fill="#D9C8AE" stroke="#c0a378" stroke-width="2px"/><text class="caption" text-anchor="middle" pointer-events="none" x="0" y="5" font-size="10px" fill="#2A2C34" font-family="Helvetica Neue, Helvetica, Arial, sans-serif"> 8日中午1…</text></g><g class="node" aria-label="graph-node18" transform="translate(-72.93423844427548,175.73963959716403)"><circle class="b-outline" cx="0" cy="0" r="25" fill="#D9C8AE" stroke="#c0a378" stroke-width="2px"/><text class="caption" text-anchor="middle" pointer-events="none" x="0" y="-5" font-size="10px" fill="#2A2C34" font-family="Helvetica Neue, Helvetica, Arial, sans-serif"> 2023 02</text><text class="caption" text-anchor="middle" pointer-events="none" x="0" y="5" font-size="10px" fill="#2A2C34" font-family="Helvetica Neue, Helvetica, Arial, sans-serif"> 08t12 58</text><text class="caption" text-anchor="middle" pointer-events="none" x="0" y="15" font-size="10px" fill="#2A2C34" font-family="Helvetica Neue, Helvetica, Arial, sans-serif"> 00</text></g></g></svg>