<svg xmlns="http://www.w3.org/2000/svg" width="727.95703125" height="517.4052124023438" viewBox="-357.0963134765625 -230.22894287109375 727.95703125 517.4052124023438"><title>Neo4j Graph Visualization</title><desc>Created using Neo4j (http://www.neo4j.com/)</desc><g class="layer relationships"><g class="relationship" transform="translate(-12.709532698156595 258.17625592703536) rotate(246.30269250517978)"><path class="b-outline" fill="#A5ABB6" stroke="none" d="M 25 0.5 L 93.67712663795054 0.5 L 93.67712663795054 -0.5 L 25 -0.5 Z M 124.88806413795054 0.5 L 193.56519077590107 0.5 L 193.56519077590107 3.5 L 200.56519077590107 0 L 193.56519077590107 -3.5 L 193.56519077590107 -0.5 L 124.88806413795054 -0.5 Z"/><text text-anchor="middle" pointer-events="none" font-size="8px" fill="#000000" x="109.28259538795054" y="3" transform="rotate(180 109.28259538795054 0)" font-family="Helvetica Neue, Helvetica, Arial, sans-serif">source</text></g><g class="relationship" transform="translate(341.86061866733905 -34.924017618751414) rotate(534.3987497785056)"><path class="b-outline" fill="#A5ABB6" stroke="none" d="M 25 0.5 L 43.62034078800909 0.5 L 43.62034078800909 -0.5 L 25 -0.5 Z M 99.46799703800909 0.5 L 118.08833782601818 0.5 L 118.08833782601818 3.5 L 125.08833782601818 0 L 118.08833782601818 -3.5 L 118.08833782601818 -0.5 L 99.46799703800909 -0.5 Z"/><text text-anchor="middle" pointer-events="none" font-size="8px" fill="#000000" x="71.54416891300909" y="3" transform="rotate(180 71.54416891300909 0)" font-family="Helvetica Neue, Helvetica, Arial, sans-serif">OfficialName</text></g><g class="relationship" transform="translate(68.0815050750303 196.04967026307938) rotate(220.10932695727018)"><path class="b-outline" fill="#A5ABB6" stroke="none" d="M 25 0.5 L 92.97811627333064 0.5 L 92.97811627333064 -0.5 L 25 -0.5 Z M 124.18905377333064 0.5 L 192.16717004666128 0.5 L 192.16717004666128 3.5 L 199.16717004666128 0 L 192.16717004666128 -3.5 L 192.16717004666128 -0.5 L 124.18905377333064 -0.5 Z"/><text text-anchor="middle" pointer-events="none" font-size="8px" fill="#000000" x="108.58358502333064" y="3" transform="rotate(180 108.58358502333064 0)" font-family="Helvetica Neue, Helvetica, Arial, sans-serif">source</text></g><g class="relationship" transform="translate(278.04443814370086 -102.41488273094612) rotate(536.1612694081093)"><path class="b-outline" fill="#A5ABB6" stroke="none" d="M 25 0.5 L 42.906230655469656 0.5 L 42.906230655469656 -0.5 L 25 -0.5 Z M 98.75388690546966 0.5 L 116.66011756093931 0.5 L 116.66011756093931 3.5 L 123.66011756093931 0 L 116.66011756093931 -3.5 L 116.66011756093931 -0.5 L 98.75388690546966 -0.5 Z"/><text text-anchor="middle" pointer-events="none" font-size="8px" fill="#000000" x="70.83005878046966" y="3" transform="rotate(180 70.83005878046966 0)" font-family="Helvetica Neue, Helvetica, Arial, sans-serif">OfficialName</text></g><g class="relationship" transform="translate(193.44177177686285 -201.22892276501085) rotate(537.0923859310091)"><path class="b-outline" fill="#A5ABB6" stroke="none" d="M 25 0.5 L 33.683896406200944 0.5 L 33.683896406200944 -0.5 L 25 -0.5 Z M 89.53155265620094 0.5 L 98.21544906240189 0.5 L 98.21544906240189 3.5 L 105.21544906240189 0 L 98.21544906240189 -3.5 L 98.21544906240189 -0.5 L 89.53155265620094 -0.5 Z"/><text text-anchor="middle" pointer-events="none" font-size="8px" fill="#000000" x="61.607724531200944" y="3" transform="rotate(180 61.607724531200944 0)" font-family="Helvetica Neue, Helvetica, Arial, sans-serif">OfficialName</text></g><g class="relationship" transform="translate(39.227883267739976 80.57257890193733) rotate(191.47348607182863)"><path class="b-outline" fill="#A5ABB6" stroke="none" d="M 25 0.5 L 53.644880164427335 0.5 L 53.644880164427335 -0.5 L 25 -0.5 Z M 84.85581766442733 0.5 L 113.50069782885467 0.5 L 113.50069782885467 3.5 L 120.50069782885467 0 L 113.50069782885467 -3.5 L 113.50069782885467 -0.5 L 84.85581766442733 -0.5 Z"/><text text-anchor="middle" pointer-events="none" font-size="8px" fill="#000000" x="69.25034891442733" y="3" transform="rotate(180 69.25034891442733 0)" font-family="Helvetica Neue, Helvetica, Arial, sans-serif">source</text></g><g class="relationship" transform="translate(-12.709532698156595 258.17625592703536) rotate(322.4404833032385)"><path class="b-outline" fill="#A5ABB6" stroke="none" d="M 25 0.5 L 27.76081624316241 0.5 L 27.76081624316241 -0.5 L 25 -0.5 Z M 67.15534749316241 0.5 L 69.91616373632482 0.5 L 69.91616373632482 3.5 L 76.91616373632482 0 L 69.91616373632482 -3.5 L 69.91616373632482 -0.5 L 67.15534749316241 -0.5 Z"/><text text-anchor="middle" pointer-events="none" font-size="8px" fill="#000000" x="47.45808186816241" y="3" font-family="Helvetica Neue, Helvetica, Arial, sans-serif">Official…</text></g><g class="relationship" transform="translate(-22.68811705812098 159.24007789719644) rotate(233.1403712425123)"><path class="b-outline" fill="#A5ABB6" stroke="none" d="M 25 0.5 L 48.141549238239094 0.5 L 48.141549238239094 -0.5 L 25 -0.5 Z M 79.3524867382391 0.5 L 102.49403597647819 0.5 L 102.49403597647819 3.5 L 109.49403597647819 0 L 102.49403597647819 -3.5 L 102.49403597647819 -0.5 L 79.3524867382391 -0.5 Z"/><text text-anchor="middle" pointer-events="none" font-size="8px" fill="#000000" x="63.747017988239094" y="3" transform="rotate(180 63.747017988239094 0)" font-family="Helvetica Neue, Helvetica, Arial, sans-serif">source</text></g><g class="relationship" transform="translate(44.10522407101927 -19.064646355560605) rotate(514.3876713971772)"><path class="b-outline" fill="#A5ABB6" stroke="none" d="M 25 0.5 L 62.664528237950194 0.5 L 62.664528237950194 -0.5 L 25 -0.5 Z M 93.8754657379502 0.5 L 131.5399939759004 0.5 L 131.5399939759004 3.5 L 138.5399939759004 0 L 131.5399939759004 -3.5 L 131.5399939759004 -0.5 L 93.8754657379502 -0.5 Z"/><text text-anchor="middle" pointer-events="none" font-size="8px" fill="#000000" x="78.2699969879502" y="3" transform="rotate(180 78.2699969879502 0)" font-family="Helvetica Neue, Helvetica, Arial, sans-serif">source</text></g><g class="relationship" transform="translate(-16.88684092809211 -96.18627915744477) rotate(480.3292692782703)"><path class="b-outline" fill="#A5ABB6" stroke="none" d="M 25 0.5 L 66.52204276958342 0.5 L 66.52204276958342 -0.5 L 25 -0.5 Z M 97.73298026958342 0.5 L 139.25502303916684 0.5 L 139.25502303916684 3.5 L 146.25502303916684 0 L 139.25502303916684 -3.5 L 139.25502303916684 -0.5 L 97.73298026958342 -0.5 Z"/><text text-anchor="middle" pointer-events="none" font-size="8px" fill="#000000" x="82.12751151958342" y="3" transform="rotate(180 82.12751151958342 0)" font-family="Helvetica Neue, Helvetica, Arial, sans-serif">source</text></g><g class="relationship" transform="translate(-112.58013440542044 -73.72849116860793) rotate(445.7958630141373)"><path class="b-outline" fill="#A5ABB6" stroke="none" d="M 25 0.5 L 43.74308454514025 0.5 L 43.74308454514025 -0.5 L 25 -0.5 Z M 74.95402204514025 0.5 L 93.6971065902805 0.5 L 93.6971065902805 3.5 L 100.6971065902805 0 L 93.6971065902805 -3.5 L 93.6971065902805 -0.5 L 74.95402204514025 -0.5 Z"/><text text-anchor="middle" pointer-events="none" font-size="8px" fill="#000000" x="59.34855329514025" y="3" font-family="Helvetica Neue, Helvetica, Arial, sans-serif">source</text></g><g class="relationship" transform="translate(-183.62138856285358 -142.00077365318612) rotate(427.4869985665864)"><path class="b-outline" fill="#A5ABB6" stroke="none" d="M 25 0.5 L 85.69681409909747 0.5 L 85.69681409909747 -0.5 L 25 -0.5 Z M 116.90775159909747 0.5 L 177.60456569819493 0.5 L 177.60456569819493 3.5 L 184.60456569819493 0 L 177.60456569819493 -3.5 L 177.60456569819493 -0.5 L 116.90775159909747 -0.5 Z"/><text text-anchor="middle" pointer-events="none" font-size="8px" fill="#000000" x="101.30228284909747" y="3" font-family="Helvetica Neue, Helvetica, Arial, sans-serif">source</text></g><g class="relationship" transform="translate(-277.964077582232 -113.25151065902725) rotate(403.3604758179075)"><path class="b-outline" fill="#A5ABB6" stroke="none" d="M 25 0.5 L 100.96824804827345 0.5 L 100.96824804827345 -0.5 L 25 -0.5 Z M 132.17918554827344 0.5 L 208.1474335965469 0.5 L 208.1474335965469 3.5 L 215.1474335965469 0 L 208.1474335965469 -3.5 L 208.1474335965469 -0.5 L 132.17918554827344 -0.5 Z"/><text text-anchor="middle" pointer-events="none" font-size="8px" fill="#000000" x="116.57371679827345" y="3" font-family="Helvetica Neue, Helvetica, Arial, sans-serif">source</text></g><g class="relationship" transform="translate(-183.62138856285358 -142.00077365318612) rotate(494.05443306606)"><path class="b-outline" fill="#A5ABB6" stroke="none" d="M 25 0.5 L 54.20281778067387 0.5 L 54.20281778067387 -0.5 L 25 -0.5 Z M 110.05047403067387 0.5 L 139.25329181134774 0.5 L 139.25329181134774 3.5 L 146.25329181134774 0 L 139.25329181134774 -3.5 L 139.25329181134774 -0.5 L 110.05047403067387 -0.5 Z"/><text text-anchor="middle" pointer-events="none" font-size="8px" fill="#000000" x="82.12664590567387" y="3" transform="rotate(180 82.12664590567387 0)" font-family="Helvetica Neue, Helvetica, Arial, sans-serif">OfficialName</text></g><g class="relationship" transform="translate(-88.48763066708402 -168.86873953926272) rotate(453.86003774183183)"><path class="b-outline" fill="#A5ABB6" stroke="none" d="M 25 0.5 L 91.39476754666309 0.5 L 91.39476754666309 -0.5 L 25 -0.5 Z M 122.60570504666309 0.5 L 189.00047259332618 0.5 L 189.00047259332618 3.5 L 196.00047259332618 0 L 189.00047259332618 -3.5 L 189.00047259332618 -0.5 L 122.60570504666309 -0.5 Z"/><text text-anchor="middle" pointer-events="none" font-size="8px" fill="#000000" x="107.00023629666309" y="3" transform="rotate(180 107.00023629666309 0)" font-family="Helvetica Neue, Helvetica, Arial, sans-serif">source</text></g><g class="relationship" transform="translate(-207.6149802144808 -44.28033610712955) rotate(402.61434633047895)"><path class="b-outline" fill="#A5ABB6" stroke="none" d="M 25 0.5 L 51.72332573199452 0.5 L 51.72332573199452 -0.5 L 25 -0.5 Z M 82.93426323199452 0.5 L 109.65758896398904 0.5 L 109.65758896398904 3.5 L 116.65758896398904 0 L 109.65758896398904 -3.5 L 109.65758896398904 -0.5 L 82.93426323199452 -0.5 Z"/><text text-anchor="middle" pointer-events="none" font-size="8px" fill="#000000" x="67.32879448199452" y="3" font-family="Helvetica Neue, Helvetica, Arial, sans-serif">source</text></g><g class="relationship" transform="translate(-233.2072733022181 51.8181483931602) rotate(359.9171464428989)"><path class="b-outline" fill="#A5ABB6" stroke="none" d="M 25 0.5 L 45.81560903217809 0.5 L 45.81560903217809 -0.5 L 25 -0.5 Z M 77.02654653217809 0.5 L 97.84215556435618 0.5 L 97.84215556435618 3.5 L 104.84215556435618 0 L 97.84215556435618 -3.5 L 97.84215556435618 -0.5 L 77.02654653217809 -0.5 Z"/><text text-anchor="middle" pointer-events="none" font-size="8px" fill="#000000" x="61.42107778217809" y="3" font-family="Helvetica Neue, Helvetica, Arial, sans-serif">source</text></g><g class="relationship" transform="translate(-328.0962925476585 76.65454579849873) rotate(353.6461983881809)"><path class="b-outline" fill="#A5ABB6" stroke="none" d="M 25 0.5 L 93.95452460473501 0.5 L 93.95452460473501 -0.5 L 25 -0.5 Z M 125.16546210473501 0.5 L 194.11998670947003 0.5 L 194.11998670947003 3.5 L 201.11998670947003 0 L 194.11998670947003 -3.5 L 194.11998670947003 -0.5 L 125.16546210473501 -0.5 Z"/><text text-anchor="middle" pointer-events="none" font-size="8px" fill="#000000" x="109.55999335473501" y="3" font-family="Helvetica Neue, Helvetica, Arial, sans-serif">source</text></g><g class="relationship" transform="translate(-277.964077582232 -113.25151065902725) rotate(464.7878359959576)"><path class="b-outline" fill="#A5ABB6" stroke="none" d="M 25 0.5 L 66.78201342298122 0.5 L 66.78201342298122 -0.5 L 25 -0.5 Z M 122.62966967298122 0.5 L 164.41168309596245 0.5 L 164.41168309596245 3.5 L 171.41168309596245 0 L 164.41168309596245 -3.5 L 164.41168309596245 -0.5 L 122.62966967298122 -0.5 Z"/><text text-anchor="middle" pointer-events="none" font-size="8px" fill="#000000" x="94.70584154798122" y="3" transform="rotate(180 94.70584154798122 0)" font-family="Helvetica Neue, Helvetica, Arial, sans-serif">OfficialName</text></g><g class="relationship" transform="translate(-259.37488348158723 147.3106325879792) rotate(328.4793337204027)"><path class="b-outline" fill="#A5ABB6" stroke="none" d="M 25 0.5 L 72.40097072517081 0.5 L 72.40097072517081 -0.5 L 25 -0.5 Z M 103.61190822517081 0.5 L 151.01287895034162 0.5 L 151.01287895034162 3.5 L 158.01287895034162 0 L 151.01287895034162 -3.5 L 151.01287895034162 -0.5 L 103.61190822517081 -0.5 Z"/><text text-anchor="middle" pointer-events="none" font-size="8px" fill="#000000" x="88.00643947517081" y="3" font-family="Helvetica Neue, Helvetica, Arial, sans-serif">source</text></g><g class="relationship" transform="translate(-201.05402505150994 227.76984237813494) rotate(299.0132056780577)"><path class="b-outline" fill="#A5ABB6" stroke="none" d="M 25 0.5 L 81.6022810671217 0.5 L 81.6022810671217 -0.5 L 25 -0.5 Z M 112.8132185671217 0.5 L 169.4154996342434 0.5 L 169.4154996342434 3.5 L 176.4154996342434 0 L 169.4154996342434 -3.5 L 169.4154996342434 -0.5 L 112.8132185671217 -0.5 Z"/><text text-anchor="middle" pointer-events="none" font-size="8px" fill="#000000" x="97.2077498171217" y="3" font-family="Helvetica Neue, Helvetica, Arial, sans-serif">source</text></g><g class="relationship" transform="translate(-302.70090179052363 -18.924539206060718) rotate(379.4914362835379)"><path class="b-outline" fill="#A5ABB6" stroke="none" d="M 25 0.5 L 86.62141811896385 0.5 L 86.62141811896385 -0.5 L 25 -0.5 Z M 117.83235561896385 0.5 L 179.4537737379277 0.5 L 179.4537737379277 3.5 L 186.4537737379277 0 L 179.4537737379277 -3.5 L 179.4537737379277 -0.5 L 117.83235561896385 -0.5 Z"/><text text-anchor="middle" pointer-events="none" font-size="8px" fill="#000000" x="102.22688686896385" y="3" font-family="Helvetica Neue, Helvetica, Arial, sans-serif">source</text></g><g class="relationship" transform="translate(-102.06142930794057 217.8864849185459) rotate(269.5506805878711)"><path class="b-outline" fill="#A5ABB6" stroke="none" d="M 25 0.5 L 64.02513592611264 0.5 L 64.02513592611264 -0.5 L 25 -0.5 Z M 95.23607342611264 0.5 L 134.26120935222528 0.5 L 134.26120935222528 3.5 L 141.26120935222528 0 L 134.26120935222528 -3.5 L 134.26120935222528 -0.5 L 95.23607342611264 -0.5 Z"/><text text-anchor="middle" pointer-events="none" font-size="8px" fill="#000000" x="79.63060467611264" y="3" transform="rotate(180 79.63060467611264 0)" font-family="Helvetica Neue, Helvetica, Arial, sans-serif">source</text></g><g class="relationship" transform="translate(-161.78615179573586 139.42996762383132) rotate(303.6393680730239)"><path class="b-outline" fill="#A5ABB6" stroke="none" d="M 25 0.5 L 33.62442682261149 0.5 L 33.62442682261149 -0.5 L 25 -0.5 Z M 64.8353643226115 0.5 L 73.45979114522298 0.5 L 73.45979114522298 3.5 L 80.45979114522298 0 L 73.45979114522298 -3.5 L 73.45979114522298 -0.5 L 64.8353643226115 -0.5 Z"/><text text-anchor="middle" pointer-events="none" font-size="8px" fill="#000000" x="49.22989557261149" y="3" font-family="Helvetica Neue, Helvetica, Arial, sans-serif">source</text></g><g class="relationship" transform="translate(138.4742425786075 127.08733401291772) rotate(197.32857450179216)"><path class="b-outline" fill="#A5ABB6" stroke="none" d="M 25 0.5 L 107.56348223012283 0.5 L 107.56348223012283 -0.5 L 25 -0.5 Z M 138.77441973012282 0.5 L 221.33790196024566 0.5 L 221.33790196024566 3.5 L 228.33790196024566 0 L 221.33790196024566 -3.5 L 221.33790196024566 -0.5 L 138.77441973012282 -0.5 Z"/><text text-anchor="middle" pointer-events="none" font-size="8px" fill="#000000" x="123.16895098012283" y="3" transform="rotate(180 123.16895098012283 0)" font-family="Helvetica Neue, Helvetica, Arial, sans-serif">source</text></g><g class="relationship" transform="translate(39.227883267739976 80.57257890193733) rotate(385.1115330743596)"><path class="b-outline" fill="#A5ABB6" stroke="none" d="M 25 0.5 L 26.1428141975412 0.5 L 26.1428141975412 -0.5 L 25 -0.5 Z M 76.4631266975412 0.5 L 77.6059408950824 0.5 L 77.6059408950824 3.5 L 84.6059408950824 0 L 77.6059408950824 -3.5 L 77.6059408950824 -0.5 L 76.4631266975412 -0.5 Z"/><text text-anchor="middle" pointer-events="none" font-size="8px" fill="#000000" x="51.3029704475412" y="3" font-family="Helvetica Neue, Helvetica, Arial, sans-serif">OfficialNa…</text></g></g><g class="layer nodes"><g class="node" aria-label="graph-node61" transform="translate(-12.709532698156595,258.17625592703536)"><circle class="b-outline" cx="0" cy="0" r="25" fill="#F16667" stroke="#eb2728" stroke-width="2px"/><text class="caption" text-anchor="middle" pointer-events="none" x="0" y="5" font-size="10px" fill="#FFFFFF" font-family="Helvetica Neue, Helvetica, Arial, sans-serif"> 奥巴马</text></g><g class="node" aria-label="graph-node80" transform="translate(-103.36525349500738,51.63038795439332)"><circle class="b-outline" cx="0" cy="0" r="25" fill="#D9C8AE" stroke="#c0a378" stroke-width="2px"/><text class="caption" text-anchor="middle" pointer-events="none" x="0" y="5" font-size="10px" fill="#2A2C34" font-family="Helvetica Neue, Helvetica, Arial, sans-serif"> 特朗普计…</text></g><g class="node" aria-label="graph-node0" transform="translate(341.86061866733905,-34.924017618751414)"><circle class="b-outline" cx="0" cy="0" r="25" fill="#C990C0" stroke="#b261a5" stroke-width="2px"/><text class="caption" text-anchor="middle" pointer-events="none" x="0" y="5" font-size="10px" fill="#FFFFFF" font-family="Helvetica Neue, Helvetica, Arial, sans-serif"> 关塔那…</text></g><g class="node" aria-label="graph-node2" transform="translate(192.48891206469318,-20.274703027616397)"><circle class="b-outline" cx="0" cy="0" r="25" fill="#C990C0" stroke="#b261a5" stroke-width="2px"/><text class="caption" text-anchor="middle" pointer-events="none" x="0" y="5" font-size="10px" fill="#FFFFFF" font-family="Helvetica Neue, Helvetica, Arial, sans-serif"> guantan…</text></g><g class="node" aria-label="graph-node75" transform="translate(68.0815050750303,196.04967026307938)"><circle class="b-outline" cx="0" cy="0" r="25" fill="#F16667" stroke="#eb2728" stroke-width="2px"/><text class="caption" text-anchor="middle" pointer-events="none" x="0" y="0" font-size="10px" fill="#FFFFFF" font-family="Helvetica Neue, Helvetica, Arial, sans-serif"> barack</text><text class="caption" text-anchor="middle" pointer-events="none" x="0" y="10" font-size="10px" fill="#FFFFFF" font-family="Helvetica Neue, Helvetica, Arial, sans-serif"> obama</text></g><g class="node" aria-label="graph-node6" transform="translate(278.04443814370086,-102.41488273094612)"><circle class="b-outline" cx="0" cy="0" r="25" fill="#C990C0" stroke="#b261a5" stroke-width="2px"/><text class="caption" text-anchor="middle" pointer-events="none" x="0" y="5" font-size="10px" fill="#FFFFFF" font-family="Helvetica Neue, Helvetica, Arial, sans-serif"> 古巴</text></g><g class="node" aria-label="graph-node7" transform="translate(129.71784836663056,-92.46232937328946)"><circle class="b-outline" cx="0" cy="0" r="25" fill="#C990C0" stroke="#b261a5" stroke-width="2px"/><text class="caption" text-anchor="middle" pointer-events="none" x="0" y="5" font-size="10px" fill="#FFFFFF" font-family="Helvetica Neue, Helvetica, Arial, sans-serif"> cuba</text></g><g class="node" aria-label="graph-node4" transform="translate(193.44177177686285,-201.22892276501085)"><circle class="b-outline" cx="0" cy="0" r="25" fill="#C990C0" stroke="#b261a5" stroke-width="2px"/><text class="caption" text-anchor="middle" pointer-events="none" x="0" y="5" font-size="10px" fill="#FFFFFF" font-family="Helvetica Neue, Helvetica, Arial, sans-serif"> 关塔那摩…</text></g><g class="node" aria-label="graph-node10" transform="translate(63.39395882289182,-194.62365816683263)"><circle class="b-outline" cx="0" cy="0" r="25" fill="#C990C0" stroke="#b261a5" stroke-width="2px"/><text class="caption" text-anchor="middle" pointer-events="none" x="0" y="5" font-size="10px" fill="#FFFFFF" font-family="Helvetica Neue, Helvetica, Arial, sans-serif"> guantan…</text></g><g class="node" aria-label="graph-node60" transform="translate(39.227883267739976,80.57257890193733)"><circle class="b-outline" cx="0" cy="0" r="25" fill="#F16667" stroke="#eb2728" stroke-width="2px"/><text class="caption" text-anchor="middle" pointer-events="none" x="0" y="5" font-size="10px" fill="#FFFFFF" font-family="Helvetica Neue, Helvetica, Arial, sans-serif"> 汤姆 霍曼</text></g><g class="node" aria-label="graph-node12" transform="translate(-22.68811705812098,159.24007789719644)"><circle class="b-outline" cx="0" cy="0" r="25" fill="#C990C0" stroke="#b261a5" stroke-width="2px"/><text class="caption" text-anchor="middle" pointer-events="none" x="0" y="5" font-size="10px" fill="#FFFFFF" font-family="Helvetica Neue, Helvetica, Arial, sans-serif"> guantan…</text></g><g class="node" aria-label="graph-node69" transform="translate(44.10522407101927,-19.064646355560605)"><circle class="b-outline" cx="0" cy="0" r="25" fill="#F16667" stroke="#eb2728" stroke-width="2px"/><text class="caption" text-anchor="middle" pointer-events="none" x="0" y="5" font-size="10px" fill="#FFFFFF" font-family="Helvetica Neue, Helvetica, Arial, sans-serif"> 哈立德·…</text></g><g class="node" aria-label="graph-node76" transform="translate(-16.88684092809211,-96.18627915744477)"><circle class="b-outline" cx="0" cy="0" r="25" fill="#F16667" stroke="#eb2728" stroke-width="2px"/><text class="caption" text-anchor="middle" pointer-events="none" x="0" y="5" font-size="10px" fill="#FFFFFF" font-family="Helvetica Neue, Helvetica, Arial, sans-serif"> 汤姆·霍曼</text></g><g class="node" aria-label="graph-node77" transform="translate(-112.58013440542044,-73.72849116860793)"><circle class="b-outline" cx="0" cy="0" r="25" fill="#F16667" stroke="#eb2728" stroke-width="2px"/><text class="caption" text-anchor="middle" pointer-events="none" x="0" y="5" font-size="10px" fill="#FFFFFF" font-family="Helvetica Neue, Helvetica, Arial, sans-serif"> 唐纳德·…</text></g><g class="node" aria-label="graph-node66" transform="translate(-183.62138856285358,-142.00077365318612)"><circle class="b-outline" cx="0" cy="0" r="25" fill="#F16667" stroke="#eb2728" stroke-width="2px"/><text class="caption" text-anchor="middle" pointer-events="none" x="0" y="0" font-size="10px" fill="#FFFFFF" font-family="Helvetica Neue, Helvetica, Arial, sans-serif"> 乔治 w</text><text class="caption" text-anchor="middle" pointer-events="none" x="0" y="10" font-size="10px" fill="#FFFFFF" font-family="Helvetica Neue, Helvetica, Arial, sans-serif"> 布什</text></g><g class="node" aria-label="graph-node64" transform="translate(-277.964077582232,-113.25151065902725)"><circle class="b-outline" cx="0" cy="0" r="25" fill="#F16667" stroke="#eb2728" stroke-width="2px"/><text class="caption" text-anchor="middle" pointer-events="none" x="0" y="0" font-size="10px" fill="#FFFFFF" font-family="Helvetica Neue, Helvetica, Arial, sans-serif"> 唐纳德</text><text class="caption" text-anchor="middle" pointer-events="none" x="0" y="10" font-size="10px" fill="#FFFFFF" font-family="Helvetica Neue, Helvetica, Arial, sans-serif"> 特朗普</text></g><g class="node" aria-label="graph-node63" transform="translate(-302.70090179052363,-18.924539206060718)"><circle class="b-outline" cx="0" cy="0" r="25" fill="#F16667" stroke="#eb2728" stroke-width="2px"/><text class="caption" text-anchor="middle" pointer-events="none" x="0" y="0" font-size="10px" fill="#FFFFFF" font-family="Helvetica Neue, Helvetica, Arial, sans-serif"> george w</text><text class="caption" text-anchor="middle" pointer-events="none" x="0" y="10" font-size="10px" fill="#FFFFFF" font-family="Helvetica Neue, Helvetica, Arial, sans-serif">  bush</text></g><g class="node" aria-label="graph-node1" transform="translate(-88.48763066708402,-168.86873953926272)"><circle class="b-outline" cx="0" cy="0" r="25" fill="#C990C0" stroke="#b261a5" stroke-width="2px"/><text class="caption" text-anchor="middle" pointer-events="none" x="0" y="5" font-size="10px" fill="#FFFFFF" font-family="Helvetica Neue, Helvetica, Arial, sans-serif"> 古巴</text></g><g class="node" aria-label="graph-node72" transform="translate(-207.6149802144808,-44.28033610712955)"><circle class="b-outline" cx="0" cy="0" r="25" fill="#F16667" stroke="#eb2728" stroke-width="2px"/><text class="caption" text-anchor="middle" pointer-events="none" x="0" y="-5" font-size="10px" fill="#FFFFFF" font-family="Helvetica Neue, Helvetica, Arial, sans-serif"> 哈立德</text><text class="caption" text-anchor="middle" pointer-events="none" x="0" y="5" font-size="10px" fill="#FFFFFF" font-family="Helvetica Neue, Helvetica, Arial, sans-serif"> 谢赫</text><text class="caption" text-anchor="middle" pointer-events="none" x="0" y="15" font-size="10px" fill="#FFFFFF" font-family="Helvetica Neue, Helvetica, Arial, sans-serif"> 穆罕…</text></g><g class="node" aria-label="graph-node11" transform="translate(-233.2072733022181,51.8181483931602)"><circle class="b-outline" cx="0" cy="0" r="25" fill="#C990C0" stroke="#b261a5" stroke-width="2px"/><text class="caption" text-anchor="middle" pointer-events="none" x="0" y="5" font-size="10px" fill="#FFFFFF" font-family="Helvetica Neue, Helvetica, Arial, sans-serif"> 关塔那摩…</text></g><g class="node" aria-label="graph-node62" transform="translate(-328.0962925476585,76.65454579849873)"><circle class="b-outline" cx="0" cy="0" r="25" fill="#F16667" stroke="#eb2728" stroke-width="2px"/><text class="caption" text-anchor="middle" pointer-events="none" x="0" y="0" font-size="10px" fill="#FFFFFF" font-family="Helvetica Neue, Helvetica, Arial, sans-serif"> donald</text><text class="caption" text-anchor="middle" pointer-events="none" x="0" y="10" font-size="10px" fill="#FFFFFF" font-family="Helvetica Neue, Helvetica, Arial, sans-serif"> trump</text></g><g class="node" aria-label="graph-node3" transform="translate(-259.37488348158723,147.3106325879792)"><circle class="b-outline" cx="0" cy="0" r="25" fill="#C990C0" stroke="#b261a5" stroke-width="2px"/><text class="caption" text-anchor="middle" pointer-events="none" x="0" y="5" font-size="10px" fill="#FFFFFF" font-family="Helvetica Neue, Helvetica, Arial, sans-serif"> cuba</text></g><g class="node" aria-label="graph-node5" transform="translate(-201.05402505150994,227.76984237813494)"><circle class="b-outline" cx="0" cy="0" r="25" fill="#C990C0" stroke="#b261a5" stroke-width="2px"/><text class="caption" text-anchor="middle" pointer-events="none" x="0" y="5" font-size="10px" fill="#FFFFFF" font-family="Helvetica Neue, Helvetica, Arial, sans-serif"> 关塔那摩…</text></g><g class="node" aria-label="graph-node82" transform="translate(-102.06142930794057,217.8864849185459)"><circle class="b-outline" cx="0" cy="0" r="25" fill="#C990C0" stroke="#b261a5" stroke-width="2px"/><text class="caption" text-anchor="middle" pointer-events="none" x="0" y="5" font-size="10px" fill="#FFFFFF" font-family="Helvetica Neue, Helvetica, Arial, sans-serif"> 关塔那…</text></g><g class="node" aria-label="graph-node8" transform="translate(-161.78615179573586,139.42996762383132)"><circle class="b-outline" cx="0" cy="0" r="25" fill="#C990C0" stroke="#b261a5" stroke-width="2px"/><text class="caption" text-anchor="middle" pointer-events="none" x="0" y="5" font-size="10px" fill="#FFFFFF" font-family="Helvetica Neue, Helvetica, Arial, sans-serif"> 关塔那…</text></g><g class="node" aria-label="graph-node70" transform="translate(138.4742425786075,127.08733401291772)"><circle class="b-outline" cx="0" cy="0" r="25" fill="#F16667" stroke="#eb2728" stroke-width="2px"/><text class="caption" text-anchor="middle" pointer-events="none" x="0" y="0" font-size="10px" fill="#FFFFFF" font-family="Helvetica Neue, Helvetica, Arial, sans-serif"> tom</text><text class="caption" text-anchor="middle" pointer-events="none" x="0" y="10" font-size="10px" fill="#FFFFFF" font-family="Helvetica Neue, Helvetica, Arial, sans-serif"> homan</text></g></g></svg>